<svg version="1.0" xmlns="http://www.w3.org/2000/svg"
 width="300.000000pt" height="150.000000pt" viewBox="0 0 300.000000 150.000000"
 preserveAspectRatio="xMidYMid meet">
<g transform="translate(0.000000,150.000000) scale(0.100000,-0.100000)"
fill="#000000" stroke="none">
<path d="M395 1251 c-116 -29 -188 -111 -226 -261 -19 -76 -19 -404 0 -480 32
-126 79 -193 165 -237 75 -38 225 -45 325 -14 75 23 143 56 199 98 77 58 162
67 291 33 124 -33 185 -25 238 32 35 37 63 112 70 183 l6 65 46 0 c25 1 244 5
486 10 374 7 444 6 469 -6 16 -8 34 -14 41 -14 6 0 11 -10 11 -22 -1 -17 5
-24 23 -26 32 -5 48 12 31 33 -11 13 -8 15 17 15 26 0 30 -3 26 -24 -5 -25 16
-40 42 -30 16 7 21 44 5 44 -5 0 -7 -7 -4 -15 4 -10 0 -15 -15 -15 -12 0 -21
4 -21 10 0 15 35 30 69 30 29 0 30 -2 19 -20 -11 -17 -10 -22 2 -30 26 -17 55
-7 54 18 0 18 5 22 28 22 24 0 32 6 44 35 18 44 18 86 0 130 -12 29 -20 35
-44 35 -23 0 -28 4 -28 23 1 24 -28 34 -54 17 -12 -8 -13 -13 -3 -29 12 -19 9
-19 -68 -19 -69 0 -78 2 -68 14 16 20 -1 37 -32 32 -18 -2 -24 -9 -23 -25 0
-13 -5 -23 -11 -23 -7 0 -25 -6 -41 -14 -25 -12 -94 -13 -464 -6 -239 5 -458
9 -486 10 l-51 0 -6 65 c-7 71 -35 146 -70 183 -53 57 -114 65 -238 32 -129
-34 -214 -25 -291 33 -104 78 -223 117 -347 116 -47 -1 -99 -4 -116 -8z m274
-26 c49 -16 110 -46 161 -80 124 -81 173 -88 335 -44 87 24 119 24 172 0 32
-15 48 -31 66 -68 25 -49 47 -133 47 -178 l0 -25 -123 0 -123 0 -23 31 c-64
87 -208 86 -273 -1 -22 -30 -23 -30 -120 -30 l-98 0 0 70 0 70 -44 0 -44 0 -8
-77 c-10 -103 -10 -191 0 -286 l8 -77 44 0 44 0 0 70 0 70 98 0 c97 0 98 0
120 -30 63 -84 188 -89 264 -9 l37 39 121 0 120 0 0 -27 c0 -50 -26 -140 -53
-186 -19 -32 -38 -49 -67 -61 -52 -21 -80 -20 -165 3 -161 43 -212 37 -332
-43 -236 -156 -504 -139 -608 38 -44 76 -59 163 -59 356 0 251 29 351 124 433
82 70 236 87 379 42z m11 -332 c0 -51 -3 -64 -11 -53 -7 11 -12 12 -15 3 -3
-7 -11 -10 -19 -7 -7 3 -16 0 -21 -7 -5 -8 -3 -10 6 -4 9 6 11 4 5 -5 -12 -19
-13 -111 -2 -134 7 -14 6 -16 -4 -11 -8 6 -10 4 -5 -4 5 -7 14 -10 21 -7 8 3
16 0 19 -7 3 -9 8 -8 15 3 8 11 11 -2 11 -53 l0 -68 -32 3 c-31 3 -33 5 -41
58 -10 62 -4 331 7 349 4 6 20 11 37 11 l29 0 0 -67z m420 12 c28 -8 92 -64
85 -75 -8 -13 -245 -12 -245 0 0 6 15 19 33 30 45 28 105 26 151 -5 20 -13 36
-20 36 -15 0 13 -41 39 -81 50 -50 15 -101 -3 -144 -51 -40 -44 -61 -46 -29
-2 28 38 66 64 105 73 34 8 43 7 89 -5z m1656 -26 c9 -16 -18 -30 -33 -17 -7
6 -10 14 -7 19 7 13 31 11 40 -2z m-196 -12 c0 -19 -10 -27 -26 -20 -21 8 -17
33 6 33 11 0 20 -6 20 -13z m234 -31 c15 -1 25 -12 36 -43 13 -38 13 -48 0
-85 -14 -40 -31 -50 -75 -48 -5 1 -68 4 -140 9 -71 4 -141 12 -155 18 -24 11
-23 12 15 12 23 1 46 -4 52 -10 17 -17 47 -3 38 19 -5 14 -4 15 6 5 7 -7 21
-13 31 -13 10 0 18 -4 18 -10 0 -5 9 -10 20 -10 11 0 20 5 20 10 0 16 52 11
65 -7 14 -19 38 -9 33 14 -4 23 -197 35 -293 19 -60 -10 -56 1 6 14 l44 9 -42
-3 c-36 -3 -43 -1 -43 14 0 15 7 17 43 14 l42 -3 -44 9 c-62 13 -66 24 -6 14
94 -16 289 -3 293 19 5 23 -19 33 -33 14 -13 -18 -65 -23 -65 -7 0 6 -9 10
-20 10 -11 0 -20 -4 -20 -10 0 -5 -8 -10 -18 -10 -10 0 -24 -6 -31 -12 -10
-11 -11 -10 -6 4 9 22 -21 36 -38 19 -6 -6 -29 -11 -52 -11 l-40 1 34 14 c22
10 70 15 140 16 58 0 115 4 126 8 11 5 24 6 29 3 5 -3 18 -5 30 -6z m-1914
-26 c0 -6 -38 -10 -95 -10 -57 0 -95 4 -95 10 0 6 38 10 95 10 57 0 95 -4 95
-10z m677 -5 c0 -8 -9 -15 -19 -15 -10 0 -18 7 -18 15 0 8 8 15 18 15 10 0 19
-7 19 -15z m-384 -15 c5 -19 0 -20 -130 -20 -98 0 -132 3 -127 11 5 9 41 10
127 5 66 -3 117 -3 113 1 -4 5 -60 11 -124 14 l-117 5 126 2 c119 2 127 1 132
-18z m57 10 c0 -5 -8 -10 -17 -11 -15 0 -15 -2 2 -9 19 -8 19 -9 -2 -9 -17 -1
-23 5 -23 19 0 13 7 20 20 20 11 0 20 -4 20 -10z m919 -39 c2 -43 -1 -49 -21
-55 -44 -11 -48 -8 -48 43 0 46 2 50 28 54 15 2 30 5 33 6 3 0 6 -21 8 -48z
m-1499 18 c0 -5 -6 -9 -12 -9 -9 0 -8 -4 2 -10 13 -9 13 -11 0 -20 -10 -6 -11
-10 -2 -10 6 0 12 -4 12 -9 0 -5 -6 -11 -12 -14 -9 -3 -13 9 -13 43 0 34 4 46
13 43 6 -3 12 -9 12 -14z m1058 14 c-15 -2 -42 -2 -60 0 -18 2 -6 4 27 4 33 0
48 -2 33 -4z m120 0 c-15 -2 -42 -2 -60 0 -18 2 -6 4 27 4 33 0 48 -2 33 -4z
m242 -43 c0 -49 -1 -50 -30 -50 -29 0 -30 1 -30 50 0 49 1 50 30 50 29 0 30
-1 30 -50z m-1200 30 c0 -6 -37 -10 -90 -10 -53 0 -90 4 -90 10 0 6 37 10 90
10 53 0 90 -4 90 -10z m1345 0 l-30 -8 28 -1 c20 -1 27 -6 27 -21 0 -16 -7
-20 -32 -21 l-33 -2 35 -7 35 -7 -40 -2 -40 -1 0 40 0 40 40 -1 c39 -1 39 -2
10 -9z m120 0 c-44 -3 -62 -7 -40 -8 33 -2 41 -6 41 -22 0 -17 -7 -20 -43 -20
-41 0 -43 1 -43 30 l0 30 83 -2 82 -2 -80 -6z m-627 -7 c-15 -2 -42 -2 -60 0
-18 2 -6 4 27 4 33 0 48 -2 33 -4z m142 -23 l0 -30 -57 2 -58 1 55 7 c30 4 45
7 33 8 -13 1 -23 7 -23 12 0 6 10 11 23 12 12 1 -3 4 -33 8 l-55 7 58 1 57 2
0 -30z m70 0 c0 -27 -3 -30 -30 -30 -27 0 -30 3 -30 30 0 27 3 30 30 30 27 0
30 -3 30 -30z m75 -10 c0 -39 0 -40 -35 -39 l-35 1 30 8 30 8 -27 1 c-24 1
-28 5 -28 31 0 27 3 30 33 30 31 0 32 -2 32 -40z m415 10 c0 -16 -7 -20 -30
-20 -23 0 -30 4 -30 20 0 16 7 20 30 20 23 0 30 -4 30 -20z m-1540 0 c0 -6
-37 -10 -90 -10 -53 0 -90 4 -90 10 0 6 37 10 90 10 53 0 90 -4 90 -10z m310
0 c0 -6 -52 -10 -135 -10 -83 0 -135 4 -135 10 0 6 52 10 135 10 83 0 135 -4
135 -10z m-310 -30 c0 -6 -37 -10 -90 -10 -53 0 -90 4 -90 10 0 6 37 10 90 10
53 0 90 -4 90 -10z m185 -1 c-79 -5 -134 -4 -139 2 -6 5 43 8 130 8 l139 -2
-130 -8z m653 4 c-15 -2 -42 -2 -60 0 -18 2 -6 4 27 4 33 0 48 -2 33 -4z m665
-10 c-24 -2 -62 -2 -85 0 -24 2 -5 4 42 4 47 0 66 -2 43 -4z m-1203 -13 c0 -6
-48 -9 -127 -8 -116 1 -121 2 -53 8 124 11 180 11 180 0z m387 -5 c0 -8 -9
-15 -19 -15 -10 0 -18 7 -18 15 0 8 8 15 18 15 10 0 19 -7 19 -15z m241 8
c-32 -2 -86 -2 -120 0 -35 2 -9 3 57 3 66 0 94 -1 63 -3z m-918 -13 c0 -6 -38
-10 -95 -10 -57 0 -95 4 -95 10 0 6 38 10 95 10 57 0 95 -4 95 -10z m56 -30
c41 -45 94 -64 141 -51 36 10 83 40 83 52 0 5 -16 -3 -36 -16 -46 -31 -106
-33 -151 -5 -18 11 -33 24 -33 30 0 12 237 13 245 0 6 -10 -56 -67 -84 -75
-38 -12 -97 -8 -129 9 -42 22 -102 96 -77 96 3 0 21 -18 41 -40z m1624 -26 c0
-8 -9 -14 -20 -14 -22 0 -28 26 -7 33 16 6 27 -1 27 -19z m200 -4 c0 -14 -20
-22 -37 -16 -12 5 -13 9 -3 21 11 14 40 10 40 -5z"/>
<path d="M2623 893 c-15 -6 -18 -43 -3 -43 5 0 7 7 4 15 -4 11 0 15 16 15 16
0 20 -4 16 -15 -3 -8 -1 -15 4 -15 16 0 11 37 -6 44 -9 3 -16 6 -17 5 -1 0 -8
-3 -14 -6z"/>
</g>
</svg>
