<?xml version="1.0" standalone="no"?>
<!DOCTYPE svg PUBLIC "-//W3C//DTD SVG 20010904//EN"
 "http://www.w3.org/TR/2001/REC-SVG-20010904/DTD/svg10.dtd">
<svg version="1.0" xmlns="http://www.w3.org/2000/svg"
 width="300.000000pt" height="388.000000pt" viewBox="0 0 300.000000 388.000000"
 preserveAspectRatio="xMidYMid meet">
<metadata>
Created by potrace 1.10, written by Peter Selinger 2001-2011
</metadata>
<g transform="translate(0.000000,388.000000) scale(0.100000,-0.100000)"
fill="#000000" stroke="none">
<path d="M1193 3790 c-70 -42 -72 -122 -3 -196 38 -42 42 -50 36 -83 -19 -110
-28 -221 -22 -254 6 -30 14 -41 46 -57 30 -15 42 -29 50 -57 6 -21 42 -290 81
-598 38 -308 90 -717 114 -910 25 -192 45 -355 45 -362 0 -13 -54 -28 -85 -24
-45 7 -73 31 -95 83 -28 67 -47 88 -77 88 -58 0 -83 -42 -83 -139 0 -74 12
-116 68 -236 41 -88 46 -108 45 -165 -1 -41 -13 -103 -32 -168 -17 -56 -37
-137 -43 -178 -28 -179 47 -343 185 -405 46 -21 67 -24 182 -24 72 0 142 4
158 8 20 6 27 4 27 -7 0 -8 4 -17 9 -20 16 -10 42 6 39 23 -3 13 15 19 87 34
169 34 271 100 327 214 29 59 32 74 32 157 0 107 -14 151 -99 296 -92 158
-126 229 -132 279 -3 26 3 114 12 196 26 222 9 348 -61 454 -29 44 -77 77 -95
65 -7 -4 -9 1 -4 14 6 20 4 21 -24 11 -31 -11 -39 -23 -22 -33 5 -4 4 -18 -4
-34 -7 -15 -16 -69 -19 -120 -8 -113 -26 -156 -75 -176 -32 -13 -33 -15 -11
-15 62 -2 94 57 109 207 11 101 13 107 41 122 15 8 26 4 53 -20 93 -81 118
-238 83 -518 -22 -175 -15 -205 96 -389 115 -192 144 -293 119 -414 -35 -166
-161 -246 -461 -291 -242 -36 -365 -16 -445 74 -62 67 -79 119 -79 233 0 86 5
118 38 235 52 182 52 231 2 336 -58 120 -76 180 -76 250 0 71 14 110 41 117
22 6 29 -2 63 -75 22 -46 35 -60 70 -77 51 -25 65 -26 110 -4 32 15 36 21 42
72 4 31 9 50 12 42 3 -8 -1 -45 -8 -84 -11 -57 -11 -75 -1 -101 11 -26 59
-344 61 -398 0 -11 -10 -20 -26 -24 -23 -6 -25 -10 -20 -37 3 -16 6 -36 6 -43
0 -9 11 -14 31 -14 l31 0 -6 73 c-4 61 -4 67 6 37 5 -19 10 -51 9 -71 0 -32 2
-36 19 -32 15 4 20 0 20 -15 0 -26 -20 -40 -21 -15 -1 10 -5 0 -11 -22 -6 -27
-6 -73 2 -144 10 -80 10 -105 0 -111 -9 -5 -9 -26 1 -91 6 -46 13 -85 14 -87
2 -2 203 25 241 33 19 4 21 9 13 52 -5 27 -11 65 -14 86 -4 27 -11 37 -24 37
-15 0 -21 16 -35 108 -9 59 -16 114 -16 122 0 9 19 21 48 30 95 30 107 128 33
288 -75 163 -92 225 -98 354 -5 105 -8 118 -25 124 -12 3 -27 -1 -39 -12 -22
-20 -17 -33 5 -14 32 26 40 7 42 -101 1 -119 19 -184 92 -344 67 -147 68 -241
2 -271 -63 -30 -67 -28 -75 23 -3 26 -9 58 -12 71 -4 19 -1 22 26 22 l31 0 -7
48 c-3 26 -7 48 -8 50 -1 1 -15 -1 -32 -4 l-30 -6 3 -120 c2 -98 0 -119 -11
-114 -9 3 -15 -4 -17 -22 -2 -15 -3 15 -3 66 -1 61 3 92 10 92 17 0 11 193
-10 315 -9 54 -14 108 -11 120 3 11 -3 72 -14 135 -10 63 -71 448 -135 855
-63 407 -121 778 -129 825 -7 47 -11 90 -9 97 3 7 20 24 39 38 36 27 42 53 24
99 l-9 25 44 -21 c40 -19 47 -20 59 -8 8 8 18 31 21 51 6 33 4 39 -25 59 -26
19 -36 21 -56 11 -13 -6 -24 -17 -24 -25 0 -7 -6 -19 -14 -25 -11 -9 -17 -2
-31 35 -9 25 -15 48 -12 51 3 2 21 -1 40 -8 41 -15 67 -7 67 20 0 11 4 22 9
25 15 10 0 44 -26 61 -33 22 -71 12 -79 -19 -11 -43 -31 -38 -48 11 -9 26 -14
48 -12 51 3 2 21 -2 40 -9 44 -16 61 -3 71 53 6 32 4 38 -18 53 -34 22 -69 16
-83 -13 -23 -46 -30 -44 -52 13 -12 31 -22 59 -22 61 0 3 18 -6 40 -18 46 -27
69 -19 82 28 10 39 3 56 -32 77 -23 14 -34 15 -50 7 -11 -6 -20 -17 -20 -24 0
-8 -6 -19 -14 -25 -11 -9 -21 -4 -49 24 -41 41 -84 46 -134 15z m116 -21 c28
-27 41 -56 129 -305 94 -263 93 -257 51 -300 -39 -40 -49 -42 -49 -11 0 14 9
26 23 32 28 13 35 54 11 72 -28 20 -52 15 -68 -14 l-15 -28 -1 37 c0 20 -3 43
-6 52 -4 11 0 16 15 16 25 0 44 33 36 60 -9 29 -51 37 -75 15 -20 -18 -20 -17
-20 23 0 32 4 42 19 47 25 8 35 38 21 65 -13 24 -47 26 -72 3 -17 -15 -18 -15
-18 15 0 17 -2 36 -5 44 -3 7 5 17 17 23 44 19 31 85 -16 85 -42 0 -61 -46
-33 -79 21 -24 48 -239 34 -262 -9 -15 -9 -24 1 -39 15 -24 47 -199 38 -207
-3 -4 -6 1 -6 11 0 31 -29 73 -66 95 l-36 22 5 87 c4 48 9 122 13 164 l7 78
-42 40 c-36 35 -41 46 -41 84 0 37 5 48 31 70 38 32 86 34 118 5z m150 4 c17
-15 20 -24 15 -50 -7 -36 -19 -40 -59 -21 -19 9 -22 14 -13 21 9 6 6 7 -9 4
-21 -5 -21 -4 5 29 31 39 33 40 61 17z m64 -179 c-4 -47 -10 -56 -32 -44 -11
5 -32 10 -48 10 l-28 1 30 15 c24 11 25 13 7 10 -22 -4 -23 -3 -8 13 9 10 16
22 16 28 0 18 23 22 45 8 13 -9 19 -22 18 -41z m46 -111 c17 -15 20 -23 13
-48 -9 -32 -19 -34 -82 -17 -33 9 -33 10 -7 11 15 1 27 6 27 12 0 6 -10 8 -22
5 -13 -3 -17 -3 -10 0 7 3 17 17 22 30 11 28 30 31 59 7z m-244 -66 c4 -28 12
-58 18 -65 7 -9 6 -18 -6 -30 -16 -15 -18 -15 -34 3 -13 14 -14 16 -2 7 15
-12 29 -7 29 10 0 4 -5 7 -10 6 -6 -2 -12 26 -15 65 -5 78 10 82 20 4z m288
-71 c24 -18 14 -86 -12 -86 -19 1 -71 29 -53 30 6 0 12 5 12 11 0 5 -5 7 -11
3 -6 -3 -3 8 5 25 18 34 31 38 59 17z m-235 -108 c14 -109 15 -118 4 -118 -5
0 -14 40 -20 89 -14 104 -15 121 -4 121 4 0 13 -42 20 -92z m-35 -1 c4 -29 10
-67 13 -85 4 -19 2 -32 -3 -32 -6 0 -13 24 -17 53 -4 28 -10 70 -13 91 -4 25
-2 37 4 33 6 -4 13 -30 16 -60z m82 -79 c6 -22 4 -28 -9 -28 -12 0 -16 10 -16
37 0 41 14 36 25 -9z m31 -130 c8 -46 12 -105 9 -133 -3 -33 -2 -40 3 -20 9
38 103 -581 97 -640 -3 -33 -3 -35 3 -10 8 28 8 27 15 -21 8 -53 0 -115 -15
-125 -5 -3 -11 -29 -15 -58 -3 -30 -9 -47 -14 -40 -4 7 -10 -12 -14 -44 -4
-31 -11 -54 -16 -51 -5 3 -9 -5 -9 -18 0 -13 -5 -30 -11 -38 -8 -12 -9 -9 -5
13 4 15 9 48 13 73 4 28 9 41 14 33 4 -8 11 13 15 50 4 35 10 57 14 51 5 -7
11 10 15 39 8 62 1 80 -9 21 -3 -22 -10 -40 -15 -40 -6 0 -12 -12 -14 -27 -2
-16 -3 -1 -1 32 3 49 2 54 -5 26 -5 -18 -14 -36 -19 -40 -6 -3 -12 -17 -15
-31 -2 -14 -3 4 -1 40 2 51 1 57 -5 30 l-8 -35 -2 37 c0 23 5 40 13 45 8 4 16
19 19 33 2 14 3 -2 1 -35 -1 -33 0 -49 3 -35 3 14 10 31 16 39 10 12 13 9 18
-15 l7 -29 1 28 c1 28 25 38 34 15 3 -7 6 -1 6 14 1 20 -3 26 -13 22 -10 -4
-16 7 -21 37 -5 29 -4 44 4 47 6 2 11 16 10 30 0 16 -3 21 -6 12 -3 -8 -10
-17 -14 -20 -4 -3 -10 -30 -13 -60 -4 -38 -3 -47 3 -30 9 24 9 24 10 -7 1 -42
-24 -35 -33 9 -9 46 -8 76 3 59 11 -18 24 68 15 103 -4 16 -2 26 5 26 6 0 10
14 10 33 l-2 32 -4 -29 c-3 -20 -7 -25 -13 -17 -10 18 -23 -69 -14 -103 4 -16
2 -26 -4 -26 -6 0 -14 -28 -18 -62 -7 -54 -9 -59 -15 -33 l-7 30 -2 -35 c-1
-19 -4 -29 -7 -22 -8 21 7 107 17 92 5 -8 11 8 15 44 4 31 5 60 1 63 -3 4 -6
-7 -7 -23 0 -30 -16 -77 -19 -59 -2 6 -6 -3 -11 -20 -6 -21 -7 -9 -4 40 2 48
1 61 -4 40 l-9 -30 -1 38 c-1 24 3 36 11 35 12 -3 50 198 45 237 -2 11 -12
-36 -22 -105 -13 -77 -22 -114 -24 -95 l-4 30 -6 -30 c-9 -41 -42 235 -36 295
3 34 2 38 -3 15 -7 -26 -9 -22 -16 35 -5 49 -2 92 14 175 12 61 24 119 27 130
6 20 6 20 14 0 7 -19 8 -19 8 1 1 12 -6 24 -14 28 -8 3 -15 2 -15 -2 0 -4 -11
-58 -24 -120 l-23 -114 -14 120 c-8 66 -12 119 -8 116 4 -2 10 2 12 8 3 7 4
-12 2 -42 l-4 -55 11 53 c6 28 15 52 20 52 5 0 7 -8 4 -17 -12 -41 -28 -142
-24 -153 2 -6 12 29 22 79 13 66 22 91 34 94 10 2 19 2 21 0 2 -1 10 -40 17
-85z m149 -1025 c-6 -27 -22 -30 -27 -5 -3 9 -8 -7 -12 -36 -5 -29 -5 -56 -2
-59 3 -4 6 5 6 19 0 33 26 57 33 31 3 -11 5 -7 6 11 0 16 4 27 7 23 9 -9 -6
-97 -17 -97 -5 0 -10 15 -10 33 l-2 32 -6 -34 c-6 -37 -30 -55 -32 -24 -2 26
-17 -36 -17 -72 0 -32 2 -28 12 18 4 15 10 27 15 27 12 0 23 -59 14 -74 -5 -6
-10 1 -14 19 l-7 30 -1 -32 c-1 -24 -5 -31 -15 -27 -8 3 -17 13 -19 22 -3 10
-5 2 -6 -15 0 -18 -5 -33 -10 -33 -4 0 -4 23 2 50 5 28 13 50 17 50 4 0 10 23
14 50 4 28 10 50 15 50 5 0 11 23 15 50 4 28 11 50 16 50 6 0 11 15 11 33 1
26 3 23 11 -18 5 -27 7 -59 3 -72z m-104 -31 c-6 -2 -11 -18 -11 -34 0 -17 -3
-29 -6 -25 -3 3 -2 36 2 74 l8 68 9 -40 c7 -28 7 -40 -2 -43z m148 -207 c0
-11 -4 -27 -9 -35 -9 -13 -11 -13 -20 0 -13 20 -13 60 0 60 6 0 11 -10 11 -22
1 -13 3 -16 5 -8 2 8 0 35 -5 60 -8 41 -9 42 -10 12 -1 -19 -5 -31 -11 -27 -6
4 -10 -5 -10 -21 0 -15 -2 -25 -5 -22 -9 9 7 118 16 112 5 -3 10 7 10 23 1 28
27 -94 28 -132z m-108 -17 c2 -28 2 -29 6 -8 10 53 42 47 43 -7 0 -36 -20 -27
-21 10 l-2 32 -4 -30 c-6 -39 -26 -52 -35 -22 -5 19 -6 18 -7 -8 -1 -16 -6
-37 -11 -45 -8 -12 -10 -9 -6 10 3 14 8 42 11 63 7 46 25 49 26 5z m63 -67
c-8 -58 -24 -69 -24 -15 0 21 4 33 10 29 6 -4 10 5 10 21 0 15 2 25 5 22 4 -3
3 -29 -1 -57z m60 -73 c-6 -40 -20 -50 -27 -20 -2 9 -7 -9 -11 -40 -9 -61 -26
-79 -26 -28 0 17 5 30 10 30 6 0 10 13 10 29 0 29 21 57 33 44 4 -3 6 7 6 23
-1 17 -3 22 -6 12 -2 -10 -8 -18 -13 -18 -5 0 -10 8 -12 18 -3 9 -8 -7 -12
-35 -8 -54 -26 -73 -26 -28 0 14 5 25 10 25 6 0 10 9 10 19 0 11 5 32 11 48
10 26 12 27 19 8 7 -17 9 -16 10 10 2 25 4 23 11 -15 5 -25 7 -62 3 -82z
m-106 25 c-11 -14 -13 -13 -19 8 -6 22 -7 22 -8 -6 -1 -16 -6 -37 -12 -45 -9
-15 -5 37 8 83 6 24 21 21 26 -5 4 -19 5 -18 7 7 l3 30 4 -28 c3 -16 -1 -35
-9 -44z m31 -117 c1 -24 -2 -27 -19 -23 -16 4 -20 0 -20 -21 0 -14 -3 -23 -6
-19 -9 9 6 97 16 97 5 0 11 -12 13 -27 4 -26 4 -26 6 5 1 22 -4 32 -13 32 -8
0 -17 6 -19 13 -3 6 -6 -1 -6 -18 -1 -16 -6 -37 -12 -45 -9 -15 -5 37 8 83 6
24 21 21 26 -5 3 -17 5 -13 7 12 2 35 3 34 11 -10 4 -25 8 -58 8 -74z m95 -38
c-5 -36 -23 -53 -25 -25 -1 6 -5 -1 -9 -18 l-8 -30 -1 31 c-1 31 19 60 32 47
4 -3 6 9 6 28 -1 23 -3 27 -6 12 -5 -27 -20 -30 -25 -5 -3 9 -8 -7 -12 -35 -8
-55 -22 -70 -28 -30 -2 12 -7 -4 -12 -35 -7 -58 -26 -81 -26 -33 0 14 5 25 10
25 6 0 10 16 10 35 0 28 4 35 20 35 15 0 20 7 20 28 0 34 14 57 29 48 7 -5 11
3 12 21 1 21 4 16 10 -17 5 -25 7 -62 3 -82z m-104 -29 c0 -16 -4 -28 -9 -25
-5 3 -12 -17 -15 -45 -4 -28 -9 -49 -12 -46 -5 5 14 126 22 139 10 15 14 8 14
-23z m125 -96 c-3 -18 -12 -33 -19 -33 -8 0 -16 -13 -19 -30 -4 -18 -13 -30
-22 -30 -10 0 -15 -10 -15 -27 0 -38 -10 -73 -21 -73 -5 0 -9 7 -9 15 0 8 5
15 10 15 6 0 10 13 10 29 0 42 19 89 29 72 5 -8 10 2 15 28 4 27 11 41 21 41
10 0 15 9 14 28 -1 18 -3 21 -6 9 -3 -10 -11 -16 -18 -13 -9 3 -16 -8 -20 -35
-5 -29 -11 -39 -21 -35 -9 4 -14 -2 -14 -17 0 -12 -5 -29 -10 -37 -9 -13 -11
-13 -20 0 -8 12 -10 8 -11 -15 0 -16 -5 -41 -10 -55 -6 -18 -7 -11 -3 24 7 63
14 78 30 72 9 -4 14 2 14 15 0 28 19 61 31 54 5 -4 9 3 9 14 0 30 11 51 26 51
8 0 14 11 15 28 1 19 4 14 10 -18 5 -25 7 -60 4 -77z m-65 36 c0 -24 -17 -25
-22 -1 -2 9 -7 -7 -11 -35 -8 -54 -27 -74 -27 -28 0 14 5 25 10 25 6 0 10 10
10 23 0 25 18 49 32 41 4 -3 8 -14 8 -25z m61 -120 c-12 -10 -21 -28 -21 -42
0 -20 -4 -24 -20 -20 -11 3 -20 12 -20 19 0 17 17 18 23 2 2 -7 7 6 12 30 5
31 11 42 21 38 10 -4 14 3 15 22 2 27 2 27 6 -3 4 -21 -1 -34 -16 -46z m33 -6
c-9 -50 -44 -76 -44 -33 0 22 16 27 23 8 2 -7 7 4 11 25 4 20 9 37 12 37 3 0
2 -17 -2 -37z m-124 -43 c0 -11 -4 -20 -10 -20 -5 0 -10 -14 -10 -32 0 -17 -3
-29 -6 -25 -9 9 6 97 17 97 5 0 9 -9 9 -20z m129 -162 c12 -79 24 -155 27
-170 4 -20 2 -28 -9 -28 -10 0 -19 32 -32 128 -11 70 -20 141 -21 157 -4 49
-6 52 -14 20 l-8 -30 -1 33 c-1 25 3 32 18 32 16 0 21 -18 40 -142z m-61 60
c6 -40 16 -113 23 -163 9 -62 15 -82 19 -65 5 22 7 19 13 -17 4 -24 11 -43 16
-43 13 0 0 -103 -15 -120 -12 -12 -14 -12 -14 2 0 9 5 18 11 20 7 2 8 22 2 63
-7 48 -12 60 -26 59 -9 -1 -17 -1 -17 0 0 1 -9 66 -20 145 -11 78 -18 146 -16
150 3 4 1 13 -5 21 -6 11 -9 7 -10 -15 -1 -18 -3 -23 -6 -12 -6 25 3 47 20 47
10 0 18 -22 25 -72z m-55 10 c3 -13 14 -86 23 -163 12 -92 20 -130 24 -110 4
22 9 7 18 -60 19 -130 19 -131 42 -131 14 0 20 7 21 26 1 20 2 21 6 4 5 -24
-13 -74 -26 -74 -5 0 -11 8 -13 18 -3 9 -7 -5 -11 -33 -4 -29 -1 -90 7 -145 7
-52 12 -98 9 -102 -13 -23 -22 2 -32 89 -7 54 -14 110 -17 125 -4 22 -2 28 12
28 17 0 16 23 -1 115 -2 11 -4 25 -4 32 -1 7 -8 10 -16 7 -8 -4 -15 -2 -15 2
0 13 -39 324 -45 362 -7 36 10 45 18 10z m200 -615 c21 -131 21 -143 3 -143
-8 0 -17 -8 -20 -17 -2 -10 -2 -2 0 17 3 19 -2 81 -10 137 -19 123 -19 113 -3
113 9 0 19 -34 30 -107z m-69 80 c3 -15 20 -133 29 -213 1 -8 -5 -15 -13 -15
-8 0 -18 -7 -22 -15 -4 -8 -5 1 -2 21 5 32 -7 148 -22 217 -5 27 22 31 30 5z
m126 -230 c13 -3 19 -18 23 -56 6 -49 3 -67 -9 -54 -3 3 -8 25 -11 49 -4 23
-12 49 -20 56 -7 7 -12 23 -12 35 2 21 2 21 6 -2 3 -13 13 -25 23 -28z m-167
-25 c18 -2 23 -12 29 -53 8 -55 6 -60 -17 -52 -9 4 -15 19 -15 40 0 18 -7 42
-15 53 -8 10 -14 33 -13 49 l1 30 4 -32 c3 -23 10 -33 26 -35z m141 -15 c9
-60 7 -83 -8 -83 -15 0 -33 91 -21 110 12 20 22 10 29 -27z m-59 -10 c3 -21 8
-46 9 -55 3 -14 -21 -34 -30 -25 -2 2 -6 29 -10 60 -6 48 -4 57 9 57 11 0 18
-12 22 -37z m-107 -63 l0 -35 -8 30 c-4 17 -8 44 -8 60 0 29 0 29 8 5 4 -14 8
-41 8 -60z m226 -19 c3 -5 -31 -14 -77 -20 -45 -7 -100 -15 -122 -18 -23 -3
-37 -2 -32 3 5 5 54 16 110 25 56 9 105 17 109 18 4 0 9 -3 12 -8z"/>
<path d="M1406 2947 c-10 -54 -16 -101 -12 -104 3 -4 6 5 6 18 0 13 5 31 10
39 14 21 12 -11 -5 -75 -11 -43 -13 -46 -15 -20 -1 17 -4 24 -7 17 -7 -17 5
-62 16 -62 5 0 14 36 21 80 9 55 17 80 26 80 9 0 13 10 13 28 -2 27 -2 27 -7
2 l-5 -25 -8 25 -7 25 -1 -28 c-1 -16 -5 -26 -10 -23 -5 4 -5 23 0 48 6 23 8
48 7 57 -2 9 -12 -28 -22 -82z"/>
<path d="M1435 2855 c-4 -25 -5 -48 -2 -51 2 -3 8 16 12 41 3 26 4 49 2 52 -3
3 -9 -16 -12 -42z"/>
<path d="M1451 2811 c-1 -24 -5 -32 -15 -28 -11 5 -17 -5 -22 -39 -8 -58 1
-68 11 -12 7 39 8 41 15 18 l8 -25 1 27 c1 36 31 26 32 -11 0 -14 3 -21 5 -15
2 5 0 35 -5 65 -6 40 -9 46 -11 24 l-2 -30 -8 30 -8 30 -1 -34z"/>
<path d="M1455 2715 c-4 -25 -5 -48 -2 -51 2 -3 8 16 12 41 3 26 4 49 2 52 -3
3 -9 -16 -12 -42z"/>
<path d="M1430 2702 c0 -11 -3 -28 -7 -38 -6 -16 -7 -16 -14 2 -6 15 -8 12 -8
-14 -1 -18 3 -31 8 -28 5 4 11 0 14 -6 2 -7 7 11 12 40 4 29 4 56 1 59 -3 4
-6 -3 -6 -15z"/>
<path d="M1490 2685 c-2 -30 -2 -30 -10 -5 -8 24 -8 23 -9 -7 -1 -23 -5 -31
-15 -27 -10 4 -16 -8 -21 -46 -4 -28 -5 -54 -2 -56 3 -3 8 19 13 48 7 49 8 50
15 23 l7 -30 1 28 c1 17 7 27 16 27 10 0 15 -10 16 -27 0 -16 3 -23 5 -17 2 5
0 35 -5 65 -6 39 -9 46 -11 24z"/>
<path d="M1451 2553 c-1 -22 -6 -33 -16 -33 -10 0 -15 -10 -14 -32 1 -31 1
-32 9 -8 l8 25 2 -25 c2 -17 5 -11 11 20 5 25 8 54 5 65 -2 11 -4 5 -5 -12z"/>
<path d="M1510 2555 c-1 -25 -3 -27 -9 -10 -11 28 -22 -49 -16 -111 3 -33 2
-41 -3 -24 -7 21 -10 16 -16 -33 -4 -32 -5 -61 -2 -65 3 -3 6 9 6 26 0 17 6
35 14 39 9 5 17 31 20 63 4 38 3 47 -3 30 -9 -24 -9 -24 -10 8 -1 22 4 32 14
32 10 0 15 -10 16 -27 0 -16 3 -23 5 -17 2 5 0 35 -5 65 -6 38 -9 45 -11 24z"/>
<path d="M1249 1323 c-22 -58 8 -164 88 -308 40 -72 37 -142 -13 -315 -34
-119 -39 -147 -38 -240 0 -123 20 -178 87 -235 63 -54 177 -82 177 -44 0 6
-18 36 -40 67 -66 92 -87 198 -53 269 19 41 53 58 136 68 56 7 57 8 56 39 -1
22 -3 25 -6 9 -4 -18 -15 -23 -76 -33 -91 -16 -131 -51 -142 -124 -8 -52 13
-151 42 -195 24 -37 28 -81 8 -81 -13 0 -16 6 -11 26 8 30 -11 24 -22 -7 -7
-18 -9 -18 -44 6 -52 35 -86 98 -97 179 -12 82 -3 145 46 320 48 175 45 233
-16 334 -23 39 -49 92 -57 118 -15 50 -19 154 -6 153 4 0 18 -23 32 -52 33
-66 90 -108 158 -115 28 -2 58 1 68 7 16 9 12 10 -18 5 -79 -13 -163 36 -203
121 -14 30 -30 55 -36 55 -5 0 -14 -12 -20 -27z"/>
<path d="M1328 535 c-10 -21 -9 -29 5 -42 14 -15 20 -15 42 -3 37 20 32 64 -7
68 -22 3 -30 -2 -40 -23z m47 -16 c0 -7 -8 -15 -17 -17 -18 -3 -25 18 -11 32
10 10 28 1 28 -15z"/>
<path d="M1342 388 c-26 -26 -10 -78 24 -78 17 0 27 8 34 26 13 32 13 30 -6
48 -19 19 -36 20 -52 4z m40 -16 c-9 -3 -10 -8 -2 -17 7 -9 6 -16 -4 -24 -19
-16 -29 0 -20 33 4 17 11 23 22 18 11 -4 12 -7 4 -10z"/>
</g>
</svg>
