<svg version="1.0" xmlns="http://www.w3.org/2000/svg"
 width="300.000000pt" height="300.000000pt" viewBox="0 0 300.000000 300.000000"
 preserveAspectRatio="xMidYMid meet">
<g transform="translate(0.000000,300.000000) scale(0.100000,-0.100000)"
fill="#000000" stroke="none">
<path d="M1075 2690 c-8 -12 6 -40 19 -40 13 0 153 -122 227 -198 25 -26 62
-59 82 -75 20 -15 34 -33 32 -40 -3 -6 8 -18 24 -25 27 -12 29 -16 20 -38 -6
-17 -6 -48 1 -87 11 -66 14 -470 4 -480 -3 -3 -5 -75 -5 -160 2 -118 -1 -156
-11 -161 -10 -5 -10 -7 0 -12 9 -4 12 -77 12 -312 0 -269 -2 -312 -17 -349
l-18 -43 -207 0 c-198 0 -238 -6 -212 -30 5 -4 59 -10 119 -12 61 -2 99 -1 85
2 -14 4 28 9 97 11 92 3 124 1 128 -9 2 -6 14 -12 25 -12 16 0 28 -17 56 -77
19 -42 37 -88 41 -102 10 -42 62 -151 72 -151 5 0 14 7 21 15 11 13 10 21 -7
43 -12 16 -44 77 -73 138 -45 93 -53 118 -54 172 0 34 2 62 7 62 4 0 7 -11 7
-25 0 -29 4 -30 61 -9 24 9 60 17 79 19 49 6 130 43 130 60 0 17 -22 19 -48 5
-9 -5 -58 -25 -109 -44 l-92 -33 6 27 c5 29 -13 52 -23 27 -3 -9 -13 -13 -25
-10 -19 5 -19 21 -18 729 0 398 -2 727 -5 732 -3 6 3 12 14 15 12 3 20 14 20
26 0 12 4 21 10 21 5 0 7 -6 5 -12 -3 -7 10 -23 29 -36 19 -13 78 -66 130
-119 63 -62 102 -93 111 -89 26 10 17 22 -60 81 -48 36 -75 64 -75 76 0 11 -6
19 -13 17 -15 -4 -98 62 -91 73 2 4 -5 13 -16 19 -11 6 -20 8 -20 4 0 -3 -13
8 -30 26 -16 18 -30 36 -30 41 0 5 -6 9 -13 9 -19 0 -87 73 -87 93 0 11 -8 17
-22 17 -25 0 -253 199 -253 221 0 14 -32 21 -40 9z"/>
</g>
</svg>
