<svg version="1.0" xmlns="http://www.w3.org/2000/svg"
 width="254.000000pt" height="198.000000pt" viewBox="0 0 254.000000 198.000000"
 preserveAspectRatio="xMidYMid meet">
<g transform="translate(0.000000,198.000000) scale(0.100000,-0.100000)"
fill="#000000" stroke="none">
<path d="M1380 1758 c-85 -50 -346 -201 -580 -335 -234 -134 -436 -255 -449
-267 -23 -23 -23 -25 -22 -241 1 -120 6 -226 11 -236 5 -9 92 -72 192 -140
101 -67 203 -137 228 -154 25 -17 97 -67 160 -110 63 -43 131 -91 151 -107 20
-15 43 -28 51 -28 7 0 85 49 173 110 164 112 366 249 795 538 135 91 246 166
248 167 1 1 15 96 29 209 30 233 29 243 -34 204 l-33 -20 -108 60 c-59 32
-201 112 -317 177 -279 158 -305 172 -337 179 l-27 6 23 -25 c13 -14 28 -25
35 -25 6 0 11 -5 11 -11 0 -6 7 -9 15 -5 8 3 15 1 15 -4 0 -6 -8 -10 -17 -10
-23 -1 -55 -25 -46 -34 4 -4 0 -4 -9 -1 -10 4 -14 13 -11 21 3 8 2 14 -3 13
-22 -4 -35 2 -28 13 4 7 3 8 -4 4 -6 -4 -22 -2 -34 5 -15 8 -23 9 -26 1 -2 -6
-10 -8 -19 -5 -11 4 -14 2 -9 -5 4 -8 2 -10 -8 -6 -8 3 -17 12 -20 19 -6 18
10 29 19 14 5 -7 18 1 36 21 21 23 35 30 49 25 15 -5 18 -3 14 9 -7 18 11 22
21 5 4 -6 13 -8 21 -5 8 3 14 1 14 -4 0 -6 5 -10 11 -10 17 0 6 74 -11 77 -8
1 -85 -39 -170 -89z m-1 -60 c6 -7 26 -13 44 -14 18 0 41 -4 51 -9 14 -6 17
-5 12 3 -5 8 -2 10 9 5 12 -4 13 -8 5 -13 -7 -4 17 -24 59 -50 39 -23 68 -46
65 -51 -3 -5 3 -6 12 -2 13 5 15 3 9 -7 -5 -9 -4 -11 3 -6 15 9 54 -12 47 -24
-3 -6 0 -7 7 -5 8 3 22 -2 33 -11 11 -8 15 -13 8 -10 -6 4 -14 2 -18 -4 -8
-13 -45 -13 -45 1 0 5 -4 7 -10 4 -5 -3 -10 -1 -10 5 0 6 -4 8 -10 5 -5 -3
-10 -2 -10 4 0 5 6 12 13 15 6 3 -1 4 -16 1 -19 -4 -26 -2 -22 5 4 6 3 10 -2
9 -14 -4 -62 20 -108 51 -24 17 -48 30 -54 30 -6 0 -11 5 -11 10 0 6 -6 10
-14 10 -8 0 -21 7 -30 15 -9 10 -17 11 -21 5 -7 -12 18 -40 35 -40 6 0 8 -4 5
-10 -3 -5 0 -10 8 -10 8 0 17 -7 21 -15 3 -8 15 -15 27 -15 13 0 31 -8 42 -17
15 -13 19 -14 13 -3 -4 8 0 6 9 -5 9 -11 24 -19 33 -17 15 2 15 1 2 -7 -8 -6
-15 -16 -15 -23 0 -7 -8 -12 -18 -10 -9 2 -17 -2 -17 -9 0 -6 -8 -9 -18 -7
-12 4 -18 -1 -19 -13 -2 -24 5 -24 42 1 44 29 89 25 162 -15 53 -29 63 -32 64
-17 0 9 2 32 4 51 3 26 0 34 -16 38 -10 3 -16 9 -13 14 3 5 11 6 17 3 7 -4 8
-3 4 2 -5 5 -10 7 -11 4 -1 -3 -12 5 -26 18 -13 12 -30 20 -37 18 -7 -3 -15 0
-19 7 -4 7 -4 9 1 5 10 -10 38 19 30 32 -4 6 11 2 32 -7 21 -10 39 -21 41 -25
2 -4 10 -4 19 -1 12 5 14 3 8 -7 -5 -9 -4 -11 3 -6 18 11 62 -23 55 -42 -3
-12 -2 -13 4 -5 10 15 52 13 50 -2 -1 -5 6 -9 15 -9 10 1 16 -2 13 -6 -3 -5 7
-18 21 -29 31 -25 27 -36 -7 -23 -34 13 -54 5 -38 -15 11 -12 8 -12 -17 -2
-16 7 -35 18 -43 23 -11 8 -13 8 -10 -3 3 -8 -3 -23 -13 -33 -10 -10 -16 -24
-12 -29 3 -6 -5 -3 -20 6 -14 10 -26 13 -26 7 0 -6 30 -29 68 -52 37 -23 72
-49 79 -58 9 -11 16 -12 26 -4 10 9 19 8 35 -4 13 -9 21 -12 20 -7 -2 4 0 8 4
8 15 0 37 43 33 63 -5 25 19 23 39 -4 18 -24 37 -9 39 30 1 14 4 26 6 26 2 0
16 -11 33 -25 16 -14 36 -25 44 -25 9 0 12 -5 9 -11 -4 -6 -1 -10 6 -8 29 3
50 -1 44 -11 -3 -6 -39 -31 -78 -57 -125 -80 -199 -128 -287 -184 -47 -30 -86
-57 -88 -61 -2 -5 -8 -8 -13 -8 -11 0 -415 -263 -520 -339 -20 -14 -28 -11
-146 67 -50 32 -76 65 -34 42 13 -7 22 -7 26 0 3 5 0 10 -7 10 -7 0 -25 7 -40
14 -16 8 -28 11 -28 6 0 -4 6 -11 13 -14 6 -3 1 -3 -13 0 -14 4 -37 16 -51 28
-14 11 -52 37 -83 56 -110 66 -181 118 -178 130 1 6 -2 9 -8 5 -13 -8 -52 19
-42 30 4 5 2 5 -5 1 -10 -5 -54 18 -98 51 -5 5 -28 16 -49 26 -33 15 -37 16
-27 3 8 -9 17 -16 21 -16 7 0 133 -80 205 -130 28 -19 103 -68 285 -185 41
-27 108 -70 148 -97 73 -47 105 -58 117 -38 4 6 11 8 16 5 5 -4 12 1 15 9 3 9
10 16 16 16 5 0 29 13 52 30 24 16 46 26 50 23 3 -4 6 -1 6 5 0 7 17 22 38 35
119 76 148 92 159 89 8 -2 10 3 6 14 -5 14 -3 16 11 11 9 -4 15 -3 11 2 -5 9
32 27 48 23 5 -1 6 2 3 7 -3 5 17 21 46 35 29 14 48 26 42 26 -5 0 6 9 24 20
37 23 46 25 36 8 -4 -7 -3 -8 5 -4 6 4 9 11 6 16 -7 11 92 73 105 65 6 -4 9
-1 8 7 -2 7 5 12 14 12 10 -1 16 2 13 6 -3 4 1 10 9 13 8 3 46 28 85 56 39 28
71 48 71 43 0 -4 4 -2 8 3 14 21 72 56 82 50 5 -3 10 1 10 9 0 9 6 13 13 10 7
-2 30 2 50 11 39 16 60 20 40 7 -8 -5 -15 -45 -19 -102 -3 -51 -9 -103 -13
-114 -5 -12 -6 -37 -4 -57 3 -21 0 -40 -6 -43 -6 -4 -11 -16 -11 -26 0 -10
-15 -30 -32 -44 -18 -15 -39 -31 -46 -37 -7 -5 -17 -7 -22 -4 -6 4 -7 -1 -3
-11 5 -13 3 -16 -10 -11 -9 3 -17 3 -17 -2 0 -4 -23 -20 -50 -35 -28 -15 -48
-32 -44 -37 3 -5 2 -8 -3 -7 -12 4 -83 -42 -83 -54 0 -6 -7 -7 -16 -4 -8 3
-12 2 -9 -3 3 -5 1 -12 -5 -16 -5 -3 -10 -1 -10 6 0 6 -18 -5 -40 -25 -22 -20
-45 -36 -51 -36 -5 0 -7 -5 -3 -12 4 -7 3 -8 -4 -4 -14 8 -74 -33 -66 -45 3
-5 -3 -6 -12 -2 -11 4 -15 3 -10 -5 3 -6 1 -14 -5 -18 -8 -4 -9 -3 -5 4 4 7 1
12 -6 12 -7 0 -18 -10 -23 -22 -6 -13 -17 -22 -24 -20 -7 1 -21 -7 -31 -18
-12 -14 -28 -20 -45 -18 -20 2 -28 -2 -30 -15 -2 -9 1 -15 6 -11 5 3 9 3 9 -1
0 -3 -10 -10 -22 -16 -45 -20 -93 -48 -84 -49 5 0 3 -7 -4 -15 -7 -8 -16 -13
-20 -10 -15 9 -41 -7 -36 -22 3 -8 2 -12 -3 -9 -5 3 -14 -1 -21 -9 -7 -8 -18
-15 -25 -15 -11 0 -68 -39 -107 -74 -10 -9 -26 -16 -35 -16 -9 0 -14 -3 -10
-6 6 -7 -82 -84 -95 -84 -5 0 -8 6 -9 13 0 6 -4 3 -9 -8 -8 -18 -9 -18 -10 5
-1 14 -1 62 0 107 2 106 -14 115 -18 10 -2 -45 -8 -89 -13 -97 -5 -8 -9 -10
-9 -3 0 6 -13 14 -29 18 -21 4 -28 11 -24 21 3 9 0 12 -9 9 -8 -3 -23 3 -33
15 -10 11 -24 20 -31 20 -8 0 -21 11 -30 25 -10 15 -26 25 -40 25 -21 0 -29 9
-25 32 0 4 -6 5 -13 2 -16 -6 -68 35 -60 48 3 4 -4 8 -14 8 -11 0 -25 7 -32
15 -7 9 -19 14 -27 11 -7 -3 -13 -2 -13 2 0 16 -90 71 -105 65 -9 -3 -15 -2
-13 3 3 9 -48 64 -60 64 -14 0 -161 105 -151 108 6 3 5 9 -2 19 -9 10 -12 53
-11 141 1 70 -2 162 -6 204 -4 43 -6 75 -3 73 2 -3 10 0 18 6 9 9 13 8 13 0 0
-6 -5 -11 -12 -11 -6 0 -8 -3 -5 -7 4 -3 16 3 27 15 12 12 25 22 30 22 5 0 21
5 35 10 23 9 25 13 15 25 -12 14 -7 19 14 16 4 -1 14 3 22 10 8 6 21 8 30 5
11 -4 15 -2 11 8 -4 9 3 16 21 21 14 3 32 15 39 25 8 12 20 17 30 13 11 -4 14
-3 9 5 -4 8 -2 10 7 6 8 -3 17 2 21 11 3 10 12 15 19 12 8 -3 20 -1 28 4 11 7
11 9 1 9 -7 0 -10 5 -7 10 4 6 16 8 28 4 12 -3 19 -3 15 1 -4 4 14 19 40 33
26 13 56 33 68 43 11 11 24 19 30 19 5 0 2 -5 -6 -11 -12 -9 -11 -9 5 -3 11 4
28 7 37 8 12 0 14 4 7 12 -7 8 3 17 35 30 24 10 42 23 39 28 -4 5 6 6 23 2 27
-7 28 -7 9 8 -19 14 -19 15 9 22 16 4 41 13 55 20 14 8 32 14 39 14 6 0 12 7
12 15 0 9 8 14 19 12 11 -1 19 1 18 4 -4 12 26 39 44 39 11 0 19 4 19 10 0 13
77 33 93 24 8 -5 7 -2 -2 9 -16 20 -1 23 18 5z m291 -38 c0 -14 -38 -50 -53
-50 -7 0 -23 7 -35 16 -18 12 -20 18 -9 29 14 16 97 20 97 5z m358 -227 c-7
-16 -13 -29 -14 -31 -1 -2 -19 7 -40 20 -37 22 -38 22 -13 29 13 4 36 7 51 8
26 1 27 0 16 -26z m-115 -33 c-2 -5 3 -7 10 -4 7 2 21 -3 32 -12 20 -16 20
-16 0 -9 -11 3 -16 2 -11 -2 4 -4 15 -8 24 -9 44 -3 52 -5 52 -11 0 -5 -11
-13 -24 -19 -22 -10 -51 -3 -66 16 -3 3 -13 9 -23 13 -11 4 -15 12 -11 18 4 7
3 9 -3 6 -6 -4 -25 0 -42 9 -31 16 -32 17 -14 34 17 17 19 17 48 -1 17 -10 29
-23 28 -29z m175 3 c5 -18 -23 -16 -39 3 -11 14 -10 15 11 12 13 -1 25 -9 28
-15z"/>
<path d="M1403 1484 c-4 -11 -8 -12 -19 -3 -12 9 -20 7 -40 -12 -21 -20 -27
-21 -34 -9 -5 8 -10 10 -10 5 0 -6 6 -17 13 -24 10 -10 9 -11 -5 -6 -11 4 -18
2 -18 -4 0 -6 -7 -11 -15 -11 -8 0 -15 -3 -15 -7 0 -5 -11 -13 -25 -20 -19 -8
-25 -8 -25 0 0 7 -7 3 -16 -8 -13 -17 -16 -18 -25 -5 -8 12 -9 10 -4 -7 5 -18
3 -22 -9 -17 -9 3 -16 1 -16 -5 0 -6 -3 -10 -7 -10 -20 3 -31 -3 -36 -19 -2
-11 -14 -21 -26 -25 -11 -3 -19 -1 -15 4 3 5 1 9 -4 9 -10 0 -22 -33 -22 -63
0 -10 5 -15 10 -12 23 14 7 -15 -21 -39 -18 -16 -29 -32 -26 -41 4 -10 1 -12
-10 -8 -10 4 -14 2 -9 -5 3 -6 1 -14 -5 -18 -7 -4 -9 -3 -6 3 3 5 -8 20 -25
33 -35 26 -123 36 -145 18 -16 -13 -44 7 -37 25 2 7 -7 17 -21 24 -14 6 -23 7
-19 2 8 -13 -9 -11 -30 4 -17 12 -16 14 8 25 22 10 31 8 61 -9 19 -12 33 -24
31 -28 -3 -4 4 -8 15 -9 43 -4 48 -6 42 -15 -4 -6 -1 -7 6 -3 9 6 8 13 -6 28
-18 20 -18 21 4 10 12 -7 24 -17 26 -24 3 -7 4 -2 3 11 -2 20 -9 25 -34 26
-17 1 -28 -3 -25 -8 3 -4 -4 -3 -15 4 -12 7 -19 16 -17 19 2 4 -12 12 -31 19
-28 10 -38 10 -50 0 -12 -10 -13 -9 -8 5 3 9 13 16 22 16 8 0 13 3 9 6 -3 3
-14 3 -24 0 -21 -7 -56 -60 -46 -70 3 -3 0 -6 -7 -6 -7 0 -11 -3 -8 -6 4 -3
-2 -14 -13 -25 -19 -19 -19 -21 -2 -50 11 -18 23 -27 32 -24 8 3 18 0 22 -6 5
-9 12 -8 24 4 9 10 21 15 26 12 4 -3 19 1 33 10 16 11 26 13 31 6 3 -6 1 -11
-6 -11 -7 0 -10 -3 -6 -6 3 -3 12 -2 19 2 7 5 16 9 20 9 3 0 10 4 15 9 5 5 -1
7 -15 3 -12 -3 -20 -1 -17 3 8 13 80 5 78 -8 -2 -6 4 -9 12 -6 17 7 21 -11 5
-21 -6 -4 -8 -11 -4 -17 3 -5 -8 -3 -24 6 -40 20 -59 21 -43 2 9 -10 8 -15 -3
-19 -8 -3 -13 -14 -12 -24 2 -10 -2 -21 -8 -25 -15 -10 22 -46 49 -48 40 -4
64 0 79 15 9 9 17 11 21 5 9 -15 27 -12 20 3 -4 6 -1 5 7 -4 17 -20 64 -37 53
-19 -5 9 -4 11 3 6 7 -4 12 -2 12 4 0 7 7 10 14 7 10 -4 13 -1 9 9 -6 17 -17
18 -44 3 -23 -12 -54 5 -42 24 3 6 1 7 -5 3 -19 -12 -35 3 -21 20 17 20 39 17
82 -11 20 -14 37 -23 37 -20 0 3 9 1 20 -5 11 -6 17 -16 14 -22 -4 -6 -3 -8 4
-4 6 3 18 -1 26 -10 21 -21 10 -40 -12 -21 -10 8 -23 12 -31 9 -9 -3 -11 0 -6
8 5 9 4 11 -4 6 -9 -6 -9 -11 0 -22 9 -11 14 -12 19 -3 5 7 10 8 14 1 12 -20
-23 -21 -48 -1 -13 11 -27 15 -30 10 -10 -16 -60 -20 -71 -5 -8 11 -10 8 -11
-13 -1 -16 -4 -36 -9 -45 -5 -13 -1 -20 19 -28 15 -5 29 -17 33 -25 3 -9 12
-14 19 -11 7 3 17 0 21 -7 5 -7 18 -18 30 -24 19 -11 21 -10 16 3 -5 14 -3 14
15 3 19 -12 24 -11 39 3 15 16 17 16 30 0 7 -9 13 -12 12 -7 -4 26 2 37 17 31
8 -3 13 -2 10 3 -9 14 31 20 45 7 9 -8 10 -8 5 1 -14 26 6 43 49 43 24 0 56 5
72 12 15 6 34 10 41 9 6 -1 12 3 12 9 0 8 6 8 23 0 20 -10 20 -10 5 3 -24 19
-23 24 7 31 16 4 23 11 19 18 -5 7 -3 8 5 3 8 -4 21 2 32 14 11 12 24 19 29
16 5 -3 22 1 37 10 26 15 22 15 -24 -1 -10 -3 2 7 27 22 25 16 52 29 60 29 8
0 14 6 12 14 -2 8 3 11 13 8 8 -4 15 -2 15 3 0 5 6 7 14 4 8 -3 23 4 33 16 10
12 40 33 66 45 30 14 43 25 35 29 -7 3 -3 4 10 2 12 -2 22 -1 22 4 0 4 9 10
20 13 11 3 19 11 18 19 -2 7 2 12 9 11 6 -1 17 4 24 13 9 12 10 17 0 27 -10 9
-11 8 -5 -6 5 -13 2 -16 -9 -11 -10 3 -27 -5 -44 -21 -15 -15 -38 -31 -51 -36
-14 -5 -20 -14 -16 -21 4 -7 3 -8 -4 -4 -14 9 -353 -195 -345 -208 3 -5 1 -6
-5 -2 -11 7 -55 -16 -49 -25 1 -2 0 -3 -2 -2 -2 1 -16 -4 -32 -12 -43 -23 -94
-18 -142 12 -23 15 -51 26 -62 26 -11 -1 -14 1 -6 4 8 3 -24 29 -78 64 -74 47
-91 63 -91 83 0 17 10 30 33 44 17 10 123 72 234 136 143 83 200 122 196 132
-3 8 -10 14 -15 14 -6 0 -8 6 -5 13 3 7 -5 13 -20 13 -13 1 -27 -4 -30 -12z
m38 -24 c16 0 10 -17 -8 -24 -25 -9 -80 -41 -98 -56 -13 -11 -19 -11 -32 2
-14 15 -13 17 8 30 13 8 40 25 59 36 19 12 41 20 48 17 8 -3 18 -5 23 -5z
m-158 -91 c4 -16 2 -19 -10 -15 -21 8 -53 -2 -53 -17 0 -8 3 -8 12 1 14 14 28
16 28 4 0 -15 -92 -53 -114 -47 -11 2 -15 2 -8 -1 21 -10 14 -21 -26 -42 -29
-15 -41 -17 -53 -8 -16 13 -25 41 -10 31 12 -7 81 27 161 79 30 20 58 36 61
36 4 0 9 -9 12 -21z m-534 -165 c3 -4 -2 -4 -11 -1 -10 4 -18 2 -18 -4 0 -6
-8 -6 -22 1 -22 11 -22 11 -4 -4 11 -9 28 -14 38 -10 13 4 16 1 12 -9 -5 -14
-90 -34 -101 -24 -6 7 16 50 30 59 13 8 66 2 76 -8z m210 -94 c8 0 6 -8 -4
-23 -8 -13 -13 -26 -10 -29 11 -10 -21 -25 -67 -31 -27 -4 -48 -5 -48 -2 0 4
22 57 26 64 2 2 15 -7 31 -19 25 -20 28 -20 40 -4 13 18 8 38 -7 29 -5 -3 -6
-13 -3 -21 5 -14 3 -15 -16 -4 -22 11 -22 12 -4 25 10 8 14 15 9 15 -5 0 -3 7
5 16 12 14 14 14 25 0 6 -9 16 -16 23 -16z m144 -163 c30 -25 18 -30 -18 -8
l-36 21 -39 -25 c-44 -27 -50 -29 -50 -16 0 5 9 12 20 16 11 3 19 11 17 17 -1
6 8 11 20 13 13 1 26 5 29 8 7 7 26 -3 57 -26z m124 -3 c29 -14 46 -36 26 -33
-20 3 -34 -2 -28 -11 10 -15 -21 -12 -34 4 -8 10 -9 16 -1 21 5 3 10 12 10 18
0 7 -7 4 -14 -6 -12 -15 -18 -16 -35 -7 -12 6 -21 14 -21 18 0 14 64 11 97 -4z
m-213 -36 c-5 -8 -1 -9 14 -5 62 19 67 19 34 -2 -18 -12 -36 -21 -41 -21 -11
0 -22 26 -14 34 10 10 15 7 7 -6z m162 -8 c8 0 14 -4 14 -10 0 -5 -6 -10 -14
-10 -8 0 -22 -8 -31 -17 -13 -13 -21 -14 -35 -5 -13 8 -20 8 -29 -1 -6 -6 -14
-7 -18 -3 -4 4 -1 11 7 16 8 6 11 10 5 10 -5 0 1 6 15 13 21 11 29 11 50 -2
23 -14 24 -14 13 0 -7 9 -10 19 -6 23 4 4 9 2 11 -3 2 -6 10 -11 18 -11z"/>
<path d="M1575 1472 c-45 -10 -555 -311 -555 -327 0 -18 27 -38 41 -29 7 4 9
3 6 -2 -7 -12 213 -152 251 -160 23 -5 75 23 305 162 152 92 277 173 277 180
0 14 -258 173 -287 178 -10 1 -27 1 -38 -2z m50 -46 c19 -8 36 -20 36 -25 3
-26 4 -30 12 -37 4 -4 18 3 32 16 18 16 28 21 36 13 7 -7 0 -15 -23 -26 -24
-12 -27 -17 -13 -17 13 0 16 -3 8 -11 -8 -8 -17 -7 -31 2 -24 15 -44 3 -22
-12 13 -9 12 -12 -3 -22 -43 -28 -52 -36 -45 -42 3 -4 17 1 31 10 23 15 25 14
31 -2 5 -11 1 -22 -11 -31 -17 -13 -17 -13 2 -10 16 2 19 -2 17 -22 -2 -24 -2
-24 12 -5 15 20 15 20 11 0 -2 -11 -4 -23 -4 -27 -1 -3 -17 -12 -36 -18 -21
-7 -32 -16 -29 -22 4 -7 2 -8 -5 -4 -6 4 -9 11 -7 15 3 4 -1 8 -9 8 -10 0 -11
-5 -4 -19 5 -10 6 -19 2 -19 -4 -1 -12 -2 -18 -3 -5 0 -20 -7 -31 -13 -12 -7
-25 -9 -29 -5 -3 4 -5 2 -3 -3 2 -6 -1 -10 -7 -10 -5 0 -9 4 -7 8 1 5 -2 6 -7
2 -6 -3 -8 -12 -4 -20 3 -10 -1 -15 -12 -15 -9 0 -13 -4 -10 -10 4 -6 -1 -7
-11 -3 -13 5 -15 3 -9 -7 5 -9 4 -11 -3 -6 -7 4 -12 2 -12 -5 0 -7 -3 -9 -7
-6 -3 4 -13 1 -22 -6 -14 -10 -14 -10 -4 4 19 24 4 30 -28 13 -31 -16 -40 -38
-11 -27 15 6 15 5 3 -10 -25 -31 -107 -11 -87 22 9 14 -142 106 -168 103 -11
-2 -30 4 -41 12 -17 12 -17 16 -5 31 8 9 22 14 33 11 12 -3 33 4 49 15 23 17
32 19 44 8 11 -9 21 -9 38 -1 13 6 29 6 36 2 8 -5 18 -6 24 -3 5 3 6 2 3 -4
-4 -6 5 -15 19 -22 31 -14 27 -14 52 7 l21 18 -30 18 c-16 9 -29 21 -29 27 0
11 17 12 22 0 2 -4 28 -24 58 -44 43 -27 60 -33 74 -25 14 8 15 12 4 26 -12
15 -11 16 4 3 15 -11 24 -9 64 14 25 15 48 25 51 22 2 -3 -28 -24 -68 -48
l-72 -42 -33 18 c-32 17 -35 17 -60 0 l-26 -17 27 -14 c15 -8 31 -11 36 -8 5
3 9 -1 9 -9 0 -17 -27 -30 -41 -21 -5 3 -7 10 -4 15 8 11 -43 32 -57 23 -11
-7 69 -64 90 -64 7 0 11 -4 7 -9 -11 -19 11 -19 35 0 21 17 21 19 4 10 -17 -8
-25 -7 -35 6 -12 15 -12 16 3 10 10 -3 20 -2 23 3 4 6 0 10 -7 10 -9 0 -9 3 2
10 20 13 33 12 24 -2 -4 -7 -3 -8 4 -4 6 4 8 14 5 23 -5 12 -2 15 10 10 10 -4
16 -2 14 6 -1 7 3 11 9 10 6 -1 23 9 39 23 29 25 62 33 49 12 -4 -6 -3 -8 4
-4 5 3 12 3 15 -1 2 -5 2 -3 1 4 -2 7 1 15 6 18 22 14 6 33 -57 70 -37 22 -70
41 -74 43 -3 2 -33 -13 -65 -33 -61 -36 -80 -43 -68 -24 4 8 0 7 -15 0 -17
-10 -25 -9 -36 2 -8 8 -12 17 -9 20 3 3 -3 3 -15 0 -28 -7 -27 13 2 22 12 4
24 8 27 9 3 1 24 14 48 29 34 22 46 26 58 16 14 -12 10 -29 -7 -29 -6 0 -7 5
-4 10 3 6 4 10 1 10 -11 0 -86 -43 -93 -53 -3 -6 -1 -7 5 -3 16 9 63 -4 56
-16 -8 -12 44 15 71 37 11 9 3 7 -19 -6 -29 -17 -40 -19 -46 -9 -5 8 -13 9
-21 4 -12 -6 -12 -5 0 9 15 18 46 24 35 6 -3 -6 7 -4 22 4 29 15 90 12 100 -4
3 -5 10 -9 16 -9 6 0 -5 14 -23 31 -22 20 -30 32 -21 36 6 2 12 11 12 19 0 8
15 21 33 29 40 18 41 18 82 1z m154 -82 c2 -2 -4 -13 -13 -23 -10 -11 -15 -25
-11 -31 4 -7 -2 -14 -14 -17 -27 -7 -27 -20 0 -28 25 -8 70 30 62 51 -4 12 -8
12 -22 2 -14 -11 -14 -11 -3 3 7 10 21 15 32 12 11 -3 26 0 34 6 10 9 16 9 21
1 4 -6 4 -14 1 -17 -3 -4 -6 -1 -6 6 0 7 -5 9 -10 6 -6 -4 -8 -10 -5 -15 3 -5
-3 -13 -12 -19 -10 -6 -14 -11 -10 -11 15 0 -21 -30 -36 -30 -8 0 -17 -7 -21
-15 -7 -20 -36 -19 -36 1 0 10 -5 14 -16 10 -10 -4 -13 -2 -8 6 5 8 2 9 -9 5
-22 -8 -21 -5 2 22 12 14 25 20 32 15 8 -5 9 -3 5 5 -5 7 0 21 11 33 10 12 13
18 7 15 -7 -4 -18 0 -25 9 -11 13 -9 14 17 8 16 -4 31 -8 33 -10z m-59 -33
c-13 -11 -29 -17 -34 -14 -11 8 22 33 43 33 11 0 9 -6 -9 -19z m-190 -38 c0
-13 -99 -63 -105 -53 -3 5 14 20 37 34 43 26 68 33 68 19z m-254 -18 c-2 -6 2
-12 10 -12 7 0 11 4 8 9 -3 4 -3 8 0 8 3 0 13 -15 22 -32 14 -27 14 -31 2 -21
-8 7 -19 9 -23 5 -5 -4 -4 0 0 8 7 13 6 13 -7 2 -13 -10 -17 -10 -23 5 -5 10
-8 21 -7 25 1 4 -5 5 -14 1 -15 -5 -15 -7 0 -15 9 -5 14 -14 10 -19 -7 -12
-64 -2 -79 14 -7 7 -6 8 3 3 6 -4 12 -2 12 4 0 7 6 10 13 7 7 -3 20 1 30 7 21
16 49 16 43 1z m285 -8 c-6 -8 -7 -17 -3 -22 4 -4 -3 -3 -15 4 -17 9 -22 8
-25 -4 -2 -10 -7 -12 -18 -5 -19 12 -7 23 25 23 14 0 25 3 25 8 0 5 5 9 11 9
8 0 9 -4 0 -13z"/>
<path d="M1549 1413 c-1 -5 -1 -11 0 -15 0 -5 -3 -8 -9 -8 -19 0 -10 -17 15
-28 35 -16 43 -15 19 3 -25 19 -5 20 22 1 12 -9 26 -11 33 -6 11 6 9 11 -8 19
-11 7 -21 17 -21 23 0 6 11 3 25 -6 14 -9 25 -12 25 -7 0 23 -98 45 -101 24z"/>
<path d="M1527 1353 c12 -10 23 -25 25 -33 2 -8 11 -21 20 -28 15 -11 23 -10
50 4 30 16 31 17 13 30 -10 8 -29 14 -42 14 -13 0 -38 7 -56 16 -31 15 -32 15
-10 -3z"/>
<path d="M1163 1178 c-13 -6 -23 -15 -23 -20 0 -5 5 -6 10 -3 6 3 10 0 10 -8
0 -18 134 -102 175 -110 36 -7 73 14 53 31 -15 11 -198 122 -201 121 -1 0 -12
-5 -24 -11z m134 -71 c23 -6 25 -15 4 -27 -20 -10 -22 -9 -20 6 2 13 -26 23
-45 18 -13 -4 -16 -2 -11 6 4 7 18 9 34 6 14 -4 31 -8 38 -9z m48 -44 c-31
-22 -54 -16 -25 6 13 11 29 17 34 14 5 -3 1 -12 -9 -20z"/>
<path d="M1252 1182 c-9 -2 -1 -12 20 -27 30 -21 58 -23 58 -6 0 11 -64 38
-78 33z"/>
<path d="M556 912 c-3 -6 8 -14 26 -17 18 -4 39 -12 46 -17 8 -7 12 -7 12 0 0
23 -72 53 -84 34z"/>
<path d="M535 871 c-19 -8 -19 -9 5 -16 14 -5 31 -8 39 -6 7 1 10 -2 6 -8 -8
-14 5 -14 25 -1 12 7 8 11 -18 16 -24 5 -30 9 -20 15 17 11 -8 11 -37 0z"/>
<path d="M486 849 c2 -4 0 -10 -6 -14 -5 -3 -10 -22 -10 -41 0 -19 3 -33 8
-30 4 2 7 -11 6 -30 -1 -18 1 -33 5 -32 9 2 71 -36 71 -44 0 -5 12 -8 28 -7
27 0 27 1 5 11 -13 6 -23 15 -23 20 0 4 -6 8 -14 8 -21 0 -36 23 -25 40 8 13
10 13 18 0 5 -8 7 -18 4 -23 -3 -5 0 -8 8 -5 23 8 22 48 -2 74 -24 25 -43 23
-34 -5 3 -9 -2 -26 -11 -37 -8 -10 -13 -14 -10 -8 2 5 0 29 -5 52 -6 27 -6 49
0 61 7 13 6 18 -4 18 -8 0 -12 -4 -9 -8z"/>
<path d="M505 820 c-3 -6 5 -10 18 -10 42 0 71 -32 71 -79 1 -23 5 -39 11 -37
6 2 9 22 8 45 -1 31 -9 47 -30 66 -29 25 -67 33 -78 15z"/>
<path d="M685 741 c0 -55 2 -65 12 -52 6 10 14 35 18 57 5 29 4 35 -4 24 -9
-12 -11 -10 -11 13 0 15 -3 27 -7 27 -5 0 -8 -31 -8 -69z"/>
<path d="M620 777 c0 -4 7 -19 16 -32 9 -14 13 -32 10 -42 -5 -14 -4 -15 4 -7
13 13 10 65 -4 63 -5 0 -13 5 -17 13 -5 7 -9 9 -9 5z"/>
<path d="M786 771 c-24 -9 -12 -17 39 -26 l40 -6 -25 20 c-28 23 -27 23 -54
12z"/>
<path d="M770 723 c8 -3 32 -22 53 -42 29 -28 36 -41 32 -59 -4 -15 -2 -21 5
-17 6 4 9 -3 7 -16 -1 -12 4 -24 11 -26 14 -6 17 33 2 42 -5 3 -10 15 -10 26
0 24 -76 99 -99 98 -14 0 -14 -1 -1 -6z"/>
<path d="M708 669 c-35 -26 -35 -31 1 -84 20 -29 26 -45 18 -49 -7 -2 0 -5 14
-5 15 -1 29 -8 33 -16 3 -8 10 -15 16 -15 5 0 10 7 10 15 0 8 9 24 20 35 14
14 19 29 16 48 -2 15 -5 30 -5 34 -2 16 -57 58 -76 58 -11 0 -32 -10 -47 -21z
m82 -15 c0 -8 4 -13 9 -10 14 9 23 -74 10 -90 -16 -19 -32 -18 -57 5 -27 23
-27 26 -1 28 15 1 19 -2 15 -14 -5 -11 -2 -14 10 -9 8 3 18 6 20 6 12 0 1 41
-17 64 -27 34 -39 33 -39 -4 0 -36 -17 -40 -26 -6 -8 35 2 46 42 46 24 0 34
-4 34 -16z"/>
<path d="M1207 638 c2 -5 -3 -8 -11 -8 -28 0 -45 -41 -36 -85 7 -38 8 -39 9
-8 2 48 19 78 54 96 32 15 32 15 5 13 -14 0 -24 -4 -21 -8z"/>
<path d="M913 622 c3 -13 1 -37 -4 -54 -8 -30 -7 -31 7 -16 20 19 22 65 4 81
-10 10 -12 7 -7 -11z"/>
<path d="M1000 515 c0 -20 5 -25 24 -25 14 0 27 -4 31 -10 3 -5 13 -6 23 -3
14 5 15 3 5 -8 -19 -20 -16 -38 6 -32 21 5 37 33 20 33 -6 0 -8 4 -4 9 9 16
-34 33 -63 27 -21 -5 -23 -4 -12 4 13 9 13 11 0 20 -23 15 -30 12 -30 -15z"/>
<path d="M960 174 c0 -5 12 -14 28 -20 70 -29 93 -36 97 -32 3 3 -14 11 -37
18 -24 8 -53 20 -65 28 -13 8 -23 10 -23 6z"/>
</g>
</svg>
