<?xml version="1.0" standalone="no"?>
<!DOCTYPE svg PUBLIC "-//W3C//DTD SVG 20010904//EN"
 "http://www.w3.org/TR/2001/REC-SVG-20010904/DTD/svg10.dtd">
<svg version="1.0" xmlns="http://www.w3.org/2000/svg"
 width="208.000000pt" height="243.000000pt" viewBox="0 0 208.000000 243.000000"
 preserveAspectRatio="xMidYMid meet">
<metadata>
Created by potrace 1.10, written by Peter Selinger 2001-2011
</metadata>
<g transform="translate(0.000000,243.000000) scale(0.100000,-0.100000)"
fill="#000000" stroke="none">
<path d="M593 2348 c-7 -12 -5 -307 3 -319 3 -6 9 -7 13 -3 3 5 196 7 428 4
231 -3 419 -2 416 3 -2 4 1 7 6 7 6 0 11 -5 11 -11 0 -5 4 -7 10 -4 6 3 9 71
7 168 -2 149 -3 162 -21 165 -11 3 -16 0 -12 -7 4 -7 1 -9 -8 -5 -23 9 -847
10 -853 2z m862 -158 l0 -135 -423 0 c-232 0 -418 2 -412 3 13 5 13 259 0 264
-6 2 180 3 412 3 l423 0 0 -135z"/>
<path d="M640 2215 l0 -95 400 0 400 0 0 95 0 95 -400 0 -400 0 0 -95z m768
74 c-8 -6 -9 -9 -2 -9 8 0 11 -21 11 -60 l-2 -60 -75 -1 c-41 0 -131 -1 -200
-1 -79 -1 -128 -5 -132 -12 -6 -8 -10 -7 -16 1 -6 9 -22 10 -60 4 -29 -4 -52
-5 -52 0 0 4 -48 7 -107 6 l-108 -2 0 65 c0 64 0 65 30 71 44 10 729 7 713 -2z"/>
<path d="M590 1544 l0 -463 27 3 c16 2 31 -2 35 -8 6 -8 8 -7 8 2 0 6 5 12 11
12 5 0 7 -5 3 -12 -4 -6 -3 -8 3 -5 15 10 732 14 726 5 -2 -5 1 -8 6 -8 6 0
11 4 11 9 0 4 16 7 35 5 l34 -2 1 463 0 463 -37 -4 c-21 -2 -45 -4 -53 -3 -8
1 -194 3 -412 4 l-397 3 -1 -464z m50 14 l0 -408 40 0 c29 0 40 -4 40 -15 0
-13 47 -15 360 -15 l360 0 0 425 0 425 -400 0 c-220 0 -400 3 -400 8 0 4 180
7 400 7 260 0 400 -4 400 -10 0 -5 4 -5 8 2 4 6 7 -189 7 -433 0 -244 -1 -441
-2 -437 -2 5 -190 6 -418 3 -228 -3 -415 -2 -415 2 0 4 3 9 8 11 4 3 6 98 4
211 -2 129 -6 204 -12 201 -6 -4 -10 -1 -10 4 0 6 5 11 10 11 7 0 10 71 10
210 -1 131 -5 210 -11 210 -6 0 -7 5 -3 11 19 31 24 -50 24 -423z m769 393 c8
-5 12 -67 14 -217 2 -176 0 -211 -13 -221 -13 -11 -13 -12 1 -13 16 0 23 -30
7 -30 -4 0 -7 -74 -5 -165 2 -129 0 -164 -10 -161 -7 3 -15 1 -19 -5 -3 -5
-15 -7 -27 -3 -31 10 -556 11 -560 1 -1 -4 -24 4 -50 18 -27 14 -57 25 -68 25
-18 0 -19 9 -20 163 -1 89 -3 250 -5 357 -3 107 -2 209 1 226 l6 32 368 0
c202 0 373 -3 380 -7z"/>
<path d="M597 1064 c-3 -4 -6 -204 -7 -446 0 -241 -1 -442 -1 -446 -5 -31 3
-42 31 -42 22 0 30 -5 31 -17 0 -11 3 -13 6 -5 2 6 13 12 23 12 10 0 21 -6 23
-12 3 -8 6 -6 6 5 1 16 25 17 334 19 182 1 358 1 390 0 l57 -3 0 465 c0 299
-4 467 -10 471 -5 3 -10 3 -10 -2 0 -10 -853 -11 -861 0 -3 4 -8 4 -12 1z
m858 -464 l0 -439 -425 0 c-234 1 -418 3 -410 5 13 4 15 58 12 426 -2 282 -6
426 -13 435 -9 10 67 13 412 13 l424 0 0 -440z"/>
<path d="M640 615 l0 -405 40 0 c33 0 40 -3 40 -20 0 -20 7 -20 360 -20 l360
0 0 425 0 425 -400 0 -400 0 0 -405z m725 385 c3 -6 11 -10 16 -10 6 0 7 5 4
10 -3 6 0 10 8 10 12 0 16 -32 20 -172 7 -215 4 -634 -4 -643 -8 -8 -570 -7
-621 1 -20 4 -45 15 -54 25 -9 11 -27 19 -40 19 -13 0 -26 5 -30 12 -10 16 -5
741 6 748 16 10 689 10 695 0z"/>
<path d="M1367 108 c-6 -22 -5 -22 8 -4 17 22 45 15 45 -11 0 -15 -2 -15 -9
-4 -8 12 -12 12 -25 2 -12 -10 -13 -18 -5 -34 11 -20 12 -20 30 4 26 33 21 63
-12 67 -20 2 -28 -2 -32 -20z"/>
<path d="M670 89 c0 -5 -5 -7 -11 -4 -6 4 -5 -2 3 -14 16 -26 20 -26 36 0 8
12 9 18 3 14 -6 -3 -11 -1 -11 4 0 6 -4 11 -10 11 -5 0 -10 -5 -10 -11z"/>
</g>
</svg>
