<?xml version="1.0" standalone="no"?>
<!DOCTYPE svg PUBLIC "-//W3C//DTD SVG 20010904//EN"
 "http://www.w3.org/TR/2001/REC-SVG-20010904/DTD/svg10.dtd">
<svg version="1.0" xmlns="http://www.w3.org/2000/svg"
 width="300.000000pt" height="300.000000pt" viewBox="0 0 300.000000 300.000000"
 preserveAspectRatio="xMidYMid meet">
<metadata>
Created by potrace 1.10, written by Peter Selinger 2001-2011
</metadata>
<g transform="translate(0.000000,300.000000) scale(0.100000,-0.100000)"
fill="#000000" stroke="none">
<path d="M633 2715 c-120 -17 -202 -46 -249 -87 -55 -49 -41 -94 44 -148 l47
-30 -48 0 c-44 0 -48 -2 -45 -22 3 -22 6 -23 73 -18 146 9 158 8 166 -20 4
-14 7 -75 8 -136 1 -88 -2 -114 -14 -124 -8 -7 -12 -16 -9 -21 3 -5 -2 -6 -10
-3 -22 8 -20 -13 1 -25 14 -8 18 -28 21 -114 l4 -104 -47 -6 c-26 -4 -67 -7
-91 -7 -56 0 -78 -21 -69 -67 4 -20 2 -40 -5 -48 -8 -10 -7 -22 6 -47 14 -26
18 -62 19 -178 1 -112 1 -118 -2 -27 -3 88 -7 117 -17 117 -10 0 -14 -35 -19
-147 -5 -138 -7 -148 -29 -164 l-23 -18 28 -10 27 -11 0 -123 0 -123 -70 -130
c-38 -71 -70 -133 -70 -139 0 -5 -11 -32 -25 -60 -31 -64 -32 -85 -2 -85 20 0
107 54 107 66 0 3 -7 18 -15 35 -20 38 -10 59 58 120 48 44 51 49 53 101 2 42
-1 55 -12 55 -9 0 -13 -6 -10 -14 3 -8 2 -11 -4 -8 -5 3 -14 -3 -19 -14 -14
-25 -14 -34 0 -25 6 3 3 -8 -6 -26 -19 -37 -11 -55 11 -25 9 11 14 32 11 47
-2 15 0 25 5 22 19 -12 7 -61 -21 -88 -33 -31 -48 -17 -25 25 7 13 13 29 13
34 0 6 -9 -7 -20 -28 -11 -21 -17 -43 -13 -49 4 -7 3 -8 -4 -4 -14 8 -56 -70
-46 -86 4 -6 3 -8 -4 -4 -5 3 -13 0 -15 -6 -4 -10 -6 -9 -6 1 -1 14 107 221
133 256 9 11 16 14 16 7 0 -6 5 -11 12 -10 6 2 43 -55 82 -127 63 -114 75
-131 104 -139 25 -7 32 -14 32 -34 0 -14 7 -30 15 -36 12 -9 13 -18 5 -46 -5
-19 -10 -52 -10 -72 0 -38 0 -38 40 -38 l41 0 -6 37 c-4 21 -11 54 -16 73 -5
21 -5 38 1 44 6 6 10 29 10 53 0 31 16 79 52 163 l53 119 22 -42 c28 -53 29
-102 3 -150 -11 -20 -20 -48 -20 -61 0 -28 26 -42 38 -19 8 13 10 13 16 -2 8
-21 -33 -176 -50 -191 -7 -6 -16 -33 -20 -62 -6 -49 -5 -51 19 -57 34 -9 47 0
47 31 0 14 5 34 10 45 12 21 6 22 -25 9 -11 -5 -14 -9 -7 -9 18 -1 15 -51 -4
-58 -27 -10 -39 13 -24 44 7 16 13 31 12 34 -1 4 6 5 16 2 14 -3 21 12 41 84
14 48 30 102 37 118 l13 30 1 -32 c0 -50 37 -75 84 -57 21 8 20 21 -7 80 -38
79 -55 139 -50 167 5 26 8 24 74 -46 37 -41 84 -84 103 -98 33 -22 35 -26 29
-66 -5 -39 -4 -42 20 -48 30 -8 47 0 47 22 0 13 3 13 27 -2 26 -18 27 -17 41
3 l14 22 44 -32 c25 -18 44 -39 44 -50 0 -20 82 -78 111 -78 10 0 24 7 33 15
12 12 23 13 58 5 67 -15 221 -12 295 7 60 15 66 15 74 0 9 -14 12 -14 42 1 36
19 48 32 43 47 -1 6 20 25 48 44 28 19 71 55 97 81 45 45 69 53 69 24 0 -24
28 -71 46 -78 19 -7 84 11 84 24 0 4 -18 24 -41 45 l-41 36 45 -6 c41 -6 46
-5 52 16 7 21 8 21 17 3 6 -10 16 -23 22 -29 17 -14 95 -162 89 -169 -3 -2 3
-23 13 -45 13 -29 24 -41 39 -41 26 0 45 18 38 36 -4 10 3 14 21 14 14 0 26 4
26 8 0 21 -33 102 -46 113 -8 6 -12 20 -8 33 7 28 -64 218 -78 210 -6 -4 -6 2
1 13 8 16 6 29 -9 59 -11 21 -20 31 -20 21 0 -9 -5 -17 -11 -17 -6 0 -8 7 -5
16 3 9 6 20 6 26 0 20 28 -13 90 -107 35 -53 65 -93 67 -91 3 2 -19 39 -47 81
-28 42 -49 79 -46 82 7 8 3 13 61 -77 l48 -75 -22 -40 c-27 -51 -17 -89 25
-99 39 -10 64 16 45 46 -10 16 -10 22 -1 28 14 8 -20 83 -44 97 -7 4 -31 35
-51 68 -21 33 -53 78 -72 100 -18 21 -32 44 -29 51 5 13 -83 155 -122 197
l-26 27 -7 253 c-4 138 -10 317 -13 397 -6 125 -5 143 7 128 19 -23 37 -23 37
1 0 14 10 20 44 25 53 8 81 27 73 49 -6 16 -51 26 -134 30 -39 2 -43 4 -43 28
0 14 -3 60 -6 102 -5 55 -4 77 5 77 6 0 11 -7 11 -15 0 -23 26 -18 36 8 5 12
8 35 6 50 -3 23 -8 28 -23 24 -16 -4 -17 -2 -8 14 5 10 18 19 27 19 30 0 169
39 236 66 101 40 134 92 76 121 -28 14 -175 16 -283 4 -61 -6 -69 -5 -78 12
-14 25 -64 20 -64 -8 0 -14 -10 -21 -40 -27 -92 -19 -228 -71 -261 -101 -72
-62 -26 -99 128 -101 l98 -1 -1 -132 c-1 -146 2 -139 -71 -145 -46 -3 -56 6
-34 31 14 15 16 30 10 84 l-7 66 -46 16 c-63 23 -247 31 -339 15 -40 -6 -92
-22 -117 -34 -35 -18 -45 -20 -49 -9 -3 8 -23 22 -43 31 -32 14 -70 17 -228
17 -258 0 -361 -28 -355 -96 1 -13 3 -111 5 -216 1 -116 7 -198 13 -206 8 -10
-21 -12 -144 -13 l-155 -1 0 116 c0 64 -2 171 -5 239 -7 141 1 172 46 172 14
0 30 -4 36 -9 13 -13 253 4 337 23 123 29 197 78 197 131 0 55 -53 94 -185
134 -173 54 -316 68 -472 46z m292 -20 c178 -29 334 -93 350 -145 21 -67 -116
-132 -320 -150 -101 -9 -118 -8 -132 5 -14 15 -14 17 2 29 14 10 17 21 12 49
-5 34 -4 35 29 42 19 3 44 15 54 25 40 40 -5 70 -105 70 -66 0 -115 -15 -115
-34 1 -27 42 -56 79 -56 29 0 27 -32 -3 -46 -20 -9 -26 -9 -30 2 -7 19 -36 18
-36 -1 0 -17 -16 -20 -25 -5 -9 15 -46 12 -64 -4 -9 -9 -41 -16 -72 -17 -51
-2 -62 2 -115 37 -46 30 -60 45 -62 67 -5 38 16 59 88 91 112 50 305 67 465
41z m1813 -34 c25 -16 7 -46 -43 -73 -53 -28 -208 -76 -264 -80 -32 -3 -35 0
-42 29 -6 32 -5 33 32 43 45 12 55 25 38 47 -10 11 -26 14 -64 11 -57 -5 -148
-44 -142 -62 2 -6 26 -13 53 -16 46 -5 49 -7 52 -36 l3 -31 -81 -13 c-79 -12
-226 -9 -262 5 -26 10 -22 40 8 64 50 40 230 95 355 110 99 11 341 13 357 2z
m-349 -54 c-12 -11 -59 -16 -59 -7 0 15 43 30 54 19 5 -5 8 -10 5 -12z m50 14
c11 -7 10 -11 -7 -20 -28 -15 -32 -14 -32 9 0 21 16 26 39 11z m-1647 -47 c4
-33 3 -35 -21 -29 -68 17 -62 53 10 64 4 1 9 -15 11 -35z m56 24 c-7 -20 -48
-23 -48 -4 0 11 9 16 26 16 16 0 24 -5 22 -12z m1472 -8 c0 -13 -7 -20 -20
-20 -25 0 -25 9 -2 26 22 17 22 17 22 -6z m-1410 -5 c18 -21 3 -34 -46 -42
-37 -6 -38 -6 -21 11 9 10 17 24 17 32 0 19 34 18 50 -1z m1470 -119 c-7 -7
-10 6 -9 40 l1 49 9 -39 c6 -26 6 -43 -1 -50z m-1640 -10 c0 -14 -4 -28 -10
-31 -6 -4 -10 7 -10 24 0 17 5 31 10 31 6 0 10 -11 10 -24z m-57 -13 c6 -31
-11 -73 -28 -73 -16 0 -25 46 -12 59 7 7 6 15 -3 26 -11 13 -9 15 13 15 19 0
26 -6 30 -27z m1630 7 c-3 -11 -1 -26 5 -33 12 -15 15 -39 13 -144 -1 -67 -4
-83 -16 -83 -22 0 -43 49 -26 59 10 6 9 10 -3 14 -13 5 -16 24 -16 100 0 98 3
107 31 107 12 0 16 -6 12 -20z m47 1 c0 -24 -18 -37 -31 -24 -13 13 -1 43 17
43 8 0 14 -9 14 -19z m-1735 -10 c-26 -11 -242 -25 -233 -15 7 7 138 20 213
22 29 1 35 -1 20 -7z m141 -27 c-4 -10 3 -14 27 -14 27 -1 29 -2 14 -11 -13
-7 -26 -7 -46 2 -24 11 -27 16 -18 30 13 20 31 14 23 -7z m1654 12 c0 -8 -3
-22 -6 -31 -9 -23 -23 0 -17 26 6 22 23 26 23 5z m-1130 -46 c0 -6 -31 -10
-72 -10 -42 0 -104 -9 -150 -21 -79 -22 -82 -24 -79 -74 0 -14 -3 -12 -10 8
-9 23 -8 32 6 47 31 34 305 79 305 50z m172 0 c88 -13 116 -26 123 -61 4 -18
14 -29 27 -31 16 -2 21 -11 23 -41 1 -22 6 -42 12 -45 5 -4 12 -16 15 -27 3
-11 9 -28 13 -37 6 -14 2 -18 -15 -18 -22 0 -22 -3 -16 -55 5 -47 4 -55 -10
-55 -15 0 -16 11 -11 94 6 98 -3 164 -23 176 -7 4 -22 5 -34 3 -21 -5 -21 -5
-1 10 18 14 18 17 5 31 -22 23 -125 46 -202 46 -39 0 -68 4 -68 10 0 13 75 13
162 0z m448 -5 c0 -8 -6 -12 -14 -9 -15 6 -148 -8 -215 -22 -23 -5 -32 -4 -28
4 7 10 105 29 182 36 22 1 48 3 58 4 9 1 17 -5 17 -13z m191 -21 c45 -23 30
-26 -42 -9 -35 8 -81 17 -101 20 -21 3 -38 9 -38 14 0 12 149 -8 181 -25z
m-951 -9 c-47 -7 -87 -12 -88 -10 -7 7 84 23 128 23 33 0 22 -4 -40 -13z m290
1 l65 2 -45 -12 c-42 -11 -117 -7 -150 8 -9 3 -24 -1 -35 -9 -12 -10 -16 -18
-9 -21 6 -3 9 -15 7 -27 -5 -27 20 -52 43 -43 13 5 15 15 11 41 -5 30 -3 35
14 35 13 0 19 -7 19 -23 0 -13 12 -35 28 -50 41 -40 68 -95 56 -115 -24 -38
20 -57 60 -27 16 12 17 17 6 30 -10 12 -10 19 -2 27 23 23 41 -22 42 -98 l0
-72 -45 10 c-49 10 -149 7 -177 -6 -23 -10 -25 16 -3 38 29 29 6 96 -29 83
-18 -7 -24 -77 -6 -77 6 0 10 -10 10 -22 0 -22 -3 -23 -65 -20 -74 4 -202 -14
-212 -31 -4 -6 0 -8 9 -4 32 12 174 28 213 24 35 -3 33 -4 -15 -6 -30 -1 -89
-8 -130 -15 -41 -8 -78 -12 -82 -9 -15 8 -8 53 7 53 10 0 15 10 15 33 0 41 -7
49 -30 37 -17 -9 -19 -4 -22 55 -3 62 -2 64 20 59 20 -6 22 -3 22 31 0 20 -7
44 -16 52 -23 23 -8 29 131 53 65 11 120 22 124 25 3 4 28 3 56 -2 27 -4 79
-7 115 -7z m-781 -43 c-1 -27 -4 -73 -9 -103 -6 -49 -7 -44 -9 48 0 62 3 102
9 102 6 0 10 -21 9 -47z m1703 -75 c2 -54 0 -98 -4 -98 -4 0 -7 51 -7 113 2
130 6 124 11 -15z m-445 104 c7 -4 -12 -9 -43 -10 -36 -2 -53 1 -49 8 7 12 74
13 92 2z m103 -7 c56 -9 110 -31 110 -44 0 -6 -9 -11 -20 -11 -15 0 -20 -7
-20 -24 0 -14 5 -28 11 -32 8 -4 9 -31 4 -85 -5 -68 -4 -79 9 -79 9 0 16 -6
16 -14 0 -11 -8 -12 -42 -4 -24 5 -68 8 -99 5 l-56 -5 11 40 c17 64 -27 105
-49 45 -8 -24 -6 -31 9 -42 10 -8 16 -23 14 -37 -3 -21 -9 -23 -88 -29 -47 -3
-87 -4 -89 -2 -13 10 16 15 88 17 51 0 74 4 64 10 -9 5 -47 6 -85 4 l-69 -5 3
63 c2 44 7 64 15 64 7 0 13 -4 13 -10 0 -26 31 -5 50 35 12 24 30 47 41 50 10
4 19 14 19 23 1 9 7 2 16 -17 14 -32 16 -34 31 -18 10 9 17 32 17 52 0 30 3
35 26 36 25 2 25 2 -2 6 -16 2 -28 9 -28 14 0 6 8 8 18 5 9 -2 37 -8 62 -11z
m-288 -19 c13 -19 9 -26 -15 -26 -13 0 -28 -5 -33 -10 -7 -7 -16 -4 -29 10
-10 11 -13 20 -7 20 7 0 12 -5 12 -11 0 -5 5 -7 12 -3 8 5 6 11 -5 19 -10 7
-17 14 -17 17 0 9 75 -5 82 -16z m-332 -17 c0 -27 -2 -30 -15 -19 -8 7 -15 21
-15 31 0 11 7 19 15 19 10 0 15 -10 15 -31z m103 12 c4 -4 -9 -7 -29 -7 -24 0
-41 -6 -50 -19 -13 -18 -14 -17 -14 7 0 17 6 28 18 31 19 5 63 -2 75 -12z
m307 8 c0 -7 12 -10 30 -7 26 4 30 1 30 -18 0 -12 -7 -27 -15 -34 -8 -7 -15
-8 -15 -3 0 6 -9 21 -21 34 -17 19 -22 21 -29 9 -7 -10 -10 -11 -10 -2 0 6 -7
12 -15 12 -8 0 -15 5 -15 10 0 6 14 10 30 10 17 0 30 -5 30 -11z m120 -44 c0
-26 -14 -33 -25 -15 -9 14 1 40 15 40 5 0 10 -11 10 -25z m-448 -25 c-2 -23 1
-47 8 -55 10 -12 9 -15 -8 -15 -26 0 -52 36 -52 71 0 31 7 39 34 39 19 0 21
-5 18 -40z m338 -4 c0 -43 -15 -66 -25 -37 -6 21 -45 30 -45 11 0 -5 -4 -10
-10 -10 -5 0 -10 15 -10 34 0 37 12 45 63 38 23 -4 27 -9 27 -36z m-260 16 c0
-21 -42 -48 -59 -38 -12 8 -15 39 -4 49 3 4 19 7 35 7 20 0 28 -5 28 -18z
m158 -15 c2 -19 -1 -27 -12 -27 -11 0 -16 10 -16 31 0 38 24 35 28 -4z m-698
-2 c0 -26 -14 -33 -25 -15 -9 14 1 40 15 40 5 0 10 -11 10 -25z m588 3 c2 -12
-2 -15 -17 -11 -12 3 -21 12 -21 20 0 20 34 12 38 -9z m-40 -56 c2 -18 -1 -32
-6 -32 -17 0 -22 13 -9 28 9 12 9 16 0 19 -7 3 -13 9 -13 15 0 25 25 -2 28
-30z m47 3 c0 -11 -8 -21 -17 -23 -14 -3 -18 3 -18 23 0 20 4 26 18 23 9 -2
17 -12 17 -23z m170 4 c4 -11 4 -23 0 -27 -7 -7 -25 17 -25 36 0 20 18 14 25
-9z m-63 -14 c4 -21 1 -25 -18 -25 -19 0 -24 5 -24 25 0 18 5 25 19 25 12 0
20 -9 23 -25z m611 -87 c4 -46 7 -102 7 -125 0 -39 -2 -43 -25 -43 -23 0 -25
3 -25 52 0 33 6 58 16 69 32 36 -19 84 -64 60 -30 -16 -95 1 -109 29 -12 25
-12 25 35 31 26 3 72 7 103 7 l56 2 6 -82z m206 62 c10 -5 4 -10 -20 -18 -66
-20 -79 -21 -79 -6 0 17 -12 18 -27 3 -15 -15 -33 -3 -33 23 0 20 4 20 72 13
40 -3 79 -10 87 -15z m-939 -100 c0 -82 -3 -100 -15 -100 -12 0 -15 17 -15 93
0 52 3 97 7 100 18 19 23 -1 23 -93z m-960 75 c-15 -18 1 -20 18 -3 9 9 12 3
12 -30 0 -35 -3 -42 -19 -42 -14 0 -20 9 -23 35 -2 19 1 40 6 45 15 15 20 12
6 -5z m1088 -13 c2 -14 -2 -22 -12 -22 -19 0 -29 17 -22 36 8 22 30 12 34 -14z
m645 -12 c4 -15 0 -20 -14 -20 -18 0 -26 20 -12 33 11 12 21 8 26 -13z m-695
-18 c2 -15 -2 -22 -12 -22 -11 0 -16 9 -16 26 0 31 23 28 28 -4z m460 16 c18
-18 15 -28 -8 -28 -13 0 -20 7 -20 20 0 23 10 26 28 8z m-818 -23 c0 -16 -6
-25 -15 -25 -15 0 -21 31 -8 43 13 14 23 6 23 -18z m895 2 c0 -1 6 -12 13 -24
6 -13 12 -45 12 -73 l0 -50 -47 -2 c-27 -1 -59 -2 -73 -1 -14 0 -101 -4 -193
-8 -98 -5 -175 -5 -184 0 -10 5 49 11 158 14 96 3 185 8 198 12 17 6 22 5 17
-3 -14 -24 14 -11 30 13 10 16 14 34 9 53 -3 16 -3 42 1 56 6 24 10 27 33 21
14 -4 26 -7 26 -8z m85 3 c0 -5 -16 -10 -36 -10 -21 0 -33 4 -29 10 3 6 19 10
36 10 16 0 29 -4 29 -10z m-578 -84 c-2 -42 -8 -76 -13 -76 -10 0 -13 143 -3
153 15 15 19 -5 16 -77z m658 -28 c0 -51 3 -137 7 -190 5 -87 4 -98 -10 -98
-14 0 -17 10 -17 53 0 30 -3 115 -7 190 -5 123 -4 137 10 137 15 0 17 -13 17
-92z m-1720 -108 c0 -177 -13 -245 -22 -112 -6 92 3 292 13 292 5 0 9 -81 9
-180z m1460 148 c10 -6 2 -7 -25 -4 -22 3 -67 6 -100 7 -45 1 -54 3 -35 9 30
9 139 1 160 -12z m160 -28 c0 -27 -4 -50 -10 -50 -5 0 -10 23 -10 50 0 28 5
50 10 50 6 0 10 -22 10 -50z m-752 3 c40 -10 23 -20 -20 -12 -24 4 -62 8 -85
9 -23 0 -45 5 -49 12 -5 8 11 9 62 4 38 -4 79 -9 92 -13z m377 7 c-11 -5 -54
-8 -95 -8 l-75 2 70 6 c39 4 81 7 95 8 23 0 23 0 5 -8z m229 -10 c16 -16 2
-20 -35 -10 -18 5 -65 14 -104 19 -68 10 -67 10 30 5 55 -3 104 -9 109 -14z
m-444 1 c0 -5 -13 -14 -30 -20 -24 -8 -30 -7 -30 4 0 7 6 16 13 18 21 9 47 8
47 -2z m-390 -21 c0 -6 -34 -10 -82 -10 -46 0 -111 -6 -145 -14 -35 -7 -63 -9
-63 -5 0 4 30 12 68 18 37 6 78 12 92 14 53 9 130 7 130 -3z m228 -6 c12 -3
22 -10 22 -15 0 -5 -6 -6 -14 -3 -7 3 -62 11 -122 19 l-109 14 100 -4 c55 -3
110 -8 123 -11z m118 -44 c33 -13 30 -30 -6 -30 -29 0 -30 1 -29 48 1 30 4 37
6 19 3 -18 13 -31 29 -37z m434 51 c0 -4 -34 -11 -77 -15 -168 -14 -305 -5
-250 17 21 9 327 7 327 -2z m-1087 -18 c-10 -4 -9 -8 2 -19 12 -13 21 -13 57
-2 57 16 472 18 488 2 21 -21 -113 -39 -295 -39 -181 0 -235 6 -260 31 -12 13
-13 19 -4 30 7 8 15 12 18 8 3 -4 0 -9 -6 -11z m695 -10 c-2 -12 -11 -17 -23
-15 -25 5 -29 8 -20 21 11 19 47 13 43 -6z m52 -40 c0 -13 2 -15 8 -5 6 8 28
12 63 11 30 -2 114 1 188 6 101 6 132 5 127 -3 -4 -8 -38 -12 -89 -13 -45 0
-102 -4 -127 -8 l-45 -8 40 -2 c43 -1 74 -15 62 -27 -4 -4 -17 -2 -30 4 -28
13 -70 20 -172 27 -85 7 -90 8 -80 24 11 19 55 13 55 -6z m600 1 c0 -11 -5
-14 -16 -10 -9 3 -51 6 -95 6 -46 0 -79 4 -79 10 0 6 38 10 95 10 81 0 95 -2
95 -16z m-797 -8 c2 -10 -7 -12 -148 -19 l-100 -6 84 10 c46 5 98 13 115 18
35 10 47 9 49 -3z m-418 -16 l80 -9 -98 3 c-63 2 -103 8 -110 16 -10 10 -6 11
18 5 17 -4 66 -11 110 -15z m933 3 c-21 -2 -55 -2 -75 0 -21 2 -4 4 37 4 41 0
58 -2 38 -4z m194 -12 c72 -6 108 -18 81 -28 -20 -7 -17 -132 2 -139 8 -4 12
-10 9 -15 -8 -13 -48 -11 -62 3 -10 10 -17 10 -31 1 -16 -10 -24 -6 -54 25
-19 20 -37 51 -40 67 -3 17 -9 48 -13 69 -7 36 -6 39 12 31 10 -5 54 -11 96
-14z m-627 -7 c-60 -15 -91 -12 -80 6 3 5 36 10 73 9 l67 -1 -60 -14z m-145
-9 c15 -18 37 -19 43 -2 3 8 7 6 12 -6 9 -22 6 -26 -25 -29 -17 -2 -28 4 -35
19 -5 12 -16 24 -25 27 -13 3 -12 4 1 5 9 0 22 -6 29 -14z m650 0 c0 -8 -4
-15 -10 -15 -5 0 -10 -11 -10 -25 0 -28 -3 -29 -31 -15 -10 6 -19 20 -19 31 0
11 -10 24 -22 29 -18 7 -10 9 35 9 44 1 57 -2 57 -14z m-1005 -3 c31 -6 41
-12 43 -29 3 -20 1 -21 -30 -12 -18 5 -68 9 -110 9 -63 0 -78 3 -78 15 0 8 -9
15 -20 15 -11 0 -20 -7 -20 -15 0 -11 -7 -14 -22 -10 -13 3 -65 1 -115 -3 -84
-7 -93 -6 -93 10 0 11 10 18 33 21 57 7 371 6 412 -1z m297 -27 c-3 -29 -9
-33 -47 -42 -35 -8 -47 -7 -58 5 -21 20 -81 -3 -99 -37 -12 -25 -13 -24 -16
28 -2 33 -9 59 -18 65 -10 8 21 11 114 12 l128 0 -4 -31z m-922 6 c0 -14 -9
-20 -35 -23 -28 -3 -35 -1 -35 13 0 12 10 19 33 22 17 2 33 5 35 5 1 1 2 -7 2
-17z m60 12 c0 -5 -11 -13 -25 -20 -22 -10 -25 -9 -25 8 0 14 7 19 25 19 14 0
25 -3 25 -7z m893 -41 c-15 -11 -19 -11 -21 3 -2 9 -1 24 3 33 6 15 8 15 21
-3 13 -18 13 -21 -3 -33z m422 28 c168 -43 317 -165 394 -321 61 -124 74 -190
69 -334 -6 -138 -26 -210 -88 -315 -79 -134 -202 -231 -347 -276 -73 -23 -95
-26 -190 -22 -72 3 -118 10 -138 21 -16 9 -45 19 -63 22 -42 7 -133 64 -190
119 -62 58 -127 155 -114 168 14 14 -22 88 -42 88 -21 0 -41 112 -41 225 1
110 19 205 40 205 16 0 40 65 30 80 -18 29 157 235 233 274 163 83 300 104
447 66z m157 -12 c13 -13 49 -40 81 -60 74 -49 137 -112 187 -190 36 -55 39
-63 25 -77 -8 -8 -16 -13 -17 -10 -2 2 -14 26 -28 52 -38 73 -119 167 -183
211 -31 22 -57 43 -57 47 0 4 -11 10 -25 13 -14 4 -25 13 -25 21 0 21 17 18
42 -7z m108 -7 c0 -11 3 -27 6 -35 5 -12 2 -15 -10 -10 -17 7 -23 64 -6 64 6
0 10 -9 10 -19z m209 -53 c1 -15 -3 -30 -9 -33 -6 -4 -10 14 -9 47 0 39 3 48
9 33 5 -11 9 -32 9 -47z m-1429 42 c0 -6 -5 -19 -11 -29 -16 -25 -3 -71 20
-71 23 0 32 29 24 77 l-6 36 33 -6 c18 -4 62 -7 99 -7 79 0 101 -11 84 -39 -6
-10 -9 -27 -7 -38 4 -14 -9 -30 -45 -61 -28 -23 -72 -72 -98 -107 -26 -36 -54
-65 -61 -65 -18 0 -36 -51 -24 -70 5 -9 6 -25 1 -38 -14 -38 -22 -204 -11
-249 l10 -43 -37 0 c-35 0 -37 2 -88 99 -29 55 -53 107 -53 118 0 10 -7 27
-15 37 -12 16 -18 17 -27 8 -7 -7 -14 -12 -18 -12 -8 0 -12 178 -5 236 5 44 9
51 25 47 24 -6 51 64 29 78 -9 6 -18 3 -25 -6 -23 -30 -34 -16 -34 44 l0 60
43 4 c94 8 197 7 197 -3z m-403 -41 c-1 -30 3 -44 16 -53 14 -9 20 -8 27 4 16
25 11 52 -10 57 -39 10 -23 33 24 33 l43 0 1 -197 c1 -108 5 -211 8 -230 4
-21 2 -33 -5 -34 -6 -1 -15 -2 -21 -3 -11 -1 -65 -82 -113 -168 -32 -58 -55
-78 -41 -35 4 12 7 165 5 339 -2 297 -1 317 16 321 47 12 52 9 50 -34z m798 1
c0 -22 -29 -18 -33 3 -3 14 1 18 15 15 10 -2 18 -10 18 -18z m-375 -21 c0 -20
-15 -26 -25 -9 -9 15 3 43 15 35 5 -3 10 -15 10 -26z m385 -31 c-38 -35 -89
-94 -115 -133 -45 -69 -53 -74 -112 -76 -9 0 -22 -7 -30 -16 -13 -16 -3 -28
46 -58 15 -9 15 -16 0 -85 -11 -53 -15 -104 -11 -175 4 -78 2 -90 -5 -57 l-9
43 -42 -5 c-23 -3 -43 -5 -44 -5 -1 -1 -7 -16 -13 -33 -9 -31 -10 -30 -5 14 3
35 1 47 -11 52 -28 11 3 213 38 248 12 12 18 28 15 39 -7 25 63 120 131 179
44 39 101 74 152 95 8 3 26 12 40 20 50 29 42 14 -25 -47z m-775 26 c0 -22 -2
-25 -15 -14 -8 7 -15 19 -15 26 0 8 7 14 15 14 10 0 15 -10 15 -26z m696 -7
c-76 -48 -149 -113 -195 -175 -29 -40 -56 -70 -59 -68 -7 8 61 96 115 148 51
49 132 108 148 107 6 0 1 -6 -9 -12z m-583 -67 c4 -15 0 -20 -14 -20 -12 0
-19 7 -19 20 0 11 6 20 14 20 7 0 16 -9 19 -20z m1617 2 c0 -15 6 -18 29 -14
16 2 32 -1 36 -8 11 -17 -55 -10 -77 9 -22 17 -23 31 -3 31 8 0 15 -8 15 -18z
m120 3 c0 -9 -9 -15 -25 -15 -16 0 -25 6 -25 15 0 9 9 15 25 15 16 0 25 -6 25
-15z m-1720 -50 c0 -9 -9 -15 -25 -15 -16 0 -25 6 -25 15 0 9 9 15 25 15 16 0
25 -6 25 -15z m1670 -42 l0 -48 -25 40 c-31 50 -31 55 0 55 23 0 25 -3 25 -47z
m-1933 -170 c-2 -38 -3 -7 -3 67 0 74 1 105 3 68 2 -38 2 -98 0 -135z m1973
125 c0 -62 0 -63 -15 -34 -20 38 -20 96 0 96 12 0 15 -14 15 -62z m-1720 -68
c0 -100 -2 -120 -15 -120 -12 0 -15 20 -15 120 0 100 3 120 15 120 13 0 15
-20 15 -120z m1701 13 c9 -25 0 -42 -23 -43 -13 0 -19 41 -8 55 17 20 19 19
31 -12z m-1188 11 c4 -5 -6 -39 -19 -62 0 -1 -9 0 -18 4 -16 6 -16 8 0 25 9
10 13 23 9 28 -6 11 17 15 28 5z m-189 -20 c9 -3 16 -13 16 -21 0 -20 -34 -12
-38 10 -4 19 -1 20 22 11z m-14 -39 c0 -2 -7 -30 -15 -62 -8 -31 -15 -94 -15
-140 0 -51 -4 -84 -12 -89 -8 -5 -10 22 -5 107 6 111 22 189 39 189 4 0 8 -2
8 -5z m1409 -47 c7 -24 14 -92 17 -153 6 -132 -10 -218 -41 -224 -11 -2 -24
-8 -28 -15 -5 -6 -6 -3 -3 9 3 11 10 40 16 65 22 82 13 269 -16 343 -5 13 0
17 19 17 20 0 27 -7 36 -42z m-1947 -83 c4 -32 2 -36 -16 -33 -30 4 -37 68 -8
68 15 0 21 -8 24 -35z m248 25 c0 -5 -13 -10 -30 -10 -16 0 -30 5 -30 10 0 6
14 10 30 10 17 0 30 -4 30 -10z m-68 -132 l-3 -98 -35 0 c-27 0 -34 4 -34 20
0 11 5 20 10 20 6 0 10 15 8 33 -1 17 5 43 14 57 9 14 19 38 22 54 13 53 21
12 18 -86z m74 85 c4 -16 24 -63 46 -105 l38 -78 -39 0 -38 0 -7 90 c-4 49
-12 92 -17 95 -12 8 -12 25 1 25 5 0 13 -12 16 -27z m-29 -136 c-7 -146 -6
-116 -2 -262 2 -102 2 -109 -5 -45 -4 41 -11 108 -15 149 -7 59 -6 73 4 66 9
-5 12 -2 8 11 -11 38 -18 175 -12 205 6 27 9 30 17 15 6 -10 7 -69 5 -139z
m160 -49 c-22 -14 -27 -8 -72 85 -51 102 -34 91 22 -16 20 -37 38 -65 41 -63
2 3 -14 39 -37 80 -22 41 -41 81 -41 88 0 7 22 -27 49 -77 34 -62 46 -92 38
-97z m1651 129 c49 -73 76 -121 64 -113 -18 11 -14 -6 8 -34 22 -29 26 -48 7
-31 -16 13 -27 5 -27 -21 0 -11 -4 -16 -10 -13 -14 8 -13 21 3 37 11 11 10 20
-8 53 -12 22 -27 41 -34 43 -7 1 -11 -1 -9 -5 2 -4 12 -26 23 -47 14 -28 17
-40 8 -43 -9 -3 -9 -10 -1 -28 6 -14 7 -35 3 -52 -5 -15 -9 -38 -10 -50 0 -13
-7 -29 -14 -35 -10 -11 -11 -9 -5 6 5 14 4 17 -5 12 -7 -5 -6 7 5 31 21 46 22
96 2 128 -3 6 -16 35 -27 65 -21 55 -22 79 -1 40 6 -12 14 -19 17 -16 3 2 -5
19 -17 35 -12 17 -20 39 -17 49 3 11 12 -1 29 -37 17 -38 26 -49 31 -38 4 10
-8 36 -29 68 -20 28 -31 48 -25 45 6 -4 23 -26 39 -49z m-1906 19 c6 4 -4 -19
-22 -52 -40 -71 -45 -77 -36 -44 7 24 6 24 -8 6 -18 -22 -21 -40 -6 -31 16 10
12 -11 -5 -25 -13 -11 -14 -10 -9 6 5 13 4 16 -4 9 -6 -5 -12 -21 -14 -34 -1
-14 -9 -26 -15 -28 -10 -4 -10 3 0 29 19 54 102 189 105 173 2 -9 8 -12 14 -9z
m-155 -158 c-2 -35 -3 -9 -3 57 0 66 1 94 3 63 2 -32 2 -86 0 -120z m633 31
c0 -12 -8 -23 -20 -26 -11 -3 -20 -14 -20 -24 0 -11 -4 -19 -10 -19 -13 0 -13
19 1 59 13 37 49 44 49 10z m1394 -22 c-3 -11 5 -34 20 -56 26 -37 26 -37 9
-80 l-17 -43 -17 34 c-21 38 -27 164 -8 152 8 -4 9 1 4 17 -5 18 -4 21 4 9 6
-8 8 -23 5 -33z m-1354 1 c0 -13 3 -33 6 -45 5 -18 3 -21 -16 -16 -28 7 -33
23 -21 56 13 33 31 35 31 5z m-470 -28 c0 -22 -15 -24 -94 -14 -37 6 -44 9
-35 20 7 9 33 14 70 14 52 0 59 -2 59 -20z m188 7 c27 -18 9 -27 -53 -27 -60
0 -65 2 -56 18 10 18 84 25 109 9z m130 -11 c5 -24 -64 -23 -77 2 -8 15 -4 17
32 16 30 -1 43 -6 45 -18z m38 -26 l6 -35 -16 29 c-18 32 -22 66 -6 50 5 -5
12 -25 16 -44z m-100 -19 c34 -44 74 -123 67 -134 -3 -5 -21 20 -40 57 -19 38
-37 66 -39 63 -3 -3 11 -36 30 -75 32 -63 44 -118 24 -106 -5 3 -6 10 -3 15 4
5 -10 41 -30 80 -19 38 -34 76 -33 84 2 8 -1 15 -7 16 -5 1 -35 -54 -65 -122
-35 -79 -56 -116 -58 -102 -3 21 92 222 110 234 6 4 7 17 4 30 -6 22 -5 23 6
5 7 -10 22 -30 34 -45z m253 -6 c0 -5 -13 -18 -29 -27 -33 -19 -39 -45 -12
-55 9 -4 23 -15 30 -25 7 -10 24 -18 37 -18 17 0 29 -9 39 -28 8 -16 33 -52
56 -81 l42 -53 -43 24 c-58 32 -161 129 -198 187 -35 54 -43 108 -13 96 9 -3
29 -9 45 -12 24 -5 27 -3 28 23 l1 29 8 -25 c4 -14 8 -29 9 -35z m-511 20 c1
-1 1 -61 0 -132 l-3 -131 -71 137 -71 136 71 -3 c39 -3 72 -5 74 -7z m312 -30
c6 -19 16 -35 21 -35 5 0 9 -9 9 -20 0 -32 -13 -23 -42 30 -32 58 -33 60 -14
60 8 0 20 -16 26 -35z m75 13 c-3 -13 -16 -67 -29 -121 -22 -94 -31 -116 -40
-106 -8 8 56 249 65 249 5 0 7 -10 4 -22z m-396 -252 c15 -18 7 -36 -9 -20
-21 21 -149 268 -143 277 3 5 35 -47 72 -115 36 -69 72 -133 80 -142z m158
177 l-42 -88 -5 57 c-3 31 -11 63 -17 70 -7 6 -13 20 -13 30 0 15 9 18 60 18
l59 0 -42 -87z m1612 48 c15 -9 8 -61 -8 -61 -17 0 -33 29 -26 50 7 22 13 24
34 11z m-1218 -21 c22 0 41 -44 26 -59 -6 -6 -17 -11 -25 -11 -12 0 -12 3 -2
15 10 12 10 18 0 30 -14 17 -30 20 -30 4 0 -5 4 -8 9 -5 5 3 11 -1 15 -9 7
-19 -8 -19 -24 0 -6 8 -8 20 -4 27 6 11 5 11 -8 0 -9 -7 -19 -9 -22 -4 -9 14
6 24 29 18 11 -3 27 -6 36 -6z m1164 -9 c-4 -13 0 -23 11 -29 15 -8 13 -15
-19 -68 -20 -33 -56 -82 -80 -109 -56 -63 -158 -136 -176 -126 -9 6 -3 15 23
30 64 40 165 159 204 243 36 76 49 97 37 59z m120 -51 c19 -38 31 -70 25 -70
-10 0 -70 111 -70 130 0 22 11 7 45 -60z m-1744 33 c8 -180 8 -203 -2 -203 -7
0 -9 10 -5 26 4 14 3 23 -1 21 -5 -3 -9 37 -8 89 0 51 3 94 8 94 4 0 8 -12 8
-27z m344 -28 c46 -69 117 -133 189 -171 50 -26 70 -44 48 -44 -13 0 -103 60
-153 101 -69 57 -151 169 -125 169 3 0 21 -25 41 -55z m1502 29 c5 -13 8 -13
15 -2 7 9 8 7 3 -8 -3 -13 10 -62 35 -125 22 -56 40 -107 40 -112 0 -26 -39
30 -50 71 -7 26 -16 52 -20 57 -4 6 -15 34 -25 64 -12 38 -20 49 -26 40 -10
-16 -12 -8 -3 15 8 20 23 20 31 0z m-1903 -91 c4 -54 3 -83 -4 -83 -6 0 -10
34 -10 87 0 47 2 84 4 82 2 -2 6 -41 10 -86z m1776 0 c0 -31 -4 -43 -14 -43
-16 0 -33 100 -21 121 12 19 34 -30 35 -78z m-50 5 c0 -50 0 -51 -19 -34 -19
17 -19 20 -4 52 9 19 18 34 20 34 2 0 3 -23 3 -52z m153 -3 c17 -50 9 -59 -17
-20 -14 21 -15 65 -1 65 2 0 10 -20 18 -45z m223 -62 c-10 -10 -33 22 -28 41
4 17 7 16 19 -9 8 -15 12 -29 9 -32z m-1836 1 c0 -15 -6 -24 -15 -24 -15 0
-21 40 -9 53 12 11 24 -3 24 -29z m1428 16 c3 -8 -1 -11 -10 -7 -11 4 -14 -1
-12 -19 1 -13 -2 -24 -6 -24 -17 0 -20 19 -8 45 12 26 28 29 36 5z m171 -7 c9
-21 9 -28 0 -34 -15 -9 -38 18 -39 44 0 26 25 20 39 -10z m50 -5 c-14 -10 -14
-15 4 -52 10 -23 27 -50 37 -61 11 -13 15 -27 11 -39 -6 -16 -13 -9 -41 40
-36 64 -45 104 -27 116 19 12 34 8 16 -4z m176 -28 c21 -42 19 -52 -12 -48
-31 3 -43 38 -23 64 16 19 17 19 35 -16z m-1789 -22 c-8 -38 -11 -42 -30 -35
-12 5 -13 12 -5 37 15 42 44 41 35 -2z m1427 -37 l18 -31 -26 0 c-29 0 -52 37
-41 65 8 21 23 10 49 -34z m187 -31 c22 -44 37 -80 33 -80 -5 0 -24 32 -43 71
-41 84 -43 89 -36 89 3 0 24 -36 46 -80z m-1531 29 c15 -44 14 -49 -12 -49
-29 0 -47 18 -47 45 0 47 43 49 59 4z m-309 -7 c0 -40 -19 -56 -42 -35 -23 21
-23 50 0 56 36 10 42 7 42 -21z m-436 -53 c-16 -18 -54 -27 -54 -12 0 27 27
73 44 75 28 4 34 -37 10 -63z m1040 28 c-13 -34 -37 -15 -27 22 5 19 8 21 20
9 7 -8 11 -22 7 -31z m-84 -14 c0 -15 -26 -17 -35 -3 -3 6 -3 19 0 31 7 19 7
20 21 2 7 -10 14 -24 14 -30z m-340 -58 c-13 -47 -25 -84 -27 -81 -2 2 6 42
18 90 13 47 25 83 27 81 3 -3 -5 -43 -18 -90z m1770 30 c23 -60 23 -75 2 -75
-19 0 -32 32 -32 81 0 27 19 23 30 -6z m-1960 -39 c0 -13 3 -38 6 -55 6 -27 4
-31 -15 -31 -19 0 -21 6 -21 55 0 42 3 55 15 55 9 0 15 -9 15 -24z m1358 1 c2
-11 -1 -15 -11 -11 -9 3 -21 -4 -30 -16 -14 -21 -15 -21 -20 5 -3 20 0 29 17
35 27 11 40 7 44 -13z m-503 -18 c6 -6 6 -16 -1 -27 -12 -19 -29 -19 -29 0 0
7 -8 14 -17 16 -10 2 -18 -2 -18 -9 0 -7 -3 -10 -6 -7 -3 3 0 15 8 27 13 21
40 21 63 0z m425 13 c0 -12 -65 -31 -126 -37 -43 -5 -40 -3 25 15 41 11 77 22
79 25 8 8 22 6 22 -3z m620 -12 c-13 -8 -13 -10 2 -10 23 0 44 -38 29 -53 -14
-14 -41 9 -41 34 0 11 -6 19 -12 19 -9 0 -8 4 2 10 8 5 20 10 25 10 6 0 3 -5
-5 -10z"/>
<path d="M1987 1168 c-105 -28 -154 -169 -89 -257 69 -94 206 -95 269 -1 89
129 -29 298 -180 258z m131 -36 c59 -43 79 -135 43 -202 -26 -50 -96 -84 -151
-75 -24 4 -55 19 -73 35 l-31 27 23 49 c34 72 51 123 51 154 0 16 6 31 13 34
24 11 96 -2 125 -22z m-153 -24 c-10 -43 -55 -157 -65 -163 -13 -8 -23 52 -15
91 6 34 58 104 77 104 6 0 7 -13 3 -32z"/>
<path d="M2591 915 c-1 -16 72 -118 87 -123 8 -2 -1 16 -20 40 -18 24 -41 55
-50 68 -9 14 -17 21 -17 15z"/>
</g>
</svg>
