<?xml version="1.0" standalone="no"?>
<!DOCTYPE svg PUBLIC "-//W3C//DTD SVG 20010904//EN"
 "http://www.w3.org/TR/2001/REC-SVG-20010904/DTD/svg10.dtd">
<svg version="1.0" xmlns="http://www.w3.org/2000/svg"
 width="300.000000pt" height="117.000000pt" viewBox="0 0 300.000000 117.000000"
 preserveAspectRatio="xMidYMid meet">
<metadata>
Created by potrace 1.10, written by Peter Selinger 2001-2011
</metadata>
<g transform="translate(0.000000,117.000000) scale(0.100000,-0.100000)"
fill="#000000" stroke="none">
<path d="M344 916 c-62 -29 -117 -92 -145 -165 -19 -51 -20 -73 -17 -271 3
-199 5 -218 25 -256 55 -102 179 -159 297 -135 33 7 97 28 141 48 118 51 193
74 223 67 15 -4 49 -18 75 -31 102 -51 248 -38 263 23 10 38 -2 53 -48 60 -62
10 -98 49 -98 107 0 25 6 49 13 54 9 8 613 21 1224 27 35 0 49 -6 77 -33 38
-37 30 -36 179 -15 42 6 50 4 74 -20 54 -54 157 -11 139 57 -7 28 -31 57 -48
57 -6 0 0 -8 12 -18 44 -36 17 -112 -41 -112 -18 0 -35 9 -48 26 -22 28 -41
29 -182 8 -39 -5 -48 -3 -60 13 -24 33 -62 53 -101 53 -38 0 -38 0 -38 40 0
33 3 40 20 40 11 0 27 11 36 25 14 22 23 25 65 23 27 -1 49 -6 49 -9 0 -4 8
-10 18 -12 16 -4 16 -5 0 -6 -10 0 -18 -5 -18 -11 0 -14 11 -12 34 5 18 14 18
15 -7 26 -15 7 -24 16 -21 20 10 16 23 9 40 -20 10 -16 26 -32 37 -35 17 -4
18 -3 3 13 -18 20 -20 31 -6 31 5 0 16 -13 25 -30 15 -28 45 -42 45 -20 0 6
-7 10 -16 10 -8 0 -12 4 -9 10 3 5 12 10 19 10 17 0 29 -40 13 -41 -7 0 1 -5
16 -9 16 -5 36 -6 44 -3 11 4 14 2 9 -5 -4 -7 -1 -12 8 -12 19 0 21 -17 4 -22
-17 -6 -2 -38 17 -38 11 0 15 7 13 24 -1 13 4 31 12 41 13 15 12 19 -5 31 -11
8 -25 12 -32 10 -7 -3 -15 -1 -18 4 -4 6 -17 10 -30 10 -13 0 -27 4 -30 10 -3
5 -17 10 -30 10 -13 0 -27 5 -31 11 -3 6 -17 9 -30 6 -13 -2 -24 -1 -24 4 0
15 -39 20 -59 7 -17 -10 -23 -10 -33 1 -11 11 -9 13 10 8 28 -7 29 9 0 16 -27
8 -41 -1 -34 -20 4 -10 1 -13 -13 -8 -13 4 -26 -3 -42 -23 l-24 -29 -210 8
c-115 5 -360 13 -542 18 -183 5 -337 12 -343 16 -5 3 -10 24 -10 46 0 30 6 46
26 64 22 21 97 45 139 45 8 0 19 9 25 21 16 28 -8 63 -62 90 -57 29 -170 22
-282 -16 -121 -42 -169 -40 -297 17 -107 47 -225 78 -296 78 -21 0 -61 -11
-89 -24z m231 -13 c22 -8 49 -16 60 -18 11 -2 56 -21 100 -42 70 -33 89 -38
150 -37 47 0 96 9 151 26 157 51 263 45 313 -18 28 -35 17 -50 -40 -57 -71 -9
-115 -33 -135 -75 -13 -28 -15 -42 -6 -64 10 -28 10 -28 -30 -28 -34 0 -39 3
-33 18 26 65 28 74 12 89 -15 15 -23 14 -93 -7 -97 -28 -217 -25 -308 10 -99
38 -186 21 -209 -41 -10 -25 -17 -29 -49 -29 l-38 0 0 -136 0 -136 41 4 41 4
-5 -37 c-7 -52 -51 -113 -102 -140 -72 -38 -67 -67 11 -79 63 -10 134 8 268
65 148 63 177 66 262 25 85 -40 166 -50 212 -26 39 20 41 44 5 52 -80 17 -117
49 -129 110 -7 36 11 94 28 94 6 0 7 -7 4 -16 -16 -41 -16 -64 -2 -97 15 -36
39 -52 111 -74 44 -13 46 -47 3 -73 -48 -31 -140 -23 -233 20 -85 39 -118 36
-238 -19 -121 -56 -185 -75 -252 -74 -100 0 -182 49 -226 134 -18 37 -20 59
-21 262 -1 209 0 225 21 272 36 82 106 144 175 156 52 8 129 1 181 -18z m131
-214 c89 -32 240 -37 323 -10 83 26 96 18 74 -45 -13 -39 -18 -44 -44 -44 -38
0 -53 -36 -45 -105 8 -64 8 -63 0 -111 -12 -76 36 -141 114 -153 48 -8 51 -26
6 -41 -50 -17 -115 -6 -192 31 -55 27 -71 31 -117 26 -30 -3 -90 -22 -134 -42
-129 -58 -191 -76 -254 -76 -32 0 -62 3 -68 6 -18 12 -9 33 20 45 61 25 121
113 121 178 0 31 4 42 15 42 23 0 22 225 -1 238 -37 21 31 81 92 82 17 0 57
-9 90 -21z m-178 -181 c3 -103 2 -108 -18 -108 -11 0 -20 -7 -20 -15 0 -10
-10 -15 -30 -15 -26 0 -30 3 -30 29 0 26 3 28 38 27 l37 -1 3 83 3 82 -35 0
c-24 0 -36 -5 -39 -17 -3 -12 -5 -9 -6 8 -1 35 7 40 54 37 l40 -3 3 -107z
m-48 62 c-16 -5 -19 -8 -8 -9 28 -2 31 -21 4 -21 -19 0 -26 5 -26 20 0 15 6
20 28 19 l27 -1 -25 -8z m600 -60 c0 -40 -4 -70 -10 -70 -6 0 -10 30 -10 70 0
40 4 70 10 70 6 0 10 -30 10 -70z m30 41 c0 -17 -4 -33 -10 -36 -6 -4 -10 8
-10 29 0 20 5 36 10 36 6 0 10 -13 10 -29z m40 -41 c0 -56 -3 -70 -15 -70 -12
0 -15 14 -15 63 0 35 3 67 7 70 17 18 23 1 23 -63z m38 38 c2 -16 -3 -28 -12
-31 -13 -5 -16 1 -16 29 0 41 23 43 28 2z m84 -8 c2 -16 1 -27 -3 -24 -4 2
-10 0 -13 -5 -4 -5 -2 -12 4 -16 16 -10 12 -55 -5 -55 -12 0 -15 14 -15 70 0
55 3 68 14 64 8 -3 16 -18 18 -34z m-42 -35 c0 -51 -3 -65 -15 -65 -12 0 -15
14 -15 65 0 51 3 65 15 65 12 0 15 -14 15 -65z m90 0 c0 -49 -3 -65 -14 -65
-11 0 -15 17 -18 65 -3 57 -1 65 15 65 14 0 17 -10 17 -65z m50 0 c0 -58 -2
-65 -20 -65 -18 0 -20 7 -20 65 0 58 2 65 20 65 18 0 20 -7 20 -65z m50 0 c0
-58 -2 -65 -20 -65 -18 0 -20 7 -20 65 0 58 2 65 20 65 18 0 20 -7 20 -65z
m50 0 c0 -58 -2 -65 -20 -65 -18 0 -20 7 -20 65 0 58 2 65 20 65 18 0 20 -7
20 -65z m60 0 c0 -63 -1 -65 -25 -65 -24 0 -25 2 -25 65 0 63 1 65 25 65 24 0
25 -2 25 -65z m60 -6 c0 -56 -1 -59 -25 -59 -24 0 -25 2 -25 64 0 62 0 63 25
58 23 -4 25 -8 25 -63z m70 2 c0 -57 -1 -59 -25 -57 -24 1 -25 4 -25 59 0 54
1 57 25 57 24 0 25 -3 25 -59z m80 5 l0 -54 -35 -4 -35 -4 0 58 0 58 35 0 35
0 0 -54z m80 -1 l0 -55 -35 0 -35 0 0 55 0 55 35 0 35 0 0 -55z m80 0 l0 -55
-35 0 -35 0 0 55 0 55 35 0 35 0 0 -55z m80 -6 l0 -49 -35 0 -35 0 0 53 0 53
35 -4 c35 -4 35 -5 35 -53z m80 1 l0 -50 -35 0 -35 0 0 50 0 50 35 0 35 0 0
-50z m90 0 l0 -50 -35 0 -35 0 0 50 0 50 35 0 35 0 0 -50z m90 0 l0 -50 -40 0
-40 0 0 50 0 50 40 0 40 0 0 -50z m-1753 -14 c-18 -14 -18 -14 0 -19 12 -3 9
-5 -9 -6 -22 -1 -28 4 -28 19 0 15 7 20 28 20 25 -1 26 -2 9 -14z m623 -22 c0
-13 -4 -24 -10 -24 -5 0 -10 14 -10 31 0 17 4 28 10 24 6 -3 10 -17 10 -31z
m80 4 c0 -18 -5 -28 -15 -28 -10 0 -15 10 -15 28 0 19 5 29 15 29 10 0 15 -10
15 -29z"/>
<path d="M387 321 c-35 -31 -60 -90 -47 -111 9 -15 46 -8 43 8 -2 6 3 9 11 6
14 -5 48 41 60 83 5 16 2 25 -13 32 -17 9 -26 6 -54 -18z m32 -25 c9 -11 4
-20 -23 -44 -19 -16 -32 -33 -29 -36 4 -3 1 -6 -5 -6 -6 0 -14 5 -17 10 -3 6
-1 10 5 10 7 0 9 7 6 16 -3 8 -2 13 3 10 5 -3 14 8 21 24 14 33 22 37 39 16z"/>
<path d="M643 622 c-7 -4 -15 -35 -17 -67 l-5 -60 10 55 c10 58 21 76 38 66
14 -9 14 -36 0 -131 -7 -48 -17 -79 -26 -82 -21 -8 -27 3 -26 50 l1 42 -8 -40
c-9 -44 1 -65 31 -65 25 0 27 5 43 116 11 70 12 102 4 111 -12 15 -27 16 -45
5z"/>
<path d="M776 614 c-12 -11 -16 -36 -16 -97 0 -111 6 -129 39 -125 l26 3 3
109 c2 81 -1 112 -10 118 -18 11 -25 10 -42 -8z m42 -108 c-3 -87 -5 -101 -20
-104 -16 -3 -18 7 -18 101 0 57 3 106 6 110 3 3 12 3 20 0 12 -4 14 -26 12
-107z"/>
<path d="M931 616 c-8 -9 -11 -50 -9 -117 l3 -104 30 0 30 0 3 104 c3 103 -4
131 -33 131 -7 0 -18 -6 -24 -14z m49 -113 c0 -77 -3 -95 -16 -100 -25 -9 -34
16 -34 100 0 88 13 126 36 106 10 -8 14 -36 14 -106z"/>
<path d="M945 465 c0 -19 4 -34 9 -32 13 4 13 67 1 67 -5 0 -10 -16 -10 -35z"/>
<path d="M586 357 c-23 -17 -17 -47 11 -58 16 -6 27 -3 38 7 19 19 19 29 -1
48 -19 19 -25 20 -48 3z"/>
<path d="M697 288 c-27 -20 -36 -38 -18 -38 17 0 65 46 55 53 -5 3 -22 -4 -37
-15z"/>
<path d="M537 278 c-25 -13 -22 -55 4 -63 28 -9 53 16 45 43 -8 25 -27 33 -49
20z"/>
<path d="M460 205 c-20 -25 -8 -50 25 -50 21 0 31 5 33 18 4 21 -14 47 -33 47
-7 0 -18 -7 -25 -15z"/>
<path d="M2371 570 c-14 -8 -8 -40 7 -40 5 0 15 6 21 14 15 17 -8 39 -28 26z"/>
<path d="M2487 534 c-16 -16 -6 -35 16 -32 12 2 22 10 22 18 0 16 -26 25 -38
14z"/>
<path d="M2545 510 c-8 -14 3 -30 21 -30 8 0 14 9 14 20 0 21 -24 28 -35 10z"/>
<path d="M2605 490 c-8 -14 3 -30 21 -30 8 0 14 9 14 20 0 21 -24 28 -35 10z"/>
</g>
</svg>
