<svg version="1.0" xmlns="http://www.w3.org/2000/svg"
 width="300.000000pt" height="300.000000pt" viewBox="0 0 300.000000 300.000000"
 preserveAspectRatio="xMidYMid meet">
<g transform="translate(0.000000,300.000000) scale(0.100000,-0.100000)"
fill="#000000" stroke="none">
<path d="M40 1815 c0 -78 2 -81 47 -69 20 6 21 8 7 22 -14 14 -14 16 3 26 17
9 16 11 -7 17 -24 7 -24 7 5 8 17 1 40 8 53 16 27 20 186 30 175 12 -5 -9 -3
-9 8 -1 10 8 146 10 469 8 559 -5 468 -5 1288 0 375 2 684 0 687 -4 3 -4 14
-10 25 -13 11 -3 18 -1 14 4 -9 16 39 10 58 -8 10 -9 28 -21 41 -27 31 -16 29
-50 -3 -54 -37 -6 -48 -19 -42 -50 6 -33 31 -59 63 -64 24 -3 24 -4 25 -135 2
-156 -2 -184 -28 -191 -27 -7 -17 -26 16 -30 23 -3 25 -6 14 -19 -10 -13 -9
-15 7 -12 19 4 20 15 23 237 l2 232 -42 0 c-40 0 -42 -1 -19 -13 32 -16 32
-31 -1 -35 -21 -3 -28 1 -28 14 0 9 -8 23 -18 30 -15 12 -9 13 41 14 l57 0 0
80 0 80 -1470 0 -1470 0 0 -75z m80 45 c0 -16 -7 -20 -30 -20 -23 0 -30 4 -30
20 0 16 7 20 30 20 23 0 30 -4 30 -20z m2840 0 c0 -15 -7 -20 -29 -20 -17 0
-33 5 -36 10 -11 17 5 30 36 30 22 0 29 -5 29 -20z"/>
<path d="M199 1834 c-9 -11 -9 -18 -1 -26 14 -14 42 -3 42 16 0 20 -27 27 -41
10z"/>
<path d="M440 1500 c0 -176 3 -320 8 -320 4 0 6 139 4 310 l-2 310 410 0 c272
0 409 -3 405 -10 -3 -5 -1 -10 5 -10 7 0 10 -6 7 -13 -3 -9 5 -12 29 -9 31 4
34 2 34 -20 0 -21 -5 -25 -29 -26 -18 0 -32 5 -34 14 -3 9 -4 8 -3 -3 1 -13
11 -19 39 -21 36 -3 37 -3 37 32 0 21 -5 37 -12 38 -7 0 -17 2 -23 3 -5 2 -16
3 -22 4 -7 0 -13 5 -13 10 0 16 377 14 383 -1 4 -10 6 -10 6 0 1 8 21 12 66
12 45 0 65 -4 65 -12 0 -8 -14 -13 -37 -13 -20 0 -38 -4 -40 -10 -2 -6 15 -10
37 -10 33 0 42 4 46 21 5 21 9 21 317 22 172 1 343 1 380 2 43 0 66 4 62 10
-4 7 -370 10 -1066 10 l-1059 0 0 -320z"/>
<path d="M1420 1768 c0 -5 14 -8 30 -8 25 0 30 -4 30 -25 0 -21 -5 -25 -29
-25 -20 0 -31 6 -35 18 -4 13 -4 13 -3 -3 2 -15 11 -21 40 -23 35 -3 37 -1 37
25 0 15 -4 33 -8 40 -8 12 -62 13 -62 1z"/>
<path d="M1592 1771 c-8 -5 -12 -21 -10 -37 3 -26 7 -29 41 -32 36 -3 37 -2
37 31 0 43 -33 61 -68 38z m58 -34 c0 -20 -5 -24 -30 -25 -25 -1 -30 3 -30 24
0 20 5 24 30 24 25 0 30 -4 30 -23z"/>
<path d="M1884 1769 c-4 -7 -8 -37 -8 -67 -1 -45 2 -56 16 -60 20 -5 25 -22 6
-22 -6 0 -9 -3 -5 -6 3 -4 -1 -13 -9 -21 -11 -11 -18 -12 -28 -4 -13 11 -45 6
-47 -8 -5 -40 -4 -51 5 -48 6 2 13 14 16 28 4 15 9 19 13 12 4 -6 4 -19 0 -30
-6 -15 -4 -16 9 -6 18 15 28 7 28 -23 0 -28 13 -37 63 -42 28 -2 42 2 52 14
17 24 11 115 -9 130 -20 14 -21 28 -1 21 8 -4 17 -1 21 5 5 7 16 1 31 -18 20
-24 24 -25 18 -8 -5 19 -2 22 22 21 15 -1 31 -6 35 -12 5 -6 8 -5 8 3 0 6 5
12 11 12 6 0 8 -8 5 -17 -4 -13 0 -11 14 6 17 20 26 54 21 84 0 4 5 7 12 7 8
0 9 2 1 8 -7 4 -13 16 -15 27 -4 19 -13 20 -141 23 -98 2 -139 -1 -144 -9z
m56 -129 l21 -30 -24 0 c-20 0 -23 4 -19 25 3 20 1 24 -12 19 -9 -3 -16 -1
-16 5 0 22 29 11 50 -19z m50 -60 c0 -5 -16 -10 -35 -10 -19 0 -35 5 -35 10 0
6 16 10 35 10 19 0 35 -4 35 -10z m0 -40 c0 -5 -16 -10 -35 -10 -19 0 -35 5
-35 10 0 6 16 10 35 10 19 0 35 -4 35 -10z m0 -40 c0 -5 -16 -10 -35 -10 -19
0 -35 5 -35 10 0 6 16 10 35 10 19 0 35 -4 35 -10z"/>
<path d="M2223 1765 c-20 -23 -16 -99 7 -126 10 -13 19 -19 20 -12 0 7 6 10
14 7 8 -3 17 0 21 6 5 8 15 3 30 -16 l22 -28 24 37 c30 47 59 48 99 5 20 -22
28 -26 23 -14 -5 15 -3 18 10 13 23 -9 39 24 35 71 -2 29 -7 36 -20 34 -10 -2
-18 2 -18 8 0 5 7 10 15 10 8 0 15 5 15 10 0 6 -54 10 -142 10 -111 -1 -146
-4 -155 -15z"/>
<path d="M2688 1769 c-20 -11 -24 -44 -8 -54 6 -4 0 -18 -15 -36 -23 -29 -24
-32 -10 -59 21 -41 51 -55 81 -39 16 8 24 21 24 40 0 41 -16 77 -37 82 -14 4
-13 5 5 6 24 1 28 20 12 52 -12 21 -26 23 -52 8z m42 -13 c0 -2 3 -11 6 -20 3
-9 1 -16 -5 -16 -6 0 -11 7 -11 15 0 8 -4 15 -10 15 -5 0 -7 -7 -4 -15 4 -8 1
-15 -5 -15 -6 0 -11 9 -11 20 0 13 7 20 20 20 11 0 20 -2 20 -4z m-12 -72 c-4
-3 2 -14 13 -25 15 -15 17 -24 9 -39 -6 -11 -19 -20 -30 -20 -33 0 -49 62 -20
80 16 11 37 14 28 4z"/>
<path d="M510 1575 c1 -102 5 -185 9 -185 5 0 9 83 10 185 1 126 -2 185 -9
185 -7 0 -10 -60 -10 -185z"/>
<path d="M838 1753 c17 -2 47 -2 65 0 17 2 3 4 -33 4 -36 0 -50 -2 -32 -4z"/>
<path d="M1180 1562 c-3 -111 -2 -202 2 -202 10 0 13 97 8 256 l-6 149 -4
-203z"/>
<path d="M131 1731 c-7 -5 -31 -6 -52 -4 -68 9 -69 5 -69 -211 0 -215 5 -266
28 -266 12 0 12 3 2 15 -11 13 -8 15 18 15 36 0 52 17 25 27 -10 4 -21 11 -26
17 -4 6 -7 75 -6 153 l1 142 40 27 40 28 18 -24 c18 -24 18 -23 8 31 -11 63
-10 60 -27 50z m-33 -38 c-3 -14 -12 -17 -38 -15 -39 3 -45 6 -35 21 3 6 22
11 41 11 29 0 35 -3 32 -17z"/>
<path d="M1724 1720 c1 -10 14 -16 39 -18 30 -3 37 0 36 15 0 10 -3 13 -6 6
-2 -7 -17 -13 -33 -13 -16 0 -30 6 -33 13 -2 7 -3 6 -3 -3z"/>
<path d="M1666 1688 c-9 -12 -15 -34 -15 -48 2 -23 2 -23 6 -2 3 17 11 22 33
22 24 0 29 -5 33 -27 4 -26 4 -26 6 5 1 29 -3 33 -30 39 -20 4 -27 9 -20 16 7
7 15 6 26 -3 8 -7 15 -8 15 -2 0 8 -22 22 -35 22 -2 0 -11 -10 -19 -22z"/>
<path d="M1375 1692 c-29 -6 -45 -22 -45 -44 0 -16 5 -19 23 -14 12 3 34 6 50
6 19 0 27 5 26 18 0 10 -3 12 -6 5 -6 -15 -73 -18 -73 -3 0 6 14 10 30 10 17
0 30 4 30 9 0 14 -12 18 -35 13z"/>
<path d="M669 1652 c-54 -4 -82 -28 -96 -82 -9 -30 -7 -38 14 -60 l24 -25 -3
24 c-3 20 2 25 25 26 15 1 27 -3 27 -9 0 -7 3 -7 8 -1 4 6 31 11 60 13 41 2
52 -1 52 -13 0 -8 -7 -15 -15 -15 -8 0 -15 6 -15 13 0 9 -2 9 -8 1 -4 -7 -31
-11 -65 -10 -34 0 -56 -3 -54 -9 2 -5 18 -10 34 -10 17 0 35 -3 39 -7 11 -12
76 -10 133 4 47 10 53 10 67 -8 8 -10 12 -13 8 -5 -5 9 -3 12 4 7 19 -11 14
-26 -8 -26 -11 0 -20 7 -20 15 0 16 -9 19 -34 9 -12 -5 -14 -10 -6 -19 11 -14
-5 -33 -17 -21 -4 3 -1 6 6 6 7 0 9 5 6 10 -3 6 -16 10 -28 9 -12 0 -16 -3 -9
-6 26 -10 10 -18 -29 -15 -45 5 -52 -14 -11 -29 15 -6 20 -4 16 5 -3 9 5 12
31 10 20 -2 41 -6 47 -10 6 -4 8 -3 5 4 -9 13 2 44 13 37 5 -3 6 -15 3 -28 -4
-21 -4 -22 11 -3 12 15 16 16 16 5 0 -12 2 -12 9 0 5 7 13 11 18 8 5 -3 15 -2
23 4 13 7 12 9 -2 9 -10 0 -18 4 -18 10 0 6 9 6 24 0 13 -5 27 -6 31 -2 3 3
10 0 15 -8 6 -8 10 -10 10 -4 0 13 72 13 82 -1 4 -5 10 -6 14 -2 4 3 -4 16
-17 27 -23 20 -23 21 -2 15 12 -3 24 -1 28 5 3 5 12 10 18 10 7 0 6 -4 -3 -11
-12 -8 -12 -10 4 -7 27 4 31 24 6 31 -18 5 -20 9 -11 26 33 60 -2 105 -81 103
-29 -1 -62 -1 -73 -1 -17 1 -57 0 -140 -2 -11 0 -42 1 -70 3 -27 2 -71 2 -96
0z m1 -63 c0 -27 2 -30 15 -19 9 7 13 21 10 30 -5 15 3 18 55 19 62 1 72 -6
44 -33 -14 -15 -14 -16 1 -16 9 0 13 -4 10 -10 -9 -14 -78 -13 -93 2 -9 9 -12
9 -12 0 0 -15 -46 -16 -55 -2 -5 8 -11 7 -21 -1 -23 -19 -27 -4 -9 30 22 43
55 43 55 0z m299 15 c-6 -7 -8 -22 -4 -34 5 -14 2 -20 -9 -20 -9 0 -16 5 -16
11 0 8 -5 7 -15 -1 -19 -16 -34 -5 -17 12 7 7 12 19 12 28 0 9 -10 3 -28 -17
-15 -18 -31 -33 -35 -33 -9 0 -9 54 0 63 3 4 33 6 65 6 47 -1 56 -4 47 -15z
m61 4 c0 -24 -12 -58 -20 -58 -4 0 -10 16 -12 35 -3 29 -1 35 14 35 10 0 18
-6 18 -12z m36 -10 c-3 -13 -6 -29 -6 -35 0 -7 -7 -13 -16 -13 -11 0 -14 5
-10 16 3 9 6 24 6 35 0 11 7 19 16 19 12 0 15 -6 10 -22z m40 0 c-3 -13 -6
-29 -6 -35 0 -7 -7 -13 -16 -13 -12 0 -15 6 -10 23 3 12 6 28 6 35 0 6 7 12
16 12 12 0 15 -6 10 -22z m-247 -70 c11 -10 13 -10 7 0 -5 9 7 12 48 12 44 0
56 -3 56 -16 0 -13 -15 -15 -90 -13 -69 1 -90 5 -90 15 0 18 51 19 69 2z m213
-3 c5 -6 8 -5 8 3 0 6 5 12 10 12 6 0 10 -7 10 -15 0 -11 -13 -15 -54 -15 -49
0 -74 9 -61 21 8 9 80 4 87 -6z"/>
<path d="M2398 1652 c-22 -4 -22 -11 -2 -34 16 -17 18 -17 30 0 7 9 14 20 14
23 0 10 -23 16 -42 11z"/>
<path d="M230 1625 c-17 -20 -5 -45 22 -46 22 -1 22 -1 -2 -8 -23 -6 -25 -12
-28 -74 l-3 -67 42 4 c23 2 45 9 49 16 6 10 9 8 13 -6 2 -10 5 11 6 48 0 37
-3 70 -9 73 -6 4 -5 13 2 25 9 14 9 22 -1 34 -17 20 -75 21 -91 1z m80 -20
c-8 -15 -80 -15 -80 1 0 8 14 12 43 11 24 -1 40 -6 37 -12z m-1 -87 c-1 -38
-13 -53 -41 -55 -30 -2 -34 9 -22 55 5 16 14 22 35 22 24 0 29 -4 28 -22z"/>
<path d="M1548 1588 c-28 -10 -37 -31 -17 -43 6 -4 9 0 7 10 -2 10 2 20 9 22
6 2 13 -6 15 -19 2 -19 10 -24 41 -26 20 -2 37 0 37 5 0 4 3 18 6 31 4 13 2
22 -5 22 -6 0 -10 -3 -10 -7 5 -31 -3 -43 -29 -43 -22 0 -28 5 -30 24 -1 16 4
26 16 29 12 3 12 5 2 5 -8 0 -27 -4 -42 -10z"/>
<path d="M1664 1575 c-7 -17 12 -45 31 -45 7 0 18 7 25 15 11 13 8 14 -19 9
-24 -5 -31 -3 -31 9 0 11 7 14 26 11 16 -3 23 -1 19 6 -9 15 -45 12 -51 -5z"/>
<path d="M2124 1561 c-27 -22 -37 -91 -17 -110 14 -13 50 -15 276 -12 26 1 47
6 47 11 0 6 -60 10 -160 10 -101 0 -160 4 -160 10 0 15 328 12 333 -3 2 -7 7
8 11 32 6 38 4 46 -16 59 -12 9 -38 15 -57 14 -84 -3 -222 -3 -229 2 -4 2 -16
-3 -28 -13z m36 -32 c0 -11 4 -18 10 -14 5 3 7 12 4 19 -3 9 7 13 35 14 38 2
39 0 37 -26 -3 -26 -5 -27 -70 -28 -36 0 -66 1 -66 2 0 2 5 15 12 29 14 30 38
33 38 4z m276 -3 c-3 -11 -6 -24 -6 -28 0 -3 -15 -5 -32 -4 -28 2 -32 6 -30
25 3 16 -1 22 -10 19 -7 -3 -12 -15 -11 -26 2 -15 -3 -20 -17 -19 -15 1 -19 6
-14 22 5 18 3 18 -15 -3 -18 -21 -22 -22 -36 -9 -19 20 -19 27 0 27 8 0 15 4
15 9 0 6 36 10 81 9 77 -1 80 -2 75 -22z"/>
<path d="M1690 1514 c22 -4 30 -11 30 -27 0 -17 -6 -22 -30 -23 -16 -1 -31 4
-33 10 -2 6 -3 4 -3 -4 1 -8 14 -17 31 -20 20 -4 26 -8 18 -13 -7 -5 -17 -5
-23 -2 -5 3 -10 1 -10 -4 0 -6 9 -11 20 -11 24 0 42 32 38 68 -2 23 -8 27 -35
30 -33 2 -33 2 -3 -4z"/>
<path d="M680 1483 c0 -4 -19 -8 -42 -7 -49 2 -88 -5 -88 -15 0 -6 76 -7 160
-1 23 1 28 4 15 7 -11 3 -26 10 -32 15 -7 6 -13 6 -13 1z"/>
<path d="M2678 1479 c-23 -13 -23 -38 -2 -46 15 -5 15 -8 2 -17 -28 -21 -39
-53 -27 -79 16 -36 83 -64 77 -33 -2 8 6 21 16 29 14 10 17 19 11 33 -8 18 -9
17 -12 -4 -5 -25 -46 -57 -62 -48 -5 3 -8 19 -7 35 1 17 -2 28 -6 25 -4 -3 -8
-1 -8 4 0 5 12 14 26 20 14 7 23 8 20 4 -3 -5 9 -9 26 -9 l31 0 -22 18 c-14
12 -17 19 -9 22 7 3 -4 6 -24 6 -27 1 -38 5 -38 16 0 22 69 20 87 -2 12 -16
12 -14 2 10 -13 29 -47 36 -81 16z"/>
<path d="M1124 1446 c-3 -8 -17 -12 -33 -11 -16 1 -28 -3 -28 -10 0 -15 66 -2
77 16 4 6 13 8 19 5 6 -4 11 -2 11 3 0 16 -40 13 -46 -3z"/>
<path d="M980 1433 c0 -7 -5 -13 -12 -13 -6 0 -8 -3 -5 -6 4 -4 13 -1 21 5 8
7 24 10 36 6 11 -3 20 -2 20 3 0 5 -13 12 -30 14 -20 3 -30 0 -30 -9z"/>
<path d="M611 1429 c-47 -10 -67 -33 -21 -24 19 3 45 7 58 8 12 1 22 5 22 9 0
5 14 2 30 -7 27 -14 30 -14 30 0 0 23 -48 28 -119 14z"/>
<path d="M1274 1390 c0 -14 -3 -31 -8 -38 -5 -8 -3 -19 3 -25 9 -9 11 -8 6 6
-6 14 -1 17 34 17 23 0 41 -4 41 -10 0 -5 -13 -10 -30 -10 -33 0 -35 -2 -19
-31 8 -15 14 -18 23 -9 8 5 20 8 29 4 8 -3 18 -1 22 5 3 6 0 9 -8 5 -8 -3 -18
-1 -22 5 -3 6 -1 11 4 11 17 0 13 27 -6 45 -9 10 -26 15 -39 12 -17 -3 -24 1
-27 17 -3 16 -4 15 -3 -4z"/>
<path d="M1481 1398 c-1 -24 -5 -28 -30 -28 -31 0 -49 -26 -31 -44 8 -8 9 -6
5 7 -6 14 -2 17 24 17 34 0 45 15 38 52 -4 21 -4 20 -6 -4z"/>
<path d="M1652 1396 c-2 -26 -4 -28 -37 -24 -43 5 -47 -10 -5 -18 35 -8 39
-21 8 -27 -14 -2 -4 -6 22 -7 42 -3 41 -4 -20 -10 -61 -6 -58 -7 39 -8 85 -2
106 -5 118 -19 13 -16 13 -16 3 5 -7 15 -20 22 -40 22 -17 0 -30 5 -30 10 0 6
-11 10 -25 10 -37 0 -30 17 8 22 29 3 33 1 29 -14 -4 -15 2 -18 29 -17 24 1
27 3 12 6 -28 5 -30 23 -3 23 11 0 20 5 20 10 0 6 -11 10 -25 10 -20 0 -25 5
-26 28 l-1 27 -7 -29 c-5 -22 -12 -29 -33 -32 -23 -2 -27 2 -31 29 -4 31 -4
31 -5 3z"/>
<path d="M958 1378 c10 -12 33 -15 110 -15 l97 0 -90 7 c-49 4 -99 11 -110 15
-17 8 -18 7 -7 -7z"/>
<path d="M520 1368 c0 -5 28 -7 63 -7 67 1 60 6 -15 11 -27 2 -48 0 -48 -4z"/>
<path d="M2160 1376 c-3 -3 -66 -7 -140 -9 -133 -3 -135 -4 -149 -29 -13 -23
-13 -28 1 -42 9 -9 24 -16 32 -16 9 0 16 -7 16 -15 0 -11 -7 -14 -25 -11 -17
3 -25 0 -25 -10 0 -17 -3 -16 37 -5 23 7 33 6 36 -2 2 -7 7 -9 11 -5 4 3 2 17
-5 29 -10 20 -8 25 15 46 21 18 31 21 51 13 14 -5 25 -7 25 -4 0 4 9 -4 20
-17 10 -13 19 -20 20 -16 0 5 10 1 22 -7 28 -20 39 -20 32 -2 -12 31 96 52
113 22 4 -8 17 -14 28 -13 12 1 21 -5 23 -17 3 -15 0 -17 -14 -12 -10 4 -15 3
-10 -1 4 -4 18 -8 31 -8 19 -1 23 4 23 26 -1 36 7 46 44 54 26 6 35 3 49 -14
10 -12 28 -24 40 -26 12 -2 30 -12 40 -21 16 -15 17 -14 12 6 -4 13 0 26 8 31
9 5 -2 7 -28 3 -36 -5 -43 -3 -43 11 0 14 7 16 40 11 24 -3 39 -2 35 4 -3 5
-140 9 -321 9 -174 0 -319 2 -322 5 -7 7 223 10 458 7 96 -2 171 0 167 5 -4 5
-45 9 -90 10 -45 1 -120 4 -167 8 -47 4 -88 5 -90 2z m-210 -61 c0 -10 -11
-15 -35 -15 -23 0 -35 5 -35 13 0 9 13 14 35 15 25 1 35 -3 35 -13z m190 2 c0
-8 -13 -13 -35 -14 -24 -1 -35 3 -35 13 0 9 12 14 35 14 22 0 35 -5 35 -13z
m160 -2 c0 -16 -35 -21 -44 -6 -8 12 4 21 26 21 10 0 18 -7 18 -15z"/>
<path d="M677 1316 c-8 -21 8 -37 29 -29 17 6 26 31 14 38 -6 4 -10 -1 -10 -9
0 -22 -18 -20 -22 2 -3 15 -4 15 -11 -2z"/>
<path d="M1021 1317 c-1 -13 -6 -17 -19 -13 -13 4 -19 1 -19 -9 0 -11 6 -13
21 -9 28 9 29 10 23 31 -4 17 -5 17 -6 0z"/>
<path d="M1409 1303 c-1 -5 -1 -11 0 -15 0 -5 -3 -8 -9 -8 -5 0 -19 -9 -30
-20 -11 -11 -18 -20 -14 -20 3 0 -7 -11 -21 -24 -17 -16 -25 -33 -23 -48 l3
-23 -567 -2 -567 -1 -40 30 c-47 34 -52 54 -16 68 14 5 25 14 25 19 0 6 -8 7
-17 4 -12 -5 -15 -2 -10 10 3 9 1 19 -4 23 -7 4 -9 -4 -7 -22 3 -27 0 -29 -35
-32 l-39 -3 7 -62 c4 -34 9 -64 12 -67 3 -3 658 -5 1456 -5 l1452 0 3 68 c3
65 2 68 -18 62 -36 -11 -60 3 -61 38 -1 26 -3 28 -6 8 -4 -19 -7 -21 -14 -10
-7 12 -9 12 -9 0 0 -8 15 -28 33 -43 21 -20 28 -31 19 -35 -7 -2 -26 -16 -41
-29 -36 -30 -65 -32 -56 -5 3 11 1 22 -4 26 -6 3 -8 0 -5 -9 13 -33 -28 -36
-562 -36 -448 0 -525 2 -515 14 9 10 9 20 0 40 -19 40 -47 53 -129 55 -47 1
-79 7 -85 15 -5 7 -17 15 -25 19 -9 3 -10 6 -2 6 6 1 12 6 12 11 0 11 -89 14
-91 3z m81 -42 c0 -5 -9 -13 -20 -16 -22 -7 -44 -40 -36 -54 3 -4 28 -6 56 -3
32 3 50 0 50 -7 0 -7 -22 -11 -55 -11 -30 0 -55 5 -55 10 0 6 -9 10 -20 10
-11 0 -20 -4 -20 -9 0 -13 -43 -22 -54 -11 -5 5 1 14 17 21 15 7 27 19 27 27
0 7 9 16 20 19 11 3 20 9 20 13 0 8 22 15 58 19 6 0 12 -3 12 -8z m25 -41 c5
-8 11 -7 21 1 11 9 14 8 15 -2 0 -10 2 -11 6 -1 2 6 20 12 39 12 26 0 32 -3
27 -16 -4 -11 -8 -12 -13 -4 -5 8 -9 7 -13 -4 -5 -13 1 -16 33 -16 34 0 40 3
40 20 0 20 1 20 25 -4 14 -14 25 -28 25 -31 0 -3 -38 -4 -85 -3 -79 3 -102 9
-72 21 6 3 -9 6 -35 6 -45 1 -57 8 -41 24 9 10 21 9 28 -3z m-1387 -82 c3 -14
-3 -18 -27 -18 -25 0 -31 4 -31 21 0 16 5 20 27 17 17 -2 29 -10 31 -20z
m2825 16 c13 -14 -7 -34 -34 -34 -27 0 -39 17 -22 33 8 9 48 9 56 1z"/>
<path d="M871 1263 c0 -10 4 -27 8 -37 7 -18 8 -18 14 -2 4 10 2 26 -3 37 -13
24 -20 24 -19 2z"/>
<path d="M560 1240 c0 -16 5 -30 10 -30 6 0 10 14 10 30 0 17 -4 30 -10 30 -5
0 -10 -13 -10 -30z"/>
<path d="M716 1262 c-8 -13 5 -53 15 -46 12 7 12 41 0 49 -5 3 -12 2 -15 -3z"/>
<path d="M1026 1261 c-8 -12 3 -41 15 -41 12 0 12 37 0 45 -5 3 -12 1 -15 -4z"/>
<path d="M1812 1220 c14 -24 31 -46 38 -48 7 -3 0 13 -15 34 -44 59 -51 64
-23 14z"/>
<path d="M503 1178 c25 -7 57 -7 95 0 57 9 57 9 -38 10 -82 0 -90 -1 -57 -10z"/>
<path d="M665 1180 c8 -13 75 -13 95 0 11 7 -2 10 -43 10 -36 0 -56 -4 -52
-10z"/>
<path d="M815 1180 c8 -13 75 -13 95 0 11 7 -2 10 -43 10 -36 0 -56 -4 -52
-10z"/>
<path d="M970 1180 c0 -13 70 -13 90 0 11 7 0 10 -37 10 -29 0 -53 -4 -53 -10z"/>
<path d="M1125 1179 c-5 -7 11 -9 48 -7 30 1 53 6 51 10 -8 12 -92 9 -99 -3z"/>
<path d="M1878 1178 c-7 -4 144 -8 336 -8 192 0 346 3 342 7 -10 10 -663 11
-678 1z"/>
</g>
</svg>
