<svg version="1.0" xmlns="http://www.w3.org/2000/svg"
 width="219.000000pt" height="231.000000pt" viewBox="0 0 219.000000 231.000000"
 preserveAspectRatio="xMidYMid meet">
<g transform="translate(0.000000,231.000000) scale(0.100000,-0.100000)"
fill="#000000" stroke="none">
<path d="M1465 2295 c-33 -7 -112 -36 -175 -63 -206 -89 -387 -139 -604 -168
-234 -30 -400 -92 -558 -207 -69 -51 -115 -112 -124 -165 -4 -27 -3 -42 4 -42
7 0 11 -60 12 -171 0 -95 5 -192 11 -218 l10 -46 117 -53 c64 -29 122 -56 129
-60 7 -5 18 -74 27 -187 18 -204 19 -247 10 -292 -5 -25 -2 -34 10 -39 9 -3
16 -13 16 -21 0 -8 7 -27 15 -43 18 -34 60 -42 69 -12 9 29 5 126 -6 140 -6 7
-8 35 -4 70 3 31 6 100 7 153 2 104 12 144 25 93 4 -16 10 -31 14 -34 12 -8
53 -678 45 -737 -7 -54 3 -83 29 -83 6 0 3 5 -7 11 -9 5 -17 19 -17 30 0 17 3
18 20 9 22 -12 26 -40 9 -57 -12 -12 13 -82 34 -95 32 -20 67 8 67 53 0 24 -4
29 -24 29 -14 0 -28 5 -31 10 -4 7 3 9 19 6 14 -3 25 -2 24 2 -1 4 2 18 6 31
5 14 3 32 -4 46 -9 18 -9 92 4 346 9 178 16 341 16 363 0 33 3 38 20 33 11 -3
54 4 95 14 42 11 80 17 85 14 5 -3 11 -1 14 4 7 10 145 46 152 38 5 -5 7 -407
2 -413 -2 -1 -36 84 -75 189 -45 122 -73 186 -78 176 -4 -10 26 -102 74 -225
44 -115 81 -215 83 -223 2 -9 -13 -24 -35 -35 -36 -20 -38 -23 -35 -66 3 -43
6 -46 53 -73 53 -29 110 -31 126 -5 7 10 11 10 21 0 13 -13 68 -17 68 -4 0 4
-5 13 -11 19 -16 16 6 26 30 13 25 -13 58 -13 66 1 11 16 -1 22 -23 10 -15 -8
-23 -7 -33 6 -12 14 -11 15 7 9 12 -3 33 -2 47 3 17 7 28 7 32 1 8 -12 26 -12
44 -1 13 8 13 12 1 26 -8 10 -13 30 -12 46 3 25 -2 31 -42 51 l-46 22 0 273 0
272 38 10 c151 40 485 121 488 119 9 -10 42 -564 33 -572 -15 -16 -10 -55 9
-65 9 -5 23 -30 30 -56 12 -44 14 -46 45 -43 36 3 35 -1 24 148 -4 41 2 201
11 354 l17 280 97 24 97 24 6 42 c4 22 5 70 3 106 -2 55 -6 65 -20 64 -10 -1
-16 1 -14 5 7 11 -164 72 -177 65 -7 -4 -9 -3 -4 1 4 5 0 16 -8 25 -8 9 -23
49 -33 88 -10 40 -20 74 -23 76 -11 12 -193 45 -217 40 l-28 -6 -38 141 c-21
77 -43 138 -48 135 -5 -3 -6 6 -2 22 5 21 4 25 -6 19 -9 -5 -11 -4 -6 4 10 15
-3 73 -15 65 -5 -3 -9 -1 -9 3 0 17 25 40 75 68 63 35 62 34 45 45 -21 14
-124 11 -195 -5z m185 -4 c0 -9 -140 -84 -146 -78 -2 2 26 21 63 41 38 21 60
35 50 32 -10 -3 -201 -105 -424 -226 -224 -121 -417 -220 -430 -220 -19 0 -23
-4 -18 -19 3 -11 1 -22 -4 -26 -7 -3 -8 0 -5 9 5 12 -196 -92 -437 -226 l-36
-20 -104 37 c-57 20 -115 47 -128 60 -21 21 -22 26 -12 58 32 97 207 216 422
288 50 17 97 28 105 25 8 -3 14 -2 14 3 0 4 59 16 131 25 216 29 403 81 617
172 57 25 129 51 160 59 56 13 182 18 182 6z m-122 -96 c1 -1 9 -39 18 -83 15
-71 19 -80 32 -70 13 11 14 10 3 -7 -10 -16 -8 -39 12 -128 l24 -108 -41 3
-41 3 -10 57 c-5 32 -15 62 -20 68 -7 6 -106 -3 -305 -29 -162 -22 -302 -39
-310 -39 -8 0 -26 -4 -40 -7 -14 -4 124 74 305 173 303 166 350 187 373 167z
m-31 -277 c11 -14 39 -175 32 -182 -2 -2 -169 -35 -372 -73 -308 -58 -366 -67
-362 -53 3 9 -6 47 -19 85 -14 39 -25 64 -25 57 -1 -10 -14 -13 -49 -10 -43 3
-60 -4 -184 -71 -76 -41 -136 -76 -134 -79 2 -2 62 28 133 67 107 59 138 71
175 71 43 0 47 -2 57 -31 16 -47 14 -59 -11 -59 -13 0 -84 -12 -158 -25 -74
-14 -155 -27 -180 -30 -25 -2 -56 -7 -70 -10 -29 -8 36 30 200 117 63 33 130
69 148 80 18 11 35 18 38 15 3 -3 -7 -12 -23 -21 -15 -8 -24 -15 -20 -16 5 0
18 5 29 11 15 8 22 8 28 -1 5 -8 12 0 19 23 8 23 20 37 34 40 12 3 160 22 330
43 169 21 299 42 290 46 -10 3 7 4 37 2 39 -3 49 -2 35 5 -16 8 -16 10 -4 10
9 1 21 -5 26 -11z m127 -34 c-4 -16 -3 -25 2 -21 5 3 10 -12 10 -34 1 -22 -1
-38 -3 -35 -10 9 -22 82 -17 99 9 27 15 20 8 -9z m198 -109 c59 -12 76 -20 71
-31 -3 -8 0 -14 5 -14 6 0 18 -26 27 -57 9 -32 22 -64 27 -71 6 -7 7 -16 3
-20 -4 -4 -10 -1 -13 7 -4 11 -6 11 -14 0 -8 -11 -9 -11 -5 2 5 15 -31 130
-45 144 -8 9 -218 -26 -218 -35 0 -4 -11 -5 -25 -2 -14 2 -25 0 -25 -5 0 -5
-14 -7 -31 -5 -18 3 -29 1 -26 -5 3 -5 -10 -7 -31 -4 -27 3 14 14 155 40 106
19 191 37 188 39 -2 3 -174 -26 -381 -64 -330 -61 -371 -70 -334 -77 23 -5 39
-11 37 -14 -3 -3 -29 0 -57 6 -68 15 -86 12 -30 -4 53 -15 33 -19 -25 -5 -27
7 -64 6 -115 -2 l-75 -11 59 -14 c55 -12 70 -11 225 17 204 38 195 35 141 48
-31 7 -37 10 -19 11 14 1 39 -4 55 -9 23 -8 79 -1 269 35 132 25 245 45 251
45 6 0 22 -39 34 -86 13 -47 32 -97 43 -110 10 -14 18 -27 16 -28 -2 -2 -42
-13 -89 -25 -47 -11 -68 -18 -47 -15 21 3 44 0 52 -6 9 -7 21 -7 39 0 34 13
33 13 33 -3 0 -9 -9 -12 -24 -9 -18 3 -22 1 -17 -12 3 -9 10 -16 16 -16 5 0 6
5 3 10 -4 7 2 9 19 4 26 -6 38 10 14 19 -9 3 -7 7 5 12 11 5 23 3 30 -5 9 -10
9 -11 0 -6 -7 4 -13 2 -13 -3 0 -16 29 -13 46 4 17 16 39 21 29 6 -3 -5 5 -11
17 -13 20 -4 18 -6 -12 -15 -19 -6 -29 -12 -22 -12 7 -1 21 -8 29 -17 11 -11
26 -14 50 -9 31 6 33 4 33 -23 0 -30 -1 -30 -112 -57 -62 -14 -241 -58 -398
-96 -157 -38 -415 -100 -575 -139 -159 -39 -298 -73 -307 -76 -16 -5 -18 3
-20 58 l-1 63 -6 -65 c-5 -56 -9 -65 -27 -68 -25 -4 -644 282 -662 306 -9 12
-12 59 -11 174 0 86 -3 162 -7 169 -5 8 -3 9 7 4 7 -5 59 -26 113 -46 55 -20
102 -41 104 -47 2 -6 -43 8 -99 29 -56 22 -104 38 -106 35 -5 -5 121 -54 258
-101 137 -47 132 -42 153 -131 22 -91 43 -115 153 -172 l73 -37 1 -72 c2 -89
2 -89 13 -100 5 -4 6 27 4 74 -4 62 -1 83 9 87 7 3 13 -1 13 -10 0 -8 7 -17
15 -20 8 -4 15 -15 15 -26 0 -17 5 -19 43 -14 l42 5 -45 -13 c-76 -23 -21 -17
75 8 50 13 80 25 68 25 -16 1 -23 7 -23 21 0 11 5 20 11 20 6 0 9 -7 5 -15 -3
-9 0 -15 8 -15 9 0 12 7 9 20 -3 11 0 20 6 20 6 0 11 -7 11 -15 0 -8 8 -15 18
-15 13 0 14 2 3 9 -8 6 -10 14 -5 22 7 11 9 10 12 -3 2 -10 13 -18 25 -19z
m-313 -54 c0 -9 10 -15 23 -16 16 -1 14 -3 -12 -11 -18 -5 -40 -7 -47 -4 -16
6 -19 36 -4 36 6 0 10 -7 10 -15 0 -8 8 -15 18 -14 10 0 12 3 5 6 -15 6 -17
33 -3 33 6 0 10 -7 10 -15z m-528 -47 c14 -11 17 -43 20 -220 2 -122 -1 -203
-6 -198 -5 5 -15 80 -22 167 -7 87 -16 182 -19 211 -5 54 0 61 27 40z m61 -57
c19 -14 20 -21 14 -184 -5 -123 -10 -173 -19 -178 -10 -6 -15 4 -20 39 -7 54
-8 387 -1 357 3 -11 15 -26 26 -34z m877 -236 c0 -247 -2 -285 -15 -285 -13 0
-15 38 -15 279 0 271 1 282 28 290 1 1 2 -127 2 -284z m-652 156 c3 -9 -5 -11
-32 -6 -27 6 -37 4 -42 -8 -9 -23 -81 8 -88 39 -4 13 -22 35 -41 50 -19 14
-35 30 -35 34 0 13 233 -95 238 -109z m581 -143 c-1 -139 -4 -242 -6 -228 -2
14 -19 121 -38 237 -19 117 -35 215 -35 218 0 4 53 22 73 24 4 1 6 -113 6
-251z m-104 -325 c-2 -7 -9 -13 -15 -13 -16 0 -14 557 3 563 9 3 13 -56 15
-267 1 -149 0 -276 -3 -283z m-35 262 c0 -239 -2 -274 -15 -269 -8 4 -13 9
-11 13 2 3 0 26 -4 51 -5 27 -4 50 1 57 6 6 9 97 7 217 -2 160 0 206 10 206 9
0 12 -62 12 -275z m113 -206 c-4 -4 -20 -11 -35 -14 l-28 -7 1 218 1 219 35
-204 c19 -112 30 -207 26 -212z m-659 381 l26 -10 1 -162 c1 -90 4 -246 8
-348 7 -224 6 -234 -20 -220 -14 8 -17 15 -11 28 5 10 0 153 -14 347 -25 362
-26 375 -20 375 3 0 16 -4 30 -10z m123 -82 c-19 -280 -30 -620 -20 -640 11
-24 1 -68 -16 -68 -5 0 -16 -3 -25 -6 -29 -11 -18 31 12 44 26 11 26 11 2 7
-24 -4 -25 -2 -25 48 0 29 -4 194 -9 368 l-8 317 38 10 c22 5 43 10 48 11 5 1
6 -39 3 -91z m-225 -192 c18 -26 8 -45 -28 -52 -42 -8 -70 12 -60 43 5 14 16
19 44 19 20 0 40 -4 44 -10z m1469 -46 c5 0 9 -7 9 -15 0 -18 -21 -20 -38 -3
-17 17 -15 31 4 24 9 -3 20 -6 25 -6z m59 -15 c0 -8 -8 -15 -17 -15 -16 0 -16
-2 -3 -11 13 -9 13 -10 0 -6 -8 2 -16 13 -18 25 -3 17 2 22 17 22 12 0 21 -6
21 -15z m-1537 -16 c-14 -5 -23 -17 -23 -29 0 -13 4 -18 11 -15 6 4 8 13 5 21
-3 8 1 14 9 14 16 0 18 -9 9 -34 -11 -28 -41 -18 -53 15 -6 18 -11 32 -11 33
0 1 17 2 38 3 31 1 33 0 15 -8z m1509 -61 l5 -32 -18 23 c-23 28 -24 41 -5 41
8 0 16 -14 18 -32z m38 2 c0 -10 -4 -21 -9 -24 -10 -7 -23 33 -15 46 8 13 24
-1 24 -22z m-746 5 c23 -18 58 -19 73 -4 7 7 17 8 28 1 14 -7 -9 -18 -109 -52
l-126 -42 -34 21 c-18 12 -37 21 -42 21 -5 0 10 -12 34 -26 l43 -26 132 45
c136 45 148 45 155 4 3 -20 -27 -35 -37 -19 -12 20 -50 2 -53 -26 -3 -24 -4
-25 -20 -9 -21 22 -48 11 -48 -19 0 -17 -4 -22 -15 -18 -8 4 -15 13 -15 21 0
10 -6 13 -16 9 -9 -3 -20 -6 -25 -6 -5 0 -9 -13 -9 -29 0 -20 -6 -30 -20 -34
-17 -4 -20 0 -20 27 0 32 1 32 110 70 61 21 109 40 107 43 -2 2 -54 -14 -115
-35 l-111 -39 -41 23 c-23 13 -47 24 -54 24 -6 0 11 -13 39 -28 42 -23 50 -32
52 -60 2 -19 0 -32 -5 -30 -91 43 -102 52 -102 82 0 37 7 49 38 65 16 9 27 9
43 1 28 -16 69 -4 69 19 0 12 11 22 33 29 42 13 39 13 61 -3z m131 -95 c13 0
27 -5 31 -11 5 -8 -2 -10 -22 -6 -16 3 -37 1 -46 -4 -14 -8 -18 -6 -18 10 0
20 22 35 28 20 2 -5 14 -9 27 -9z m-180 -39 c-3 -5 3 -12 14 -16 11 -3 24 -12
31 -20 9 -11 7 -13 -12 -10 -62 8 -80 41 -30 54 2 1 1 -3 -3 -8z m-572 -277
c3 -3 3 -13 0 -22 -6 -13 -8 -13 -15 4 -7 17 -8 16 -4 -3 5 -28 -10 -31 -17
-3 -6 22 20 39 36 24z m40 -36 c9 -34 -4 -42 -19 -13 -17 34 -17 35 0 35 7 0
16 -10 19 -22z m-23 -29 c0 -10 -4 -19 -9 -19 -12 0 -23 29 -15 41 8 14 24 0
24 -22z"/>
<path d="M1360 2129 c-69 -39 -204 -113 -300 -165 -96 -53 -165 -93 -154 -89
12 3 57 25 100 48 485 264 509 278 489 276 -6 0 -66 -32 -135 -70z"/>
<path d="M1660 1429 c-105 -24 -118 -29 -60 -25 25 2 37 1 28 -1 -10 -2 -18
-9 -18 -15 0 -6 8 -7 18 -3 9 4 23 10 31 13 9 3 12 1 7 -6 -4 -7 -2 -12 6 -12
10 0 9 -3 -2 -10 -8 -5 -31 -7 -52 -5 -21 2 -38 0 -38 -5 0 -4 -16 -8 -35 -8
-20 0 -32 4 -29 10 3 5 17 7 30 4 15 -4 24 -2 24 5 0 6 7 8 16 5 8 -3 12 -2 9
4 -7 12 -35 14 -35 3 0 -5 -10 -8 -22 -9 -13 0 -45 -3 -73 -7 -34 -4 -42 -4
-25 2 14 5 21 9 15 10 -17 2 -215 -42 -211 -47 3 -2 40 4 84 13 60 13 84 15
100 6 14 -8 29 -8 47 -1 14 5 24 6 21 1 -4 -5 0 -12 6 -15 7 -3 3 -3 -9 0 -13
3 -23 2 -23 -3 0 -5 -9 -9 -19 -9 -11 0 -18 3 -15 7 4 8 -20 19 -42 19 -9 0
-13 -3 -10 -8 2 -4 -12 -8 -32 -8 -33 -2 -245 -47 -282 -61 -16 -6 -30 -8 -67
-11 -29 -2 -30 -18 -1 -25 12 -4 19 -9 16 -12 -3 -4 -20 1 -37 9 -28 15 -37
14 -130 -6 -55 -12 -97 -26 -95 -30 3 -4 11 -5 19 -2 7 3 22 1 32 -5 14 -9 9
-10 -24 -7 -50 6 -57 -7 -13 -23 21 -7 30 -7 30 1 0 5 7 8 15 5 22 -9 27 9 8
29 -17 17 -17 18 0 11 10 -4 23 -7 28 -7 6 0 7 -5 4 -11 -5 -7 8 -8 40 -5 60
7 68 13 55 37 -7 13 -7 19 0 19 5 0 10 -6 10 -14 0 -18 20 -25 53 -19 28 5 35
17 17 28 -13 8 -3 26 13 24 7 -1 25 1 40 6 19 5 32 3 40 -5 9 -10 7 -11 -12
-5 -16 5 -21 4 -17 -4 5 -8 -4 -10 -28 -6 -41 5 -45 1 -16 -15 35 -19 130 21
98 41 -6 4 -2 10 10 14 12 3 30 1 39 -5 15 -10 14 -10 -8 -6 -18 4 -26 1 -26
-9 0 -10 10 -14 34 -12 36 2 43 20 16 37 -16 9 -15 10 5 8 12 -2 22 -7 22 -12
-2 -11 22 -26 32 -20 14 9 9 21 -14 31 l-23 11 25 0 c46 2 75 7 81 16 4 5 19
4 35 -3 20 -7 23 -10 9 -10 -36 2 -46 -1 -40 -11 7 -11 47 -9 76 4 9 4 20 6
25 5 17 -5 74 13 74 22 0 6 5 7 11 4 6 -4 29 -2 52 3 23 6 59 14 80 17 21 3
35 10 32 14 -2 5 10 7 28 6 17 -2 37 1 43 6 7 6 16 9 20 7 15 -4 114 25 114
34 0 9 -44 1 -73 -14 -9 -5 -21 -7 -26 -4 -4 3 -23 1 -42 -4 -25 -7 -45 -5
-74 6 -33 12 -35 14 -10 10 17 -2 39 -7 50 -10 11 -4 7 0 -10 8 -30 15 -30 15
-4 16 14 0 30 -5 36 -11 8 -8 17 -8 31 0 27 14 35 14 26 -1 -4 -6 3 -4 15 5
13 8 31 13 40 10 12 -5 13 -3 5 6 -9 10 -21 10 -50 2 -47 -13 -94 -14 -54 -1
49 16 -12 9 -100 -11z m-736 -212 c17 -13 18 -14 2 -20 -11 -5 -15 -3 -10 5 5
8 2 9 -11 4 -10 -3 -27 -3 -39 0 -21 7 -21 7 -1 15 29 11 39 11 59 -4z"/>
<path d="M1960 1400 c-14 -4 -19 -8 -12 -9 7 -1 20 -8 29 -16 14 -14 13 -15
-13 -9 -16 4 -32 11 -35 16 -3 5 -22 6 -43 3 -25 -5 -36 -12 -36 -25 0 -10 6
-21 13 -23 7 -3 5 -6 -5 -6 -12 -1 -18 6 -18 20 0 17 -5 20 -22 16 -13 -3 -49
-11 -80 -18 -44 -9 -58 -17 -58 -30 0 -21 37 -31 75 -20 17 5 24 10 18 10 -16
1 -17 41 -2 41 6 0 9 -6 6 -14 -3 -8 2 -17 11 -21 22 -8 285 57 269 67 -6 4
-21 8 -32 8 -17 0 -17 -2 -5 -10 9 -6 10 -10 3 -10 -19 0 -27 21 -12 31 18 11
-15 11 -51 -1z"/>
<path d="M1595 1317 c-25 -8 -40 -18 -41 -29 -2 -24 42 -30 101 -14 28 8 42
15 33 15 -11 1 -18 9 -18 21 0 23 -14 24 -75 7z"/>
<path d="M1316 1299 c4 -8 0 -9 -15 -4 -16 5 -20 3 -15 -10 6 -13 37 -13 53 1
6 5 -10 24 -20 24 -6 0 -7 -5 -3 -11z"/>
<path d="M970 1279 c-98 -22 -123 -31 -65 -23 56 8 194 42 170 42 -11 0 -58
-9 -105 -19z"/>
</g>
</svg>
