<svg version="1.0" xmlns="http://www.w3.org/2000/svg"
 width="300.000000pt" height="300.000000pt" viewBox="0 0 300.000000 300.000000"
 preserveAspectRatio="xMidYMid meet">
<g transform="translate(0.000000,300.000000) scale(0.100000,-0.100000)"
fill="#000000" stroke="none">
<path d="M1289 2834 c-379 -68 -681 -300 -851 -651 -27 -56 -61 -146 -75 -200
-25 -91 -27 -112 -27 -293 1 -263 13 -294 89 -228 55 48 65 79 58 184 -10 157
35 374 104 494 56 99 119 189 132 190 7 0 67 30 132 66 234 130 404 177 649
178 270 1 483 -62 713 -210 37 -24 78 -46 92 -50 14 -3 25 -10 25 -15 0 -5 15
-33 34 -62 38 -59 96 -177 96 -196 0 -6 4 -19 9 -29 37 -73 55 -219 46 -385
l-7 -137 38 -38 c21 -20 37 -40 36 -44 -3 -12 46 -9 53 2 15 25 35 194 35 301
0 247 -67 460 -207 657 -221 311 -568 484 -966 481 -73 0 -166 -7 -208 -15z
m447 -38 c164 -32 329 -104 453 -195 65 -48 211 -191 211 -207 0 -13 -32 -44
-46 -44 -19 0 -84 32 -84 42 0 4 -7 5 -15 2 -8 -4 -15 -1 -15 5 0 6 -7 11 -15
11 -8 0 -15 4 -15 9 0 5 -46 31 -102 59 -109 53 -269 106 -353 118 -27 4 -58
10 -67 15 -21 11 -245 14 -313 5 -123 -18 -292 -59 -350 -86 -11 -5 -44 -19
-72 -31 -29 -12 -53 -26 -53 -31 0 -6 -6 -8 -14 -5 -7 3 -21 -4 -30 -15 -10
-11 -24 -17 -32 -14 -8 3 -13 2 -10 -3 4 -6 -34 -32 -54 -35 -3 -1 -10 -4 -15
-8 -6 -3 -27 -9 -48 -13 -29 -6 -43 -3 -60 11 -21 18 -21 17 1 -7 l23 -27 -39
-52 c-44 -58 -113 -190 -136 -260 -42 -129 -50 -176 -52 -343 -3 -167 -9 -197
-39 -197 -7 0 -15 10 -18 23 -9 36 2 339 13 377 6 19 13 53 16 74 3 22 18 68
34 103 16 34 27 63 25 63 -9 0 57 121 88 162 20 26 45 64 55 85 11 21 60 77
108 123 169 163 386 265 636 300 87 12 286 5 384 -14z m787 -611 c53 -108 81
-197 102 -325 14 -80 5 -355 -11 -381 -9 -15 -44 -10 -44 6 0 8 -8 15 -17 15
-11 0 -14 3 -7 8 22 15 26 310 5 402 -32 139 -83 260 -154 364 l-40 60 28 23
27 24 33 -53 c19 -29 54 -93 78 -143z"/>
<path d="M778 1506 c-88 -32 -176 -101 -165 -130 9 -23 26 -19 39 8 6 14 25
30 42 37 17 7 33 16 36 20 3 4 27 14 54 23 85 29 114 9 218 -149 25 -38 74
-122 108 -185 34 -63 65 -119 70 -125 25 -33 230 -434 230 -450 0 -6 12 -25
28 -43 23 -28 29 -30 44 -18 10 7 35 62 56 122 21 60 72 172 112 249 83 157
269 441 342 521 46 50 113 94 143 94 57 0 204 -87 189 -112 -4 -7 -2 -8 5 -4
6 4 14 0 17 -8 4 -11 -13 -36 -47 -74 -74 -79 -140 -177 -253 -375 -154 -269
-326 -628 -326 -681 0 -17 -9 -19 -50 -16 -36 3 -68 25 -132 93 l-57 60 -40
-51 c-50 -62 -117 -104 -181 -110 -63 -6 -69 2 -155 190 -38 84 -107 232 -153
328 -46 96 -104 216 -127 266 -60 128 -203 371 -222 378 -9 4 -24 -1 -34 -10
-18 -16 -19 -15 -32 15 -8 18 -25 38 -39 45 l-26 14 29 -43 c16 -24 29 -48 29
-54 0 -14 44 -25 75 -17 21 5 28 0 55 -46 64 -108 472 -944 509 -1042 9 -22 7
-24 -27 -30 -69 -11 -146 -6 -187 13 -49 22 -124 97 -176 176 -58 87 -223 425
-259 530 -35 100 -49 231 -31 277 6 16 21 30 36 34 27 7 29 11 15 34 -8 12
-14 13 -41 3 -18 -7 -33 -12 -34 -10 -21 46 -45 117 -46 132 0 16 -3 14 -10
-7 -8 -22 -5 -37 21 -87 28 -57 30 -65 19 -104 -17 -61 -4 -174 31 -280 42
-126 188 -422 265 -537 108 -163 187 -219 305 -220 73 0 144 16 135 31 -10 15
11 10 25 -6 42 -50 253 56 262 132 3 24 5 23 34 -20 57 -80 152 -135 202 -116
17 6 38 4 70 -7 202 -71 360 51 586 454 136 243 187 407 165 528 -10 53 -9 57
25 117 23 43 32 68 26 77 -6 10 -18 -5 -43 -58 -29 -60 -37 -69 -47 -57 -15
19 -46 20 -53 2 -3 -8 6 -22 19 -32 30 -23 46 -78 38 -141 -5 -49 -59 -211
-75 -228 -5 -6 -9 -18 -9 -28 0 -9 -10 -34 -21 -55 -12 -21 -37 -69 -57 -108
-19 -38 -38 -72 -41 -75 -3 -3 -12 -17 -19 -31 -20 -39 -148 -209 -190 -252
-78 -80 -182 -107 -301 -76 -50 12 -51 14 -45 41 36 169 434 886 579 1047 l38
42 24 -25 c13 -14 32 -26 41 -26 10 0 24 -6 31 -12 10 -11 11 -8 6 14 -7 28
11 66 52 105 13 12 23 32 22 45 -1 19 -3 17 -12 -10 -6 -20 -18 -34 -33 -38
-12 -3 -28 -19 -34 -35 -7 -16 -14 -29 -17 -29 -17 0 -45 26 -64 59 -22 40
-73 83 -139 116 -44 23 -126 24 -167 2 -57 -30 -143 -128 -238 -273 -164 -247
-284 -474 -335 -633 l-27 -85 -17 55 c-39 119 -322 641 -450 828 -89 130 -126
150 -218 117z"/>
</g>
</svg>
