<svg version="1.0" xmlns="http://www.w3.org/2000/svg"
 width="300.000000pt" height="388.000000pt" viewBox="0 0 300.000000 388.000000"
 preserveAspectRatio="xMidYMid meet">
<g transform="translate(0.000000,388.000000) scale(0.100000,-0.100000)"
fill="#000000" stroke="none">
<path d="M1228 3755 l-47 -34 -45 15 c-24 9 -57 14 -73 12 -37 -4 -41 -37 -14
-106 12 -29 17 -52 11 -52 -5 0 -12 5 -15 10 -3 6 -18 10 -32 10 -23 0 -25 -3
-19 -31 3 -17 6 -40 6 -51 0 -15 6 -19 28 -16 15 2 27 9 27 17 0 16 21 26 28
14 2 -4 7 -20 11 -35 6 -26 5 -26 -36 -21 -36 5 -41 4 -35 -11 4 -10 7 -27 7
-39 0 -12 4 -28 9 -36 12 -19 51 -4 51 20 0 10 5 19 10 19 6 0 10 -20 10 -45
0 -49 -4 -53 -26 -30 -9 8 -24 15 -35 15 -18 0 -20 -6 -17 -52 3 -46 6 -53 26
-56 16 -2 25 3 30 19 8 22 9 21 15 -8 4 -21 17 -37 41 -51 19 -11 42 -31 50
-45 11 -16 47 -243 116 -721 55 -384 101 -717 103 -742 4 -51 -6 -63 -81 -104
-61 -33 -75 -64 -79 -175 -2 -49 -10 -117 -19 -150 -9 -33 -19 -70 -21 -83 -4
-16 -12 -22 -25 -20 -17 3 -20 12 -22 69 -2 61 -6 74 -56 155 -42 69 -55 98
-58 140 -12 145 74 202 203 133 66 -35 117 -41 142 -16 16 16 15 16 -15 5 -29
-11 -38 -9 -116 31 -72 38 -90 43 -126 38 -76 -10 -120 -73 -120 -170 0 -55 3
-63 92 -230 11 -21 23 -58 25 -82 6 -47 -2 -66 -106 -234 -62 -103 -81 -160
-88 -271 -11 -190 81 -394 232 -507 133 -101 257 -138 436 -131 90 3 99 2 99
-14 0 -21 11 -22 97 -7 54 10 63 14 63 33 0 18 12 24 82 44 172 48 283 126
377 268 128 191 141 396 39 598 -31 61 -112 148 -238 257 -36 31 -74 72 -85
92 l-19 37 24 97 c28 108 31 205 10 267 -18 55 -90 129 -153 157 -40 18 -70
23 -134 24 -72 0 -83 2 -83 18 0 12 -8 17 -31 17 -28 0 -31 -2 -25 -25 5 -20
3 -25 -14 -25 -11 0 -20 -4 -20 -10 0 -6 43 -10 110 -10 86 0 121 -4 165 -21
63 -24 120 -74 143 -128 21 -51 19 -161 -7 -251 -11 -41 -21 -88 -21 -105 0
-44 47 -113 116 -171 219 -184 283 -295 284 -489 0 -156 -64 -299 -187 -416
-76 -74 -143 -109 -288 -152 l-50 -15 0 174 c0 95 -3 176 -7 180 -4 3 -15 3
-25 0 -11 -5 -13 -10 -7 -14 7 -4 13 -70 16 -174 l5 -166 -65 -12 c-35 -6 -65
-10 -67 -8 -1 2 -16 43 -32 93 -17 50 -42 120 -56 156 -19 49 -22 70 -14 78 8
8 5 11 -11 11 -13 0 -22 -6 -22 -15 0 -8 27 -85 59 -170 l59 -154 -35 -7 c-63
-12 -224 2 -291 25 -235 80 -395 304 -393 547 1 126 21 184 114 333 38 60 44
65 65 56 18 -8 22 -18 22 -57 0 -62 14 -97 55 -134 41 -39 59 -99 52 -177 -6
-69 -12 -78 -33 -49 -30 43 -85 19 -86 -37 -1 -47 42 -86 86 -77 65 13 89 58
102 195 l7 73 21 -51 c25 -58 96 -171 108 -171 4 0 8 -11 8 -24 0 -13 3 -38 6
-56 7 -32 8 -32 54 -28 35 4 52 0 70 -14 45 -37 161 -12 185 40 5 12 18 22 27
22 10 0 18 7 18 15 0 8 7 15 15 15 8 0 15 7 15 15 0 8 -9 15 -20 15 -11 0 -20
5 -20 11 0 7 -12 10 -29 7 l-29 -4 -17 95 c-9 53 -21 114 -25 136 -5 22 -8 41
-7 42 2 1 35 4 75 6 40 3 75 6 77 9 2 2 1 17 -4 34 -7 25 -12 29 -42 27 -70
-4 -111 -4 -115 0 -2 2 -7 18 -10 35 -6 28 -4 32 15 32 19 0 21 4 15 43 -10
63 -21 87 -42 87 -16 0 -21 13 -31 82 -7 46 -15 93 -18 106 -4 19 -1 22 22 22
26 0 27 2 21 38 -18 101 -12 94 -69 89 -29 -3 -60 -9 -69 -12 -11 -4 -18 -3
-18 4 0 13 45 25 65 17 8 -3 15 -1 15 4 0 6 7 10 15 10 19 0 19 -6 -10 151
-170 897 -267 1432 -267 1467 0 27 10 59 27 88 20 33 25 54 21 75 -3 16 -1 29
4 29 6 0 10 -5 10 -11 0 -10 47 -5 58 6 9 8 -21 85 -33 85 -24 0 -45 -12 -45
-26 0 -25 -15 -15 -28 18 -9 25 -9 34 1 40 6 4 14 3 15 -2 2 -6 17 -10 33 -10
31 0 33 6 23 59 -6 26 -11 31 -35 31 -18 0 -29 -5 -29 -14 0 -20 -27 -28 -34
-10 -3 9 -6 30 -6 47 1 27 2 29 11 15 10 -18 54 -25 63 -10 2 4 2 27 -1 50 -5
36 -9 42 -29 42 -13 0 -28 -8 -33 -17 -8 -14 -10 -7 -11 32 0 58 -21 95 -53
95 -12 0 -43 -16 -69 -35z m86 7 c3 -5 8 -32 12 -60 l7 -52 -30 6 c-33 6 -57
-13 -47 -39 8 -22 32 -29 55 -17 17 9 19 7 19 -19 0 -16 3 -37 6 -46 5 -12 2
-16 -12 -14 -26 5 -44 -8 -44 -31 0 -25 29 -41 52 -29 14 8 20 3 33 -27 8 -20
15 -37 15 -38 0 0 -13 -1 -30 -2 -16 -1 -45 -13 -64 -28 -34 -26 -37 -26 -66
-11 -23 12 -39 14 -65 6 l-35 -9 0 42 c0 40 2 43 23 39 44 -9 62 48 21 64 -9
3 -24 2 -33 -4 -13 -8 -18 -3 -27 31 -6 23 -22 76 -34 118 -13 43 -21 81 -16
85 4 4 36 0 72 -10 l65 -17 47 35 c47 35 67 42 76 27z m86 -127 c0 -19 -4 -35
-10 -35 -11 0 -14 53 -3 63 11 12 13 8 13 -28z m-368 -72 c-4 -35 -5 -36 -14
-14 -9 26 -4 51 10 51 4 0 6 -17 4 -37z m398 -27 c0 -8 3 -21 6 -30 4 -10 1
-16 -9 -16 -14 0 -30 44 -19 55 10 10 22 5 22 -9z m-362 -97 c4 -40 -12 -30
-22 14 -5 21 -3 28 6 25 7 -3 14 -20 16 -39z m392 -46 c0 -13 -4 -23 -9 -23
-12 0 -23 48 -15 62 9 14 24 -10 24 -39z m-86 -34 c-8 -14 -34 -11 -34 4 0 8
3 17 7 20 9 9 34 -13 27 -24z m-304 -29 c0 -16 -4 -30 -10 -30 -5 0 -10 14
-10 30 0 17 5 30 10 30 6 0 10 -13 10 -30z m256 -66 c7 -43 12 -79 11 -80 -1
-1 -27 -5 -58 -8 l-56 -7 -6 48 c-4 26 -10 66 -13 88 l-7 39 28 -18 c27 -18
28 -18 54 2 14 11 28 18 30 16 1 -1 9 -38 17 -80z m74 74 c0 -7 -11 -35 -25
-62 -14 -27 -25 -43 -25 -35 0 8 -3 31 -6 52 -6 33 -4 37 15 37 11 0 21 5 21
10 0 6 5 10 10 10 6 0 10 -6 10 -12z m-235 -44 c17 6 20 0 29 -52 l6 -33 -40
32 c-22 18 -40 41 -40 52 0 16 3 17 15 7 8 -7 22 -10 30 -6z m389 -1733 c-2
-2 -6 -2 -8 0 -7 8 -262 1570 -257 1575 6 6 271 -1569 265 -1575z m-204 1572
c-1 -35 196 -1130 201 -1121 4 7 6 -8 3 -33 -3 -34 -2 -40 6 -24 8 16 9 13 5
-15 -3 -19 8 -109 24 -200 16 -91 27 -167 25 -169 -11 -11 -3 -51 -176 958
-57 333 -104 598 -106 590 -1 -9 56 -359 127 -779 72 -420 128 -766 126 -769
-3 -2 -7 -2 -10 1 -5 5 -265 1537 -265 1559 0 5 9 9 20 9 11 0 20 -3 20 -7z
m-100 -12 c0 -4 56 -358 124 -787 69 -428 123 -781 120 -783 -9 -10 -14 10
-31 120 -14 90 -19 108 -25 84 -4 -18 -5 -6 -3 30 3 45 2 54 -5 35 -8 -20 -8
-18 -4 15 3 23 -10 133 -30 255 -19 118 -62 391 -96 605 -33 215 -62 400 -65
413 -3 12 -1 22 5 22 5 0 10 -4 10 -9z m30 -21 c0 -11 56 -360 125 -777 75
-452 122 -760 116 -766 -5 -5 -11 7 -15 30 -42 259 -246 1537 -246 1540 0 2 5
1 10 -2 6 -3 10 -15 10 -25z m356 -1500 c3 -16 2 -21 -4 -15 -6 6 -13 35 -16
65 -6 58 -4 55 20 -50z m-196 -100 c-14 -9 -2 -106 14 -123 16 -16 42 -186 41
-266 0 -64 0 -65 -40 -93 -48 -33 -55 -34 -55 -8 0 11 -7 38 -16 60 -13 31
-21 40 -40 40 -34 0 -39 -22 -22 -102 14 -66 14 -69 -4 -79 -27 -14 -78 17
-101 61 -24 46 -18 104 23 240 21 68 33 135 36 190 8 147 8 147 70 181 30 17
60 41 66 53 10 18 13 10 25 -63 9 -60 10 -87 3 -91z m100 30 c0 -5 -6 -11 -12
-11 -7 -1 -23 -3 -35 -4 -13 -1 -23 1 -23 6 0 7 23 14 58 18 6 0 12 -3 12 -9z
m138 -35 c0 -25 -4 -35 -15 -35 -13 0 -13 3 -3 15 10 12 10 15 -4 15 -22 0
-21 27 2 33 9 3 18 5 19 6 0 0 1 -15 1 -34z m-48 4 c0 -5 -4 -9 -9 -9 -5 0
-16 -3 -25 -6 -10 -4 -16 -1 -16 9 0 9 10 15 25 15 14 0 25 -4 25 -9z m-60
-10 c0 -5 -4 -9 -9 -9 -5 0 -16 -3 -25 -6 -10 -4 -16 -1 -16 9 0 9 10 15 25
15 14 0 25 -4 25 -9z m70 -61 c0 -6 -3 -8 -7 -5 -3 4 -11 3 -17 -2 -19 -15
-88 -21 -83 -8 2 7 15 12 30 12 14 1 28 3 31 6 10 10 46 7 46 -3z m-120 -18
c0 -10 -41 -21 -52 -14 -17 10 -7 19 22 20 17 1 30 -2 30 -6z m106 -47 c3 -21
12 -68 19 -105 9 -51 9 -68 0 -68 -6 0 -17 33 -24 78 -7 42 -15 89 -18 105 -3
16 -1 27 5 27 6 0 14 -17 18 -37z m38 -64 c10 -55 15 -103 12 -106 -8 -8 -12
10 -26 101 -7 44 -14 86 -17 93 -3 7 -1 13 4 13 5 0 17 -45 27 -101z m-95 29
c21 -127 23 -146 14 -151 -6 -4 -17 36 -27 93 -19 115 -19 120 -7 120 5 0 14
-28 20 -62z m30 0 c21 -128 23 -148 14 -148 -5 0 -15 41 -22 92 -7 51 -15 98
-18 105 -3 7 -1 13 5 13 5 0 15 -28 21 -62z m-85 -51 c19 -114 18 -107 7 -107
-4 0 -11 28 -15 63 -3 34 -9 82 -12 107 -13 87 5 34 20 -63z m25 21 c7 -46 15
-93 18 -105 3 -13 1 -23 -5 -23 -5 0 -15 35 -22 78 -6 42 -14 89 -17 105 -3
15 -1 27 4 27 5 0 15 -37 22 -82z m181 -165 c-11 -17 -11 -17 -6 0 3 9 1 17
-4 17 -15 0 -12 28 3 33 16 5 21 -28 7 -50z m-546 41 c17 -7 22 -34 7 -34 -22
0 -39 13 -34 26 6 16 6 16 27 8z m426 -28 c0 -10 -9 -14 -27 -13 -16 2 -33 -2
-39 -7 -12 -12 -6 -56 8 -56 5 0 6 -5 2 -11 -10 -17 -22 2 -30 48 l-6 42 38 4
c22 2 42 4 47 5 4 1 7 -4 7 -12z m-211 -188 c17 -72 44 -153 59 -181 26 -48
96 -112 112 -102 12 8 33 -23 26 -40 -19 -51 -116 43 -180 177 -59 125 -97
295 -62 282 9 -4 26 -55 45 -136z m295 70 c7 -34 3 -44 -13 -33 -13 7 -15 65
-2 65 5 0 11 -14 15 -32z m28 2 c3 -17 1 -33 -4 -36 -4 -3 -8 1 -8 8 0 7 -3
23 -6 36 -4 12 -2 22 4 22 5 0 12 -14 14 -30z m-90 -15 c3 -24 0 -35 -9 -35
-7 0 -13 9 -13 19 0 11 -3 26 -6 35 -4 10 -1 16 9 16 10 0 16 -12 19 -35z m28
6 c0 -16 3 -44 6 -62 5 -23 3 -31 -3 -24 -15 14 -26 115 -13 115 5 0 10 -13
10 -29z m-95 -13 c8 -35 11 -32 -40 -44 -77 -18 -48 -76 30 -62 14 3 25 5 25
4 0 0 7 -39 15 -86 8 -47 15 -87 15 -90 0 -3 -21 -5 -46 -5 -42 0 -49 4 -71
35 -13 19 -36 73 -50 119 l-26 85 22 15 c12 9 33 25 47 36 14 11 36 21 49 21
19 2 25 -4 30 -28z m318 -32 c7 -18 -1 -26 -29 -26 -27 0 -40 27 -16 33 31 8
40 7 45 -7z m-150 -29 c-3 -5 -9 -3 -14 4 -6 10 -9 11 -9 2 0 -7 -7 -13 -15
-13 -24 0 -17 28 8 32 23 3 40 -10 30 -25z m55 15 c3 -9 -3 -13 -19 -10 -12 1
-24 9 -27 16 -3 9 3 13 19 10 12 -1 24 -9 27 -16z m-212 -31 c-10 -16 -79 -14
-74 2 5 14 59 27 72 16 4 -4 5 -12 2 -18z m126 -161 c14 -83 21 -153 17 -156
-4 -2 -10 10 -13 28 -3 18 -13 76 -21 128 -9 52 -18 107 -21 123 -3 15 -1 27
4 27 5 0 20 -68 34 -150z m13 128 c2 -13 14 -79 25 -147 19 -112 20 -144 5
-129 -4 4 -54 274 -55 296 0 1 4 2 10 2 5 0 12 -10 15 -22z m28 0 c3 -13 15
-80 28 -150 12 -71 26 -128 31 -128 5 0 6 -4 3 -10 -3 -5 -11 -10 -16 -10 -6
0 -8 4 -5 9 4 5 2 11 -2 13 -10 4 -60 298 -51 298 4 0 9 -10 12 -22z m-129
-10 c6 -29 46 -274 46 -282 0 -3 -4 -6 -9 -6 -5 0 -17 53 -26 118 -9 64 -21
134 -25 155 -4 20 -4 37 1 37 5 0 11 -10 13 -22z m36 17 c0 -13 41 -262 46
-277 3 -11 0 -18 -9 -18 -10 0 -20 38 -38 150 -19 117 -22 150 -12 150 7 0 13
-2 13 -5z m-389 -236 c23 -12 16 -29 -11 -29 -21 0 -34 15 -25 30 8 13 12 12
36 -1z m589 -50 c0 -24 -23 -21 -28 4 -2 10 3 17 12 17 10 0 16 -9 16 -21z
m-290 -28 c5 -11 10 -24 10 -30 0 -12 -30 -15 -30 -3 0 4 -3 17 -6 30 -8 27
11 30 26 3z m248 -17 c-4 -23 -66 -54 -108 -54 -36 0 -81 23 -69 35 6 5 132
31 167 34 8 1 12 -6 10 -15z m60 -436 c-5 -13 -117 -33 -126 -23 -10 9 6 16
55 25 70 11 75 11 71 -2z"/>
<path d="M1118 3633 c-26 -6 -31 -34 -10 -55 29 -29 71 -2 56 36 -7 17 -23 24
-46 19z"/>
<path d="M1884 1676 c-9 -23 -1 -48 19 -60 25 -16 52 4 52 40 0 25 -4 29 -33
32 -22 2 -34 -2 -38 -12z m53 -12 c8 -21 -13 -42 -28 -27 -13 13 -5 43 11 43
6 0 13 -7 17 -16z"/>
<path d="M1122 1598 c-18 -18 -14 -63 6 -81 52 -47 126 28 76 77 -18 19 -65
21 -82 4z m59 -8 c24 -13 25 -46 1 -59 -37 -20 -70 27 -40 57 15 15 15 15 39
2z"/>
<path d="M1818 1298 c-25 -20 -31 -54 -13 -72 25 -25 54 -20 66 12 l11 27 24
-50 c19 -41 24 -66 24 -137 0 -48 4 -89 9 -92 5 -3 22 -43 37 -88 37 -105 83
-158 138 -158 41 0 86 35 86 67 0 27 -28 63 -49 63 -19 0 -45 -25 -53 -49 -2
-9 -14 5 -28 35 -18 36 -26 70 -28 129 -3 62 -11 101 -39 173 -47 123 -71 152
-127 152 -23 0 -49 -6 -58 -12z m180 -275 c-3 -51 -18 -39 -18 15 0 34 3 43
10 32 5 -8 9 -30 8 -47z"/>
<path d="M1801 504 c0 -6 -12 -37 -27 -69 l-25 -58 -39 38 c-45 44 -45 53 0
35 29 -12 33 -11 58 13 29 30 23 50 -8 22 -19 -17 -34 -17 -97 1 -38 11 -27
-19 28 -80 28 -31 55 -56 59 -56 13 0 62 126 57 146 -3 11 -5 14 -6 8z"/>
</g>
</svg>
