<svg version="1.0" xmlns="http://www.w3.org/2000/svg"
 width="300.000000pt" height="97.000000pt" viewBox="0 0 300.000000 97.000000"
 preserveAspectRatio="xMidYMid meet">
<g transform="translate(0.000000,97.000000) scale(0.100000,-0.100000)"
fill="#000000" stroke="none">
<path d="M836 875 c-5 -13 -58 -15 -413 -14 l-408 2 0 -384 0 -384 1431 -3
1431 -2 7 37 c3 21 6 196 6 388 l0 350 -435 -3 c-386 -3 -436 -1 -441 12 -8
20 -50 21 -57 2 -9 -22 -1052 -23 -1061 -1 -7 20 -52 19 -60 0z m-776 -200 l5
150 218 -1 c119 0 217 3 217 8 0 4 -98 9 -217 11 -120 1 17 3 305 4 297 2 520
-1 517 -6 -3 -5 -14 -7 -25 -4 -11 3 -20 0 -20 -6 0 -6 16 -11 36 -11 28 0 35
3 30 15 -4 13 7 15 72 13 76 -2 77 -2 15 -5 -108 -7 -70 -23 51 -23 l114 0 7
-28 c4 -20 12 -28 30 -30 14 -1 25 3 25 8 0 5 -7 6 -17 3 -11 -4 -14 -3 -9 5
4 7 2 12 -5 12 -8 0 -5 7 6 18 13 12 30 16 62 13 24 -1 43 1 43 5 0 5 -53 10
-117 12 -64 1 -119 5 -122 7 -2 3 345 5 772 5 l777 0 2 -122 c1 -101 3 -112 8
-63 6 58 7 59 8 14 1 -26 4 -62 7 -80 4 -24 3 -28 -3 -15 -6 14 -11 16 -16 7
-10 -15 1 -76 17 -102 9 -14 9 -21 -1 -31 -8 -7 -13 -8 -12 -3 4 19 0 38 -7
32 -3 -4 -12 -2 -19 3 -6 6 -56 12 -110 13 -81 2 -99 5 -98 17 1 10 -9 15 -28
15 -15 1 -28 -3 -28 -7 0 -4 6 -8 14 -8 8 0 17 -4 20 -9 3 -4 -24 -9 -60 -9
-47 0 -67 4 -71 14 -3 8 -12 14 -21 14 -13 0 -12 -3 4 -15 17 -12 -124 -14
-1158 -15 -867 0 -1184 -3 -1203 -12 -24 -11 -29 -19 -26 -45 1 -7 -3 -13 -9
-13 -12 0 -13 396 -1 415 3 6 8 -64 11 -155 l5 -165 5 150z m120 -321 c0 -107
1 -114 20 -114 19 0 20 7 20 115 0 111 1 115 21 115 21 0 21 -3 17 -115 l-4
-115 24 0 c21 0 23 3 17 31 -12 51 4 199 21 199 11 0 14 -23 14 -115 0 -108 1
-115 20 -115 19 0 20 7 20 115 l0 115 35 0 35 0 0 -115 c0 -108 1 -115 20
-115 19 0 20 7 20 115 0 109 1 115 21 115 19 0 20 -5 17 -115 -3 -114 -3 -115
20 -115 22 0 22 2 22 115 l0 115 35 0 35 0 0 -115 c0 -108 1 -115 20 -115 19
0 20 7 20 115 0 96 3 115 15 115 12 0 15 -19 15 -115 0 -108 1 -115 20 -115
19 0 20 7 20 115 0 63 3 115 8 115 28 -1 52 -15 52 -31 0 -24 -17 -25 -23 -1
-3 9 -5 -31 -6 -90 -1 -102 0 -108 19 -108 19 0 20 7 20 115 l0 115 28 0 c50
0 72 -11 71 -34 -1 -17 -2 -17 -6 -3 -11 42 -18 9 -18 -88 -1 -95 1 -105 17
-105 16 0 18 11 18 115 0 108 1 115 20 115 19 0 20 -7 20 -115 0 -108 1 -115
20 -115 19 0 20 7 20 115 l0 115 35 0 35 0 0 -115 c0 -108 1 -115 20 -115 19
0 20 7 20 113 l0 113 55 0 55 0 0 -113 c0 -106 1 -113 20 -113 19 0 20 7 20
114 l0 114 35 0 35 0 0 -114 c0 -107 1 -114 20 -114 19 0 20 7 20 113 l0 112
73 0 72 0 0 -112 c0 -107 1 -113 20 -113 20 0 21 5 19 103 -2 116 -3 121 -14
87 l-8 -25 -1 28 c-1 15 2 27 7 27 4 0 17 3 30 6 22 6 22 6 22 -110 0 -109 1
-116 20 -116 19 0 20 7 20 115 0 96 3 115 15 115 12 0 15 -19 15 -115 0 -108
1 -115 20 -115 19 0 20 7 20 114 l0 114 35 0 35 0 0 -114 c0 -107 1 -114 20
-114 19 0 20 7 20 115 0 108 1 115 20 115 19 0 20 -7 20 -115 0 -108 1 -115
20 -115 19 0 20 7 20 115 l0 115 35 0 35 0 0 -115 c0 -108 1 -115 20 -115 19
0 20 7 20 115 0 96 3 115 15 115 12 0 15 -19 15 -115 0 -108 1 -115 20 -115
19 0 20 7 20 116 0 105 2 115 18 112 15 -3 17 -18 20 -116 2 -104 4 -112 22
-112 19 0 20 7 20 114 l0 114 35 0 35 0 0 -114 c0 -107 1 -114 20 -114 19 0
20 7 20 108 -1 98 -2 105 -15 82 l-14 -25 -1 28 c0 15 3 27 8 27 4 0 17 3 30
6 22 6 22 6 22 -110 0 -109 1 -116 20 -116 19 0 20 7 20 115 l0 115 37 -3 37
-2 1 -113 c0 -106 1 -112 21 -112 19 0 20 5 17 88 -4 135 -4 131 -13 102 l-8
-25 -1 26 c-1 19 5 28 21 32 12 3 25 4 30 1 4 -3 8 -54 8 -115 0 -102 1 -109
20 -109 19 0 20 7 20 108 -1 98 -2 105 -15 82 l-14 -25 -1 28 c0 15 3 27 8 27
4 0 17 3 30 6 22 6 22 6 22 -110 0 -109 1 -116 20 -116 19 0 20 7 20 114 l0
114 35 0 35 0 0 -114 c0 -107 1 -114 20 -114 19 0 20 7 20 108 0 62 -4 101 -9
94 -7 -11 -9 -11 -14 1 -6 16 35 33 53 22 6 -4 10 -55 10 -116 0 -102 1 -109
20 -109 19 0 20 7 20 105 0 94 -9 129 -23 92 -3 -7 -6 -5 -6 6 -1 9 2 17 7 17
4 0 17 3 30 6 l22 6 0 -178 0 -179 -1363 1 c-991 1 -1362 5 -1361 13 1 6 2 85
3 176 l1 164 45 -1 45 -1 0 -113z m177 86 c-1 -11 -5 -20 -9 -20 -4 0 -8 9 -8
20 0 11 4 20 9 20 6 0 9 -9 8 -20z m113 0 c0 -11 -4 -20 -10 -20 -5 0 -10 9
-10 20 0 11 5 20 10 20 6 0 10 -9 10 -20z m260 0 c0 -11 -4 -20 -10 -20 -5 0
-10 9 -10 20 0 11 5 20 10 20 6 0 10 -9 10 -20z m260 0 c0 -11 -4 -20 -10 -20
-5 0 -10 9 -10 20 0 11 5 20 10 20 6 0 10 -9 10 -20z m110 0 c0 -11 -4 -20
-10 -20 -5 0 -10 9 -10 20 0 11 5 20 10 20 6 0 10 -9 10 -20z m150 1 c0 -11
-4 -23 -10 -26 -6 -4 -10 5 -10 19 0 14 5 26 10 26 6 0 10 -9 10 -19z m110 -1
c0 -11 -4 -20 -10 -20 -5 0 -10 9 -10 20 0 11 5 20 10 20 6 0 10 -9 10 -20z
m260 -5 c0 -14 -4 -25 -10 -25 -5 0 -10 11 -10 25 0 14 5 25 10 25 6 0 10 -11
10 -25z m70 0 c0 -14 -4 -25 -10 -25 -5 0 -10 11 -10 25 0 14 5 25 10 25 6 0
10 -11 10 -25z m109 -2 c0 -25 -1 -26 -9 -8 -12 27 -12 35 0 35 6 0 10 -12 9
-27z m81 2 c0 -14 -4 -25 -10 -25 -5 0 -10 11 -10 25 0 14 5 25 10 25 6 0 10
-11 10 -25z m110 -2 c0 -29 -12 -24 -17 7 -2 11 2 20 7 20 6 0 10 -12 10 -27z
m70 2 c0 -14 -2 -25 -4 -25 -2 0 -6 11 -8 25 -3 14 -1 25 3 25 5 0 9 -11 9
-25z m80 6 c0 -11 -4 -23 -10 -26 -6 -4 -10 5 -10 19 0 14 5 26 10 26 6 0 10
-9 10 -19z m179 -8 c0 -25 -1 -26 -9 -8 -12 27 -12 35 0 35 6 0 10 -12 9 -27z
m261 7 c0 -11 -4 -20 -10 -20 -5 0 -10 9 -10 20 0 11 5 20 10 20 6 0 10 -9 10
-20z"/>
<path d="M706 824 c-5 -13 -1 -16 23 -12 26 4 29 2 25 -18 -2 -13 0 -26 6 -29
6 -4 10 6 10 24 l0 31 135 0 c74 0 135 3 135 8 0 4 -74 9 -164 10 -145 3 -164
1 -170 -14z"/>
<path d="M1541 830 c-11 -6 -10 -9 4 -11 37 -8 325 2 325 11 0 11 -311 12
-329 0z"/>
<path d="M1910 828 c0 -4 47 -8 105 -8 61 0 105 4 105 10 0 5 -43 9 -105 8
-58 -1 -105 -5 -105 -10z"/>
<path d="M2680 833 c0 -5 20 -8 44 -8 24 0 48 3 52 8 4 4 -16 7 -44 7 -29 0
-52 -3 -52 -7z"/>
<path d="M900 771 c0 -25 3 -28 25 -23 31 6 33 32 3 32 -19 0 -20 2 -8 10 13
8 12 10 -2 10 -13 0 -18 -8 -18 -29z"/>
<path d="M960 790 c6 -4 10 -17 10 -31 0 -46 12 -109 21 -109 12 0 12 67 0 72
-11 4 -2 58 9 58 4 0 11 -10 15 -22 l7 -23 8 25 c4 14 8 19 9 11 1 -11 4 -11
16 -1 8 6 18 9 24 6 5 -3 11 -1 13 5 2 7 20 8 51 4 54 -8 56 -17 3 -17 -24 0
-36 -5 -36 -14 0 -10 13 -14 45 -14 38 0 45 3 45 19 0 31 -18 36 -137 36 -62
1 -108 -2 -103 -5z"/>
<path d="M1203 788 c2 -7 10 -13 17 -13 7 0 15 -6 18 -12 2 -7 -3 -13 -12 -13
-9 0 -16 -4 -16 -10 0 -5 3 -9 8 -9 20 3 30 -3 35 -21 4 -16 14 -20 47 -20 37
0 41 2 30 15 -11 13 -8 15 14 15 23 0 26 -3 21 -21 -5 -15 -4 -19 4 -15 6 4
11 16 11 27 0 14 -7 19 -29 19 -44 0 -59 9 -54 31 4 13 0 19 -11 19 -12 0 -16
-7 -14 -22 2 -11 -3 -23 -9 -25 -9 -3 -13 7 -13 31 0 32 -3 36 -26 36 -16 0
-24 -5 -21 -12z m105 -75 c2 -8 -6 -13 -22 -13 -19 0 -24 4 -19 15 6 18 34 16
41 -2z"/>
<path d="M1523 785 c-7 -20 2 -29 21 -22 9 4 13 13 10 22 -8 19 -23 19 -31 0z"/>
<path d="M1710 771 c0 -20 6 -30 20 -34 11 -3 20 -1 20 4 0 4 6 6 14 3 11 -4
13 0 9 15 -3 11 -9 18 -14 15 -5 -3 -9 2 -9 10 0 9 -9 16 -20 16 -15 0 -20 -7
-20 -29z"/>
<path d="M1763 793 c4 -3 20 -6 37 -5 16 0 30 -4 30 -9 0 -6 -5 -7 -10 -4 -6
4 -9 -3 -7 -16 2 -14 11 -23 24 -24 18 -1 20 2 12 28 -7 24 -5 28 7 23 9 -3
20 -6 25 -6 5 0 9 -9 9 -20 0 -21 22 -36 39 -26 15 10 0 46 -20 46 -10 0 -21
5 -24 10 -3 6 -34 10 -67 10 -34 0 -58 -3 -55 -7z"/>
<path d="M1940 791 c0 -5 18 -7 40 -4 28 4 40 2 40 -7 0 -9 4 -9 13 -2 6 6 26
12 42 15 17 2 -7 5 -52 6 -46 0 -83 -3 -83 -8z"/>
<path d="M704 760 c-1 -22 3 -26 21 -22 26 5 24 37 -3 44 -13 4 -17 -2 -18
-22z"/>
<path d="M1457 784 c-10 -11 3 -24 24 -24 10 0 19 7 19 15 0 15 -31 21 -43 9z"/>
<path d="M780 768 c0 -7 5 -20 10 -28 9 -13 11 -13 20 0 5 8 8 20 7 25 -5 15
-37 18 -37 3z"/>
<path d="M840 765 c0 -8 9 -15 20 -15 11 0 20 7 20 15 0 8 -9 15 -20 15 -11 0
-20 -7 -20 -15z"/>
<path d="M1327 774 c-10 -11 3 -24 24 -24 10 0 19 7 19 15 0 15 -31 21 -43 9z"/>
<path d="M1598 775 c-10 -11 4 -45 18 -45 26 0 14 -29 -13 -33 -26 -4 -26 -4
5 -6 22 -1 32 3 32 14 0 8 4 15 10 15 5 0 6 -7 3 -17 -5 -12 -3 -14 7 -8 9 5
11 4 6 -3 -4 -7 -14 -12 -22 -12 -8 0 -14 -9 -14 -21 0 -11 5 -17 10 -14 6 4
8 10 5 15 -7 11 24 22 37 14 7 -5 9 2 6 19 -3 14 0 28 6 30 6 2 2 3 -9 1 -31
-4 -60 11 -60 31 0 18 -16 30 -27 20z"/>
<path d="M1650 765 c0 -8 9 -15 20 -15 11 0 20 7 20 15 0 8 -9 15 -20 15 -11
0 -20 -7 -20 -15z"/>
<path d="M1970 766 c0 -22 36 -26 37 -5 1 13 -5 19 -18 19 -10 0 -19 -6 -19
-14z"/>
<path d="M2040 768 c0 -7 11 -13 25 -13 14 0 25 6 25 13 0 6 -11 12 -25 12
-14 0 -25 -6 -25 -12z"/>
<path d="M1048 738 c9 -9 15 -9 24 0 9 9 7 12 -12 12 -19 0 -21 -3 -12 -12z"/>
<path d="M1402 724 c2 -14 7 -20 16 -16 11 4 11 6 1 13 -8 4 13 5 46 2 62 -6
115 -33 65 -33 -20 0 -22 -2 -10 -10 13 -8 13 -10 -1 -10 -9 0 -19 7 -23 15
-6 17 -44 20 -66 4 -12 -8 -10 -10 10 -8 46 3 55 -4 15 -11 -34 -6 -30 -7 33
-9 l72 -1 0 43 0 42 -80 0 c-75 0 -79 -1 -78 -21z"/>
<path d="M757 733 c-4 -3 -1 -15 5 -27 6 -11 11 -22 10 -23 -7 -11 1 -23 16
-22 10 0 12 3 5 6 -22 8 -14 23 11 23 13 0 27 6 29 13 3 6 5 -13 5 -43 0 -42
-2 -49 -8 -30 -5 15 -8 18 -9 8 -1 -9 2 -24 5 -33 11 -27 33 16 30 57 -2 20 0
42 5 49 6 10 9 3 10 -21 l2 -35 7 35 7 35 2 -42 c0 -24 5 -43 10 -43 5 0 8 -8
6 -17 -2 -10 -4 -22 -4 -27 -2 -18 -19 8 -24 34 -3 19 -5 16 -6 -12 -1 -47
-10 -68 -27 -68 -8 0 -14 -4 -14 -10 0 -5 9 -10 20 -10 13 0 20 7 20 20 0 11
5 20 10 20 6 0 10 -7 10 -16 0 -14 3 -14 15 -4 8 7 15 25 15 41 0 22 5 29 20
29 15 0 20 -7 20 -26 0 -29 31 -67 38 -46 5 17 22 15 22 -4 0 -27 33 -11 42
21 5 21 3 36 -8 53 -10 15 -14 39 -12 63 2 21 0 39 -4 39 -5 0 -8 -24 -9 -52
-1 -42 -3 -48 -9 -28 -7 20 -8 16 -9 -22 -1 -34 -5 -48 -15 -48 -17 0 -26 21
-27 63 0 27 -2 29 -9 12 -7 -15 -9 -8 -11 30 -2 49 -2 49 -8 12 -3 -21 -9 -38
-13 -37 -5 0 -13 0 -19 0 -7 0 -10 14 -7 35 2 19 2 36 -2 36 -3 1 -22 3 -42 4
-26 1 -38 -2 -38 -11 0 -8 -11 -14 -25 -14 -17 0 -23 4 -19 14 6 15 -9 30 -19
19z"/>
<path d="M720 705 c0 -8 5 -15 10 -15 6 0 10 7 10 15 0 8 -4 15 -10 15 -5 0
-10 -7 -10 -15z"/>
<path d="M1075 710 c-3 -5 -4 -10 -1 -10 2 0 1 -13 -4 -30 -7 -23 -5 -30 6
-30 10 0 14 12 14 40 0 41 -4 48 -15 30z"/>
<path d="M1120 686 c0 -20 -3 -36 -7 -36 -14 0 -8 -75 7 -92 13 -16 15 -16 26
10 10 23 9 29 -10 44 -11 9 -17 20 -13 24 4 4 15 0 25 -9 10 -10 24 -17 30
-17 13 0 15 -10 6 -35 -5 -13 -8 -14 -15 -3 -6 9 -9 7 -9 -9 0 -16 6 -23 20
-23 14 0 21 9 26 34 6 37 -1 60 -17 51 -5 -4 -10 17 -11 47 l-1 53 -6 -55 c-5
-50 -7 -53 -18 -33 -7 12 -13 33 -13 47 0 14 -4 28 -10 31 -6 4 -10 -8 -10
-29z"/>
<path d="M1221 695 c-1 -23 -3 -27 -11 -15 -8 12 -10 11 -10 -7 0 -13 6 -23
14 -23 20 0 24 10 15 45 l-7 30 -1 -30z"/>
<path d="M1990 702 c0 -7 -4 -10 -10 -7 -12 7 -13 -5 -1 -23 6 -11 10 -11 19
0 7 9 8 19 2 28 -7 11 -10 12 -10 2z"/>
<path d="M1732 683 c2 -10 7 -21 12 -25 16 -11 34 3 29 23 -7 24 -45 26 -41 2z"/>
<path d="M1814 684 c3 -9 6 -24 6 -35 0 -10 5 -19 10 -19 6 0 10 6 10 14 0 8
6 17 13 19 9 4 9 6 0 6 -7 1 -10 8 -7 16 4 11 0 15 -16 15 -16 0 -20 -4 -16
-16z"/>
<path d="M1890 683 c0 -8 7 -13 18 -11 9 2 17 7 17 12 0 5 -8 10 -17 12 -10 1
-18 -4 -18 -13z"/>
<path d="M2050 686 c0 -21 21 -31 31 -15 14 22 11 29 -11 29 -11 0 -20 -6 -20
-14z"/>
<path d="M702 663 c3 -18 45 -26 55 -10 7 11 -16 27 -40 27 -12 0 -17 -6 -15
-17z"/>
<path d="M1250 630 c0 -28 5 -50 10 -50 6 0 10 8 8 18 -2 13 4 17 25 17 15 -1
27 5 27 12 0 8 12 13 30 13 20 0 30 5 30 15 0 23 -47 19 -60 -5 -13 -23 -45
-27 -54 -5 -4 10 1 15 17 16 21 0 21 1 2 9 -33 14 -35 12 -35 -40z"/>
<path d="M1980 640 c0 -5 11 -10 25 -10 14 0 25 5 25 10 0 6 -11 10 -25 10
-14 0 -25 -4 -25 -10z"/>
<path d="M760 630 c0 -5 12 -10 28 -9 24 0 25 1 7 9 -27 12 -35 12 -35 0z"/>
<path d="M1650 632 c0 -4 4 -13 9 -21 8 -12 12 -13 25 -1 9 7 14 15 11 18 -9
9 -45 13 -45 4z"/>
<path d="M2084 629 c-3 -6 -1 -16 5 -22 8 -8 11 -5 11 11 0 24 -5 28 -16 11z"/>
<path d="M1593 623 c9 -2 25 -2 35 0 9 3 1 5 -18 5 -19 0 -27 -2 -17 -5z"/>
<path d="M1917 619 c-9 -5 -22 -7 -27 -4 -6 3 -10 -1 -10 -9 0 -24 46 -21 53
4 3 11 4 20 4 20 -1 0 -10 -5 -20 -11z"/>
<path d="M1382 608 c3 -9 29 -13 89 -13 46 0 89 -3 96 -8 7 -4 10 -1 9 10 -3
16 -16 18 -100 21 -76 2 -97 0 -94 -10z"/>
<path d="M1730 605 c0 -9 10 -15 26 -15 31 0 28 22 -4 27 -14 2 -22 -2 -22
-12z"/>
<path d="M1817 614 c-14 -14 -7 -25 13 -22 12 2 21 8 21 13 0 12 -24 18 -34 9z"/>
<path d="M710 594 c0 -10 7 -14 22 -12 32 5 35 28 4 28 -17 0 -26 -5 -26 -16z"/>
<path d="M1631 589 c11 -11 23 -19 25 -16 6 6 -25 37 -37 37 -5 0 0 -9 12 -21z"/>
<path d="M1965 601 c-10 -9 8 -21 30 -21 16 0 23 5 19 13 -4 12 -40 18 -49 8z"/>
<path d="M2038 592 c-4 -15 -1 -18 14 -14 11 2 16 8 11 11 -4 3 -11 10 -14 14
-4 4 -9 -1 -11 -11z"/>
<path d="M2403 592 c-36 -14 -43 -21 -42 -42 2 -22 2 -22 6 -3 4 19 12 22 74
25 65 3 69 2 69 -19 0 -12 -8 -23 -17 -26 -10 -2 -4 -4 14 -3 24 1 29 4 21 14
-20 24 8 35 87 34 42 -1 85 -4 95 -7 11 -4 20 -2 20 4 0 15 -22 26 -48 22 -13
-1 -30 3 -39 11 -12 9 -15 10 -9 1 5 -9 -1 -13 -18 -13 -14 0 -26 5 -26 11 0
8 -4 8 -12 2 -7 -5 -36 -9 -65 -8 -28 0 -50 -2 -48 -5 2 -3 -5 -6 -15 -6 -14
0 -16 3 -8 13 6 7 9 12 7 12 -2 -1 -23 -9 -46 -17z"/>
<path d="M2730 589 c0 -6 6 -9 14 -6 7 3 26 -1 42 -9 28 -15 28 -15 9 6 -19
21 -65 28 -65 9z"/>
<path d="M2080 576 c0 -8 -8 -17 -17 -19 -10 -3 -6 -4 9 -4 19 1 26 6 25 19
-2 21 -17 25 -17 4z"/>
<path d="M1220 560 c0 -19 3 -21 12 -12 9 9 9 15 0 24 -9 9 -12 7 -12 -12z"/>
<path d="M1283 572 c-29 -4 -29 -18 -1 -25 25 -7 31 -4 26 15 -2 7 -13 12 -25
10z"/>
<path d="M770 556 c0 -11 9 -16 26 -16 31 0 28 23 -4 28 -15 2 -22 -2 -22 -12z"/>
<path d="M1337 564 c-14 -14 -7 -30 14 -31 14 -1 19 3 17 14 -3 18 -21 27 -31
17z"/>
<path d="M1397 563 c-13 -12 -7 -33 8 -33 8 0 15 9 15 20 0 20 -11 26 -23 13z"/>
<path d="M1580 546 c0 -22 3 -24 23 -17 12 5 22 15 22 22 0 8 -10 15 -22 17
-19 3 -23 -1 -23 -22z"/>
<path d="M2005 544 c0 -27 7 -30 23 -11 8 9 7 16 -6 23 -14 9 -17 7 -17 -12z"/>
<path d="M920 544 c0 -8 11 -14 25 -14 14 0 25 4 25 9 0 5 -11 11 -25 13 -17
4 -25 1 -25 -8z"/>
<path d="M1078 548 c9 -9 15 -9 24 0 9 9 7 12 -12 12 -19 0 -21 -3 -12 -12z"/>
<path d="M1432 548 c6 -17 96 -19 102 -2 4 11 -7 14 -50 14 -38 0 -54 -4 -52
-12z"/>
<path d="M1657 553 c-14 -13 -6 -23 18 -23 16 0 25 6 25 15 0 15 -31 21 -43 8z"/>
<path d="M710 534 c0 -10 7 -14 22 -12 32 5 35 28 4 28 -17 0 -26 -5 -26 -16z"/>
<path d="M2721 529 c17 -11 39 -12 39 -1 0 4 -12 8 -27 9 -19 1 -22 -1 -12 -8z"/>
<path d="M1145 345 c0 -93 2 -105 18 -105 15 0 17 11 16 108 -1 69 -4 98 -9
82 -8 -24 -8 -24 -9 -2 -1 12 -4 22 -9 22 -4 0 -7 -47 -7 -105z"/>
<path d="M1405 345 c0 -98 1 -105 20 -105 19 0 20 7 20 105 0 98 -8 134 -18
83 l-4 -23 -2 23 c0 12 -5 22 -9 22 -4 0 -7 -47 -7 -105z"/>
<path d="M1734 285 c0 -82 2 -115 3 -72 2 43 2 110 0 150 -1 40 -3 5 -3 -78z"/>
<path d="M2184 285 c0 -82 2 -115 3 -72 2 43 2 110 0 150 -1 40 -3 5 -3 -78z"/>
<path d="M2624 285 c0 -82 2 -115 3 -72 2 43 2 110 0 150 -1 40 -3 5 -3 -78z"/>
<path d="M144 280 c0 -80 2 -112 3 -72 2 39 2 105 0 145 -1 39 -3 7 -3 -73z"/>
<path d="M1924 280 c0 -80 2 -112 3 -72 2 39 2 105 0 145 -1 39 -3 7 -3 -73z"/>
<path d="M2372 340 c0 -19 2 -27 5 -17 2 9 2 25 0 35 -3 9 -5 1 -5 -18z"/>
<path d="M1286 259 c-5 -67 -4 -105 3 -112 8 -8 11 22 11 101 0 62 -2 112 -4
112 -2 0 -6 -46 -10 -101z"/>
<path d="M1476 242 c-4 -32 -2 -69 3 -83 8 -18 10 -5 10 59 1 45 -1 82 -3 82
-2 0 -6 -26 -10 -58z"/>
<path d="M2373 205 c0 -38 2 -53 4 -32 2 20 2 52 0 70 -2 17 -4 1 -4 -38z"/>
<path d="M1032 200 c0 -59 1 -62 10 -32 8 22 8 42 0 65 -9 29 -10 26 -10 -33z"/>
<path d="M843 195 c0 -33 2 -45 4 -27 2 18 2 45 0 60 -2 15 -4 0 -4 -33z"/>
<path d="M403 195 c0 -27 2 -38 4 -22 2 15 2 37 0 50 -2 12 -4 0 -4 -28z"/>
<path d="M593 195 c0 -22 2 -30 4 -17 2 12 2 30 0 40 -3 9 -5 -1 -4 -23z"/>
<path d="M1353 180 c0 -30 2 -43 4 -28 2 16 2 40 0 56 -2 15 -4 2 -4 -28z"/>
<path d="M1543 180 c0 -30 2 -43 4 -28 2 16 2 40 0 56 -2 15 -4 2 -4 -28z"/>
<path d="M1673 180 c0 -30 2 -43 4 -28 2 16 2 40 0 56 -2 15 -4 2 -4 -28z"/>
<path d="M1863 180 c0 -30 2 -43 4 -28 2 16 2 40 0 56 -2 15 -4 2 -4 -28z"/>
<path d="M2053 180 c0 -30 2 -43 4 -28 2 16 2 40 0 56 -2 15 -4 2 -4 -28z"/>
<path d="M2113 180 c0 -30 2 -43 4 -28 2 16 2 40 0 56 -2 15 -4 2 -4 -28z"/>
<path d="M2303 185 c0 -27 2 -38 4 -22 2 15 2 37 0 50 -2 12 -4 0 -4 -28z"/>
<path d="M2433 180 c0 -30 2 -43 4 -28 2 16 2 40 0 56 -2 15 -4 2 -4 -28z"/>
<path d="M2563 185 c0 -27 2 -38 4 -22 2 15 2 37 0 50 -2 12 -4 0 -4 -28z"/>
<path d="M273 180 c0 -25 2 -35 4 -22 2 12 2 32 0 45 -2 12 -4 2 -4 -23z"/>
<path d="M333 180 c0 -25 2 -35 4 -22 2 12 2 32 0 45 -2 12 -4 2 -4 -23z"/>
<path d="M463 180 c0 -25 2 -35 4 -22 2 12 2 32 0 45 -2 12 -4 2 -4 -23z"/>
<path d="M523 180 c0 -25 2 -35 4 -22 2 12 2 32 0 45 -2 12 -4 2 -4 -23z"/>
<path d="M653 180 c0 -25 2 -35 4 -22 2 12 2 32 0 45 -2 12 -4 2 -4 -23z"/>
<path d="M710 186 c0 -23 4 -35 10 -31 6 4 9 17 7 30 -5 40 -17 41 -17 1z"/>
<path d="M783 180 c0 -25 2 -35 4 -22 2 12 2 32 0 45 -2 12 -4 2 -4 -23z"/>
<path d="M973 180 c0 -25 2 -35 4 -22 2 12 2 32 0 45 -2 12 -4 2 -4 -23z"/>
<path d="M1097 213 c-11 -10 -8 -61 3 -68 6 -4 10 10 10 34 0 42 -2 46 -13 34z"/>
<path d="M1163 180 c0 -25 2 -35 4 -22 2 12 2 32 0 45 -2 12 -4 2 -4 -23z"/>
<path d="M1220 180 c0 -25 4 -39 10 -35 6 3 10 19 10 35 0 16 -4 32 -10 35 -6
4 -10 -10 -10 -35z"/>
<path d="M1410 181 c0 -23 5 -41 10 -41 6 0 10 15 10 34 0 19 -4 38 -10 41 -6
4 -10 -10 -10 -34z"/>
<path d="M1607 213 c-11 -10 -8 -73 3 -73 6 0 10 18 10 40 0 41 -2 45 -13 33z"/>
<path d="M1796 207 c-5 -9 -5 -29 0 -45 7 -25 8 -26 11 -4 3 12 3 32 0 45 -3
19 -4 20 -11 4z"/>
<path d="M1987 213 c-11 -10 -8 -61 3 -68 6 -4 10 10 10 34 0 42 -2 46 -13 34z"/>
<path d="M2243 180 c0 -25 2 -35 4 -22 2 12 2 32 0 45 -2 12 -4 2 -4 -23z"/>
<path d="M2493 180 c0 -25 2 -35 4 -22 2 12 2 32 0 45 -2 12 -4 2 -4 -23z"/>
<path d="M2683 180 c0 -25 2 -35 4 -22 2 12 2 32 0 45 -2 12 -4 2 -4 -23z"/>
<path d="M2753 180 c0 -25 2 -35 4 -22 2 12 2 32 0 45 -2 12 -4 2 -4 -23z"/>
<path d="M900 180 c0 -16 5 -30 10 -30 6 0 10 14 10 30 0 17 -4 30 -10 30 -5
0 -10 -13 -10 -30z"/>
</g>
</svg>
