<svg version="1.0" xmlns="http://www.w3.org/2000/svg"
 width="300.000000pt" height="300.000000pt" viewBox="0 0 300.000000 300.000000"
 preserveAspectRatio="xMidYMid meet">
<g transform="translate(0.000000,300.000000) scale(0.100000,-0.100000)"
fill="#000000" stroke="none">
<path d="M1486 2949 c-11 -13 -14 -24 -8 -28 12 -7 21 -130 10 -134 -10 -3
-18 -2257 -8 -2257 15 0 19 29 9 62 -11 41 -11 185 1 148 4 -14 8 -51 9 -82 1
-32 5 -58 10 -58 17 0 21 115 32 1055 6 517 14 942 18 945 3 3 7 44 8 92 1 67
-2 88 -13 92 -22 8 -19 125 4 142 10 8 12 13 5 14 -7 0 -13 7 -13 15 0 23 -43
18 -64 -6z m36 -81 c-5 -89 -9 -97 -11 -20 0 39 2 72 7 72 4 0 6 -24 4 -52z
m-12 -175 c0 -38 -4 -63 -8 -56 -7 11 -4 123 4 123 2 0 4 -30 4 -67z m13 -178
c3 -39 8 -78 12 -88 9 -23 -3 -36 -15 -17 -8 13 -10 13 -10 -1 0 -9 3 -19 7
-23 10 -10 13 -36 3 -36 -11 0 -7 -33 5 -42 6 -5 6 -8 -2 -8 -6 0 -11 -9 -10
-20 1 -11 7 -20 14 -20 7 0 13 -4 13 -10 0 -5 -6 -10 -13 -10 -17 0 -15 -39 2
-50 10 -5 10 -9 2 -15 -9 -5 -11 -189 -11 -698 1 -449 -2 -701 -9 -717 -15
-37 -15 25 -12 1109 2 418 6 730 11 725 5 -5 11 -41 13 -79z"/>
<path d="M1529 598 c-1 -13 -2 -35 -3 -50 -1 -16 2 -28 6 -28 4 0 8 23 8 50 0
49 -9 71 -11 28z"/>
<path d="M1353 485 c-133 -36 -210 -105 -233 -209 -21 -93 34 -156 180 -207
56 -20 85 -23 200 -23 146 0 215 14 300 60 58 32 82 66 88 123 10 110 -74 204
-222 250 -80 25 -122 27 -130 6 -3 -8 -15 -15 -26 -15 -11 0 -23 7 -26 15 -8
19 -60 19 -131 0z m117 -29 c0 -13 -6 -27 -12 -30 -7 -3 6 -3 30 0 40 5 57 -6
32 -21 -17 -11 -11 -37 8 -33 12 2 16 12 15 33 -1 17 1 40 3 53 4 20 9 22 42
17 20 -4 60 -18 88 -31 46 -21 51 -27 52 -57 1 -38 -21 -68 -69 -93 -42 -21
-29 -30 15 -9 42 20 69 59 63 91 -5 30 6 31 22 2 6 -13 9 -15 7 -5 -3 9 -1 17
4 17 6 0 10 -4 10 -10 0 -5 6 -10 14 -10 10 0 12 -7 8 -22 -3 -13 -1 -19 5
-15 18 11 41 -36 38 -76 -2 -20 1 -37 6 -37 5 0 9 -4 9 -10 0 -5 -6 -10 -14
-10 -8 0 -18 -4 -21 -10 -4 -6 1 -7 12 -4 15 5 15 3 -2 -10 -11 -8 -26 -20
-33 -26 -20 -18 -79 -40 -86 -32 -4 3 -11 0 -16 -8 -7 -11 -11 -11 -24 -1 -11
9 -16 10 -16 2 0 -6 -9 -11 -19 -11 -11 0 -22 -4 -25 -9 -4 -5 -18 -8 -34 -6
-15 1 -31 -2 -35 -9 -6 -8 -10 -8 -14 2 -2 6 -9 10 -14 6 -5 -3 -9 0 -9 5 0
12 -21 11 -30 -1 -3 -3 -25 -2 -50 3 -25 5 -66 11 -92 14 -26 4 -55 13 -63 21
-11 12 -15 12 -15 2 0 -10 -3 -9 -10 2 -5 8 -10 12 -10 7 0 -4 -13 -1 -30 8
-16 8 -29 19 -29 23 3 20 -3 32 -16 32 -18 0 -20 20 -2 21 10 0 10 2 0 6 -7 2
-13 14 -13 25 0 30 31 89 43 81 6 -4 8 0 4 9 -6 18 26 52 44 46 6 -2 27 11 46
28 33 30 112 61 161 63 17 1 22 -5 22 -23z"/>
<path d="M1380 449 c-40 -18 -64 -38 -56 -47 4 -3 106 59 106 64 0 6 -1 5 -50
-17z"/>
<path d="M1570 460 c0 -5 18 -15 41 -21 22 -7 51 -26 65 -42 24 -28 34 -16 11
14 -22 28 -117 68 -117 49z"/>
<path d="M1399 425 c-15 -8 -29 -21 -32 -30 -4 -10 7 -6 33 11 54 36 53 48 -1
19z"/>
<path d="M1550 435 c0 -3 18 -12 39 -21 31 -12 38 -19 34 -35 -3 -12 -16 -26
-29 -31 -24 -11 -32 -28 -14 -28 13 0 50 37 50 49 0 5 2 16 6 24 3 9 -7 20
-29 31 -35 16 -57 20 -57 11z"/>
<path d="M1445 368 c5 -37 4 -38 -18 -27 -12 7 -27 19 -34 28 -7 9 -12 11 -13
4 0 -26 47 -49 96 -46 27 1 55 2 62 2 6 1 12 7 12 15 0 8 6 17 13 19 7 4 8 6
1 6 -6 1 -17 -6 -24 -14 -24 -28 -80 -15 -79 19 0 11 3 15 6 9 7 -18 33 -16
33 3 0 8 -4 12 -10 9 -5 -3 -10 -2 -10 2 0 5 -9 9 -20 9 -17 0 -19 -5 -15 -38z"/>
<path d="M1270 372 c0 -29 36 -72 72 -87 56 -22 56 -19 2 18 -27 17 -54 43
-61 57 -7 14 -13 19 -13 12z"/>
<path d="M1330 368 c0 -19 38 -54 74 -68 39 -14 44 -6 6 10 -17 7 -42 26 -55
42 -14 17 -25 23 -25 16z"/>
<path d="M1630 330 c-33 -28 -39 -37 -23 -33 24 5 73 50 73 64 0 13 0 12 -50
-31z"/>
<path d="M1610 205 c0 -17 16 -20 25 -4 4 6 13 8 21 5 8 -3 14 -1 14 4 0 6
-13 10 -30 10 -20 0 -30 -5 -30 -15z"/>
</g>
</svg>
