<svg version="1.0" xmlns="http://www.w3.org/2000/svg"
 width="300.000000pt" height="400.000000pt" viewBox="0 0 300.000000 400.000000"
 preserveAspectRatio="xMidYMid meet">
<g transform="translate(0.000000,400.000000) scale(0.100000,-0.100000)"
fill="#000000" stroke="none">
<path d="M827 3527 c-3 -8 -26 -19 -52 -26 -54 -14 -52 -24 10 -41 33 -9 45
-18 45 -31 0 -22 35 -27 43 -6 3 6 6 2 6 -10 1 -16 7 -23 21 -23 11 0 20 7 20
14 0 13 4 13 35 0 22 -9 35 -10 35 -4 0 6 5 8 10 5 6 -4 59 -18 118 -31 133
-30 238 -80 287 -136 19 -23 34 -47 32 -52 -2 -6 -20 -15 -40 -21 -19 -5 -36
-14 -36 -20 0 -11 6 -11 62 -2 l38 6 -20 -28 c-19 -26 -21 -60 -36 -666 -8
-352 -15 -708 -15 -792 l0 -153 -31 0 -31 0 6 -197 6 -198 27 -6 28 -6 -30 -4
-30 -4 -5 -170 c-7 -226 -5 -235 31 -235 24 0 31 -7 49 -48 59 -133 215 -214
324 -168 46 19 108 77 144 134 57 89 63 130 72 452 5 162 13 323 20 358 21
125 63 200 133 247 26 17 30 17 66 1 21 -10 51 -16 67 -14 25 3 29 8 32 36 7
70 -94 220 -201 299 -161 119 -260 124 -221 9 16 -46 16 -46 -15 -94 -75 -117
-118 -249 -128 -388 -4 -52 -11 -88 -19 -95 -12 -10 -14 35 -14 274 0 280 0
285 20 280 19 -5 20 0 20 91 l0 96 -30 0 c-20 0 -30 -5 -30 -15 0 -8 -7 -15
-16 -15 -13 0 -15 5 -9 23 9 25 9 71 0 138 -5 35 -3 48 9 58 17 15 22 66 6 76
-5 3 -9 18 -8 33 0 15 -5 119 -11 232 -10 154 -16 208 -27 216 -11 9 -14 45
-14 172 0 167 -6 200 -43 241 -48 52 -179 120 -280 145 -23 5 -28 4 -25 -11 2
-12 -2 -17 -12 -15 -109 25 -210 58 -210 67 0 7 -22 15 -52 19 -29 4 -69 9
-89 13 -26 4 -38 1 -42 -10z m106 -12 c37 -4 67 -9 67 -12 0 -2 -5 -24 -11
-49 -8 -32 -16 -44 -26 -40 -7 3 -57 20 -110 38 l-96 33 37 9 c21 4 40 15 43
23 3 8 11 12 18 10 6 -3 42 -8 78 -12z m242 -79 c196 -52 238 -70 285 -123 22
-25 40 -52 40 -59 0 -7 -10 -25 -23 -40 l-24 -27 -21 35 c-52 84 -168 139
-374 178 -54 11 -58 13 -58 39 0 33 8 43 29 36 9 -2 75 -20 146 -39z m161 -21
c20 -8 41 -12 47 -8 6 4 7 1 2 -7 -6 -10 -4 -12 8 -7 15 5 127 -58 140 -80 7
-11 -19 -91 -36 -113 -10 -13 -10 -13 6 -1 11 8 17 9 17 2 0 -18 -50 -44 -88
-47 -21 -1 -27 0 -15 3 31 6 81 55 88 86 5 19 1 34 -14 53 -11 14 -18 30 -15
35 3 5 -3 12 -13 16 -10 3 -25 12 -33 19 -8 7 -19 13 -25 14 -16 1 -125 42
-125 46 0 8 22 4 56 -11z m228 -165 l7 -25 -15 25 -16 25 6 -32 c4 -21 2 -33
-4 -33 -17 0 -20 13 -10 49 10 36 21 32 32 -9z m6 -95 l0 -55 -67 0 -68 1 58
54 c32 30 62 55 67 55 6 0 10 -25 10 -55z m0 -75 c0 -6 -30 -10 -70 -10 -40 0
-70 4 -70 10 0 6 30 10 70 10 40 0 70 -4 70 -10z m-127 -830 l-6 -810 21 0
c19 0 22 5 22 47 0 53 -10 51 -20 -4 l-8 -38 -1 48 c-1 41 2 47 19 47 11 0 20
-5 20 -12 0 -21 33 -48 58 -48 14 0 34 8 45 17 20 17 20 17 14 0 -4 -10 -7
-29 -7 -43 0 -21 -3 -23 -26 -14 -14 6 -30 10 -35 10 -18 0 -59 -49 -59 -70 0
-46 76 -80 108 -48 9 9 12 -1 12 -47 0 -56 -1 -57 -18 -42 -25 23 -51 21 -79
-5 -28 -26 -30 -61 -3 -88 22 -22 69 -27 88 -8 9 9 12 -3 12 -55 l0 -67 -25
10 c-48 18 -104 -20 -105 -72 0 -41 10 -59 44 -74 30 -13 28 -13 -41 -14 l-73
0 0 413 c0 226 7 687 15 1022 8 336 15 643 15 683 0 39 4 72 10 72 6 0 7 -295
3 -810z m26 165 c-1 -355 1 -648 5 -652 3 -3 6 27 6 68 1 71 1 73 16 47 18
-35 56 -45 88 -25 l24 16 0 -144 0 -145 -21 15 c-32 22 -63 18 -86 -11 l-21
-27 0 37 c0 24 -4 35 -11 31 -6 -4 -7 -19 -4 -36 4 -18 3 -29 -4 -29 -6 0 -11
18 -11 40 l0 40 65 0 c37 0 65 4 65 10 0 6 -6 10 -12 11 -7 0 -3 5 10 11 12 6
22 16 22 22 0 6 -5 5 -12 -2 -15 -15 -61 -15 -76 0 -7 7 -12 20 -12 29 0 15 4
16 30 6 22 -9 33 -8 42 1 18 18 7 22 -62 23 l-63 1 6 271 c4 149 7 443 7 654
0 210 3 383 6 383 3 0 4 -290 3 -645z m99 588 c-4 -64 -26 -90 -53 -62 -22 22
-9 49 24 49 23 1 24 2 8 11 -14 8 -23 7 -38 -7 -37 -33 -13 -81 36 -72 24 5
25 3 25 -39 0 -39 -2 -43 -18 -34 -24 13 -62 -12 -62 -39 0 -27 38 -52 62 -39
17 9 18 4 18 -90 0 -90 -2 -101 -20 -111 -27 -14 -26 -55 2 -74 22 -16 22 -16
-15 -16 -23 0 -36 -4 -32 -10 3 -5 20 -10 37 -10 l31 0 -43 -40 c-24 -22 -38
-40 -31 -40 17 0 71 -58 71 -77 0 -16 -56 -73 -71 -73 -17 0 -7 -19 33 -58 32
-32 48 -43 48 -32 0 5 7 10 15 10 11 0 15 -11 15 -36 0 -20 -4 -33 -10 -29 -5
3 -7 12 -3 20 4 12 -6 15 -56 15 l-61 0 0 470 0 470 45 0 46 0 -3 -57z m36
-299 c5 -153 4 -184 -9 -194 -18 -15 -43 -7 -52 16 -8 21 22 45 45 37 14 -5
15 -3 5 8 -9 9 -13 59 -13 173 0 219 17 191 24 -40z m-40 121 c9 -24 -4 -45
-29 -45 -13 0 -25 7 -29 15 -9 24 4 45 29 45 13 0 25 -7 29 -15z m60 -401 c19
-18 20 -38 6 -65 -14 -26 -50 -25 -50 1 0 15 7 20 25 20 14 0 25 5 25 10 0 6
-11 10 -25 10 -18 0 -25 5 -25 20 0 24 22 26 44 4z m-14 -125 c0 -20 -4 -29
-12 -27 -18 6 -22 39 -6 49 18 12 18 12 18 -22z m-40 -49 c0 -13 -7 -20 -20
-20 -25 0 -26 16 -2 29 23 14 22 14 22 -9z m48 -2 c17 -17 15 -54 -4 -72 -22
-23 -34 -20 -34 9 0 18 5 25 20 25 11 0 20 5 20 10 0 6 -9 10 -20 10 -11 0
-20 7 -20 15 0 18 21 20 38 3z m-48 -64 c0 -30 -16 -28 -38 4 -14 21 -13 22
12 22 21 0 26 -5 26 -26z m130 -119 c0 -78 -10 -107 -24 -70 -20 53 -24 -23
-23 -450 l2 -465 -24 0 -24 0 6 173 c4 94 7 327 7 515 0 335 0 344 20 349 11
3 20 12 20 19 0 8 9 14 20 14 18 0 20 -7 20 -85z m-102 8 c16 -23 15 -43 -5
-65 -22 -24 -69 -24 -83 1 -15 30 -13 34 19 28 32 -7 71 1 71 14 0 5 -23 9
-51 9 -48 0 -50 1 -38 18 11 14 10 13 -9 -2 -22 -19 -22 -19 -22 3 0 20 4 21
53 16 32 -3 57 -11 65 -22z m387 -46 c84 -43 203 -165 244 -249 52 -105 29
-143 -58 -98 -28 14 -45 17 -54 11 -148 -118 -167 -175 -176 -546 l-6 -240
-27 1 c-16 0 -66 1 -113 2 l-85 2 0 45 c0 45 0 45 35 45 35 0 74 27 76 53 0 6
0 88 0 181 1 157 -1 170 -20 189 -13 14 -34 21 -57 21 l-36 0 7 75 c13 142 63
283 139 394 24 36 25 40 11 67 -16 31 -20 72 -8 84 11 11 64 -4 128 -37z
m-477 -29 c17 -21 72 -24 90 -6 9 9 12 6 12 -15 0 -24 -2 -26 -19 -17 -34 18
-68 12 -90 -16 l-21 -27 1 64 c0 35 3 57 6 49 3 -8 12 -23 21 -32z m87 -58
c38 -42 -14 -102 -65 -77 -44 22 -36 37 19 37 67 0 66 18 -1 22 -49 3 -51 4
-34 21 23 23 59 22 81 -3z m-72 -268 c21 -10 20 -11 -10 -11 -29 -1 -33 2 -34
27 -1 20 -2 22 -6 7 -9 -36 -23 -41 -23 -8 0 39 31 51 43 17 4 -12 18 -26 30
-32z m61 -88 c32 -32 10 -94 -34 -94 -19 0 -50 25 -50 41 0 5 18 9 40 9 53 0
52 18 -2 22 -40 3 -41 4 -24 21 22 21 50 22 70 1z m-194 -184 c0 -100 0 -100
-25 -100 -25 0 -25 0 -25 93 0 52 3 97 7 100 3 4 15 7 25 7 16 0 18 -10 18
-100z m199 16 c22 -26 9 -69 -22 -80 -36 -13 -61 2 -65 38 -4 35 14 56 48 56
15 0 33 -6 39 -14z m203 -3 c22 -20 23 -70 1 -95 -20 -22 -70 -23 -95 -1 -16
14 -27 6 -12 -10 11 -11 6 -169 -6 -181 -9 -8 -11 21 -8 126 4 116 7 140 23
158 22 24 71 26 97 3z m16 -195 l-2 -93 -5 85 c-3 47 -5 88 -3 93 9 21 12 -2
10 -85z m-433 -65 c22 -8 18 -33 -5 -33 -19 0 -20 6 -18 88 2 83 2 84 5 19 3
-48 8 -70 18 -74z m15 71 c0 -41 -4 -63 -10 -59 -5 3 -10 33 -10 66 0 33 4 59
10 59 6 0 10 -29 10 -66z m390 -2 l0 -67 -35 0 -35 0 0 67 0 66 35 0 35 0 0
-66z m-202 12 c26 -18 28 -50 5 -76 -22 -25 -59 -23 -77 4 -21 30 -20 44 4 68
24 24 38 25 68 4z m215 -112 c38 -33 6 -112 -46 -112 -12 0 -33 7 -45 16 -20
14 -32 7 -16 -9 4 -4 7 -44 8 -89 0 -64 -4 -89 -17 -108 -9 -13 -17 -37 -17
-52 0 -21 -5 -28 -20 -28 -24 0 -28 35 -5 44 10 4 15 20 15 50 0 24 4 46 9 48
5 2 11 48 12 103 2 55 7 110 12 121 18 43 71 50 110 16z m-403 -192 l0 -150
-25 0 -25 0 0 150 0 150 25 0 25 0 0 -150z m267 41 c0 -56 -4 -81 -13 -85 -8
-3 -11 -17 -7 -44 3 -25 1 -42 -7 -47 -9 -6 -11 16 -10 91 1 55 -1 114 -5 132
-7 29 -5 32 17 32 25 0 25 -2 25 -79z m-71 41 c37 -24 39 -93 4 -112 -52 -28
-110 2 -110 57 0 45 68 81 106 55z m343 -203 c-14 -125 -53 -206 -137 -279
-84 -75 -180 -75 -277 -2 -55 42 -115 142 -115 193 0 41 22 37 77 -14 45 -43
46 -45 30 -68 -23 -32 -21 -62 4 -90 19 -23 20 -23 10 -2 -15 29 -14 76 1 91
9 9 19 5 45 -20 39 -38 45 -26 6 14 l-27 28 27 0 c35 0 67 -33 67 -68 0 -16
-9 -37 -20 -47 -19 -18 -20 -17 -20 2 0 12 -7 24 -16 27 -20 8 -47 -13 -40
-31 3 -7 0 -13 -7 -14 -7 0 -2 -4 11 -10 52 -20 102 17 102 76 0 43 -32 75
-75 75 -28 0 -41 8 -80 55 -33 38 -55 55 -71 55 -20 0 -24 5 -24 30 l0 30 105
0 105 0 0 -54 c0 -46 3 -56 20 -61 11 -3 24 -4 28 -1 5 3 16 -4 25 -15 21 -24
77 -25 106 -1 11 9 24 31 27 49 5 27 1 37 -25 64 -23 23 -38 30 -56 26 -19 -3
-25 0 -25 14 0 17 9 19 113 19 l113 0 -7 -71z m-366 44 c-29 -2 -78 -2 -110 0
-32 2 -8 3 52 3 61 0 87 -1 58 -3z m220 -41 c10 -9 17 -29 17 -48 0 -57 -69
-85 -110 -44 -25 25 -26 72 -2 92 33 29 60 29 95 0z m-313 -74 l23 -33 -29 27
c-23 21 -41 28 -84 31 l-55 3 61 2 c57 2 61 0 84 -30z m-80 -13 c0 -20 -5 -25
-25 -25 -20 0 -25 5 -25 25 0 20 5 25 25 25 20 0 25 -5 25 -25z m200 -181 c0
-14 -21 -19 -33 -7 -9 9 13 34 24 27 5 -3 9 -12 9 -20z"/>
<path d="M1523 1790 c-13 -5 -23 -15 -23 -22 0 -9 3 -9 12 0 7 7 24 12 38 12
14 0 31 -5 38 -12 9 -9 12 -9 12 0 0 10 -43 35 -53 31 -1 0 -12 -4 -24 -9z"/>
<path d="M1884 2025 c-7 -16 -2 -47 11 -79 6 -14 5 -17 -3 -12 -41 25 32 -76
104 -145 83 -79 99 -87 189 -92 35 -2 40 1 43 21 10 72 -126 238 -240 292 -71
34 -96 37 -104 15z m124 -37 c29 -17 75 -52 102 -80 49 -50 110 -155 110 -190
0 -22 -34 -24 -70 -3 -31 17 -44 19 -34 4 10 -17 -54 23 -74 45 -13 15 -13 17
-2 11 8 -5 -10 18 -40 51 -30 32 -63 70 -72 84 -9 14 -17 20 -17 14 -1 -5 25
-41 56 -80 31 -38 47 -60 35 -50 -37 32 -104 125 -98 134 3 6 1 24 -5 41 -24
68 10 74 109 19z"/>
<path d="M1526 1214 c-12 -12 -13 -20 -6 -35 12 -22 30 -25 48 -7 18 18 15 36
-7 48 -15 7 -23 6 -35 -6z m37 -11 c9 -9 -13 -34 -24 -27 -14 8 -11 34 4 34 8
0 17 -3 20 -7z"/>
</g>
</svg>
