<svg version="1.0" xmlns="http://www.w3.org/2000/svg"
 width="450.000000pt" height="440.000000pt" viewBox="0 0 450.000000 440.000000"
 preserveAspectRatio="xMidYMid meet">
<g transform="translate(0.000000,440.000000) scale(0.100000,-0.100000)"
fill="#000000" stroke="none">
<path d="M2105 4021 c-3 -2 -17 -6 -31 -7 -15 -2 -34 -6 -43 -10 -18 -8 -27
-11 -41 -13 -5 0 -10 -5 -10 -10 0 -6 8 -8 18 -6 10 1 26 -3 37 -11 12 -9 14
-14 5 -14 -7 0 -10 -3 -7 -7 4 -3 -1 -12 -11 -19 -15 -11 -12 -13 21 -19 42
-8 57 -1 38 18 -11 9 -14 9 -18 0 -3 -7 -9 -13 -15 -13 -6 0 -6 6 2 15 7 8 9
15 4 16 -5 0 2 5 16 11 14 6 37 10 53 9 15 -2 27 2 27 8 0 7 -10 9 -26 5 -26
-7 -26 -6 -8 15 20 23 40 29 28 9 -4 -7 -4 -10 1 -6 4 4 14 1 22 -7 8 -8 23
-15 34 -15 10 0 24 -8 30 -19 7 -11 19 -16 30 -14 11 3 16 10 12 16 -4 7 0 8
11 4 12 -5 16 -3 13 5 -2 7 -10 12 -16 10 -9 -2 -9 3 -1 18 6 11 13 20 16 20
3 0 2 -5 -2 -11 -5 -9 1 -10 22 -5 26 6 27 5 12 -7 -10 -8 -18 -17 -18 -20 0
-10 34 6 46 21 9 12 13 13 19 2 5 -9 4 -11 -3 -6 -7 4 -12 2 -12 -3 0 -6 16
-11 36 -11 20 0 33 -4 29 -10 -3 -5 -13 -7 -23 -4 -10 4 -13 2 -7 -3 16 -13
16 -33 0 -27 -8 4 -15 1 -15 -5 0 -6 16 -10 36 -9 31 1 34 3 20 13 -15 11 -15
13 1 26 9 8 14 9 10 2 -5 -7 0 -9 13 -6 14 4 20 0 20 -11 0 -10 -4 -14 -10
-11 -5 3 -10 2 -10 -3 0 -14 37 -21 48 -10 6 6 12 5 17 -3 6 -8 4 -10 -5 -4
-9 5 -11 4 -6 -3 4 -7 15 -12 24 -12 14 0 14 -2 3 -9 -11 -7 -8 -11 10 -17 13
-4 29 -8 34 -9 6 0 9 -7 7 -14 -1 -7 2 -9 9 -6 20 13 -139 145 -175 145 -8 0
-17 4 -20 9 -11 17 -109 34 -204 36 -51 0 -95 -1 -97 -4z m148 -10 c10 0 16
-5 13 -10 -7 -11 -25 -9 -44 3 -8 5 -18 3 -25 -4 -8 -9 -8 -11 -1 -7 12 7 64
-14 64 -25 0 -5 -7 -8 -15 -8 -8 0 -15 5 -15 10 0 6 -9 10 -19 10 -10 0 -29 8
-40 18 -22 17 -21 17 21 16 24 -1 51 -2 61 -3z m-179 -12 c-4 -8 1 -9 16 -4
l22 7 -21 -21 c-25 -25 -34 -26 -51 -6 -10 12 -8 16 11 24 31 13 31 13 23 0z"/>
<path d="M1932 3952 c-7 -9 -10 -12 -7 -5 3 8 -5 6 -25 -3 -16 -9 -30 -20 -30
-25 0 -5 -6 -9 -14 -9 -8 0 -16 -7 -20 -15 -8 -23 12 -18 40 10 14 14 30 25
37 25 7 0 6 -4 -3 -10 -8 -5 -10 -10 -4 -10 6 0 17 6 23 14 18 22 69 37 74 23
3 -9 8 -9 18 1 11 10 11 12 -1 13 -8 0 -29 2 -45 4 -21 3 -35 -1 -43 -13z"/>
<path d="M2333 3958 c-13 -6 -23 -15 -23 -20 0 -4 10 -8 23 -8 18 0 19 2 7 11
-11 8 -8 9 14 4 26 -5 28 -4 17 9 -8 9 -14 16 -15 15 0 0 -11 -5 -23 -11z"/>
<path d="M2160 3950 c0 -6 12 -8 28 -5 15 3 21 2 15 -1 -19 -9 -16 -21 7 -27
22 -6 27 12 8 31 -15 15 -58 16 -58 2z"/>
<path d="M2090 3940 c0 -6 12 -8 28 -4 18 4 23 3 14 -4 -11 -8 -11 -10 1 -15
21 -8 29 3 16 20 -13 15 -59 18 -59 3z"/>
<path d="M1944 3924 c-16 -13 -16 -15 -2 -10 22 7 33 -10 12 -18 -8 -3 -12
-11 -9 -17 5 -7 14 -4 27 7 17 16 18 20 4 30 -9 6 -13 14 -9 17 13 13 -4 7
-23 -9z"/>
<path d="M1980 3930 c0 -5 5 -10 10 -10 6 0 10 5 10 10 0 6 -4 10 -10 10 -5 0
-10 -4 -10 -10z"/>
<path d="M2272 3931 c-11 -6 -10 -10 4 -15 20 -8 32 0 18 14 -5 5 -15 5 -22 1z"/>
<path d="M2166 3912 c-3 -3 -1 -11 5 -18 11 -13 39 -9 39 6 0 10 -37 20 -44
12z"/>
<path d="M2330 3915 c0 -2 9 -9 20 -15 16 -9 20 -8 20 5 0 8 -9 15 -20 15 -11
0 -20 -2 -20 -5z"/>
<path d="M2100 3897 c0 -21 12 -28 27 -16 19 16 16 29 -7 29 -11 0 -20 -6 -20
-13z"/>
<path d="M2240 3895 c0 -13 4 -14 20 -5 11 6 20 13 20 15 0 3 -9 5 -20 5 -11
0 -20 -7 -20 -15z"/>
<path d="M2306 3902 c-9 -16 11 -35 28 -25 14 8 13 10 -4 21 -10 6 -21 8 -24
4z"/>
<path d="M2412 3902 c-9 -7 -8 -13 8 -27 11 -10 20 -24 20 -31 0 -9 12 -13 34
-12 24 1 33 5 29 15 -3 7 -12 13 -20 13 -8 0 -11 -4 -8 -10 3 -5 3 -10 0 -10
-10 0 -29 23 -40 47 -7 15 -14 20 -23 15z"/>
<path d="M1876 3879 c-11 -10 -15 -19 -9 -19 6 0 16 6 23 14 6 8 18 12 26 9 8
-3 14 0 14 6 0 17 -33 12 -54 -10z"/>
<path d="M1990 3885 c-7 -8 -9 -15 -4 -15 4 0 -1 -6 -12 -14 -10 -8 -16 -18
-12 -22 11 -10 40 17 34 33 -3 7 1 13 9 13 8 0 15 5 15 10 0 15 -16 12 -30 -5z"/>
<path d="M2450 3890 c0 -5 3 -11 8 -11 65 -10 75 -7 41 12 -15 8 -19 8 -15 0
4 -6 2 -11 -3 -11 -6 0 -11 5 -11 10 0 6 -4 10 -10 10 -5 0 -10 -4 -10 -10z"/>
<path d="M2030 3877 c0 -21 12 -28 27 -16 19 16 16 29 -7 29 -11 0 -20 -6 -20
-13z"/>
<path d="M2137 3875 c-7 -16 8 -29 23 -20 10 6 2 35 -10 35 -4 0 -10 -7 -13
-15z"/>
<path d="M2191 3864 c-22 -29 -18 -63 5 -43 12 9 12 15 2 27 -11 13 -10 14 10
8 18 -6 22 -4 22 13 0 28 -14 26 -39 -5z"/>
<path d="M2270 3880 c-12 -7 -12 -11 1 -26 12 -15 12 -16 -8 -10 -25 8 -36 -4
-23 -24 14 -22 66 31 53 53 -5 11 -13 13 -23 7z"/>
<path d="M2377 3883 c-9 -14 8 -33 21 -24 10 6 10 10 -2 20 -8 7 -17 8 -19 4z"/>
<path d="M1810 3874 c0 -5 -13 -23 -29 -40 -33 -35 -65 -93 -57 -102 3 -3 6
-1 6 5 0 6 7 14 16 17 12 5 14 1 9 -17 -5 -20 -5 -20 9 3 11 19 12 28 3 38 -8
11 -5 18 13 32 26 20 60 23 57 5 -1 -5 -6 -13 -11 -16 -5 -4 -6 -13 -3 -20 3
-9 10 -2 18 19 8 17 17 32 21 32 4 0 8 5 8 11 0 6 -9 8 -21 4 -13 -5 -19 -3
-15 3 3 5 -1 15 -9 22 -8 7 -15 9 -15 4z"/>
<path d="M1891 3858 c-17 -27 -9 -33 13 -9 10 10 13 21 9 24 -5 3 -15 -3 -22
-15z"/>
<path d="M1924 3852 c-4 -9 -6 -20 -6 -24 1 -5 -2 -8 -8 -8 -5 0 -10 -7 -10
-15 0 -21 17 -19 30 4 7 14 6 21 -3 24 -7 3 -5 6 6 6 18 1 23 16 8 25 -5 3
-12 -2 -17 -12z"/>
<path d="M2070 3860 c-8 -5 -11 -12 -8 -16 10 -9 38 3 38 16 0 12 -10 13 -30
0z"/>
<path d="M2320 3852 c-14 -11 -19 -23 -14 -35 5 -14 9 -15 20 -6 11 9 11 15 3
25 -8 10 -8 14 -1 14 6 0 14 -5 17 -10 9 -15 25 -2 18 15 -7 19 -16 19 -43 -3z"/>
<path d="M2520 3843 c0 -10 6 -13 16 -9 9 4 24 1 33 -6 14 -11 14 -11 3 3 -18
24 -52 31 -52 12z"/>
<path d="M2001 3836 c-9 -11 -7 -15 8 -19 19 -5 36 15 24 27 -10 9 -20 7 -32
-8z"/>
<path d="M2110 3841 c0 -5 3 -17 6 -25 5 -13 9 -14 20 -5 12 9 14 7 12 -11 -3
-25 17 -39 25 -17 3 8 -6 26 -19 41 -25 26 -44 34 -44 17z"/>
<path d="M2396 3841 c-7 -10 22 -37 30 -28 9 8 -3 37 -15 37 -5 0 -12 -4 -15
-9z"/>
<path d="M2047 3815 c-8 -19 13 -31 24 -14 13 20 11 29 -5 29 -8 0 -16 -7 -19
-15z"/>
<path d="M2368 3825 c-11 -11 3 -35 21 -35 14 -1 14 -2 -2 -11 -14 -8 -16 -14
-6 -25 17 -21 29 -17 29 10 0 26 -31 71 -42 61z"/>
<path d="M2536 3822 c-3 -5 3 -17 14 -27 23 -21 26 -9 6 18 -8 10 -17 14 -20
9z"/>
<path d="M2600 3820 c-10 -7 -11 -10 -2 -10 6 0 12 -5 12 -11 0 -6 -7 -9 -15
-5 -17 6 -21 -9 -5 -19 6 -4 8 -9 6 -13 -2 -4 2 -16 10 -27 12 -16 14 -17 14
-2 0 9 -5 17 -11 17 -5 0 -7 5 -4 11 5 7 13 5 25 -6 10 -9 23 -14 29 -10 7 3
8 0 5 -9 -3 -8 -12 -12 -20 -9 -8 3 -14 0 -14 -6 0 -6 6 -11 13 -12 6 0 22 -2
35 -3 28 -3 28 -3 -4 42 -15 20 -24 29 -21 20 7 -21 -4 -23 -21 -6 -14 14 -16
32 -3 23 18 -11 20 12 3 28 -12 11 -22 13 -32 7z"/>
<path d="M1805 3809 c-4 -6 -5 -12 -2 -15 2 -3 7 2 10 11 7 17 1 20 -8 4z"/>
<path d="M1862 3804 c-6 -12 -8 -24 -5 -28 3 -3 1 -6 -5 -6 -7 0 -12 -10 -12
-22 l0 -23 20 25 c12 16 15 27 8 31 -7 4 -6 8 2 11 7 2 11 11 8 18 -3 11 -7
10 -16 -6z"/>
<path d="M1939 3798 c-10 -18 -9 -20 6 -15 9 4 19 7 21 7 2 0 4 7 4 15 0 22
-18 18 -31 -7z"/>
<path d="M2205 3810 c-4 -6 -1 -18 6 -26 14 -17 31 0 22 23 -6 16 -19 17 -28
3z"/>
<path d="M2270 3806 c-10 -13 -10 -20 -2 -28 16 -16 32 2 23 25 -6 17 -8 18
-21 3z"/>
<path d="M2467 3811 c-17 -6 -18 -8 -3 -20 18 -15 29 -10 24 12 -2 9 -9 12
-21 8z"/>
<path d="M2510 3808 c0 -9 7 -19 16 -22 15 -6 15 -4 3 11 -7 10 -15 20 -16 22
-2 2 -3 -3 -3 -11z"/>
<path d="M1983 3794 c-8 -22 5 -30 27 -16 17 11 19 9 17 -9 -1 -12 4 -24 11
-26 7 -3 12 4 12 15 0 33 -56 64 -67 36z"/>
<path d="M2086 3794 c-7 -17 0 -34 14 -34 15 0 19 28 6 40 -10 8 -15 6 -20 -6z"/>
<path d="M2330 3796 c-10 -13 -10 -20 -2 -28 16 -16 32 2 23 25 -6 17 -8 18
-21 3z"/>
<path d="M2427 3781 c3 -12 11 -17 19 -14 11 4 12 9 3 19 -16 20 -28 17 -22
-5z"/>
<path d="M1883 3758 c-19 -39 -22 -68 -8 -68 17 0 30 33 15 38 -7 3 -4 9 7 17
13 10 15 17 7 25 -7 7 -14 4 -21 -12z"/>
<path d="M2184 3766 c-4 -10 -2 -22 4 -28 8 -8 13 -7 18 6 4 10 2 22 -4 28 -8
8 -13 7 -18 -6z"/>
<path d="M1920 3756 c0 -24 18 -28 30 -6 9 17 8 20 -10 20 -11 0 -20 -6 -20
-14z"/>
<path d="M2125 3760 c-3 -4 -2 -15 1 -24 5 -13 10 -14 20 -5 10 8 13 5 11 -17
-1 -15 4 -29 11 -31 15 -6 16 18 1 51 -13 27 -35 41 -44 26z"/>
<path d="M2240 3750 c0 -13 5 -20 13 -17 6 2 12 10 12 17 0 7 -6 15 -12 18 -8
2 -13 -5 -13 -18z"/>
<path d="M2296 3761 c-11 -18 7 -41 24 -31 13 8 13 11 -1 26 -11 11 -19 12
-23 5z"/>
<path d="M2489 3765 c0 0 -2 -8 -4 -17 -2 -12 3 -18 16 -18 13 0 17 5 12 18
-6 15 -4 15 15 -2 22 -19 22 -19 22 3 0 18 -5 21 -30 19 -16 -1 -30 -2 -31 -3z"/>
<path d="M2560 3756 c0 -8 8 -17 17 -20 12 -5 14 -9 6 -14 -8 -5 -7 -13 3 -27
15 -19 15 -19 11 5 -8 43 -19 70 -28 70 -5 0 -9 -6 -9 -14z"/>
<path d="M1772 3728 c-8 -23 -15 -28 -24 -21 -22 16 -38 9 -53 -21 -18 -33
-19 -56 -4 -56 5 0 7 5 4 10 -8 13 14 42 26 34 5 -3 9 -13 9 -22 0 -15 -2 -15
-10 -2 -8 12 -10 9 -8 -10 2 -20 -1 -25 -19 -24 -16 1 -22 -6 -25 -28 -3 -19
-1 -25 5 -19 7 7 15 7 24 0 10 -9 13 -6 13 11 0 19 2 20 15 10 11 -9 15 -9 15
-1 0 7 4 10 9 7 8 -5 20 24 21 47 0 18 -18 4 -24 -18 -4 -14 -11 -25 -16 -25
-12 0 -13 13 -1 26 14 14 25 58 13 50 -5 -3 -12 1 -16 9 -3 8 -1 17 4 20 4 3
10 0 12 -6 2 -5 11 -7 19 -4 19 7 42 52 31 59 -5 3 -13 -9 -20 -26z"/>
<path d="M1805 3743 c-4 -10 -9 -31 -12 -48 l-4 -30 16 23 c9 12 14 26 10 31
-3 5 -1 12 5 16 12 8 13 25 1 25 -5 0 -12 -8 -16 -17z"/>
<path d="M1964 3746 c-4 -11 -1 -21 7 -27 17 -11 26 18 10 34 -7 7 -12 5 -17
-7z"/>
<path d="M2065 3743 c-8 -23 13 -42 25 -23 13 21 12 27 -4 33 -8 3 -17 -1 -21
-10z"/>
<path d="M2357 3753 c-9 -9 -9 -43 1 -43 21 1 30 16 18 32 -7 10 -16 15 -19
11z"/>
<path d="M2443 3752 c-8 -5 -8 -11 1 -24 15 -20 26 -14 26 14 0 19 -8 22 -27
10z"/>
<path d="M2010 3720 c0 -10 5 -22 10 -25 6 -3 10 -4 10 -1 0 2 3 11 6 19 3 8
-2 17 -10 20 -11 5 -16 0 -16 -13z"/>
<path d="M2212 3723 c-9 -16 -9 -23 2 -32 17 -14 26 5 16 34 -7 19 -7 19 -18
-2z"/>
<path d="M2264 3716 c-4 -10 -2 -22 4 -28 8 -8 13 -7 18 6 4 10 2 22 -4 28 -8
8 -13 7 -18 -6z"/>
<path d="M2410 3705 c0 -18 4 -23 15 -19 17 7 17 7 9 28 -9 24 -24 19 -24 -9z"/>
<path d="M1826 3704 c-9 -22 -8 -24 9 -18 8 4 15 12 15 20 0 19 -16 18 -24 -2z"/>
<path d="M1906 3704 c-9 -23 -8 -24 14 -24 13 0 20 7 20 20 0 24 -25 27 -34 4z"/>
<path d="M2096 3703 c-9 -21 16 -37 27 -17 9 15 2 34 -13 34 -4 0 -11 -8 -14
-17z"/>
<path d="M2316 3704 c-7 -19 2 -37 15 -29 12 8 12 45 0 45 -5 0 -12 -7 -15
-16z"/>
<path d="M2497 3714 c-8 -8 3 -34 14 -34 5 0 9 9 9 20 0 19 -11 26 -23 14z"/>
<path d="M2540 3706 c0 -8 7 -16 15 -20 17 -6 18 -4 9 18 -8 20 -24 21 -24 2z"/>
<path d="M1950 3691 c0 -27 19 -36 27 -14 6 15 8 13 13 -11 6 -36 30 -47 30
-14 0 16 -10 30 -29 41 -37 22 -41 21 -41 -2z"/>
<path d="M2046 3693 c-4 -9 0 -23 9 -32 13 -14 15 -13 15 11 0 32 -15 45 -24
21z"/>
<path d="M2373 3699 c-7 -9 -9 -20 -3 -29 12 -19 22 -7 18 21 -2 19 -5 20 -15
8z"/>
<path d="M2460 3680 c0 -19 11 -26 23 -14 8 8 -3 34 -14 34 -5 0 -9 -9 -9 -20z"/>
<path d="M2616 3692 c-3 -6 -2 -13 4 -17 6 -4 8 -11 4 -16 -9 -15 25 -61 41
-55 7 2 16 -2 19 -10 12 -31 6 -37 -15 -16 -21 23 -39 21 -39 -4 0 -15 16 -20
22 -5 2 4 12 -1 23 -12 20 -20 20 -20 -20 -13 -22 3 -74 8 -115 10 -41 2 -61
2 -45 0 226 -29 244 -35 243 -72 -1 -50 2 -63 12 -57 6 3 10 28 10 54 0 35 -5
53 -19 65 -11 10 -17 25 -14 34 4 14 3 15 -5 2 -6 -8 -8 -18 -6 -22 3 -4 3 -8
-1 -8 -3 0 -10 12 -16 27 -8 21 -7 28 6 35 8 5 15 17 15 28 0 14 -6 18 -25 14
-14 -2 -25 -1 -25 4 0 13 -29 48 -30 36 0 -6 10 -24 21 -38 17 -22 24 -25 31
-14 8 10 9 10 5 -2 -2 -8 -12 -15 -23 -15 -20 -1 -45 25 -38 37 3 4 1 15 -4
24 -6 11 -12 13 -16 6z"/>
<path d="M2188 3672 c-6 -22 1 -44 13 -36 12 7 12 41 0 48 -5 3 -11 -2 -13
-12z"/>
<path d="M1760 3669 c0 -5 5 -7 10 -4 6 3 10 8 10 11 0 2 -4 4 -10 4 -5 0 -10
-5 -10 -11z"/>
<path d="M1827 3673 c-4 -3 -7 -16 -7 -27 1 -21 1 -21 15 -2 8 11 15 23 15 28
0 10 -14 11 -23 1z"/>
<path d="M1860 3671 c0 -5 -3 -16 -6 -25 -4 -11 -1 -16 10 -16 18 0 22 35 6
45 -5 3 -10 2 -10 -4z"/>
<path d="M2136 3664 c-4 -10 -2 -22 3 -27 7 -7 13 -5 17 7 4 10 2 22 -3 27 -7
7 -13 5 -17 -7z"/>
<path d="M2240 3654 c0 -22 2 -24 14 -14 8 6 12 18 9 26 -9 23 -23 16 -23 -12z"/>
<path d="M2420 3670 c-12 -7 -12 -12 -3 -21 15 -15 26 -7 21 15 -2 11 -7 13
-18 6z"/>
<path d="M1900 3651 c0 -26 16 -35 24 -15 10 25 7 34 -9 34 -8 0 -15 -9 -15
-19z"/>
<path d="M2086 3654 c-7 -18 0 -34 15 -34 12 0 12 37 0 44 -5 3 -12 -1 -15
-10z"/>
<path d="M2290 3650 c0 -19 11 -26 23 -14 8 8 -3 34 -14 34 -5 0 -9 -9 -9 -20z"/>
<path d="M2345 3658 c-4 -9 -5 -25 -3 -34 2 -14 5 -15 14 -3 7 8 8 22 4 34 -7
18 -9 18 -15 3z"/>
<path d="M2517 3664 c-13 -13 -7 -44 8 -44 16 0 17 5 6 33 -3 10 -10 15 -14
11z"/>
<path d="M2551 3649 c9 -17 13 -19 20 -8 14 22 11 29 -11 29 -18 0 -19 -3 -9
-21z"/>
<path d="M2592 3648 c2 -12 8 -23 14 -25 7 -2 10 6 7 22 -6 30 -26 34 -21 3z"/>
<path d="M1782 3637 c-7 -16 -12 -40 -12 -55 1 -26 1 -26 15 -8 18 24 19 40 3
30 -9 -6 -9 -3 0 9 8 9 12 24 9 34 -3 14 -6 13 -15 -10z"/>
<path d="M1936 3628 c-9 -37 -7 -48 10 -48 14 0 14 3 4 15 -11 13 -10 14 4 9
14 -5 17 -2 14 16 -4 32 -24 36 -32 8z"/>
<path d="M2032 3629 c1 -13 8 -23 13 -21 15 3 12 35 -3 40 -9 3 -13 -3 -10
-19z"/>
<path d="M2388 3644 c-3 -5 -2 -19 1 -30 5 -18 8 -19 18 -9 9 10 9 17 -1 30
-7 10 -15 14 -18 9z"/>
<path d="M2468 3644 c-9 -8 3 -44 13 -38 11 7 12 44 1 44 -5 0 -11 -3 -14 -6z"/>
<path d="M2212 3620 c-6 -16 -6 -26 0 -29 16 -6 26 13 18 34 -7 19 -8 19 -18
-5z"/>
<path d="M1980 3610 c0 -11 7 -20 15 -20 8 0 15 6 15 14 0 8 -7 16 -15 20 -10
4 -15 -1 -15 -14z"/>
<path d="M2116 3615 c-9 -23 -8 -25 9 -25 17 0 19 9 6 28 -7 11 -10 10 -15 -3z"/>
<path d="M2160 3610 c-9 -17 -8 -20 10 -20 11 0 20 6 20 14 0 24 -18 28 -30 6z"/>
<path d="M2256 3614 c-9 -22 -8 -24 9 -24 8 0 15 9 15 20 0 24 -15 27 -24 4z"/>
<path d="M1850 3600 c0 -11 4 -20 9 -20 5 0 11 9 14 20 3 13 0 20 -9 20 -8 0
-14 -9 -14 -20z"/>
<path d="M2066 3605 c-3 -9 0 -15 9 -15 16 0 20 16 6 24 -5 3 -11 -1 -15 -9z"/>
<path d="M2306 3605 c-3 -9 0 -15 9 -15 8 0 15 7 15 15 0 8 -4 15 -9 15 -5 0
-11 -7 -15 -15z"/>
<path d="M2430 3607 c0 -8 7 -18 16 -21 11 -4 14 -1 12 11 -4 21 -28 30 -28
10z"/>
<path d="M1807 3590 c-4 -15 0 -20 13 -20 13 0 17 5 13 20 -3 11 -9 20 -13 20
-4 0 -10 -9 -13 -20z"/>
<path d="M1886 3595 c-3 -9 0 -15 9 -15 8 0 15 7 15 15 0 8 -4 15 -9 15 -5 0
-11 -7 -15 -15z"/>
<path d="M2355 3600 c-3 -5 1 -10 10 -10 9 0 13 5 10 10 -3 6 -8 10 -10 10 -2
0 -7 -4 -10 -10z"/>
<path d="M2517 3604 c-8 -8 1 -24 14 -24 5 0 9 7 9 15 0 15 -12 20 -23 9z"/>
<path d="M2560 3596 c0 -15 18 -31 26 -23 7 7 -7 37 -17 37 -5 0 -9 -6 -9 -14z"/>
<path d="M2597 3590 c3 -11 9 -20 14 -20 5 0 9 9 9 20 0 11 -6 20 -14 20 -9 0
-12 -7 -9 -20z"/>
<path d="M2485 3590 c-3 -5 -1 -10 4 -10 6 0 11 5 11 10 0 6 -2 10 -4 10 -3 0
-8 -4 -11 -10z"/>
<path d="M1684 3546 c-51 -24 -52 -24 -50 -67 1 -48 10 -69 29 -69 9 0 9 2 1
8 -8 5 -4 13 12 25 21 15 24 16 24 2 0 -22 -4 -30 -13 -27 -5 1 -6 -6 -2 -17
3 -11 0 -23 -6 -27 -8 -4 -9 -3 -5 4 4 7 1 12 -9 12 -12 0 -14 -4 -7 -16 5 -9
7 -25 5 -34 -3 -10 0 -21 6 -24 6 -4 11 -18 11 -31 0 -14 9 -29 20 -35 l21
-11 -21 38 c-18 35 -19 39 -3 63 15 23 15 24 0 11 -20 -16 -21 -11 -5 24 8 19
14 22 20 13 4 -7 6 5 3 29 -4 37 -3 42 12 36 11 -4 14 -3 9 5 -4 7 -2 12 3 12
6 0 11 -8 11 -17 1 -16 2 -16 15 1 14 19 15 18 15 -11 0 -37 9 -63 21 -63 14
0 11 38 -3 43 -10 4 -10 6 0 6 8 1 10 9 6 26 -4 15 -2 25 5 25 6 0 11 -8 11
-18 0 -32 13 -34 26 -5 12 27 12 27 13 5 1 -30 23 -24 32 9 5 16 7 18 8 7 1
-23 31 -24 31 -2 0 12 3 14 13 6 8 -7 18 -7 27 -2 27 17 39 11 34 -16 -4 -22
-2 -25 12 -20 14 5 15 4 5 -8 -17 -20 -11 -58 8 -47 10 6 11 21 6 58 l-6 50
-57 2 c-52 2 -254 -22 -293 -34 -12 -4 -16 1 -16 20 0 20 6 27 36 34 35 9 151
27 221 35 19 2 -1 2 -45 0 -44 -2 -98 -6 -120 -10 -38 -6 -39 -6 -20 9 28 23
9 20 -51 -7z"/>
<path d="M2050 3563 c130 -7 397 -7 387 -1 -7 4 -109 7 -227 6 -118 -1 -190
-3 -160 -5z"/>
<path d="M2128 3533 c6 -2 18 -2 25 0 6 3 1 5 -13 5 -14 0 -19 -2 -12 -5z"/>
<path d="M2198 3533 c17 -2 47 -2 65 0 17 2 3 4 -33 4 -36 0 -50 -2 -32 -4z"/>
<path d="M1743 3503 c9 -2 23 -2 30 0 6 3 -1 5 -18 5 -16 0 -22 -2 -12 -5z"/>
<path d="M2055 3501 c-18 -7 -18 -8 -1 -18 11 -6 14 -13 8 -17 -5 -3 -8 -15
-5 -26 4 -16 9 -18 19 -9 9 8 10 17 3 35 -11 31 -11 34 0 34 5 0 11 -9 14 -21
6 -23 27 -17 27 7 0 8 5 14 10 14 6 0 10 -9 10 -19 0 -11 4 -22 9 -25 11 -7
23 22 15 35 -3 5 1 9 9 9 8 0 17 -14 21 -32 5 -26 9 -30 16 -18 5 8 7 23 4 33
-3 11 0 17 10 17 9 0 16 -8 16 -19 0 -11 5 -23 10 -26 10 -6 14 7 11 33 -3 21
14 13 31 -15 l17 -28 1 28 c0 28 13 36 26 15 4 -6 2 -14 -4 -16 -14 -4 -16
-48 -3 -56 11 -7 23 22 15 35 -3 5 2 16 10 25 15 14 16 13 16 -15 0 -36 16
-49 25 -21 4 12 0 26 -10 36 -9 9 -13 19 -10 22 3 4 10 0 14 -7 5 -8 11 -9 15
-3 3 5 0 12 -7 15 -21 8 -321 7 -342 -2z"/>
<path d="M2420 3475 c0 -30 16 -33 25 -5 7 22 20 26 31 9 4 -8 9 -7 15 2 7 11
9 11 9 -2 0 -9 7 -19 15 -23 9 -3 15 0 15 9 0 8 5 15 10 15 6 0 10 -9 10 -20
0 -11 4 -20 9 -20 5 0 11 9 14 20 3 14 14 20 32 20 15 0 24 -4 20 -10 -3 -5
-1 -18 4 -27 10 -16 10 -17 11 -1 0 9 5 20 11 24 8 4 9 0 4 -15 -5 -15 -2 -21
9 -21 10 0 16 9 16 23 0 16 3 19 9 8 6 -9 16 -11 27 -6 16 6 15 9 -11 16 -32
9 -207 29 -256 29 -24 0 -29 -4 -29 -25z"/>
<path d="M1961 3461 c-8 -5 -11 -16 -6 -30 5 -18 9 -20 21 -10 15 12 20 49 7
49 -5 0 -14 -4 -22 -9z"/>
<path d="M2456 3453 c-4 -9 0 -23 9 -32 13 -14 15 -13 15 11 0 32 -15 45 -24
21z"/>
<path d="M2586 3454 c-9 -22 -8 -24 9 -24 8 0 15 9 15 20 0 24 -15 27 -24 4z"/>
<path d="M2117 3454 c-4 -4 -7 -19 -7 -33 0 -23 1 -24 16 -9 11 11 13 21 7 32
-5 9 -12 13 -16 10z"/>
<path d="M2270 3440 c0 -36 16 -58 23 -31 2 11 -1 28 -9 38 -12 17 -13 16 -14
-7z"/>
<path d="M1915 3438 c-11 -27 -2 -49 14 -38 12 7 12 14 4 32 -9 20 -12 21 -18
6z"/>
<path d="M2166 3435 c-3 -8 -3 -22 1 -31 5 -13 7 -13 14 -2 11 17 11 48 0 48
-5 0 -11 -7 -15 -15z"/>
<path d="M2220 3426 c0 -14 4 -27 9 -30 10 -7 20 23 14 42 -8 21 -23 13 -23
-12z"/>
<path d="M2498 3425 c6 -34 19 -40 27 -14 5 14 2 25 -6 30 -22 14 -27 11 -21
-16z"/>
<path d="M1727 3420 c3 -11 7 -20 9 -20 2 0 4 9 4 20 0 11 -4 20 -9 20 -5 0
-7 -9 -4 -20z"/>
<path d="M1877 3433 c-12 -3 -17 -12 -15 -26 5 -32 25 -31 30 3 3 16 4 29 4
29 -1 -1 -9 -3 -19 -6z"/>
<path d="M2405 3430 c-4 -6 0 -19 8 -30 14 -21 15 -21 19 4 5 25 -16 44 -27
26z"/>
<path d="M2703 3433 c13 -3 17 -11 14 -24 -3 -11 -1 -16 5 -13 6 4 8 -1 4 -14
-4 -11 -3 -23 1 -25 12 -7 13 45 2 65 -5 10 -17 17 -27 17 -15 -1 -15 -2 1 -6z"/>
<path d="M1754 3385 c5 -50 11 -63 23 -51 4 4 2 16 -5 26 -7 11 -8 20 -3 20
11 0 2 38 -11 46 -6 4 -8 -12 -4 -41z"/>
<path d="M1820 3393 c0 -41 11 -73 24 -73 6 0 12 9 12 20 0 11 -6 20 -13 20
-16 0 -17 17 -1 22 14 5 4 38 -12 38 -5 0 -10 -12 -10 -27z"/>
<path d="M2073 3408 c-6 -7 -7 -21 -4 -31 6 -17 8 -17 20 -3 8 10 9 21 4 31
-8 13 -11 14 -20 3z"/>
<path d="M2354 3405 c-4 -9 0 -24 10 -33 15 -15 16 -14 16 10 0 32 -17 46 -26
23z"/>
<path d="M2540 3401 c0 -10 7 -21 15 -25 11 -4 14 1 13 19 -3 29 -28 34 -28 6z"/>
<path d="M2580 3408 c0 -17 20 -47 20 -31 0 6 3 18 6 27 4 11 1 16 -10 16 -9
0 -16 -6 -16 -12z"/>
<path d="M2650 3398 c0 -19 2 -20 10 -8 13 19 13 30 0 30 -5 0 -10 -10 -10
-22z"/>
<path d="M2679 3401 c-1 -9 -1 -19 0 -23 0 -4 -11 -19 -25 -33 -14 -15 -24
-29 -21 -32 9 -8 27 7 27 23 0 8 5 12 10 9 6 -3 10 0 10 7 0 9 3 9 10 -2 7
-10 6 -18 -4 -25 -18 -14 -38 -54 -32 -64 7 -10 -31 -24 -56 -21 -12 1 -18 -6
-18 -21 0 -22 0 -22 14 -3 14 18 15 18 13 -3 -1 -14 -8 -23 -18 -23 -9 0 -24
-9 -34 -20 -16 -18 -16 -20 -2 -20 9 0 21 8 26 18 7 11 10 13 11 3 0 -11 3
-11 17 0 15 12 16 12 8 -1 -8 -13 -7 -13 8 -1 18 14 23 26 8 17 -5 -3 -11 1
-15 9 -3 8 -1 15 4 15 6 0 10 8 10 18 0 14 2 15 10 2 8 -12 10 -12 10 -1 0 8
3 11 7 8 3 -4 12 -2 20 4 7 6 13 7 13 2 0 -5 -11 -16 -25 -23 -26 -14 -26 -22
1 -26 16 -3 38 41 28 57 -3 5 -12 9 -20 9 -8 0 -14 5 -14 10 0 6 5 10 10 10 6
0 10 7 10 15 0 8 5 15 11 15 6 0 8 -8 4 -19 -3 -11 0 -23 6 -27 8 -4 9 -3 5 4
-4 7 -3 12 2 12 16 0 21 51 5 57 -8 3 -11 13 -8 27 5 17 4 18 -4 6 -14 -20
-15 4 -2 29 7 13 6 18 -5 18 -7 0 -15 -7 -15 -16z"/>
<path d="M1973 3403 c-15 -5 -18 -53 -4 -53 5 0 14 7 21 14 14 17 1 45 -17 39z"/>
<path d="M2131 3396 c-7 -9 -10 -24 -6 -37 6 -18 9 -19 21 -7 10 10 12 21 6
37 -7 20 -10 21 -21 7z"/>
<path d="M2305 3401 c-4 -7 -4 -24 0 -39 l7 -27 9 23 c10 27 -3 63 -16 43z"/>
<path d="M2450 3384 c0 -16 5 -24 13 -22 18 7 20 35 2 41 -11 5 -15 0 -15 -19z"/>
<path d="M2617 3390 c-3 -13 0 -20 9 -20 8 0 14 9 14 20 0 11 -4 20 -9 20 -5
0 -11 -9 -14 -20z"/>
<path d="M2192 3387 c-8 -9 -9 -22 -4 -38 l9 -23 12 22 c15 29 1 61 -17 39z"/>
<path d="M2246 3385 c-6 -17 2 -45 14 -45 14 0 18 39 5 50 -9 8 -14 6 -19 -5z"/>
<path d="M1729 3374 c-2 -31 2 -58 12 -74 6 -10 7 3 4 34 -6 52 -14 73 -16 40z"/>
<path d="M1922 3382 c-16 -10 -5 -42 14 -42 8 0 14 10 14 25 0 26 -7 30 -28
17z"/>
<path d="M2393 3363 c1 -14 7 -28 13 -30 18 -6 25 27 10 43 -21 20 -25 18 -23
-13z"/>
<path d="M2033 3373 c-18 -6 -16 -43 1 -43 8 0 18 4 21 10 9 14 -8 38 -22 33z"/>
<path d="M2487 3366 c-5 -14 10 -36 25 -36 4 0 8 11 8 25 0 27 -24 35 -33 11z"/>
<path d="M1870 3346 c0 -19 4 -23 19 -19 13 3 17 11 14 24 -8 28 -33 24 -33
-5z"/>
<path d="M2340 3352 c0 -12 0 -25 -1 -29 0 -4 4 -9 9 -11 17 -5 23 31 7 47
-13 14 -15 13 -15 -7z"/>
<path d="M2530 3345 c0 -30 15 -33 29 -6 8 15 7 20 -5 25 -23 9 -24 8 -24 -19z"/>
<path d="M1790 3340 c0 -11 7 -20 15 -20 17 0 18 2 9 24 -9 23 -24 20 -24 -4z"/>
<path d="M1986 3345 c-11 -8 -16 -21 -13 -30 13 -32 43 -7 35 29 -3 13 -6 13
-22 1z"/>
<path d="M2093 3348 c-6 -7 -7 -21 -4 -31 6 -17 8 -17 20 -3 8 10 9 21 4 31
-8 13 -11 14 -20 3z"/>
<path d="M2278 3335 c-6 -29 16 -55 26 -30 5 14 -8 55 -18 55 -2 0 -6 -11 -8
-25z"/>
<path d="M2573 3341 c-13 -20 -8 -31 14 -31 7 0 13 11 13 25 0 30 -11 32 -27
6z"/>
<path d="M2621 3351 c-7 -5 -11 -17 -9 -27 4 -17 5 -17 17 4 14 27 12 35 -8
23z"/>
<path d="M2155 3327 c-9 -34 0 -46 20 -26 13 13 13 17 1 34 -14 19 -15 19 -21
-8z"/>
<path d="M2216 3328 c-3 -13 -2 -26 3 -31 12 -12 32 18 25 37 -9 23 -21 20
-28 -6z"/>
<path d="M2434 3336 c-6 -17 2 -36 17 -36 12 0 12 37 -1 45 -6 3 -13 -1 -16
-9z"/>
<path d="M1714 3323 c2 -12 -1 -24 -8 -26 -7 -3 -3 -11 9 -20 11 -8 22 -13 25
-10 3 3 -1 8 -8 10 -6 3 -10 8 -7 13 3 4 0 19 -5 32 -10 22 -10 22 -6 1z"/>
<path d="M1937 3324 c-9 -10 -9 -44 1 -44 4 0 13 4 19 8 10 7 10 12 0 26 -7 9
-16 14 -20 10z"/>
<path d="M2047 3318 c-15 -11 -16 -16 -4 -32 11 -14 15 -15 24 -4 6 7 8 21 4
31 -5 15 -9 16 -24 5z"/>
<path d="M2371 3312 c-7 -13 -7 -22 1 -30 17 -17 25 -15 31 8 7 28 -19 47 -32
22z"/>
<path d="M2480 3305 c0 -14 5 -25 10 -25 6 0 10 2 10 4 0 2 3 11 6 19 3 8 -2
17 -10 20 -12 5 -16 0 -16 -18z"/>
<path d="M1892 3312 c-15 -10 -5 -45 11 -39 11 3 18 47 8 47 -3 0 -12 -4 -19
-8z"/>
<path d="M1770 3298 c0 -9 5 -20 10 -23 13 -8 13 5 0 25 -8 13 -10 13 -10 -2z"/>
<path d="M1802 3285 c6 -14 14 -22 17 -19 10 9 8 28 -4 36 -19 14 -25 8 -13
-17z"/>
<path d="M1844 3295 c-4 -10 -1 -21 7 -26 24 -15 30 -10 18 14 -17 31 -18 32
-25 12z"/>
<path d="M2112 3297 c-12 -15 -7 -47 8 -47 13 0 21 31 12 46 -7 13 -10 13 -20
1z"/>
<path d="M2311 3291 c-8 -14 -7 -22 3 -30 15 -13 26 -5 26 20 0 26 -17 32 -29
10z"/>
<path d="M2522 3298 c-16 -16 -15 -25 2 -31 9 -4 16 3 19 19 5 26 -2 31 -21
12z"/>
<path d="M2635 3303 c-27 -7 -45 -22 -45 -39 0 -19 30 -5 31 15 0 13 2 13 8
-2 6 -17 8 -16 19 7 6 14 11 25 9 25 -1 -1 -11 -4 -22 -6z"/>
<path d="M2003 3293 c-18 -6 -16 -43 1 -43 8 0 18 4 21 10 9 14 -8 38 -22 33z"/>
<path d="M2182 3287 c-12 -15 -7 -47 8 -47 13 0 21 31 12 46 -7 13 -10 13 -20
1z"/>
<path d="M2246 3285 c-6 -17 2 -45 14 -45 4 0 10 7 14 15 6 17 -2 45 -14 45
-4 0 -10 -7 -14 -15z"/>
<path d="M2417 3274 c-3 -19 -1 -24 12 -22 21 4 26 34 8 41 -10 4 -17 -3 -20
-19z"/>
<path d="M2560 3280 c0 -24 15 -27 24 -4 9 22 8 24 -9 24 -8 0 -15 -9 -15 -20z"/>
<path d="M1958 3273 c-20 -5 -22 -12 -8 -33 11 -17 23 -7 25 20 1 11 1 19 1
19 -1 -1 -9 -3 -18 -6z"/>
<path d="M2070 3266 c-16 -20 -6 -48 15 -40 17 7 19 22 6 42 -6 10 -10 10 -21
-2z"/>
<path d="M2350 3257 c0 -32 14 -42 30 -22 7 9 11 17 9 18 -2 1 -12 9 -21 16
-16 12 -18 11 -18 -12z"/>
<path d="M1750 3257 c0 -11 5 -17 13 -14 6 2 18 -3 25 -12 11 -14 12 -14 10 4
-2 11 -10 20 -18 20 -8 0 -18 5 -22 10 -4 6 -8 2 -8 -8z"/>
<path d="M2453 3254 c-8 -21 19 -38 30 -18 9 16 1 34 -14 34 -5 0 -12 -7 -16
-16z"/>
<path d="M1850 3254 c0 -3 5 -14 11 -25 11 -22 31 -17 23 6 -5 13 -34 30 -34
19z"/>
<path d="M1900 3240 c0 -14 7 -20 21 -20 15 0 19 4 15 16 -3 9 -6 18 -6 20 0
2 -7 4 -15 4 -8 0 -15 -9 -15 -20z"/>
<path d="M2140 3245 c-10 -12 -8 -22 10 -52 14 -25 16 -32 6 -23 -14 11 -19
10 -34 -4 -10 -9 -32 -15 -48 -15 -17 1 -22 3 -11 6 19 5 21 12 8 32 -15 24
-44 -5 -30 -30 8 -15 19 -19 50 -17 21 1 39 6 39 11 0 5 9 7 19 4 11 -3 29 2
41 10 17 12 19 18 9 29 -7 9 -21 12 -33 9 -19 -5 -19 -5 -5 7 14 11 15 17 4
31 -11 15 -14 15 -25 2z"/>
<path d="M2213 3241 c-14 -22 -2 -44 20 -35 20 7 21 13 4 36 -12 15 -14 15
-24 -1z"/>
<path d="M2285 3240 c-9 -29 8 -46 25 -25 11 13 11 19 -2 32 -14 14 -17 13
-23 -7z"/>
<path d="M2500 3234 c0 -29 11 -31 27 -5 10 16 9 20 -8 24 -15 4 -19 0 -19
-19z"/>
<path d="M1817 3232 c2 -10 11 -19 19 -19 9 0 13 6 9 14 -3 8 -5 17 -5 19 0 2
-6 4 -14 4 -9 0 -12 -7 -9 -18z"/>
<path d="M2023 3243 c-26 -5 -28 -11 -9 -36 10 -13 16 -15 23 -5 6 7 10 21 10
31 0 9 -1 16 -1 16 -1 -1 -11 -4 -23 -6z"/>
<path d="M2542 3229 c-15 -24 -15 -29 2 -29 15 0 29 37 17 44 -4 3 -12 -4 -19
-15z"/>
<path d="M1700 3225 c9 -11 22 -32 30 -47 7 -16 17 -28 22 -28 5 0 6 4 3 10
-4 7 3 7 19 0 17 -6 26 -6 26 0 0 6 -6 10 -13 10 -15 0 -57 33 -57 44 0 4 14
-2 30 -14 25 -18 30 -19 30 -6 0 9 -5 16 -11 16 -5 0 -7 6 -3 13 4 6 4 9 -1 5
-4 -4 -16 -3 -26 2 -12 7 -19 6 -22 -3 -3 -9 -8 -8 -23 3 -18 14 -18 14 -4 -5z"/>
<path d="M2390 3225 c-12 -14 -11 -18 1 -26 20 -13 29 -11 29 6 0 8 0 18 1 22
1 15 -18 13 -31 -2z"/>
<path d="M1977 3223 c-15 -15 -6 -43 13 -43 11 0 20 3 20 8 -1 14 -27 42 -33
35z"/>
<path d="M2095 3216 c-18 -14 -19 -16 -4 -31 13 -13 18 -14 26 -3 6 7 8 21 4
31 -6 16 -9 16 -26 3z"/>
<path d="M2319 3204 c-11 -13 -10 -17 2 -25 20 -12 26 -11 32 5 9 23 -18 39
-34 20z"/>
<path d="M2437 3200 c-6 -24 3 -33 20 -19 17 15 17 25 -1 32 -8 3 -16 -2 -19
-13z"/>
<path d="M1800 3198 c0 -9 4 -19 9 -22 14 -9 5 -41 -10 -37 -26 7 -34 6 -34
-4 0 -5 2 -9 5 -8 3 1 7 -10 8 -25 1 -14 11 -35 21 -46 32 -36 38 -59 35 -135
-1 -41 4 -140 12 -220 8 -80 17 -184 19 -231 3 -47 19 -290 36 -540 16 -250
36 -671 45 -935 8 -264 17 -503 20 -532 l5 -51 97 -8 c126 -9 403 2 412 16 4
6 10 203 14 438 4 235 16 621 27 857 11 237 22 511 24 610 3 99 6 182 6 185 9
41 26 341 22 386 -7 81 2 126 32 158 14 15 25 35 25 44 0 9 7 26 15 36 8 10
12 23 9 27 -3 5 0 9 5 9 6 0 11 5 11 11 0 5 -15 -1 -33 -15 -19 -15 -39 -26
-45 -26 -7 0 -12 -4 -12 -10 0 -14 13 -13 28 2 19 19 24 3 5 -18 -15 -16 -26
-18 -73 -12 -30 4 -200 6 -377 4 -219 -1 -323 2 -323 9 0 6 -3 7 -8 0 -4 -5
-13 -11 -20 -13 -10 -2 -11 2 -3 15 9 17 40 24 51 13 11 -11 149 12 154 26 4
9 -2 14 -15 14 -11 0 -17 -5 -14 -10 4 -7 -2 -9 -19 -4 -16 4 -26 2 -26 -5 0
-7 -8 -8 -25 -1 -14 5 -25 6 -25 2 0 -4 -15 -6 -34 -4 -21 2 -33 9 -30 16 2 6
-2 20 -10 31 -13 17 -15 18 -16 3z m70 -128 c-8 -5 -26 -10 -40 -10 -20 0 -22
2 -10 10 8 5 26 10 40 10 20 0 22 -2 10 -10z m633 -5 c30 -4 47 -3 47 4 0 6 9
11 20 11 11 0 20 -4 20 -10 0 -5 -7 -7 -15 -4 -11 5 -15 -1 -15 -24 0 -29 -1
-30 -37 -21 -115 26 -582 18 -659 -12 -23 -8 -25 -8 -15 5 7 8 10 20 6 26 -6
10 7 14 34 11 8 -2 10 2 5 10 -4 7 -3 10 3 6 5 -3 47 -2 94 3 86 9 426 5 512
-5z m-493 -68 c-13 -10 -18 -51 -10 -82 1 -5 2 -13 1 -17 0 -4 7 -7 17 -7 92
-2 117 0 124 7 8 8 122 6 146 -3 7 -3 10 0 7 5 -3 6 -1 10 4 10 6 0 11 -4 11
-10 0 -5 21 -9 48 -9 37 2 41 3 17 7 -29 6 -29 6 10 11 l40 6 0 46 c0 40 3 46
20 45 12 -1 18 -7 16 -16 -14 -53 11 -102 47 -95 12 2 25 -2 31 -9 11 -13 10
-28 -5 -231 -4 -55 -8 -107 -7 -116 0 -14 -6 -15 -41 -6 -58 15 -435 10 -528
-6 -53 -9 -74 -10 -68 -2 5 6 5 27 0 50 -5 22 -12 83 -15 135 -3 52 -8 111 -9
130 -4 38 6 50 43 50 45 0 82 75 49 97 -9 5 -3 10 17 14 46 10 51 9 35 -4z
m80 -7 c0 -5 -10 -10 -22 -10 -22 -1 -22 -1 -4 -15 22 -17 36 -11 36 16 0 24
30 26 31 2 1 -17 2 -17 6 0 4 17 33 25 33 8 0 -33 -15 -71 -27 -71 -9 0 -13 6
-9 15 3 8 1 15 -4 15 -6 0 -10 -7 -10 -15 0 -18 -30 -20 -31 -2 0 10 -2 10 -6
0 -6 -15 -73 -18 -73 -3 0 6 10 10 23 10 20 1 20 2 5 11 -27 15 -22 37 10 42
15 2 30 5 35 6 4 0 7 -3 7 -9z m117 -20 c-4 -16 -2 -30 3 -30 5 0 10 12 12 28
3 25 7 27 52 30 54 4 76 -9 57 -32 -7 -9 -8 -17 -2 -20 5 -3 12 7 16 24 5 25
11 30 36 30 34 0 40 -19 7 -21 l-23 -2 23 -4 c12 -2 22 -9 22 -14 0 -5 -10
-10 -22 -10 -17 -1 -19 -2 -5 -6 29 -7 19 -21 -19 -25 -21 -2 -44 2 -56 11
-16 11 -23 12 -26 3 -2 -7 -11 -12 -19 -12 -10 0 -13 6 -9 16 3 9 6 20 6 25 0
5 12 10 28 10 l27 1 -30 7 c-27 6 -31 3 -38 -21 -7 -27 -38 -45 -57 -33 -5 3
-10 22 -10 41 0 25 4 34 16 34 13 0 15 -7 11 -30z m-257 -1 c0 -5 -5 -7 -11
-4 -6 4 -5 -2 2 -13 16 -26 14 -29 -35 -36 -21 -4 -42 -9 -46 -11 -11 -7 -6
52 5 62 4 4 5 -2 2 -15 -3 -12 -1 -20 4 -16 5 3 9 11 9 19 0 7 6 16 13 18 22
10 57 7 57 -4z m545 2 c-3 -5 0 -13 6 -17 7 -4 9 -3 5 4 -3 6 -2 13 4 17 5 3
10 -2 11 -12 0 -16 1 -17 7 -1 5 13 11 15 22 8 10 -7 11 -10 3 -10 -15 0 -13
-21 2 -32 15 -11 1 -18 -23 -11 -13 3 -19 10 -15 17 4 6 -1 5 -10 -2 -27 -23
-41 0 -28 46 1 1 6 2 12 2 5 0 8 -4 4 -9z m-367 -68 c-10 -2 -26 -2 -35 0 -10
3 -2 5 17 5 19 0 27 -2 18 -5z m387 -395 c9 -8 9 -57 1 -218 -3 -69 -8 -174
-11 -235 -13 -308 -16 -364 -20 -415 -7 -96 -18 -373 -17 -439 0 -36 -4 -75
-9 -88 -5 -13 -5 -22 0 -19 5 3 7 -44 5 -107 -2 -61 -6 -208 -9 -326 -2 -118
-6 -216 -8 -218 -17 -17 -254 -27 -355 -15 -46 6 -85 12 -87 13 -2 2 -6 99 -9
214 -3 116 -8 228 -11 250 -4 22 -2 53 4 68 7 17 7 27 1 27 -13 0 -13 50 0 70
5 8 5 19 0 25 -12 15 -21 85 -11 85 6 0 6 13 1 33 -8 30 -23 290 -24 435 -1
34 -3 62 -6 62 -3 0 -6 12 -6 28 -2 47 -14 244 -19 307 -8 102 -19 317 -19
390 l-1 70 40 6 c55 8 562 6 570 -3z"/>
<path d="M1968 2893 c7 -3 16 -2 19 1 4 3 -2 6 -13 5 -11 0 -14 -3 -6 -6z"/>
<path d="M1902 2950 c-7 -11 -8 -20 -3 -20 9 0 24 30 18 36 -1 2 -8 -6 -15
-16z"/>
<path d="M2190 814 c-17 -20 -2 -67 23 -72 59 -12 93 36 50 71 -26 21 -56 22
-73 1z m45 -14 c3 -5 2 -10 -4 -10 -5 0 -17 -3 -27 -7 -16 -6 -17 -5 -4 10 17
19 26 21 35 7z m14 -44 c-9 -8 -10 -8 -4 4 6 12 5 12 -5 3 -14 -13 -43 -6 -34
8 3 5 14 9 25 9 10 0 20 6 20 13 1 6 3 4 6 -7 3 -10 -1 -23 -8 -30z"/>
<path d="M2165 470 c-13 -20 14 -35 62 -35 41 0 48 3 48 20 0 17 -8 20 -52 23
-29 2 -54 -2 -58 -8z m85 -12 c0 -4 -13 -8 -30 -8 -16 0 -30 5 -30 10 0 6 14
9 30 8 17 -1 30 -6 30 -10z"/>
<path d="M1920 3190 c6 -11 15 -20 20 -20 6 0 10 9 10 20 0 13 -7 20 -20 20
-18 0 -19 -3 -10 -20z"/>
<path d="M2247 3198 c-15 -8 -16 -12 -5 -25 11 -14 10 -15 -9 -9 -12 4 -24 2
-28 -4 -9 -15 38 -12 59 3 26 19 10 50 -17 35z"/>
<path d="M1840 3179 c7 -11 14 -18 17 -15 8 8 -5 36 -17 36 -7 0 -7 -6 0 -21z"/>
<path d="M1870 3196 c0 -9 32 -36 41 -36 6 0 5 8 -1 20 -9 17 -40 29 -40 16z"/>
<path d="M2472 3180 c-11 -17 -10 -20 7 -20 10 0 21 9 24 20 3 12 0 20 -7 20
-6 0 -17 -9 -24 -20z"/>
<path d="M2366 3174 c-8 -20 1 -34 20 -34 8 0 13 4 9 9 -3 5 0 13 6 17 8 4 7
9 -2 15 -20 12 -26 11 -33 -7z"/>
<path d="M2517 3175 c-9 -22 8 -26 21 -4 10 15 10 19 -2 19 -8 0 -16 -7 -19
-15z"/>
<path d="M2290 3170 c0 -13 38 -32 44 -21 3 4 -6 13 -19 19 -15 7 -25 8 -25 2z"/>
<path d="M2414 3158 c-10 -15 2 -20 41 -16 l37 3 -36 11 c-22 7 -39 8 -42 2z"/>
<path d="M2518 3133 c12 -2 30 -2 40 0 9 3 -1 5 -23 4 -22 0 -30 -2 -17 -4z"/>
<path d="M1891 416 c12 -10 60 -16 54 -6 -3 5 -18 10 -32 10 -15 0 -24 -2 -22
-4z"/>
<path d="M2515 410 c-18 -8 -17 -9 8 -9 16 -1 26 3 22 9 -3 6 -7 10 -8 9 -1 0
-11 -4 -22 -9z"/>
</g>
</svg>
