<?xml version="1.0" standalone="no"?>
<!DOCTYPE svg PUBLIC "-//W3C//DTD SVG 20010904//EN"
 "http://www.w3.org/TR/2001/REC-SVG-20010904/DTD/svg10.dtd">
<svg version="1.0" xmlns="http://www.w3.org/2000/svg"
 width="450.000000pt" height="433.000000pt" viewBox="0 0 450.000000 433.000000"
 preserveAspectRatio="xMidYMid meet">
<metadata>
Created by potrace 1.10, written by Peter Selinger 2001-2011
</metadata>
<g transform="translate(0.000000,433.000000) scale(0.100000,-0.100000)"
fill="#000000" stroke="none">
<path d="M2125 3944 c-5 -1 -36 -5 -69 -9 -42 -5 -65 -13 -82 -30 -12 -13 -25
-21 -28 -18 -3 3 -13 2 -23 -2 -10 -5 -24 -9 -32 -11 -27 -5 -31 -21 -41 -145
-17 -209 -16 -300 3 -311 21 -11 22 -42 2 -62 -19 -18 -19 -50 -1 -65 20 -17
26 -60 9 -76 -11 -12 -13 -84 -13 -412 1 -326 6 -479 30 -848 40 -614 48 -768
60 -1220 6 -214 13 -405 16 -423 l5 -32 267 2 267 3 7 360 c9 456 24 902 49
1410 23 476 19 1137 -7 1163 -18 18 -15 85 3 78 9 -4 13 5 13 28 0 19 -6 36
-12 39 -10 3 -9 8 2 22 9 11 10 16 3 11 -8 -4 -13 -1 -13 9 0 10 5 13 12 9 8
-5 9 0 6 14 -4 12 -3 20 1 17 5 -2 7 17 5 43 -2 26 -8 119 -14 207 -10 145
-13 162 -33 177 -12 10 -26 16 -32 14 -5 -2 -28 7 -50 19 -40 23 -70 31 -152
39 -34 4 -43 2 -43 -10 0 -8 5 -12 10 -9 6 3 10 1 10 -4 0 -6 -7 -11 -15 -11
-8 0 -15 6 -15 14 0 14 -47 29 -54 17 -2 -3 0 -15 5 -26 8 -20 8 -20 9 0 1 15
3 16 7 5 3 -8 10 -17 14 -20 5 -3 9 -41 10 -83 1 -43 4 -75 8 -72 3 3 4 38 3
78 l-3 72 34 17 c33 16 35 16 30 -3 -3 -10 -8 -17 -12 -15 -11 7 -7 -129 4
-136 5 -4 0 -8 -12 -8 -22 0 -23 -3 -23 -95 l0 -95 28 0 27 0 -1 171 c-1 140
1 169 12 165 8 -3 14 -1 14 3 0 5 -5 11 -12 13 -7 3 -6 7 5 11 13 5 17 1 18
-16 0 -21 1 -21 9 -2 8 19 9 19 9 -2 1 -13 -5 -23 -11 -23 -13 0 -13 -13 -9
-251 1 -63 2 -67 26 -72 l26 -4 -7 169 c-6 141 -4 168 7 166 8 -2 13 3 12 10
-3 14 13 16 22 3 3 -6 -2 -14 -11 -19 -11 -6 -14 -14 -8 -23 5 -8 9 -45 10
-84 2 -217 3 -225 22 -225 15 0 18 -6 14 -30 -2 -16 0 -30 5 -30 5 0 8 15 7
33 -5 88 -11 345 -7 302 4 -39 7 -46 14 -30 5 12 7 -23 4 -90 -2 -70 -1 -95 4
-70 8 38 8 37 10 -21 1 -46 5 -63 17 -68 12 -5 15 -1 10 22 -9 45 -19 297 -12
291 9 -9 14 -76 21 -251 3 -104 1 -138 -8 -138 -7 0 -8 -3 -2 -8 6 -4 10 -36
10 -71 l0 -63 -55 7 c-59 8 -514 15 -492 8 6 -3 10 -9 6 -14 -3 -5 2 -9 11 -9
9 0 13 -4 10 -10 -3 -5 1 -10 10 -10 9 0 13 5 10 10 -3 6 -2 10 4 10 5 0 13
-4 16 -10 3 -5 12 -10 18 -9 9 0 9 2 0 6 -38 15 4 19 155 16 258 -5 302 -7
302 -15 0 -5 -6 -8 -13 -8 -8 0 -14 -7 -14 -15 0 -8 4 -15 9 -15 4 0 8 -4 8
-8 0 -5 -28 -3 -62 5 -88 18 -118 22 -112 12 3 -5 0 -9 -5 -9 -6 0 -11 5 -11
10 0 6 -11 10 -24 10 -13 0 -27 6 -29 13 -4 10 -6 10 -6 0 -1 -8 -14 -13 -31
-13 -17 0 -30 5 -30 13 0 9 -3 8 -9 -2 -7 -11 -9 -11 -14 0 -4 10 -6 10 -6 2
-1 -7 -12 -13 -26 -13 -14 0 -25 -6 -25 -12 0 -8 -3 -9 -8 -3 -4 6 -38 10 -77
11 -38 0 -56 -1 -40 -4 26 -5 21 -7 -30 -17 -49 -9 -9 -10 212 -7 246 3 276 1
310 -15 28 -13 33 -19 20 -21 -18 -4 -18 -4 -1 -17 17 -12 19 -35 21 -236 1
-123 4 -282 6 -352 l3 -129 -25 6 c-61 15 -409 17 -518 4 l-112 -14 1 354 c1
280 4 357 15 367 10 10 10 14 0 18 -6 3 -3 6 8 7 19 1 19 1 2 14 -16 12 -16
14 -1 20 8 3 25 6 37 7 21 0 21 1 -2 10 -14 5 -31 7 -38 5 -7 -3 -13 -1 -13 5
0 6 -7 8 -16 5 -9 -3 -12 -2 -9 5 4 6 12 8 19 6 6 -3 29 -1 51 2 l40 7 -52 8
c-51 8 -52 8 -41 32 9 19 9 33 0 57 -6 18 -10 50 -8 72 1 22 -2 43 -7 46 -6 5
-6 57 1 140 l10 134 -5 -132 c-3 -84 -1 -133 5 -133 16 0 21 26 16 82 -3 40
-2 48 6 33 7 -14 9 10 5 85 -3 64 -1 97 4 85 7 -17 9 -15 13 15 8 57 7 -60 0
-187 -7 -103 -6 -110 10 -102 14 8 18 27 21 102 3 89 3 89 3 -15 -1 -58 2
-104 7 -101 4 2 7 -5 7 -16 0 -12 5 -21 10 -21 6 0 10 14 10 30 0 23 4 30 20
30 17 0 20 7 20 53 0 138 13 277 26 277 11 0 13 -33 10 -165 l-4 -165 29 0 29
0 0 95 c0 69 -3 95 -12 95 -10 0 -12 18 -10 65 3 42 0 65 -7 65 -15 0 -14 37
1 46 7 5 9 2 6 -7 -3 -8 3 -30 13 -49 11 -19 19 -28 19 -20 0 9 -7 27 -17 40
-9 14 -10 20 -3 13 7 -6 19 -9 27 -6 12 5 14 1 8 -17 -4 -14 -3 -25 5 -30 9
-6 9 -12 -1 -29 -12 -17 -12 -25 -1 -42 9 -14 10 -19 2 -14 -9 6 -9 2 -1 -13
14 -26 14 -82 1 -82 -5 0 -10 -5 -10 -11 0 -5 4 -8 9 -5 12 8 8 -57 -4 -66 -6
-5 -5 -8 3 -8 7 0 10 -4 7 -10 -4 -6 7 -10 24 -10 l31 0 0 95 c0 88 -1 95 -20
95 -17 0 -20 7 -20 49 0 40 4 53 22 65 12 9 19 17 15 17 -4 1 -11 3 -17 4 -5
1 -15 3 -21 4 -5 0 -7 6 -4 11 6 10 -7 14 -32 11 -6 -1 -14 2 -17 7 -3 5 6 8
19 6 15 -1 25 3 25 10 0 12 -13 16 -35 10z m-55 -24 c0 -5 -7 -10 -15 -10 -9
0 -18 -7 -21 -15 -5 -12 -9 -13 -21 -3 -12 10 -9 14 19 24 18 6 34 12 36 13 1
0 2 -3 2 -9z m-80 -162 c-3 -179 -17 -249 -19 -93 -1 66 -3 138 -6 160 -4 35
-3 36 4 10 8 -28 9 -28 10 14 0 24 4 42 7 38 3 -3 5 -61 4 -129z m36 47 c-1
-36 -4 -65 -8 -65 -10 0 -11 114 -1 123 3 4 7 7 8 7 1 0 1 -29 1 -65z m-139
13 c-3 -7 -5 -2 -5 12 0 14 2 19 5 13 2 -7 2 -19 0 -25z m470 -10 c-3 -7 -5
-2 -5 12 0 14 2 19 5 13 2 -7 2 -19 0 -25z m-200 -10 c-3 -8 -6 -5 -6 6 -1 11
2 17 5 13 3 -3 4 -12 1 -19z m33 -140 c0 -40 -4 -68 -8 -61 -4 7 -7 25 -6 40
1 15 3 43 3 61 1 17 3 32 6 32 3 0 5 -33 5 -72z m89 0 c-2 -48 -2 -49 -8 -18
-6 33 -3 70 5 70 2 0 3 -24 3 -52z m-179 -50 c0 -16 -3 -19 -11 -11 -6 6 -8
16 -5 22 11 17 16 13 16 -11z m133 -335 c-7 -2 -19 -2 -25 0 -7 3 -2 5 12 5
14 0 19 -2 13 -5z m282 -798 c16 -3 20 -11 19 -37 -4 -92 -15 -357 -19 -458
-11 -258 -16 -324 -28 -332 -9 -6 -9 -8 1 -8 10 0 12 -15 8 -57 -2 -32 -5 -58
-6 -58 -1 0 -3 -10 -4 -22 -1 -12 0 -20 4 -18 4 2 5 -17 3 -43 -3 -53 -10
-176 -12 -240 -1 -32 -4 -41 -13 -36 -10 6 -10 5 -1 -7 12 -15 13 -312 1 -324
-4 -4 -3 -16 2 -26 7 -11 7 -20 0 -24 -6 -4 -6 -15 1 -31 8 -23 7 -25 -7 -20
-14 5 -15 4 -5 -8 14 -17 11 -167 -4 -178 -7 -5 -7 -8 0 -8 6 0 11 -45 13
-110 2 -98 1 -110 -16 -119 -29 -15 -425 -13 -446 2 -22 16 -30 70 -16 98 7
12 8 19 2 16 -5 -4 -10 20 -11 58 -1 47 2 65 11 65 9 0 9 3 2 8 -5 4 -11 16
-11 27 -3 54 -14 336 -18 460 -3 77 -7 192 -10 255 -5 101 -7 159 -5 210 0 8
-3 36 -8 62 -6 32 -5 51 2 59 8 9 8 10 -1 5 -8 -5 -13 -1 -13 9 0 10 5 13 13
9 9 -6 9 -5 0 7 -6 8 -14 62 -18 119 -4 58 -8 121 -10 140 -2 19 1 41 8 49 9
12 9 13 0 7 -10 -5 -13 6 -15 43 -1 28 -2 63 -3 79 -20 266 -22 372 -10 373
115 14 556 16 620 4z"/>
<path d="M2186 698 c-23 -32 -20 -44 14 -68 35 -25 52 -22 76 16 18 26 18 27
-10 50 -34 30 -60 30 -80 2z m78 -15 c15 -38 -47 -61 -74 -28 -23 28 4 41 30
15 12 -12 24 -19 26 -17 3 3 -5 14 -17 26 l-23 21 27 -2 c15 -1 29 -8 31 -15z"/>
<path d="M2164 346 c-10 -27 6 -36 62 -36 52 0 55 2 52 23 -3 19 -10 22 -56
25 -39 2 -54 -1 -58 -12z m59 -13 c-7 -2 -19 -2 -25 0 -7 3 -2 5 12 5 14 0 19
-2 13 -5z"/>
<path d="M2240 3858 c0 -18 5 -40 10 -48 7 -11 10 -2 10 33 0 26 -4 47 -10 47
-5 0 -10 -15 -10 -32z"/>
<path d="M2190 3849 c0 -5 5 -7 10 -4 6 3 10 8 10 11 0 2 -4 4 -10 4 -5 0 -10
-5 -10 -11z"/>
<path d="M2122 3805 c0 -16 2 -22 5 -12 2 9 2 23 0 30 -3 6 -5 -1 -5 -18z"/>
<path d="M2191 3810 c0 -14 4 -32 9 -40 9 -13 10 -13 9 0 -1 8 -5 26 -9 40
l-8 25 -1 -25z"/>
<path d="M2223 3645 c0 -36 3 -65 6 -65 9 0 11 119 2 125 -5 2 -8 -25 -8 -60z"/>
<path d="M2150 3535 c-7 -9 -8 -15 -2 -15 5 0 12 7 16 15 3 8 4 15 2 15 -2 0
-9 -7 -16 -15z"/>
<path d="M2241 3524 c0 -11 3 -14 6 -6 3 7 2 16 -1 19 -3 4 -6 -2 -5 -13z"/>
<path d="M2408 3518 c3 -15 6 -15 18 -3 18 18 18 21 -5 21 -12 0 -17 -6 -13
-18z"/>
<path d="M2030 3509 c0 -5 5 -7 10 -4 6 3 10 8 10 11 0 2 -4 4 -10 4 -5 0 -10
-5 -10 -11z"/>
<path d="M2035 3491 c-33 -4 -48 -8 -32 -9 30 -2 34 -9 12 -26 -17 -13 -26
-58 -15 -75 5 -9 57 -12 201 -12 l193 1 23 27 c25 31 29 59 11 66 -7 3 5 6 27
7 l40 2 -40 9 c-56 12 -348 18 -420 10z m193 -8 c-10 -2 -26 -2 -35 0 -10 3
-2 5 17 5 19 0 27 -2 18 -5z m-141 -9 c-3 -3 -12 -4 -19 -1 -8 3 -5 6 6 6 11
1 17 -2 13 -5z m291 -1 c-15 -2 -42 -2 -60 0 -18 2 -6 4 27 4 33 0 48 -2 33
-4z m-177 -42 l1 -26 7 24 c9 33 31 39 31 9 0 -34 -14 -50 -41 -46 -15 2 -26
12 -30 28 l-7 25 -1 -27 c-1 -28 -31 -42 -31 -15 0 9 -2 9 -8 0 -4 -7 -16 -12
-27 -12 -11 0 -32 -3 -47 -7 -18 -4 -28 -2 -28 5 0 6 8 11 17 11 15 0 15 1 -2
13 -25 19 -11 37 28 36 30 -1 30 -1 7 -8 -23 -6 -24 -7 -5 -15 13 -5 23 -2 31
8 12 17 39 22 29 6 -3 -5 -1 -10 4 -10 6 0 11 6 11 13 0 8 12 14 30 14 25 0
30 -4 31 -26z m112 2 c-2 -13 2 -23 7 -23 6 0 10 9 10 19 0 15 9 20 41 23 42
4 55 -4 43 -23 -4 -8 -9 -7 -15 2 -7 11 -9 10 -9 -3 0 -10 -8 -19 -17 -19 -17
-1 -17 -2 0 -6 31 -8 18 -19 -22 -18 -21 0 -47 7 -57 15 -13 12 -18 12 -21 3
-3 -7 -11 -13 -18 -13 -23 0 -5 40 19 41 20 2 20 2 -1 6 -35 7 -27 25 10 21
26 -2 32 -7 30 -25z"/>
<path d="M1848 3404 c-5 -4 -8 -16 -8 -28 0 -14 3 -17 11 -9 6 6 9 19 7 28 -1
9 -6 13 -10 9z"/>
<path d="M2098 3303 c7 -3 16 -2 19 1 4 3 -2 6 -13 5 -11 0 -14 -3 -6 -6z"/>
<path d="M2132 3243 c48 -2 129 -2 180 0 51 1 12 3 -87 3 -99 0 -141 -2 -93
-3z"/>
<path d="M2438 3233 c7 -3 16 -2 19 1 4 3 -2 6 -13 5 -11 0 -14 -3 -6 -6z"/>
<path d="M2246 3017 c3 -10 9 -15 12 -12 3 3 0 11 -7 18 -10 9 -11 8 -5 -6z"/>
<path d="M1880 289 c0 -5 14 -9 31 -9 16 0 28 4 25 9 -3 5 -17 9 -31 9 -14 0
-25 -4 -25 -9z"/>
<path d="M2518 273 c7 -3 16 -2 19 1 4 3 -2 6 -13 5 -11 0 -14 -3 -6 -6z"/>
</g>
</svg>
