<svg version="1.0" xmlns="http://www.w3.org/2000/svg"
 width="242.000000pt" height="254.000000pt" viewBox="0 0 242.000000 254.000000"
 preserveAspectRatio="xMidYMid meet">
<g transform="translate(0.000000,254.000000) scale(0.100000,-0.100000)"
fill="#000000" stroke="none">
<path d="M947 2297 c-1 -5 -109 -8 -239 -8 -162 1 -239 -3 -244 -10 -3 -6 -6
-126 -6 -267 0 -235 1 -256 18 -269 17 -12 17 -14 0 -26 -16 -12 -17 -61 -17
-750 0 -406 3 -742 6 -747 8 -12 1464 -14 1483 -2 10 7 13 157 13 748 0 738 0
739 -21 753 l-21 14 22 11 c21 11 22 15 22 267 0 141 -3 261 -7 268 -5 8 -74
10 -247 9 -154 -2 -239 1 -239 7 0 12 -519 14 -523 2z m534 -38 c21 -11 348
-14 386 -3 17 5 21 2 17 -13 -5 -20 43 -19 -1045 -14 -147 1 -274 -2 -283 -5
-9 -3 -16 -1 -16 5 0 6 -1 14 -2 17 -2 4 85 6 192 5 116 -1 201 3 210 9 21 14
515 13 541 -1z m-965 -23 c18 -14 18 -15 0 -22 -11 -4 -21 -2 -27 7 -19 31 -5
38 27 15z m1424 7 c-1 -21 -19 -35 -36 -29 -18 7 -18 8 0 22 22 15 36 18 36 7z
m-57 -188 c-2 -82 -4 -177 -6 -210 l-3 -60 -662 -3 -662 -2 0 70 0 70 660 0
660 0 0 135 0 135 -644 0 c-354 0 -651 3 -660 6 -14 5 -16 -10 -16 -136 0
-110 -3 -141 -12 -137 -10 3 -12 -9 -10 -49 4 -56 3 -58 -22 -48 -14 5 -16 31
-16 186 0 117 3 177 10 173 6 -3 11 0 12 7 1 7 5 -48 8 -122 l6 -135 2 131 c1
72 5 134 9 137 3 4 308 6 677 5 l671 -3 -2 -150z m45 -49 c3 -144 2 -166 -11
-166 -14 0 -16 26 -16 183 0 146 2 179 12 166 8 -11 13 -71 15 -183z m-78 72
c0 -57 -4 -108 -8 -115 -8 -13 -135 -14 -924 -13 l-348 0 0 108 c0 60 3 112 7
115 3 4 291 7 640 7 l633 0 0 -102z m-1335 -268 c7 -11 -19 -42 -28 -34 -7 7
4 44 14 44 4 0 11 -5 14 -10z m1418 -9 c3 -11 3 -22 0 -25 -9 -8 -35 23 -28
34 10 16 22 12 28 -9z m-1293 -68 c0 -5 -25 -8 -55 -9 -30 0 -55 4 -55 8 0 4
25 8 55 8 30 0 55 -3 55 -7z m65 -3 c-4 -6 -10 -8 -15 -5 -5 3 -11 1 -14 -4
-12 -18 114 -22 609 -21 651 2 595 4 595 -20 0 -20 -7 -20 -670 -20 -589 0
-670 2 -670 15 0 8 -1 18 -2 22 -2 5 13 7 32 5 42 -4 94 14 85 28 -4 6 7 10
25 10 19 0 29 -4 25 -10z m995 3 c0 -5 -220 -8 -490 -8 -269 0 -490 3 -490 8
0 4 221 7 490 7 270 0 490 -3 490 -7z m190 -1 c0 -9 -97 -8 -107 1 -3 4 19 7
50 7 32 0 57 -3 57 -8z m-1365 -73 c-9 -14 -32 -11 -38 5 -3 8 -3 17 0 20 9 9
44 -14 38 -25z m1405 11 c0 -11 -6 -20 -14 -20 -21 0 -31 21 -15 31 22 14 29
11 29 -11z m-52 -29 c9 -6 12 -159 10 -677 l-3 -669 -664 -3 c-515 -2 -671 1
-693 10 l-28 13 1 655 c0 360 3 649 6 643 7 -19 23 -15 23 5 0 10 3 21 6 25 9
9 1327 7 1342 -2z m52 -681 c-1 -414 -4 -660 -10 -660 -6 0 -10 8 -10 18 0 14
0 1192 0 1275 0 15 5 27 10 27 7 0 10 -218 10 -660z m-1411 -679 c11 -7 10
-11 -6 -20 -23 -12 -34 -6 -26 15 6 16 13 17 32 5z m1411 -11 c0 -22 -8 -25
-30 -10 -13 9 -13 11 0 20 22 15 30 12 30 -10z m-50 -8 c0 -16 -44 -17 -658
-15 -361 1 -663 2 -669 2 -7 1 -13 8 -13 16 0 14 77 15 670 15 624 -1 670 -2
670 -18z"/>
<path d="M1053 1885 c-3 -9 -3 -19 1 -22 3 -4 6 1 6 10 0 12 9 17 30 17 20 0
30 -5 30 -15 0 -8 5 -15 11 -15 6 0 8 -7 4 -17 -5 -14 -3 -15 5 -7 9 9 8 18
-5 38 -20 30 -72 37 -82 11z"/>
<path d="M1298 1893 c25 -5 28 -13 10 -31 -9 -9 -9 -15 -1 -23 8 -8 11 -6 10
7 -1 11 4 19 13 19 9 0 14 -8 13 -19 -1 -13 2 -15 10 -7 15 15 -30 61 -57 60
-19 -2 -19 -2 2 -6z"/>
<path d="M1393 1885 c-3 -9 -3 -19 1 -22 3 -4 6 2 6 11 0 15 8 17 54 14 30 -1
52 0 49 5 -2 4 -27 7 -54 7 -35 0 -51 -4 -56 -15z"/>
<path d="M1565 1890 c-3 -6 1 -7 10 -4 9 4 22 -1 31 -12 12 -17 13 -17 8 -1
-5 14 0 17 25 17 21 0 31 -5 31 -16 0 -9 5 -12 12 -8 8 5 9 0 6 -14 -4 -12 -2
-22 3 -22 16 0 10 36 -9 53 -21 19 -107 24 -117 7z"/>
<path d="M635 1882 c-3 -3 -5 -18 -5 -34 0 -25 4 -28 31 -28 28 0 30 2 27 32
-2 24 -8 32 -26 33 -12 1 -24 -1 -27 -3z"/>
<path d="M705 1882 c-3 -3 -5 -18 -5 -34 0 -25 4 -28 31 -28 28 0 30 2 27 32
-2 24 -8 32 -26 33 -12 1 -24 -1 -27 -3z"/>
<path d="M983 1875 c0 -8 7 -15 15 -15 8 0 12 -6 8 -15 -3 -8 -1 -15 4 -15 15
0 12 29 -4 46 -18 18 -23 18 -23 -1z"/>
<path d="M1255 1870 c-4 -6 -12 -10 -18 -9 -26 3 -37 -2 -37 -16 0 -7 -8 -19
-17 -24 -10 -6 -12 -11 -6 -11 7 0 18 9 25 20 14 21 34 27 40 10 2 -5 8 2 15
15 11 25 10 34 -2 15z"/>
<path d="M540 970 l0 -660 670 0 670 0 0 660 0 660 -670 0 -670 0 0 -660z
m1305 634 c13 -5 15 -72 15 -548 0 -297 -3 -583 -6 -633 l-7 -93 -624 0 c-405
0 -631 4 -644 10 -18 10 -19 31 -19 625 0 337 3 621 6 629 5 13 82 15 635 15
345 1 635 -2 644 -5z"/>
<path d="M519 1568 c-6 -131 -5 -1216 1 -1232 5 -12 9 250 9 617 1 350 -1 637
-4 637 -3 0 -5 -10 -6 -22z"/>
</g>
</svg>
