<svg version="1.0" xmlns="http://www.w3.org/2000/svg"
 width="300.000000pt" height="300.000000pt" viewBox="0 0 300.000000 300.000000"
 preserveAspectRatio="xMidYMid meet">
<g transform="translate(0.000000,300.000000) scale(0.100000,-0.100000)"
fill="#000000" stroke="none">
<path d="M1319 2733 c-40 -60 -200 -298 -356 -530 -156 -233 -282 -423 -279
-423 3 0 164 236 358 525 194 289 356 525 360 525 5 0 -110 -176 -254 -390
-145 -215 -394 -585 -553 -822 l-291 -432 141 -57 c452 -182 1104 -439 1126
-444 58 -14 73 4 344 437 584 932 718 1146 737 1169 l20 24 -18 -30 c-58 -96
-72 -129 -64 -151 15 -39 13 -97 -4 -138 -14 -30 -15 -41 -5 -50 9 -8 11 -7 7
4 -3 8 -2 24 3 35 8 20 8 20 8 0 1 -17 3 -17 11 -5 8 13 10 13 10 -2 0 -9 -4
-19 -10 -23 -5 -3 9 -22 30 -43 42 -39 49 -61 27 -84 -7 -7 -86 -132 -176
-278 -89 -146 -168 -269 -173 -275 -11 -10 19 47 62 119 14 22 19 37 13 33 -6
-4 -25 -31 -42 -61 -37 -66 -45 -72 -76 -52 -21 14 -22 19 -13 44 13 33 5 62
-16 62 -16 0 -100 -114 -109 -150 -6 -24 17 -80 33 -80 6 0 10 -7 10 -15 0 -9
6 -12 16 -8 9 3 15 2 13 -3 -26 -59 -51 -103 -68 -118 -11 -10 -18 -23 -15
-27 3 -5 -2 -9 -10 -9 -9 0 -16 -9 -16 -20 0 -11 -4 -20 -10 -20 -5 0 -10 -8
-10 -17 0 -13 -3 -14 -12 -5 -9 9 -6 22 11 58 13 25 29 48 37 51 8 3 14 13 14
22 0 9 7 27 16 39 9 14 13 30 8 44 l-7 22 -18 -23 c-11 -13 -19 -29 -19 -36 0
-7 -7 -15 -15 -19 -9 -3 -15 0 -15 10 0 8 7 22 15 30 8 9 15 20 15 26 0 17
-21 4 -38 -24 -15 -25 -15 -28 0 -45 12 -13 14 -23 8 -33 -5 -8 -10 -25 -10
-37 0 -13 -4 -23 -8 -23 -4 0 -24 -27 -43 -60 -18 -33 -37 -60 -41 -60 -5 0
-8 -8 -8 -17 0 -12 -3 -14 -11 -6 -7 7 -1 25 22 59 18 27 37 51 41 52 4 2 8
10 8 18 0 28 -37 -8 -65 -63 -22 -43 -25 -57 -15 -68 10 -12 16 -13 26 -4 17
14 18 5 4 -22 -6 -10 -8 -19 -6 -19 3 0 13 14 22 31 9 19 11 28 4 24 -8 -5
-11 -3 -8 6 3 8 10 14 17 14 16 0 30 25 24 42 -6 16 9 17 24 2 13 -13 -2 -69
-18 -69 -5 0 -9 -6 -10 -12 0 -7 -27 -56 -59 -108 -33 -52 -69 -113 -81 -135
-12 -22 -25 -42 -28 -45 -4 -3 -19 -25 -33 -50 -15 -25 -42 -70 -62 -100 -20
-30 -36 -61 -36 -69 0 -12 132 197 427 679 35 58 69 110 75 115 17 16 -10 -32
-93 -165 -42 -69 -156 -253 -252 -410 -177 -286 -200 -320 -223 -320 -7 0 -47
16 -88 35 -42 19 -79 35 -84 35 -4 0 -47 16 -97 36 -49 20 -99 40 -110 44 -66
27 -206 85 -242 101 -23 11 -46 19 -51 19 -4 0 -17 7 -28 15 -18 13 -16 14 26
13 25 0 63 2 85 6 32 5 48 1 80 -19 54 -33 92 -51 145 -68 25 -8 79 -29 120
-45 149 -60 212 -83 217 -79 2 3 -5 8 -16 12 -26 8 -28 25 -3 18 33 -8 45 20
26 61 -10 19 -21 33 -26 30 -13 -8 -9 -36 9 -56 27 -30 9 -31 -53 -3 -32 14
-70 27 -84 29 -36 5 -143 58 -148 75 -3 10 3 12 25 7 26 -6 32 -3 49 29 10 19
21 34 24 33 3 -2 22 -10 43 -18 34 -13 37 -17 37 -55 -1 -38 -1 -39 -13 -17
-14 24 -27 20 -27 -7 0 -11 21 -23 61 -37 l61 -22 -7 22 c-4 11 -7 28 -8 37
-1 15 -3 15 -24 1 l-24 -15 7 42 c6 35 3 45 -15 62 -11 11 -21 28 -21 39 0 22
-50 60 -80 60 -11 0 -18 -4 -15 -10 3 -5 12 -10 20 -10 20 0 69 -20 63 -26 -3
-2 -18 0 -34 6 -27 9 -28 9 -10 -5 11 -8 26 -15 33 -15 7 0 13 -4 13 -10 0
-13 0 -13 -54 10 -27 13 -46 27 -46 37 0 9 -3 14 -6 10 -3 -3 0 -21 7 -40 11
-30 10 -37 -4 -51 -16 -16 -47 -22 -47 -8 0 4 4 24 9 44 6 28 5 40 -5 48 -7 6
-14 21 -16 33 -3 23 -57 56 -93 57 -19 0 -19 0 0 -14 11 -7 33 -17 49 -23 30
-9 48 -33 26 -33 -7 0 -34 11 -61 25 -46 23 -62 22 -39 -1 7 -7 2 -25 -16 -58
-18 -32 -24 -54 -20 -71 l6 -25 -47 18 c-48 18 -53 27 -37 66 5 14 4 17 -4 12
-7 -4 -12 -1 -12 8 0 26 -19 18 -26 -10 -4 -17 -2 -29 6 -34 15 -10 4 -30 -16
-30 -8 0 -12 4 -9 10 3 6 -1 7 -9 4 -9 -3 -16 -10 -16 -14 0 -5 -12 -7 -26 -4
-50 9 -86 35 -103 74 -13 31 -22 39 -51 44 -54 9 -64 19 -50 47 9 16 10 24 2
27 -6 2 -9 9 -6 15 2 7 -9 18 -26 25 -20 9 -30 21 -30 36 0 18 -6 22 -35 23
-33 1 -34 0 -20 -21 8 -13 12 -26 8 -31 -5 -4 -1 -5 7 -3 29 10 68 -23 73 -61
2 -20 -1 -39 -7 -43 -14 -9 -28 1 -20 14 4 5 -5 3 -19 -7 -24 -16 -28 -15 -69
3 -30 13 -49 30 -60 53 -16 31 -16 35 0 54 14 16 14 17 1 7 -9 -6 -20 -8 -24
-4 -5 4 -5 1 0 -7 8 -14 5 -14 -65 4 -22 5 -21 4 6 -12 17 -10 46 -36 65 -57
49 -56 94 -74 179 -69 l70 4 60 -63 c58 -61 74 -86 48 -75 -14 6 -106 43 -148
60 -14 5 -34 13 -45 18 -11 5 -60 24 -110 43 -201 76 -191 69 -213 144 -79
262 -86 337 -28 279 18 -19 26 -21 28 -11 2 12 11 9 37 -11 19 -14 44 -24 55
-24 19 2 19 2 -1 6 -14 3 -23 12 -23 22 0 13 -22 27 -86 51 -47 18 -89 41 -95
51 -7 15 29 74 187 311 108 161 190 286 182 278 -8 -8 -102 -145 -208 -303
l-193 -288 16 -62 c9 -34 14 -45 11 -24 -3 21 -7 46 -10 55 -5 14 -4 15 4 2
16 -25 53 -205 46 -226 -4 -14 -3 -15 4 -6 6 10 14 -5 26 -52 17 -70 20 -93 6
-61 -8 18 -9 18 -9 2 -2 -30 26 -85 49 -97 17 -9 21 -9 15 0 -4 7 4 6 27 -3
18 -7 110 -44 205 -82 97 -39 169 -73 166 -78 -3 -6 -1 -7 6 -3 16 10 53 -3
45 -16 -4 -7 -2 -8 5 -4 16 10 53 -3 45 -16 -4 -7 -2 -8 5 -4 16 10 53 -3 45
-16 -4 -7 -2 -8 5 -4 16 10 53 -3 45 -16 -4 -7 -2 -8 5 -4 16 10 53 -3 45 -16
-4 -7 -2 -8 5 -4 16 10 53 -3 45 -16 -4 -7 -2 -8 5 -4 16 10 53 -3 45 -16 -4
-7 -2 -8 5 -4 16 10 53 -3 45 -16 -4 -7 -2 -8 5 -4 14 9 53 -2 46 -14 -3 -4 2
-11 11 -14 24 -9 31 -7 14 4 -8 5 -10 10 -5 10 13 0 43 -20 30 -20 -13 0 17
-20 30 -20 6 0 3 5 -5 11 -12 9 -12 10 3 5 10 -3 21 -6 23 -6 3 0 2 -5 -2 -12
-5 -8 -2 -9 9 -5 20 8 49 -2 42 -13 -3 -5 5 -6 17 -2 14 3 19 1 14 -6 -5 -8
-1 -10 10 -5 11 4 15 3 11 -4 -5 -7 1 -9 15 -5 14 3 19 1 14 -6 -4 -7 -2 -10
7 -6 7 2 36 -5 63 -16 64 -28 107 -28 149 1 18 13 32 25 30 28 -3 2 3 10 13
18 11 10 12 12 2 8 -8 -4 -4 3 10 15 14 12 19 19 13 15 -22 -11 -14 5 15 32
15 15 20 23 12 18 -8 -5 -3 3 13 18 28 27 36 43 15 32 -7 -4 -3 2 8 12 29 24
65 80 44 68 -8 -4 -3 3 13 18 28 27 36 43 15 31 -7 -4 -1 4 15 19 28 27 36 43
15 32 -7 -4 -2 3 12 15 14 12 18 18 10 14 -8 -4 -3 4 13 19 28 27 36 43 15 32
-7 -4 -3 2 8 12 29 24 65 80 44 68 -8 -4 -3 3 13 18 28 27 36 43 15 32 -7 -4
-3 2 8 12 29 24 65 80 44 68 -8 -4 -3 3 13 18 28 27 36 43 15 32 -7 -4 -2 3
12 15 14 12 18 18 10 14 -8 -4 -3 4 13 19 28 27 36 43 15 31 -7 -4 0 5 15 19
15 15 26 31 23 36 -3 5 0 11 7 14 6 3 21 19 31 37 13 23 14 30 5 25 -8 -5 -1
4 14 18 15 15 26 31 23 36 -3 5 0 11 7 14 6 3 21 19 31 37 13 23 15 31 5 26
-8 -4 -4 1 8 11 12 10 23 25 25 33 2 8 10 21 18 28 13 12 13 13 0 6 -8 -4 -3
4 13 19 28 27 36 43 15 32 -7 -4 -3 2 9 12 12 10 23 25 25 33 2 8 10 21 18 28
13 12 13 13 0 7 -8 -4 -5 2 7 12 12 10 23 25 25 33 2 8 8 19 15 25 7 5 13 17
15 25 2 8 10 21 18 28 13 12 13 13 0 7 -8 -4 -5 2 7 12 12 10 23 24 25 32 2 8
11 23 21 33 10 10 15 23 12 27 -2 5 2 12 11 15 9 4 14 9 11 12 -3 3 3 14 14
25 11 11 17 24 14 29 -4 6 -1 10 4 10 6 0 11 15 11 33 0 33 -24 67 -48 67 -18
0 -21 12 -36 149 l-15 131 35 57 c19 31 34 64 34 74 0 43 -37 59 -525 233
-269 96 -546 195 -614 220 -69 25 -133 46 -143 46 -11 0 -42 -37 -89 -107z
m189 27 c8 -8 11 -9 7 -2 -8 16 30 11 48 -7 6 -7 8 -12 2 -11 -24 5 -37 -2
-55 -32 -22 -36 -26 -58 -10 -58 6 0 27 -7 48 -17 20 -9 39 -17 42 -17 64 -17
76 -28 45 -40 -10 -3 -15 1 -15 12 0 14 -2 14 -9 3 -7 -12 -13 -12 -24 -3 -7
7 -17 9 -20 6 -3 -3 -11 -3 -18 2 -9 5 -7 10 7 15 16 6 16 8 2 8 -9 1 -20 -4
-23 -9 -4 -6 -11 -8 -16 -4 -5 3 -7 9 -4 14 3 4 -4 6 -15 3 -17 -5 -20 0 -20
26 0 24 -5 32 -24 37 -34 8 -57 2 -70 -18 -8 -13 -7 -21 3 -30 12 -11 13 -10
8 3 -7 21 11 39 39 39 28 0 36 -11 23 -30 -7 -13 -9 -12 -9 3 0 9 -5 17 -11
17 -5 0 -7 -6 -3 -12 5 -8 1 -7 -10 2 -17 13 -18 12 -14 -5 2 -12 10 -19 21
-17 9 2 17 -2 17 -8 0 -5 6 -9 13 -7 6 1 11 -6 11 -15 -1 -10 1 -17 5 -16 18
2 32 -3 27 -11 -3 -4 5 -7 17 -6 12 1 33 -2 47 -8 14 -5 30 -10 35 -11 18 -2
75 -31 75 -38 0 -4 6 -5 14 -2 8 3 17 0 21 -6 7 -12 74 49 76 70 1 6 2 14 3
19 0 5 4 13 9 17 4 4 1 17 -7 29 -12 18 -12 22 -1 22 8 0 12 -4 10 -7 -3 -4
14 -11 37 -14 23 -4 45 -11 48 -16 3 -6 18 -11 32 -12 15 -1 24 -6 22 -10 -3
-4 8 -8 25 -8 16 0 33 -5 36 -10 4 -6 11 -8 16 -5 15 10 69 -28 69 -48 0 -10
-4 -15 -10 -12 -5 3 -10 -1 -10 -9 0 -9 -4 -16 -8 -16 -4 0 -8 -8 -9 -17 -1
-10 -5 -30 -8 -45 -6 -24 -3 -30 31 -50 21 -12 47 -24 58 -25 11 -2 24 -10 29
-19 7 -12 12 -13 23 -3 10 8 14 8 14 0 0 -6 3 -10 8 -10 4 1 18 1 32 0 20 -1
22 -3 10 -12 -12 -8 -10 -9 10 -7 14 2 24 -2 23 -8 -3 -19 32 -11 54 13 12 12
28 23 34 23 7 0 10 3 6 6 -3 3 3 15 14 27 10 11 19 24 19 29 0 16 -18 8 -33
-14 l-15 -23 -146 50 c-80 28 -146 53 -146 56 0 4 8 17 18 29 l19 23 152 -53
c127 -44 154 -51 163 -39 7 11 11 11 15 1 2 -6 9 -9 14 -6 6 3 16 0 24 -6 8
-6 19 -9 25 -5 5 3 13 -1 16 -9 3 -9 10 -13 15 -10 5 3 29 -4 54 -15 38 -17
45 -24 45 -49 0 -20 -7 -33 -22 -41 -17 -8 -18 -10 -4 -6 18 5 19 5 4 -12 -9
-10 -30 -45 -48 -78 -18 -33 -38 -64 -46 -68 -8 -4 -14 -14 -14 -22 0 -8 -4
-16 -9 -20 -5 -3 -9 8 -9 25 1 17 -2 33 -5 37 -4 3 -7 -6 -7 -22 0 -16 -12
-48 -26 -73 -21 -36 -24 -46 -13 -54 11 -8 11 -9 -1 -5 -8 2 -20 -3 -27 -12
-16 -21 -16 -34 0 -25 7 4 9 3 4 -2 -5 -5 -14 -9 -19 -9 -6 0 -13 -6 -16 -14
-3 -8 0 -11 7 -7 7 5 9 1 4 -9 -4 -12 -8 -13 -13 -5 -6 9 -9 9 -15 0 -4 -7 -1
-17 6 -22 11 -8 11 -9 -2 -5 -19 6 -124 -156 -113 -174 4 -7 3 -9 -4 -5 -6 3
-29 -25 -56 -69 -48 -80 -53 -91 -34 -79 7 4 8 3 4 -5 -4 -6 -11 -9 -16 -6 -9
5 -53 -62 -53 -82 0 -7 -3 -11 -5 -8 -6 6 -152 -226 -152 -242 0 -7 -3 -13 -7
-13 -14 0 -65 -89 -58 -100 4 -6 2 -9 -4 -8 -6 2 -25 -19 -43 -47 -18 -27 -48
-60 -67 -72 -39 -26 -34 -30 9 -8 37 19 38 9 5 -35 -14 -19 -25 -40 -25 -47 0
-7 -4 -13 -10 -13 -5 0 -10 -6 -10 -13 0 -8 -9 -22 -20 -32 -11 -10 -20 -23
-20 -30 0 -6 -16 -28 -37 -48 -42 -43 -72 -47 -121 -17 -18 11 -39 20 -47 20
-8 0 -15 4 -15 9 0 5 -8 8 -17 6 -10 -1 -26 4 -35 13 -10 8 -18 12 -18 9 0 -3
-32 8 -72 24 -39 17 -115 46 -167 65 -53 18 -97 38 -99 44 -2 5 -12 10 -23 10
-26 0 -24 15 3 17 12 1 27 8 34 15 17 18 40 89 36 111 -4 21 -78 61 -94 51 -7
-4 -8 -3 -4 4 14 23 -43 12 -70 -13 -15 -14 -31 -25 -37 -25 -15 0 -36 -33
-37 -57 0 -13 4 -23 9 -23 5 0 11 -7 14 -15 5 -12 1 -12 -21 -4 -15 6 -27 9
-27 7 -1 -6 -90 36 -103 49 -10 9 -10 13 1 20 21 12 50 61 43 72 -4 5 -2 12 4
16 20 13 10 54 -19 74 -15 11 -31 18 -34 14 -4 -3 -12 -2 -19 4 -23 17 -66 14
-80 -5 -7 -10 -28 -27 -46 -38 -30 -17 -33 -23 -28 -51 2 -18 0 -35 -5 -38 -5
-4 -9 -1 -9 6 0 7 -3 9 -6 6 -4 -3 -16 -1 -28 6 -11 6 -28 13 -36 14 -37 5
-110 36 -110 47 1 20 81 137 93 135 7 -1 20 1 30 6 9 4 28 5 41 3 17 -3 23 0
22 11 -1 16 -15 31 -29 31 -5 0 -5 -5 -2 -10 7 -11 -41 -33 -58 -27 -6 2 -1
13 11 25 11 11 28 34 36 51 9 16 21 35 28 43 7 7 22 30 33 50 20 39 39 53 58
41 7 -3 9 -3 5 2 -4 4 0 14 10 22 15 13 15 13 -5 4 -34 -17 -38 -13 -13 14 13
14 19 25 14 25 -5 0 -4 4 2 8 5 4 37 47 70 95 84 125 88 132 97 135 4 2 7 9 7
16 0 7 9 21 20 31 11 10 20 22 20 26 0 13 66 113 84 128 9 7 14 17 11 21 -7
11 24 22 38 13 7 -4 5 2 -3 12 -11 14 -12 19 -2 22 6 3 10 9 6 14 -3 5 0 9 6
9 6 0 15 10 20 23 15 33 33 60 54 79 10 10 16 18 12 18 -9 0 25 52 44 67 8 6
15 15 15 20 0 11 67 117 77 121 5 2 6 8 2 13 -3 5 2 9 10 9 10 0 13 6 9 17 -5
13 -2 15 16 10 17 -4 20 -2 12 7 -7 9 -4 19 12 37 13 13 28 38 35 55 7 17 26
45 42 62 16 18 27 32 24 32 -5 0 9 18 44 55 20 22 25 23 50 12 15 -6 33 -19
40 -27z m68 -38 c-3 -5 44 -26 104 -47 61 -21 110 -43 110 -49 0 -6 -7 -20
-15 -30 -14 -18 -18 -18 -137 24 -68 24 -125 45 -127 46 -10 9 24 53 43 57 12
2 22 5 24 6 2 0 1 -3 -2 -7z m142 -149 c29 -7 35 -18 17 -33 -12 -10 -16 -9
-21 3 -3 9 -12 13 -20 10 -8 -3 -14 0 -14 7 0 6 -4 8 -10 5 -5 -3 -10 1 -10
10 0 12 5 15 18 10 9 -4 27 -10 40 -12z m375 -150 c-6 -15 -4 -16 8 -6 16 13
59 7 59 -8 0 -5 3 -8 8 -7 11 3 76 -13 87 -22 6 -4 25 -11 43 -15 34 -7 39
-27 7 -34 -13 -2 -16 1 -11 14 6 16 4 16 -10 4 -14 -11 -18 -11 -21 -1 -3 6
-9 10 -14 6 -5 -3 -9 2 -9 11 0 13 -4 14 -20 5 -16 -9 -20 -8 -21 7 0 10 -3
13 -5 7 -6 -15 -134 26 -134 43 0 7 9 13 20 13 14 0 18 -5 13 -17z m167 -1027
c0 -8 -4 -17 -9 -20 -5 -3 -28 -38 -52 -77 -24 -40 -45 -67 -47 -61 -2 6 5 23
14 37 21 32 50 81 66 113 13 25 28 29 28 8z m5 -98 c35 -16 37 -63 4 -110 -17
-24 -23 -26 -48 -17 -38 13 -46 65 -18 109 21 34 25 35 62 18z m-1578 -69 c59
-24 72 -32 66 -43 -4 -6 1 -5 10 3 9 7 17 9 17 3 0 -5 -7 -15 -15 -22 -12 -10
-16 -9 -21 3 -3 9 -14 14 -26 12 -15 -3 -18 0 -13 13 5 13 3 14 -6 5 -15 -15
-60 4 -52 23 6 17 5 17 40 3z m-17 -67 c14 -6 40 -14 58 -17 34 -7 39 -20 18
-48 -13 -16 -15 -16 -56 2 -26 12 -37 21 -28 25 8 3 5 5 -7 4 -28 -2 -95 13
-95 21 0 4 7 17 16 29 14 21 18 21 42 8 15 -7 38 -18 52 -24z m343 -76 c-4 -6
0 -6 9 2 17 14 35 1 23 -17 -6 -11 -44 -6 -58 8 -13 13 1 31 18 25 8 -4 12
-11 8 -18z m49 -74 c16 -7 16 -8 0 -30 -17 -22 -18 -22 -60 -5 -30 11 -39 19
-30 25 8 5 2 6 -14 2 -16 -3 -28 -2 -28 2 0 5 -12 10 -26 10 -35 3 -39 10 -21
38 l16 24 73 -29 c40 -17 81 -33 90 -37z m231 -376 c29 -11 33 -18 35 -52 1
-26 -5 -47 -18 -62 l-19 -23 -40 21 c-46 23 -52 49 -26 100 18 34 23 35 68 16z"/>
<path d="M1886 2588 c5 -13 1 -18 -14 -18 -12 0 -23 -9 -27 -19 -8 -25 14 -61
37 -61 10 0 18 -4 18 -10 0 -5 5 -10 11 -10 5 0 7 6 3 12 -5 7 5 3 21 -8 l28
-21 28 25 c22 19 26 29 19 42 -14 26 -78 62 -86 48 -4 -7 -14 -2 -26 13 -11
15 -16 18 -12 7z m14 -40 c0 -17 -20 -47 -20 -31 0 7 -7 10 -15 7 -20 -8 -19
6 3 22 22 17 32 17 32 2z m45 -10 c14 -6 25 -15 25 -20 0 -5 5 -6 11 -2 7 4
10 1 7 -7 -3 -8 -15 -15 -27 -17 -20 -3 -22 0 -16 20 7 22 6 22 -7 4 -9 -11
-20 -16 -27 -12 -8 6 -9 12 -2 20 6 7 8 16 4 19 -10 10 3 8 32 -5z"/>
<path d="M2092 2490 c-15 -25 -5 -26 21 -2 19 16 20 16 9 -5 -11 -19 -8 -22
20 -32 17 -6 34 -9 36 -6 3 3 0 5 -7 5 -7 0 -9 5 -6 10 4 6 11 8 16 5 5 -3 6
1 3 9 -5 12 -53 36 -73 36 -3 0 -12 -9 -19 -20z"/>
<path d="M2196 2457 c-7 -30 0 -33 25 -11 22 19 22 19 10 -3 -6 -13 -8 -23 -2
-23 5 0 12 7 15 16 3 8 10 12 16 9 5 -3 10 -2 10 3 0 5 -15 13 -34 19 -31 10
-35 9 -40 -10z"/>
<path d="M2310 2430 c0 -6 5 -8 11 -4 7 4 10 1 7 -7 -5 -14 -38 -14 -48 -1 -8
10 -30 13 -30 4 0 -4 23 -16 50 -26 40 -15 53 -16 65 -6 20 16 19 27 -2 33
-10 2 -26 8 -35 12 -11 4 -18 3 -18 -5z"/>
<path d="M1508 2424 c10 -5 9 -11 -5 -28 -18 -21 -18 -21 3 -3 35 29 60 19 32
-13 -7 -8 -4 -7 7 2 22 18 49 18 66 1 15 -15 -25 -55 -46 -47 -11 5 -13 2 -9
-9 3 -9 12 -13 20 -10 8 3 25 -2 38 -10 13 -9 41 -19 62 -23 21 -4 48 -13 59
-20 11 -8 30 -14 42 -14 13 0 23 -4 23 -8 0 -9 89 -37 96 -29 3 2 -7 7 -21 11
-41 10 -26 55 20 57 17 0 16 3 -8 13 -15 7 -24 16 -20 21 5 4 2 5 -5 1 -14 -8
-54 2 -48 12 2 4 -8 7 -22 8 -28 1 -168 48 -186 63 -10 7 -24 12 -91 26 -11 3
-14 2 -7 -1z m211 -81 l74 -27 -23 -18 c-12 -10 -18 -18 -12 -18 5 0 15 7 22
15 15 18 37 19 67 2 21 -12 21 -12 2 -36 -19 -23 -58 -23 -43 1 5 8 2 9 -10 5
-25 -10 -66 2 -66 19 0 11 -7 13 -26 8 -20 -5 -25 -3 -22 7 3 9 18 13 39 12
l34 -1 -25 13 c-22 12 -27 11 -46 -6 -17 -16 -25 -18 -52 -8 -36 12 -36 12
-20 39 16 25 19 25 107 -7z"/>
<path d="M1209 2404 c-1 -2 -2 -9 -3 -14 0 -6 -6 -14 -11 -18 -15 -9 -55 -68
-55 -79 0 -4 5 -1 11 7 9 13 10 13 6 0 -2 -8 -9 -15 -15 -15 -6 0 -19 -11 -28
-25 -10 -14 -14 -22 -10 -18 5 4 18 -4 31 -17 12 -14 39 -27 61 -31 21 -3 42
-10 45 -16 3 -5 9 -10 12 -9 4 0 22 -6 40 -14 18 -7 46 -17 63 -20 16 -4 39
-11 52 -16 12 -5 34 -14 50 -20 15 -6 38 -17 52 -24 14 -7 32 -10 40 -7 8 2
12 1 8 -3 -9 -10 96 -47 120 -43 23 4 45 26 37 38 -3 5 -1 10 4 10 6 0 11 7
11 16 0 8 4 13 8 10 11 -7 43 49 47 80 1 15 -3 24 -12 24 -8 0 -11 4 -8 10 3
5 -12 12 -34 16 -23 4 -38 10 -36 14 3 5 -5 6 -17 2 -13 -3 -19 -1 -15 5 6 10
-27 27 -45 24 -5 -1 -8 5 -8 11 0 9 -3 8 -10 -2 -8 -12 -13 -12 -37 6 -30 21
-138 60 -179 63 -8 0 -12 5 -9 11 3 6 -1 7 -9 4 -9 -3 -16 -1 -16 5 0 6 -7 8
-15 5 -8 -4 -15 -2 -15 4 0 6 -9 8 -20 5 -11 -3 -20 -1 -20 4 0 5 -6 10 -12
11 -7 0 -23 3 -35 6 -13 2 -24 3 -24 0z m65 -40 c9 -3 16 -12 16 -20 0 -17
-12 -18 -28 -2 -6 6 -15 9 -19 5 -3 -4 2 -13 12 -21 26 -19 13 -46 -23 -46
-27 0 -52 15 -52 32 0 4 7 8 15 8 8 0 15 -4 15 -10 0 -5 7 -10 17 -10 15 0 14
2 -2 20 -31 35 0 63 49 44z m103 -49 c-1 -5 -8 -9 -15 -9 -7 1 -19 -11 -28
-27 -8 -16 -21 -29 -29 -29 -20 0 -19 6 6 41 11 16 16 29 10 29 -6 0 -11 7
-11 14 0 13 6 13 35 3 19 -7 33 -16 32 -22z m71 -16 c40 -14 32 -30 -11 -23
-30 4 -30 4 -9 -7 32 -17 27 -32 -9 -24 -22 5 -29 4 -25 -4 4 -6 14 -11 22
-11 8 0 14 -7 14 -14 0 -12 -6 -13 -32 -4 -18 6 -35 12 -37 14 -4 4 46 84 53
84 2 0 17 -5 34 -11z m90 -35 c28 -19 28 -44 1 -51 -14 -4 -19 -12 -16 -24 3
-12 0 -19 -9 -19 -8 0 -14 9 -14 20 0 23 -10 26 -28 8 -23 -23 -23 1 0 41 25
45 33 48 66 25z m-352 -7 c8 3 14 -1 14 -10 0 -22 -20 -32 -31 -16 -5 8 -9 10
-9 5 0 -6 -6 -4 -12 2 -10 10 -10 15 2 22 9 6 16 6 18 0 2 -5 10 -6 18 -3z
m449 -27 c14 -5 23 -14 20 -20 -4 -7 -12 -7 -25 0 -23 12 -30 13 -30 1 0 -5 9
-13 20 -16 11 -4 18 -10 15 -15 -3 -5 -16 -5 -30 0 -17 6 -25 6 -25 -1 0 -6 9
-13 20 -16 11 -3 20 -9 20 -14 0 -13 -31 -10 -56 4 l-22 12 24 38 c26 40 30
42 69 27z m-350 -12 c14 -6 25 -15 25 -19 0 -5 7 -6 15 -3 9 4 15 0 15 -7 0
-11 3 -11 10 1 5 8 10 10 10 4 0 -6 6 -11 14 -11 22 0 106 -34 106 -42 0 -14
-13 -21 -24 -13 -12 7 -18 9 -41 11 -8 0 -15 6 -15 11 0 7 7 7 23 0 21 -11 21
-10 3 4 -14 12 -23 13 -33 5 -9 -9 -13 -8 -13 0 0 7 -4 10 -8 7 -10 -6 -82 15
-82 24 0 3 -10 6 -21 7 -26 2 -33 8 -24 22 8 14 8 14 40 -1z m463 -49 c4 -33
-28 -62 -64 -57 -39 4 -52 30 -30 63 14 22 23 26 54 23 31 -3 37 -7 40 -29z
m-176 -55 c19 -10 27 -19 21 -25 -13 -13 -45 0 -36 15 4 6 0 6 -9 -2 -17 -14
-34 0 -23 18 8 13 11 13 47 -6z m53 -31 c-5 -15 -4 -16 6 -5 17 16 32 15 26
-1 -3 -8 1 -14 9 -14 7 0 11 4 8 9 -3 4 -1 8 5 8 17 0 21 -17 7 -29 -10 -8
-22 -7 -50 4 -35 15 -43 25 -29 38 13 14 25 7 18 -10z"/>
<path d="M1676 2164 c-10 -26 -7 -34 14 -34 20 0 44 32 33 44 -12 12 -41 6
-47 -10z"/>
<path d="M1396 2402 c-3 -6 2 -13 11 -16 15 -6 15 -9 3 -17 -12 -9 -12 -10 3
-5 10 3 26 6 35 7 14 0 14 2 2 6 -8 3 -22 12 -32 20 -9 8 -18 10 -22 5z"/>
<path d="M1890 2255 c-11 -14 -10 -17 8 -22 12 -3 19 -10 15 -16 -3 -6 -1 -7
5 -3 11 6 4 33 -13 54 -1 1 -8 -5 -15 -13z"/>
<path d="M2438 2155 c10 -23 9 -30 -6 -70 -22 -55 -28 -60 -68 -59 l-38 2 27
-15 c15 -7 27 -15 27 -18 0 -2 -9 -20 -21 -39 -12 -20 -19 -36 -16 -36 3 0 14
15 25 33 11 17 36 59 56 91 40 66 43 83 20 112 -15 19 -15 19 -6 -1z"/>
<path d="M2330 2117 c-11 -10 -20 -23 -20 -30 0 -6 7 -1 16 11 8 12 26 22 40
22 13 0 24 4 24 8 0 15 -41 8 -60 -11z"/>
<path d="M1690 1979 c0 -6 -7 -8 -15 -5 -9 3 -18 -1 -22 -10 -3 -8 -12 -13
-20 -9 -11 4 -13 1 -9 -11 5 -13 2 -15 -13 -11 -14 3 -18 1 -14 -9 3 -8 -7
-21 -26 -31 -17 -10 -31 -24 -31 -31 0 -7 -5 -10 -12 -6 -7 4 -8 3 -4 -4 5 -8
-1 -12 -14 -12 -12 0 -19 -4 -16 -9 6 -10 -20 -35 -47 -44 -10 -4 -16 -10 -13
-15 2 -4 -9 -17 -25 -27 -16 -11 -29 -23 -29 -27 0 -5 -7 -8 -16 -8 -8 0 -13
-4 -9 -9 3 -5 -4 -13 -16 -16 -11 -4 -18 -9 -16 -11 6 -6 -52 -64 -64 -64 -5
0 -9 -4 -9 -9 0 -5 -11 -12 -25 -15 -14 -4 -24 -12 -22 -19 1 -6 -4 -11 -11
-9 -8 1 -11 -2 -8 -6 3 -5 -3 -17 -13 -26 -14 -13 -18 -27 -15 -52 3 -26 0
-34 -11 -34 -9 0 -18 7 -21 15 -9 23 -70 30 -99 11 -13 -9 -32 -16 -42 -16
-24 1 -63 34 -63 54 0 20 -57 56 -77 49 -7 -3 -25 7 -40 21 -14 15 -38 29 -52
32 -52 11 -54 13 -41 29 7 8 9 15 4 15 -5 0 -43 -53 -85 -117 -68 -106 -75
-119 -60 -131 14 -12 13 -13 -6 -9 -13 3 -23 1 -23 -4 0 -9 21 -13 55 -11 17
2 18 0 5 -9 -12 -9 -11 -10 8 -6 12 3 20 1 17 -3 -6 -10 48 -29 72 -26 10 2
11 1 3 -2 -8 -2 7 -12 35 -23 58 -22 69 -23 59 -7 -4 7 -3 8 5 4 6 -4 9 -11 6
-16 -7 -12 28 -22 51 -14 14 4 15 3 6 -4 -17 -11 181 -88 199 -76 7 4 10 3 6
-3 -4 -6 5 -15 21 -21 15 -5 36 -13 46 -18 14 -5 17 -4 12 4 -4 7 3 22 16 36
40 41 57 64 51 70 -4 3 -2 6 4 6 12 0 54 84 51 102 -2 7 -7 16 -13 20 -6 5 -4
8 4 8 11 0 9 4 -5 14 -17 13 -15 14 16 3 19 -7 40 -15 45 -19 13 -8 64 16 93
42 11 10 23 16 27 12 4 -4 5 -2 3 3 -4 12 38 55 54 55 6 0 9 3 5 6 -9 10 15
30 45 37 17 5 32 2 41 -8 8 -8 17 -11 21 -8 8 8 1 -77 -8 -99 -8 -17 -48 -16
-71 1 -5 4 -21 5 -35 2 -34 -9 -40 -45 -18 -106 10 -27 18 -60 18 -72 0 -12 5
-25 10 -28 6 -3 10 -16 10 -28 0 -12 11 -58 25 -102 14 -44 25 -83 25 -87 0
-11 -34 -10 -46 1 -9 9 -73 26 -64 18 5 -5 157 -67 165 -67 2 0 9 25 16 55 7
30 16 52 20 49 5 -3 6 2 3 10 -3 9 -1 16 5 16 6 0 11 -8 11 -17 1 -13 5 -11
15 9 36 66 132 38 110 -32 -4 -11 -11 -18 -16 -14 -5 3 -8 0 -7 -8 2 -9 -8
-13 -32 -13 -24 0 -34 4 -32 13 1 8 -2 11 -7 7 -13 -7 -3 -35 13 -36 6 0 22
-2 36 -4 22 -3 31 6 62 56 21 32 33 59 28 59 -6 0 -10 -4 -10 -10 0 -5 -7 -10
-15 -10 -8 0 -15 6 -15 13 0 8 -11 19 -24 27 -21 11 -30 10 -68 -9 -56 -26
-60 -26 -53 2 6 24 13 56 14 69 2 14 43 29 59 22 9 -4 24 -9 32 -10 8 -2 31
-7 51 -12 36 -9 37 -9 48 27 9 30 17 123 20 229 1 13 5 21 10 17 5 -3 12 -1
16 5 3 5 17 10 31 10 13 0 32 4 42 9 9 4 39 18 65 30 26 11 50 28 53 36 4 8
10 15 15 15 5 0 2 -11 -7 -25 -9 -14 -14 -28 -11 -31 5 -5 137 199 137 213 0
4 -6 -2 -14 -12 -13 -18 -14 -18 -22 6 -4 13 -7 27 -6 32 1 4 -2 7 -6 7 -5 0
-14 11 -20 25 -7 14 -24 30 -39 37 -16 6 -42 17 -59 24 -17 8 -40 15 -50 17
-11 2 -30 9 -44 17 -14 8 -38 15 -54 16 -16 2 -33 7 -39 13 -6 6 -19 11 -29
11 -10 0 -18 4 -18 8 0 4 -10 9 -22 9 -13 1 -24 7 -26 13 -2 5 -8 8 -13 4 -5
-3 -23 2 -41 10 -37 19 -38 19 -38 5z m237 -96 l211 -77 29 -59 28 -59 -82
-78 c-65 -62 -91 -79 -130 -89 -26 -7 -64 -16 -84 -22 l-37 -9 -7 -135 c-4
-75 -11 -138 -16 -141 -5 -2 -43 7 -85 22 -42 14 -80 22 -84 17 -4 -4 -20 -66
-35 -138 -15 -71 -28 -131 -30 -133 -9 -10 -29 48 -80 226 -41 145 -55 206
-47 214 8 8 28 4 72 -12 33 -12 62 -21 64 -19 2 2 6 39 9 81 l7 78 -36 15
c-20 8 -43 15 -52 15 -8 0 -57 -38 -108 -85 l-93 -86 -90 33 c-50 18 -91 36
-91 40 0 17 516 478 535 478 11 0 115 -34 232 -77z m-1140 -334 c30 -26 4 -92
-44 -110 -19 -7 -39 -5 -74 6 l-48 16 42 64 42 63 34 -14 c19 -8 40 -19 48
-25z m103 -37 c0 -14 -76 -122 -87 -122 -25 0 -21 18 18 77 27 41 46 60 55 56
8 -3 14 -8 14 -11z m59 -77 c2 -2 1 -11 -2 -20 -5 -12 -11 -13 -34 -3 -37 16
-36 15 -28 28 6 10 52 6 64 -5z m140 6 c11 -7 10 -15 -8 -45 -12 -20 -20 -40
-16 -46 3 -6 -2 -13 -12 -17 -10 -4 -21 -11 -24 -16 -10 -15 -39 0 -33 16 3
10 -4 17 -20 21 -39 10 -31 27 27 63 56 35 65 37 86 24z m-459 -17 c0 -14 3
-14 15 -4 12 10 19 10 27 2 9 -9 8 -12 -6 -12 -9 0 -14 -4 -11 -10 8 -13 5
-12 -34 1 -25 9 -29 14 -20 25 15 19 29 18 29 -2z m113 -26 c4 1 7 -3 7 -9 0
-5 5 -7 10 -4 14 9 13 -8 -2 -23 -17 -17 -28 -15 -28 4 0 14 -3 14 -15 4 -18
-15 -20 1 -3 18 9 9 9 12 0 12 -6 0 -16 -8 -21 -17 -11 -20 -15 -4 -5 21 5 13
10 14 27 4 12 -7 25 -11 30 -10z m461 1 c14 -7 27 -18 31 -27 6 -17 -11 -42
-30 -42 -8 0 -10 -9 -8 -25 4 -19 0 -27 -21 -36 -22 -10 -33 -9 -61 4 -19 9
-35 23 -35 31 0 16 26 46 41 46 5 0 9 9 9 20 0 10 8 24 18 29 22 13 26 13 56
0z m-401 -25 c10 -10 -16 -42 -30 -37 -9 4 -10 10 -2 24 10 19 21 24 32 13z
m52 -24 c4 -6 11 -7 17 -4 8 5 9 1 4 -11 -5 -13 -3 -15 6 -8 18 15 66 -7 60
-27 -5 -13 -3 -13 12 -1 13 11 20 11 28 3 9 -9 7 -12 -8 -12 -16 0 -17 -2 -4
-11 12 -8 10 -9 -10 -5 -14 3 -31 6 -39 6 -9 0 -11 7 -8 23 6 21 6 21 -8 3 -8
-11 -15 -14 -15 -8 0 7 -3 11 -7 11 -10 -2 -73 13 -73 16 0 29 32 46 45 25z
m215 -95 c0 -19 -20 -29 -32 -17 -8 8 -7 16 2 26 14 17 30 12 30 -9z m44 -18
c-1 -10 3 -14 10 -10 13 9 36 13 36 7 0 -3 -5 -11 -12 -18 -9 -10 -19 -10 -43
-2 -40 14 -40 13 -25 31 16 19 36 14 34 -8z"/>
<path d="M1712 1748 c-29 -28 -50 -54 -45 -58 4 -4 43 -19 85 -34 l78 -28 53
48 c29 27 54 53 56 58 2 9 -141 66 -163 66 -6 0 -35 -23 -64 -52z m125 13 c23
-11 44 -17 47 -13 10 9 6 -32 -4 -48 -5 -8 -10 -11 -10 -6 0 5 -9 -1 -20 -14
-17 -19 -25 -21 -57 -14 -44 9 -43 8 -65 18 -9 4 -16 16 -15 26 1 11 3 17 5
15 2 -2 16 10 30 26 32 34 35 34 89 10z"/>
<path d="M701 1516 c-27 -43 -27 -46 7 -46 49 0 72 49 33 70 -16 8 -23 5 -40
-24z"/>
<path d="M1125 1320 c-4 -7 -3 -16 3 -22 14 -14 45 -2 40 15 -6 16 -34 21 -43
7z"/>
<path d="M552 1458 c-7 -13 -19 -33 -28 -45 -9 -13 -14 -23 -11 -23 3 0 20 20
37 45 17 25 27 45 22 45 -5 0 -14 -10 -20 -22z"/>
<path d="M620 1334 c0 -5 49 -27 90 -39 14 -4 23 -5 20 -2 -8 9 -110 47 -110
41z"/>
<path d="M495 1322 c-6 -4 -12 -17 -12 -29 -1 -17 2 -20 15 -16 9 4 22 13 28
22 10 12 13 12 22 -5 6 -10 12 -14 12 -7 0 15 -28 43 -43 43 -7 0 -17 -4 -22
-8z"/>
<path d="M969 1195 c29 -14 59 -24 65 -22 6 2 -10 11 -34 19 -80 28 -86 29
-31 3z"/>
<path d="M1140 1129 c0 -5 5 -9 11 -9 6 0 26 -7 45 -16 18 -9 38 -14 44 -12 5
1 -15 13 -45 25 -30 11 -55 17 -55 12z"/>
<path d="M1295 1072 c13 -11 114 -52 129 -51 12 0 4 4 -84 39 -30 12 -50 17
-45 12z"/>
<path d="M1222 1014 c-12 -8 -20 -20 -16 -25 3 -6 -4 -21 -15 -33 -34 -36 -19
-68 37 -81 18 -3 30 -11 27 -15 -3 -5 8 -4 25 1 16 6 30 15 30 19 0 4 15 17
33 29 17 11 28 21 22 21 -5 0 -3 4 5 10 25 16 -6 57 -58 75 -57 19 -62 19 -90
-1z m70 -24 c2 -6 15 -12 30 -13 15 -1 28 -5 28 -9 1 -24 -1 -28 -15 -28 -8 0
-15 4 -15 10 0 5 -7 7 -15 4 -8 -4 -15 -1 -15 5 0 6 -7 8 -15 5 -17 -7 -18 -3
-9 20 7 18 21 21 26 6z m-43 -62 c10 3 12 0 8 -12 -4 -9 -3 -15 2 -11 5 3 11
2 14 -2 2 -5 2 -2 1 5 -4 15 12 16 22 1 3 -6 1 -16 -4 -21 -13 -13 -72 8 -72
24 0 6 -7 8 -15 4 -18 -7 -20 5 -3 22 10 10 15 10 23 -1 5 -8 16 -12 24 -9z"/>
<path d="M1410 943 c-21 -27 -23 -45 -8 -54 10 -7 9 -9 -4 -9 -10 0 -22 -8
-27 -19 -8 -15 -5 -20 15 -30 14 -6 30 -8 36 -5 6 4 8 3 5 -3 -4 -6 12 -16 36
-23 23 -7 37 -15 31 -17 -5 -2 -43 10 -82 26 -40 17 -72 28 -72 25 0 -3 16
-12 35 -20 19 -8 35 -19 35 -25 0 -5 5 -7 11 -4 5 4 24 1 40 -6 26 -10 33 -10
47 6 9 10 11 15 5 11 -15 -8 -18 10 -3 19 6 4 8 11 5 16 -4 5 -16 2 -30 -7
-15 -10 -24 -11 -27 -4 -2 6 -13 12 -26 13 -12 0 -22 5 -22 10 0 4 -5 5 -11 1
-7 -4 -10 -1 -7 7 3 8 12 12 19 10 8 -2 21 -4 28 -5 8 -2 17 -8 19 -14 2 -8
10 -8 27 0 18 8 28 8 38 0 20 -17 42 31 26 56 -32 51 -113 77 -139 45z m40
-14 c0 -5 4 -8 9 -4 5 3 12 1 16 -5 4 -6 11 -8 16 -5 5 4 9 1 9 -6 0 -7 3 -9
7 -6 10 11 32 -13 26 -29 -3 -7 -9 -11 -14 -8 -5 3 -6 10 -3 16 5 7 2 8 -5 4
-7 -5 -21 0 -33 11 -12 10 -18 12 -14 6 4 -7 2 -13 -3 -13 -6 0 -11 4 -11 10
0 5 -7 7 -15 4 -17 -7 -18 -3 -9 20 7 18 24 22 24 5z"/>
<path d="M1529 2688 c-12 -23 -12 -23 10 -4 18 16 21 17 21 3 0 -8 -3 -17 -7
-20 -5 -2 -2 -2 5 -1 6 2 12 0 12 -5 0 -5 9 -11 19 -14 15 -3 18 -1 14 11 -4
9 -2 13 4 9 5 -3 10 0 10 8 0 8 -4 15 -9 15 -4 0 -8 -4 -8 -8 0 -5 -7 -9 -15
-9 -18 0 -20 17 -2 18 6 0 3 4 -8 9 -30 13 -33 12 -46 -12z"/>
<path d="M1632 2675 c4 -4 3 -14 -3 -21 -7 -8 -7 -14 1 -19 5 -3 10 -2 10 3 0
6 7 13 16 16 13 5 15 2 11 -14 -4 -18 -3 -19 9 -9 8 6 18 9 21 5 4 -4 1 -11
-7 -16 -8 -6 -10 -10 -4 -10 6 0 19 10 30 22 17 19 17 21 2 15 -10 -4 -18 -3
-18 2 0 5 -8 11 -17 14 -10 2 -27 8 -38 12 -11 5 -17 5 -13 0z"/>
<path d="M1727 2620 c-9 -11 -13 -20 -8 -20 5 0 16 -3 24 -6 10 -3 20 3 27 18
10 21 10 21 -3 6 -8 -10 -17 -18 -21 -18 -9 0 -3 24 9 32 7 5 7 8 0 8 -6 0
-18 -9 -28 -20z"/>
<path d="M2226 1264 c-11 -16 -15 -35 -12 -50 11 -42 22 -28 47 55 7 25 -18
22 -35 -5z"/>
<path d="M1237 606 c-6 -14 36 -39 47 -29 11 11 6 20 -18 31 -19 8 -25 8 -29
-2z"/>
<path d="M2635 1830 c-10 -19 -55 -93 -99 -165 -99 -158 -138 -225 -132 -225
3 0 37 53 77 118 40 64 96 155 126 201 30 46 52 88 50 95 -2 6 -12 -5 -22 -24z"/>
<path d="M565 1040 c-11 -18 26 -39 67 -40 27 0 38 -5 43 -20 3 -10 20 -31 38
-46 l31 -26 17 21 c11 13 19 17 21 9 4 -12 28 -3 28 12 0 4 -14 13 -32 19 -24
9 -34 8 -40 -1 -6 -10 -8 -9 -8 3 0 15 -20 26 -146 76 -7 2 -15 -1 -19 -7z"/>
<path d="M485 977 c-12 -27 4 -85 27 -101 12 -9 24 -13 27 -10 3 3 0 8 -6 12
-6 4 -18 32 -26 62 -11 40 -16 50 -22 37z"/>
<path d="M628 975 c17 -8 44 -27 58 -42 21 -22 24 -23 16 -6 -13 23 -71 63
-93 63 -8 -1 1 -7 19 -15z"/>
<path d="M565 971 c-4 -7 4 -11 19 -11 28 0 84 -43 96 -74 9 -21 9 -21 9 0 1
21 -59 84 -79 84 -4 0 -15 3 -23 6 -8 3 -18 1 -22 -5z"/>
<path d="M576 943 c-15 -15 -3 -34 34 -53 46 -24 50 -24 50 -7 0 26 -69 74
-84 60z"/>
<path d="M862 909 c-12 -18 -11 -21 7 -26 12 -3 19 -9 16 -13 -3 -5 8 -3 25 3
27 10 32 9 61 -21 17 -17 35 -29 40 -26 5 3 9 0 9 -5 0 -6 9 -11 20 -11 18 0
19 -3 10 -20 -13 -24 -4 -63 12 -58 6 2 18 15 27 28 15 22 15 23 -6 12 -19
-11 -21 -9 -18 23 2 43 12 55 22 28 7 -16 11 -17 31 -7 23 11 22 13 -30 30
-29 10 -55 19 -58 19 -3 1 -23 10 -45 19 -43 19 -107 46 -109 46 -1 0 -7 -9
-14 -21z"/>
<path d="M775 900 c-4 -6 -12 -9 -19 -7 -6 3 -16 -1 -23 -8 -9 -10 -6 -15 12
-23 19 -9 24 -7 34 15 12 26 9 44 -4 23z"/>
<path d="M571 863 c-8 -16 -5 -18 22 -17 58 2 62 5 28 19 -41 18 -38 19 -50
-2z"/>
<path d="M813 873 c4 -3 2 -12 -4 -19 -13 -16 -3 -84 11 -84 14 0 32 39 24 51
-4 6 0 15 7 20 11 7 10 9 -3 9 -11 0 -15 5 -12 15 4 10 0 15 -12 15 -9 0 -14
-3 -11 -7z"/>
<path d="M875 840 c-3 -6 3 -10 15 -10 33 0 78 -27 95 -58 l16 -27 -6 30 c-5
28 -4 29 10 11 8 -11 15 -15 15 -9 0 11 -54 62 -68 64 -44 7 -72 7 -77 -1z"/>
<path d="M880 801 c0 -13 11 -26 30 -36 32 -16 60 -20 60 -7 0 13 -43 49 -67
57 -19 5 -23 2 -23 -14z"/>
<path d="M626 799 c31 -9 84 -54 84 -71 0 -5 5 -6 10 -3 27 17 -61 86 -107 84
-10 0 -4 -5 13 -10z"/>
<path d="M600 772 c0 -24 84 -70 95 -53 7 13 -53 61 -76 61 -10 0 -19 -4 -19
-8z"/>
<path d="M877 736 c-7 -18 22 -29 48 -20 17 7 17 8 -1 21 -23 17 -40 17 -47
-1z"/>
<path d="M968 718 c19 -19 14 -25 -20 -20 -18 3 -31 2 -28 -1 3 -3 25 -7 50
-10 25 -3 53 -8 62 -12 11 -4 16 -2 14 8 -4 28 -28 47 -59 47 -24 0 -28 -3
-19 -12z"/>
<path d="M1115 699 c2 -19 4 -43 5 -54 1 -16 5 -13 18 13 15 31 15 34 -5 53
l-21 21 3 -33z"/>
<path d="M930 670 c20 -5 49 -24 67 -44 18 -20 33 -30 33 -23 0 29 -72 78
-112 76 -16 -1 -13 -3 12 -9z"/>
<path d="M1612 669 c-4 -4 -18 -9 -32 -12 -22 -4 -22 -4 5 -5 17 -1 41 5 55
13 24 14 25 14 2 12 -12 -1 -26 -4 -30 -8z"/>
<path d="M910 643 c0 -17 17 -32 53 -46 30 -13 37 -14 37 -2 0 18 -48 55 -71
55 -11 0 -19 -3 -19 -7z"/>
<path d="M1727 622 c-20 -22 -34 -82 -19 -82 5 0 8 9 5 20 -4 16 -2 19 12 14
13 -5 16 -2 14 17 -2 13 0 30 4 37 12 18 3 15 -16 -6z"/>
<path d="M1654 590 c3 -14 10 -52 16 -85 17 -98 28 -141 30 -120 1 11 1 25 0
30 -2 6 -11 50 -21 98 -9 49 -20 91 -24 95 -4 4 -4 -4 -1 -18z"/>
<path d="M1425 531 c-6 -10 25 -31 44 -31 17 0 13 27 -5 34 -22 8 -32 8 -39
-3z"/>
<path d="M1722 238 c-22 -22 -25 -23 -291 -20 -257 2 -301 0 -301 -18 0 -9
823 -12 859 -3 24 6 24 6 4 14 -28 10 -251 6 -283 -6 -21 -7 -20 -4 10 23 19
17 33 32 30 32 -3 0 -16 -10 -28 -22z"/>
</g>
</svg>
