<svg version="1.0" xmlns="http://www.w3.org/2000/svg"
 width="300.000000pt" height="168.000000pt" viewBox="0 0 300.000000 168.000000"
 preserveAspectRatio="xMidYMid meet">
<g transform="translate(0.000000,168.000000) scale(0.100000,-0.100000)"
fill="#000000" stroke="none">
<path d="M1410 1534 c-14 -1 -110 -8 -215 -14 -104 -6 -211 -13 -237 -16 l-48
-6 0 -172 c0 -95 3 -321 7 -503 l6 -330 161 -83 c89 -45 212 -109 274 -141 62
-33 124 -59 138 -59 13 0 124 20 247 45 234 47 518 99 602 111 28 3 62 13 77
20 15 8 35 14 45 14 41 1 42 4 52 370 6 195 14 439 17 541 l7 186 -119 6
c-113 7 -559 22 -854 30 -74 2 -146 3 -160 1z m62 -29 c3 -14 1 -25 -6 -25 -8
0 -8 -2 0 -8 6 -4 11 -52 11 -122 1 -63 4 -128 7 -144 5 -29 15 -47 17 -30 0
5 2 19 3 31 1 12 -1 20 -6 17 -11 -7 -10 3 2 27 6 10 7 19 2 19 -11 0 -8 112
3 130 6 9 4 11 -5 5 -8 -5 -11 -3 -8 6 3 8 14 14 26 14 11 0 23 3 27 6 3 4 -8
5 -25 4 -34 -3 -34 -2 -19 27 8 16 8 19 -1 13 -8 -5 -11 -3 -8 5 4 14 90 14
585 1 185 -5 241 -9 235 -18 -5 -8 -50 -13 -140 -15 -74 -1 -135 -5 -137 -8
-4 -6 24 -5 328 3 81 3 150 1 153 -4 3 -5 -3 -9 -12 -9 -16 0 -16 -1 2 -15 10
-8 14 -15 8 -15 -6 0 -10 -16 -9 -36 1 -31 -2 -35 -20 -30 -17 4 -17 2 5 -14
23 -18 24 -20 5 -21 -17 -1 -17 -2 -2 -6 34 -9 16 -23 -30 -25 -48 -1 -48 -1
-8 -5 61 -6 67 -23 10 -25 -41 -1 -43 -2 -15 -5 51 -6 62 -23 15 -23 -45 0
-43 -8 4 -12 32 -2 48 -12 34 -21 -5 -3 -29 -2 -54 2 -25 4 -54 4 -65 1 -12
-5 -1 -8 30 -8 26 -1 56 -4 65 -7 20 -6 21 -47 2 -53 -8 -3 -6 -8 6 -18 16
-12 10 -13 -47 -9 -63 4 -63 4 -14 -4 29 -5 57 -12 63 -15 17 -11 3 -26 -17
-20 -9 3 -6 -1 7 -9 18 -11 20 -16 10 -20 -9 -3 -10 -8 -4 -14 6 -4 10 -18 11
-31 1 -21 -2 -23 -40 -18 l-41 5 45 -13 c42 -12 43 -13 20 -21 l-25 -8 25 -10
25 -10 -25 -7 c-18 -6 -20 -8 -7 -9 14 -1 18 -8 15 -29 -3 -24 -7 -27 -38 -25
l-35 2 38 -11 c38 -10 50 -28 20 -28 -15 -1 -13 -3 5 -13 31 -18 18 -27 -21
-16 -53 15 -66 9 -14 -7 51 -16 64 -34 20 -27 -25 3 -26 2 -7 -6 27 -12 41
-43 16 -34 -15 6 -14 3 2 -15 14 -17 16 -22 5 -22 -12 0 -12 -2 0 -9 10 -6 10
-10 1 -16 -9 -6 -9 -9 1 -16 11 -7 10 -11 -6 -23 -20 -15 -20 -15 0 -16 19 -1
19 -2 3 -14 -14 -10 -15 -15 -5 -26 10 -10 7 -12 -15 -8 -15 3 -25 1 -22 -3 3
-5 11 -9 18 -9 8 0 19 -6 25 -14 9 -11 6 -13 -16 -9 -26 3 -27 3 -5 -6 12 -6
22 -13 22 -15 0 -12 -73 -24 -100 -16 -19 5 -28 5 -25 -1 4 -5 15 -9 25 -9 10
0 22 -4 25 -10 3 -5 18 -10 33 -9 l27 1 -25 8 -25 8 27 1 c15 1 29 -3 33 -9 6
-10 -35 -22 -135 -39 -36 -6 -90 -16 -120 -22 -30 -6 -75 -13 -100 -16 -25 -3
-48 -10 -52 -17 -5 -7 -8 -5 -8 5 0 13 14 19 58 24 55 8 56 8 25 17 -18 5 -33
15 -33 23 0 19 -16 19 -24 0 -3 -8 -15 -15 -26 -15 -12 0 -20 -7 -20 -16 0
-10 -6 -14 -14 -11 -7 3 -19 0 -25 -6 -6 -6 -14 -7 -18 -3 -4 4 -1 11 7 16 11
7 6 10 -17 10 -18 0 -33 5 -33 11 0 5 -5 7 -11 3 -8 -4 -3 -12 12 -21 23 -13
23 -14 -11 -8 -31 5 -33 4 -15 -7 11 -7 47 -12 80 -12 48 1 54 -1 30 -7 -16
-5 -43 -11 -60 -13 -16 -3 -75 -14 -130 -25 -55 -11 -119 -23 -143 -26 -24 -3
-52 -10 -63 -15 -27 -15 -183 -24 -174 -11 3 6 -2 11 -14 11 -28 0 -52 11 -45
21 3 5 0 10 -5 10 -6 1 -15 3 -21 4 -5 1 -16 3 -22 4 -9 1 -9 4 2 12 12 9 11
10 -7 6 -13 -3 -23 -2 -23 2 0 3 -19 14 -42 24 -32 14 -38 21 -27 28 10 7 6 8
-12 4 -19 -5 -28 -2 -32 9 -4 9 -13 16 -21 16 -27 0 -93 35 -88 48 2 6 -1 12
-7 12 -6 0 -11 -5 -11 -11 0 -5 -5 -7 -10 -4 -6 4 -8 10 -5 14 2 5 -7 6 -22 3
-16 -3 -24 -1 -20 5 6 10 -50 40 -65 36 -4 -2 -4 29 -1 68 4 56 2 70 -7 64 -8
-5 -11 -4 -7 3 8 11 9 157 5 557 l-3 270 52 0 c33 0 48 4 43 10 -5 6 11 10 45
10 29 0 51 -3 48 -7 -7 -12 12 -9 25 4 8 8 15 8 26 -1 8 -7 15 -8 18 -2 1 5
47 11 101 13 56 1 97 7 97 13 0 5 6 1 12 -10 6 -11 16 -23 22 -27 7 -5 6 -8
-4 -8 -13 0 -15 -49 -15 -380 0 -209 3 -380 6 -380 4 0 9 -9 12 -20 3 -11 11
-20 19 -20 9 0 9 3 2 8 -17 11 -13 42 5 42 14 0 14 2 1 9 -8 6 -18 7 -22 5 -4
-3 -8 7 -8 21 0 14 4 24 8 21 5 -3 8 10 7 29 0 19 4 35 10 35 5 0 4 4 -4 9 -8
5 -9 11 -3 15 6 4 7 17 3 34 -10 33 -7 163 3 180 4 7 3 12 -3 12 -6 0 -8 6 -5
14 3 8 1 17 -5 21 -14 8 -14 82 -1 90 5 3 7 12 3 20 -3 9 1 15 8 15 11 0 11 3
-1 10 -12 8 -12 10 5 11 11 0 14 3 7 6 -6 2 -10 9 -6 14 3 5 0 9 -6 9 -6 0 -8
5 -4 12 11 17 11 58 1 58 -5 0 -4 7 3 15 9 11 9 15 1 15 -8 0 -9 6 -3 18 11
21 5 86 -8 90 -5 2 -4 9 3 17 17 20 24 18 29 -10z m1048 -41 c-35 -7 -198 -9
-194 -2 3 4 51 7 107 7 56 -1 95 -3 87 -5z"/>
<path d="M1738 1468 c-5 -11 39 -12 241 -10 135 1 253 4 261 7 8 2 -92 3 -223
2 -152 -1 -237 2 -237 8 0 6 -5 3 -10 -5 -8 -12 -12 -13 -19 -2 -7 11 -9 11
-13 0z"/>
<path d="M2247 1420 c2 -3 56 -5 118 -5 62 0 111 2 108 5 -2 3 -56 5 -118 5
-62 0 -111 -2 -108 -5z"/>
<path d="M2166 1390 c3 -3 54 -5 114 -5 60 -1 107 2 104 4 -3 3 -54 6 -114 6
-60 0 -106 -2 -104 -5z"/>
<path d="M1915 1361 c3 -3 28 -5 54 -5 27 -1 47 1 44 4 -2 3 -27 5 -54 6 -27
0 -46 -2 -44 -5z"/>
<path d="M2166 1360 c3 -3 46 -5 94 -5 49 -1 87 1 84 4 -3 3 -45 6 -94 6 -49
0 -87 -2 -84 -5z"/>
<path d="M1558 1313 c6 -3 12 -9 12 -15 0 -6 -7 -8 -15 -5 -8 4 -16 3 -19 -1
-2 -4 16 -8 40 -8 28 -1 40 2 32 8 -11 6 -11 10 0 16 8 6 -1 9 -25 9 -21 0
-32 -2 -25 -4z"/>
<path d="M1915 1309 c-3 -3 14 -6 36 -5 23 1 47 -3 53 -9 9 -9 14 -9 24 1 9
10 8 13 -6 13 -9 0 -36 2 -60 4 -24 2 -45 0 -47 -4z"/>
<path d="M2070 1227 c3 -3 57 -8 120 -12 63 -3 112 -4 109 -1 -3 3 -57 8 -120
12 -63 3 -112 4 -109 1z"/>
<path d="M1734 1200 c0 -9 9 -16 21 -17 11 -1 14 1 8 4 -28 10 -11 21 28 18
22 -2 38 0 34 3 -3 3 -25 7 -48 7 -33 1 -43 -2 -43 -15z"/>
<path d="M1220 1160 c0 -10 4 -22 10 -25 6 -4 7 1 3 11 -10 26 20 12 34 -17
12 -23 13 -23 13 -3 0 22 -13 37 -42 47 -13 5 -18 1 -18 -13z"/>
<path d="M1188 1123 c-16 -4 -18 -21 -18 -168 l0 -164 28 -15 c44 -23 72 -11
72 30 l0 33 -35 -20 c-32 -19 -55 -19 -55 1 0 8 27 20 56 24 30 4 24 15 -15
27 -38 11 -41 15 -41 46 0 31 2 34 23 28 62 -18 58 -20 42 25 -8 23 -25 60
-37 82 -19 33 -20 41 -8 48 17 11 42 -26 57 -85 l11 -40 1 55 c1 47 -3 57 -26
77 -14 13 -29 22 -32 22 -3 -1 -14 -3 -23 -6z"/>
<path d="M1473 1053 c9 -3 17 -11 17 -19 0 -8 4 -14 10 -14 5 0 7 7 4 15 -4
10 0 13 15 10 11 -2 22 -1 25 3 2 4 -17 7 -42 8 -26 0 -39 -1 -29 -3z"/>
<path d="M1142 958 c-1 -48 1 -89 6 -91 4 -3 6 23 4 56 -5 111 -9 124 -10 35z"/>
<path d="M1741 1036 c3 -3 29 -8 58 -10 29 -3 50 -2 47 1 -3 3 -29 8 -58 10
-29 2 -50 1 -47 -1z"/>
<path d="M1495 1000 c28 -7 28 -8 5 -9 -20 -1 -22 -3 -10 -11 10 -6 20 -5 30
4 8 7 30 12 47 11 18 -1 30 1 27 4 -2 3 -33 6 -67 7 -45 1 -54 -1 -32 -6z"/>
<path d="M1489 928 c-1 -7 -2 -25 -2 -40 -1 -15 -5 -24 -9 -22 -4 3 -4 -6 1
-19 6 -14 7 -27 5 -30 -3 -3 -7 -17 -8 -31 -3 -22 1 -26 23 -27 23 -2 24 -2 4
-6 -35 -7 -27 -18 15 -20 29 -1 33 1 17 8 -14 7 -4 8 33 5 32 -2 48 0 40 5 -7
5 -26 9 -43 9 -16 0 -40 3 -53 6 -18 5 -20 9 -11 20 6 8 8 14 3 14 -5 0 -2 5
6 11 13 10 13 10 0 6 -10 -3 -16 2 -16 14 0 18 8 23 31 20 6 -1 1 6 -9 14 -14
11 -16 15 -5 15 12 0 12 2 -1 10 -12 8 -13 13 -2 30 10 17 10 20 -3 20 -8 0
-16 -6 -16 -12z"/>
<path d="M1418 608 c5 -61 8 -66 24 -50 9 9 9 12 -2 12 -11 1 -9 5 5 17 15 12
16 14 3 10 -13 -5 -17 0 -16 16 1 35 -1 47 -11 47 -4 0 -6 -24 -3 -52z"/>
<path d="M1433 543 c-7 -2 -13 -13 -13 -23 0 -10 6 -21 13 -23 10 -4 10 -6 0
-6 -10 -1 -13 -27 -13 -97 0 -69 3 -95 12 -92 6 2 14 10 16 18 3 7 0 10 -5 7
-6 -4 -11 23 -12 72 -2 67 1 81 16 90 10 6 13 11 7 11 -14 0 -13 32 1 42 12 9
-2 9 -22 1z"/>
<path d="M2000 421 c-45 -14 -51 -18 -32 -23 12 -3 22 -2 22 4 0 5 8 8 18 7
25 -4 72 10 72 21 0 14 -15 12 -80 -9z"/>
<path d="M2230 433 c0 -2 15 -11 33 -19 l32 -15 -30 5 c-16 2 -41 7 -55 10
-17 4 -15 1 9 -9 23 -11 46 -14 78 -9 24 3 42 8 40 10 -6 6 -107 32 -107 27z"/>
<path d="M2320 431 c0 -10 35 -21 65 -20 13 0 8 5 -15 14 -43 17 -50 17 -50 6z"/>
<path d="M2120 410 c0 -9 62 -30 90 -30 13 0 13 1 0 10 -8 5 -27 10 -42 10
-16 0 -28 5 -28 10 0 6 -4 10 -10 10 -5 0 -10 -4 -10 -10z"/>
<path d="M1860 351 c0 -5 14 -11 31 -15 49 -10 57 -6 19 9 -43 17 -50 17 -50
6z"/>
<path d="M1705 329 c-42 -6 -34 -13 25 -23 26 -5 31 -3 20 5 -11 8 -6 9 22 7
20 -2 35 -1 32 3 -2 4 4 9 13 12 26 6 -64 3 -112 -4z"/>
<path d="M1620 312 c0 -5 -13 -10 -30 -11 -68 -4 -78 -6 -73 -13 2 -5 -7 -8
-21 -8 -20 0 -24 -4 -19 -17 4 -11 8 -13 11 -5 2 7 7 10 11 8 4 -3 40 4 80 15
40 11 83 17 95 13 14 -4 18 -3 11 4 -14 13 -65 24 -65 14z"/>
<path d="M1432 291 c-11 -7 -10 -10 3 -15 23 -8 27 -8 20 3 -3 5 7 12 22 14
l28 4 -30 1 c-16 1 -36 -2 -43 -7z"/>
</g>
</svg>
