<svg version="1.0" xmlns="http://www.w3.org/2000/svg"
 width="300.000000pt" height="200.000000pt" viewBox="0 0 300.000000 200.000000"
 preserveAspectRatio="xMidYMid meet">
<g transform="translate(0.000000,200.000000) scale(0.100000,-0.100000)"
fill="#000000" stroke="none">
<path d="M2399 1766 c-2 -2 -150 -6 -329 -10 -179 -4 -453 -11 -609 -16 -155
-5 -298 -6 -315 -3 -45 7 -164 -44 -277 -118 -263 -173 -495 -486 -624 -844
l-35 -95 152 -121 c83 -66 160 -125 172 -129 12 -5 152 -39 311 -75 160 -37
453 -104 652 -151 l363 -84 317 101 c175 55 349 110 387 122 38 12 70 26 72
32 2 5 28 124 58 264 l54 253 -57 182 c-32 99 -93 291 -136 426 -43 135 -82
251 -88 258 -9 11 -58 17 -68 8z m-103 -25 c-4 -5 -15 -8 -26 -6 -11 2 -20 1
-20 -3 0 -12 20 -38 20 -27 0 18 54 32 116 31 58 -1 59 -1 77 -40 10 -21 19
-48 19 -60 1 -11 5 -25 8 -31 4 -5 31 -84 59 -175 29 -91 64 -199 78 -240 14
-41 34 -104 43 -140 10 -36 25 -85 35 -109 16 -43 15 -49 -15 -192 -17 -81
-33 -157 -35 -170 -16 -83 -28 -135 -33 -144 -4 -5 -7 -16 -7 -24 0 -8 -7 -17
-15 -22 -17 -9 -52 -22 -62 -23 -3 -1 -10 -4 -14 -9 -4 -4 -16 -7 -26 -7 -10
0 -26 -4 -36 -9 -9 -5 -57 -21 -107 -36 -49 -15 -115 -36 -145 -47 -65 -23
-268 -85 -325 -100 -34 -8 -61 -5 -185 25 -140 35 -309 75 -340 82 -8 2 -69
15 -134 30 -66 14 -122 27 -125 29 -3 3 -40 11 -81 20 -41 9 -124 27 -185 41
-60 15 -121 28 -135 30 -84 14 -177 46 -205 72 -32 29 -88 69 -109 76 -70 26
62 2 586 -108 328 -69 604 -128 614 -132 17 -6 17 -5 5 10 -7 9 -20 17 -28 17
-8 0 -12 4 -8 9 3 5 0 13 -6 17 -8 4 -9 3 -5 -4 4 -8 0 -12 -11 -11 -45 1
-430 85 -431 94 0 5 -6 11 -13 14 -7 2 -9 -1 -4 -9 6 -10 2 -11 -16 -7 -13 3
-96 20 -184 38 -88 17 -165 38 -171 45 -13 16 -28 19 -19 4 9 -14 9 -14 -163
25 -85 19 -161 40 -170 47 -13 11 -14 11 -8 0 5 -8 -15 1 -43 20 -28 18 -53
40 -56 49 -3 9 10 54 30 100 19 46 33 90 30 97 -3 7 -1 11 3 8 5 -3 27 34 51
82 61 124 131 233 143 226 7 -4 8 -2 4 5 -18 28 160 236 293 343 110 88 116
92 142 78 17 -10 20 -9 14 1 -6 9 -3 11 9 6 10 -4 15 -3 11 4 -4 5 -15 7 -26
4 -69 -22 64 53 145 81 27 10 43 11 50 4 7 -7 4 -10 -8 -10 -9 0 -14 -5 -11
-10 4 -6 14 -10 23 -9 31 3 43 -1 37 -11 -3 -6 1 -7 9 -4 9 3 14 10 11 15 -6
9 49 4 66 -7 7 -4 9 -3 6 3 -10 16 10 20 96 18 44 -1 83 -7 89 -13 16 -16 -4
-15 -22 1 -12 10 -12 9 -1 -5 8 -11 23 -16 44 -13 24 3 38 -2 59 -22 16 -15
28 -31 28 -37 0 -5 -14 3 -32 20 l-31 29 33 -42 c37 -48 42 -51 34 -25 -5 14
-3 14 10 -2 18 -22 21 -40 6 -31 -6 4 -3 -10 7 -29 9 -20 18 -34 21 -32 2 2
-2 15 -9 27 -8 16 -9 24 -1 27 6 2 8 10 5 19 -5 12 -3 14 8 8 9 -6 8 0 -4 19
-10 15 -16 30 -13 33 3 3 19 -17 37 -43 17 -27 29 -42 26 -34 -3 8 -8 24 -13
35 -17 48 17 -4 40 -60 14 -33 25 -55 26 -48 0 20 -40 107 -67 141 -14 18 -23
36 -20 38 8 9 54 -58 77 -111 12 -28 30 -90 40 -140 10 -49 19 -80 19 -68 3
61 -31 171 -87 287 -14 27 21 -11 38 -42 10 -20 19 -32 20 -27 0 6 -9 25 -20
43 -23 37 -25 46 -9 36 15 -9 48 -84 71 -159 13 -44 17 -49 12 -21 -7 51 -51
161 -70 177 -8 6 -14 16 -14 22 0 5 10 2 22 -9 19 -17 18 -15 -4 16 -40 56
-42 68 -4 26 43 -47 81 -123 101 -203 l15 -58 -5 50 c-3 35 -2 44 4 30 5 -11
10 -31 11 -45 1 -14 4 -19 7 -12 9 23 -41 181 -53 169 -3 -3 2 -19 10 -36 9
-16 16 -38 16 -48 -1 -10 -9 3 -19 29 -10 25 -28 60 -40 76 -25 36 -27 50 -4
31 15 -13 15 -12 4 10 -10 17 -15 20 -21 11 -6 -9 -11 -6 -20 11 -10 19 -10
22 0 12 7 -6 18 -10 24 -7 6 2 24 -16 39 -41 29 -46 47 -62 27 -24 -7 11 -9
23 -7 26 7 6 47 -71 63 -122 7 -22 13 -31 13 -20 1 11 -10 44 -24 74 -29 62
-26 81 4 24 11 -21 20 -33 20 -28 0 6 -6 21 -14 35 -17 30 -19 44 -5 35 6 -4
6 3 0 21 -9 24 -9 25 5 14 13 -11 14 -10 9 3 -4 11 -22 17 -57 20 -29 2 -9 4
43 4 52 1 89 -1 83 -4 -10 -3 -9 -12 4 -36 9 -18 25 -54 35 -82 12 -32 17 -39
14 -20 -2 17 -8 39 -12 49 -5 13 -4 17 4 12 8 -5 10 -2 5 9 -4 11 -8 13 -13 6
-4 -7 -11 -2 -18 14 -16 35 -15 44 3 21 8 -11 15 -14 15 -7 0 7 5 9 10 6 6 -3
10 -2 10 4 0 15 -18 23 -22 9 -3 -8 -7 -6 -11 5 -5 14 0 17 26 17 18 0 27 -4
20 -8 -8 -5 -6 -17 9 -42 18 -33 19 -28 2 14 -5 13 -4 17 3 13 11 -7 43 -92
43 -111 -1 -6 -7 3 -15 19 l-14 30 6 -30 c7 -35 22 -67 23 -47 0 6 5 12 11 12
15 0 39 26 39 42 0 11 -2 11 -9 0 -5 -9 -13 2 -26 35 -20 53 -37 79 -28 42 7
-27 1 -24 -16 9 -10 19 -9 22 7 22 12 0 24 -11 32 -30 15 -36 25 -34 11 2 -7
20 -6 24 10 25 10 1 19 -2 19 -6 0 -5 7 -25 15 -45 14 -32 18 -35 35 -26 11 6
20 18 19 28 0 15 -1 15 -8 -2 -6 -15 -9 -12 -18 17 -9 30 -8 35 5 33 9 -2 22
-16 30 -32 l13 -29 -6 28 c-8 37 -3 42 40 45 22 2 34 -1 31 -7z m-117 -71 c0
-8 -7 1 -14 20 -18 46 -17 64 0 25 8 -16 14 -37 14 -45z m-662 38 c24 -22 32
-13 11 12 -7 8 -3 6 9 -4 12 -10 26 -15 32 -12 5 4 13 1 17 -5 4 -8 3 -9 -4
-5 -7 4 -12 3 -12 -2 0 -5 12 -9 26 -9 l25 0 -20 21 -21 22 21 1 c11 1 34 -14
54 -35 38 -41 48 -67 12 -34 -13 13 -27 18 -35 13 -9 -6 -7 -12 8 -26 11 -10
20 -23 20 -28 0 -6 -11 0 -24 12 -26 24 -48 12 -25 -15 6 -8 10 -16 8 -18 -2
-2 -33 28 -69 65 -63 67 -81 92 -33 47z m183 -3 c16 -17 19 -28 13 -40 -9 -15
-14 -12 -41 22 -26 33 -28 39 -12 40 10 1 28 -9 40 -22z m120 5 c0 8 3 11 6 7
3 -3 1 -13 -4 -23 -9 -16 -11 -15 -22 7 -12 22 -12 23 3 10 14 -11 17 -11 17
-1z m44 -6 c8 -22 8 -26 -4 -19 -5 3 -10 1 -10 -6 0 -10 -3 -10 -12 0 -11 11
-10 14 0 18 6 3 10 9 6 14 -3 5 -1 9 4 9 6 0 13 -7 16 -16z m-364 -9 c11 -13
10 -14 -4 -9 -9 3 -16 10 -16 15 0 13 6 11 20 -6z m609 -80 c0 -11 -6 -2 -14
20 -8 22 -14 45 -14 50 1 18 28 -49 28 -70z"/>
<path d="M2230 1730 c0 -8 5 -22 10 -30 9 -13 10 -13 10 0 0 8 -5 22 -10 30
-9 13 -10 13 -10 0z"/>
<path d="M1916 1698 c18 -35 27 -37 14 -3 -5 14 -7 25 -4 25 12 0 64 -128 69
-170 5 -43 4 -42 -13 15 -10 33 -24 69 -31 80 -13 20 -13 20 -5 0 4 -11 14
-47 24 -79 22 -77 46 -90 36 -21 -9 70 -63 184 -86 182 -17 -1 -17 -4 -4 -29z"/>
<path d="M2121 1725 c1 -19 18 -51 18 -35 0 8 -4 22 -9 30 -5 8 -9 11 -9 5z"/>
<path d="M2400 1715 c-11 -13 -10 -14 4 -9 9 3 16 10 16 15 0 13 -6 11 -20 -6z"/>
<path d="M1327 1679 c18 -12 31 -24 28 -28 -2 -4 17 -28 43 -52 l47 -44 -45
48 c-24 26 -40 47 -36 47 5 0 4 6 -2 13 -6 6 -11 17 -12 22 -1 6 -4 12 -7 15
-4 3 -3 -1 1 -7 8 -15 -10 -18 -19 -3 -3 6 -12 10 -18 10 -7 0 3 -10 20 -21z"/>
<path d="M1371 1697 c2 -1 13 -9 24 -17 19 -14 19 -14 6 3 -7 9 -18 17 -24 17
-6 0 -8 -1 -6 -3z"/>
<path d="M1410 1696 c0 -2 8 -10 18 -17 15 -13 16 -12 3 4 -13 16 -21 21 -21
13z"/>
<path d="M1900 1681 c0 -6 4 -13 10 -16 6 -3 7 1 4 9 -7 18 -14 21 -14 7z"/>
<path d="M2021 1685 c0 -5 6 -21 14 -35 8 -14 14 -20 14 -15 0 6 -6 21 -14 35
-8 14 -14 21 -14 15z"/>
<path d="M2140 1665 c0 -5 5 -17 10 -25 5 -8 10 -10 10 -5 0 6 -5 17 -10 25
-5 8 -10 11 -10 5z"/>
<path d="M1435 1620 c21 -22 41 -40 44 -40 3 0 -13 18 -34 40 -21 22 -41 40
-44 40 -3 0 13 -18 34 -40z"/>
<path d="M1465 1620 c21 -22 41 -40 44 -40 3 0 -13 18 -34 40 -21 22 -41 40
-44 40 -3 0 13 -18 34 -40z"/>
<path d="M1494 1620 c53 -62 60 -68 48 -45 -6 11 -27 36 -48 55 l-38 35 38
-45z"/>
<path d="M1490 1657 c0 -2 15 -16 33 -33 l32 -29 -29 33 c-28 30 -36 37 -36
29z"/>
<path d="M1908 1621 c13 -31 19 -36 24 -23 5 12 7 13 7 3 1 -8 4 -12 7 -8 3 3
1 14 -5 24 -8 14 -11 15 -11 3 0 -8 -7 -3 -16 13 -22 40 -25 33 -6 -12z"/>
<path d="M1055 1640 c-3 -6 1 -7 9 -4 18 7 21 14 7 14 -6 0 -13 -4 -16 -10z"/>
<path d="M1284 1635 c1 -9 20 -33 42 -56 30 -30 36 -42 25 -48 -10 -7 -10 -10
-1 -16 7 -4 21 -28 32 -52 11 -25 22 -42 25 -39 3 3 -6 26 -21 52 -33 58 -33
68 0 29 17 -19 22 -22 15 -9 -6 12 -34 47 -62 78 -28 31 -47 56 -41 56 26 0
124 -129 155 -205 9 -22 16 -34 16 -27 1 7 -11 38 -25 68 -37 79 -167 216
-160 169z"/>
<path d="M1365 1600 c21 -22 41 -40 44 -40 3 0 -13 18 -34 40 -21 22 -41 40
-44 40 -3 0 13 -18 34 -40z"/>
<path d="M2021 1630 c0 -8 4 -24 9 -35 9 -20 9 -20 9 0 0 11 -4 27 -9 35 -9
13 -10 13 -9 0z"/>
<path d="M1771 1610 c14 -31 19 -36 19 -24 0 6 -7 19 -16 30 -14 18 -14 18 -3
-6z"/>
<path d="M1151 1617 c2 -1 13 -9 24 -17 19 -14 19 -14 6 3 -7 9 -18 17 -24 17
-6 0 -8 -1 -6 -3z"/>
<path d="M1295 1580 c21 -22 41 -40 44 -40 3 0 -13 18 -34 40 -21 22 -41 40
-44 40 -3 0 13 -18 34 -40z"/>
<path d="M1840 1615 c0 -5 5 -17 10 -25 5 -8 10 -10 10 -5 0 6 -5 17 -10 25
-5 8 -10 11 -10 5z"/>
<path d="M2051 1604 c0 -11 3 -14 6 -6 3 7 2 16 -1 19 -3 4 -6 -2 -5 -13z"/>
<path d="M925 1601 c-3 -6 5 -15 17 -21 21 -10 22 -10 5 3 -14 11 -15 16 -5
20 9 4 9 6 1 6 -6 1 -14 -3 -18 -8z"/>
<path d="M1273 1575 c48 -53 48 -69 0 -24 -21 18 -28 22 -15 8 33 -38 27 -47
-9 -13 -30 29 -90 44 -67 17 15 -19 -2 -16 -26 5 -12 9 2 -8 31 -39 43 -47
115 -166 112 -185 0 -3 2 -8 5 -11 30 -31 -43 128 -76 164 -11 12 -17 27 -13
33 4 6 1 17 -5 25 -7 8 -8 15 -3 15 8 0 43 -36 43 -45 0 -2 -8 -1 -17 2 -11 4
-5 -8 16 -34 17 -22 43 -67 56 -99 14 -32 25 -52 25 -44 0 20 -34 94 -60 130
-24 34 -26 47 -3 29 19 -16 84 -151 86 -180 1 -10 5 -19 9 -19 10 0 10 0 -3
41 -17 52 -40 101 -61 132 -11 16 -17 31 -14 34 8 9 11 4 46 -58 16 -30 30
-49 30 -44 0 6 -11 30 -25 54 -28 49 -31 58 -11 42 7 -6 26 -39 41 -72 15 -33
29 -58 32 -55 11 11 -71 146 -115 187 -45 43 -46 43 -9 4z m-68 -35 c3 -5 1
-10 -4 -10 -6 0 -11 5 -11 10 0 6 2 10 4 10 3 0 8 -4 11 -10z"/>
<path d="M1420 1606 c0 -2 8 -10 18 -17 15 -13 16 -12 3 4 -13 16 -21 21 -21
13z"/>
<path d="M970 1586 c0 -2 7 -7 16 -10 8 -3 12 -2 9 4 -6 10 -25 14 -25 6z"/>
<path d="M1011 1587 c2 -1 13 -9 24 -17 19 -14 19 -14 6 3 -7 9 -18 17 -24 17
-6 0 -8 -1 -6 -3z"/>
<path d="M1556 1575 c4 -8 11 -15 16 -15 6 0 5 6 -2 15 -7 8 -14 15 -16 15 -2
0 -1 -7 2 -15z"/>
<path d="M1082 1564 c10 -10 20 -16 22 -13 3 3 -5 11 -17 18 -21 13 -21 12 -5
-5z"/>
<path d="M1951 1564 c0 -11 3 -14 6 -6 3 7 2 16 -1 19 -3 4 -6 -2 -5 -13z"/>
<path d="M2061 1564 c0 -11 3 -14 6 -6 3 7 2 16 -1 19 -3 4 -6 -2 -5 -13z"/>
<path d="M1168 1517 c44 -50 78 -107 105 -177 5 -13 6 -13 6 1 2 33 -60 136
-110 184 l-53 50 52 -58z"/>
<path d="M1460 1561 c0 -6 4 -13 10 -16 6 -3 7 1 4 9 -7 18 -14 21 -14 7z"/>
<path d="M1489 1555 c16 -33 40 -61 41 -47 0 7 5 10 11 6 8 -4 8 0 0 15 -14
25 -23 28 -15 4 4 -11 -5 -5 -20 12 -16 18 -23 22 -17 10z"/>
<path d="M1650 1551 c12 -24 13 -44 1 -37 -5 4 -7 -4 -3 -16 5 -21 6 -21 12
-3 6 17 8 16 18 -10 6 -17 11 -25 11 -18 1 15 -37 103 -44 103 -3 0 -1 -9 5
-19z"/>
<path d="M1932 1560 c-1 -8 5 -42 13 -75 7 -33 14 -49 14 -35 0 14 -6 48 -13
75 -8 28 -14 43 -14 35z"/>
<path d="M2042 1550 c0 -14 2 -19 5 -12 2 6 2 18 0 25 -3 6 -5 1 -5 -13z"/>
<path d="M2126 1554 c-23 -23 -20 -30 4 -9 11 10 20 20 20 22 0 7 -9 2 -24
-13z"/>
<path d="M867 1549 c7 -7 15 -10 18 -7 3 3 -2 9 -12 12 -14 6 -15 5 -6 -5z"/>
<path d="M1917 1525 c17 -107 20 -122 22 -90 0 17 -6 53 -14 80 -13 44 -14 45
-8 10z"/>
<path d="M2022 1540 c0 -14 2 -19 5 -12 2 6 2 18 0 25 -3 6 -5 1 -5 -13z"/>
<path d="M1423 1532 c10 -10 28 -45 42 -78 13 -32 24 -54 25 -47 0 6 -9 33
-20 59 -11 26 -18 49 -16 51 6 6 30 -42 46 -92 7 -22 15 -35 17 -28 5 14 -50
138 -66 147 -7 5 -9 1 -5 -11 5 -17 5 -17 -9 0 -8 9 -18 17 -22 17 -5 0 -1 -8
8 -18z"/>
<path d="M1576 1490 c12 -30 27 -82 33 -114 13 -70 25 -90 15 -26 -6 40 -28
118 -50 174 -5 14 -4 17 4 12 7 -4 12 -3 12 3 0 5 -8 9 -18 8 -18 -1 -18 -4 4
-57z"/>
<path d="M2096 1468 c-42 -45 -76 -86 -76 -91 0 -5 -8 -17 -17 -26 -26 -23
-86 -111 -76 -110 4 0 33 34 63 76 57 79 112 144 168 200 18 18 28 33 23 33
-5 0 -43 -37 -85 -82z"/>
<path d="M1132 1521 c37 -29 78 -93 104 -163 13 -35 22 -52 21 -38 -7 61 -107
220 -139 220 -6 0 0 -9 14 -19z"/>
<path d="M1871 1535 c0 -5 7 -39 14 -75 14 -64 15 -64 9 -12 -4 45 -23 115
-23 87z"/>
<path d="M1962 1525 c0 -11 3 -30 6 -41 6 -18 9 -20 19 -8 10 10 10 15 -1 21
-8 4 -16 17 -19 28 -5 20 -5 20 -5 0z"/>
<path d="M800 1526 c0 -2 11 -6 25 -8 13 -3 22 -1 19 3 -5 9 -44 13 -44 5z"/>
<path d="M885 1515 c11 -9 29 -21 40 -26 20 -10 20 -10 0 6 -11 9 -29 21 -40
26 -20 10 -20 10 0 -6z"/>
<path d="M1496 1498 c9 -17 22 -47 29 -67 8 -20 14 -29 14 -21 1 17 -45 120
-54 120 -3 0 2 -14 11 -32z"/>
<path d="M961 1518 c2 -2 20 -16 39 -33 l35 -30 -29 33 c-17 17 -34 32 -40 32
-5 0 -7 -1 -5 -2z"/>
<path d="M1000 1516 c0 -2 7 -7 16 -10 8 -3 12 -2 9 4 -6 10 -25 14 -25 6z"/>
<path d="M1098 1489 c34 -35 102 -160 102 -187 0 -8 3 -13 6 -9 11 10 -18 81
-57 141 -44 66 -46 71 -23 62 15 -6 15 -4 3 10 -8 10 -15 12 -17 5 -3 -8 -10
-8 -25 1 -16 8 -12 1 11 -23z"/>
<path d="M1614 1445 c12 -40 23 -71 25 -69 6 5 -30 133 -38 139 -4 2 2 -29 13
-70z"/>
<path d="M1691 1515 c1 -19 18 -51 18 -35 0 8 -4 22 -9 30 -5 8 -9 11 -9 5z"/>
<path d="M1766 1495 c14 -58 24 -83 18 -40 -3 22 -10 47 -15 55 -6 10 -7 5 -3
-15z"/>
<path d="M1902 1490 c0 -14 2 -19 5 -12 2 6 2 18 0 25 -3 6 -5 1 -5 -13z"/>
<path d="M871 1497 c2 -1 13 -9 24 -17 19 -14 19 -14 6 3 -7 9 -18 17 -24 17
-6 0 -8 -1 -6 -3z"/>
<path d="M950 1496 c0 -3 9 -10 20 -16 11 -6 20 -8 20 -6 0 3 -9 10 -20 16
-11 6 -20 8 -20 6z"/>
<path d="M1556 1485 c3 -11 11 -39 17 -62 6 -24 14 -43 18 -43 8 0 -15 83 -31
108 -10 15 -11 15 -4 -3z"/>
<path d="M764 1481 c7 -11 46 -35 46 -28 0 3 -12 12 -26 22 -15 9 -23 12 -20
6z"/>
<path d="M882 1456 c20 -20 51 -56 69 -81 18 -25 34 -43 37 -40 7 7 -76 108
-111 134 -29 21 -29 20 5 -13z"/>
<path d="M1057 1458 c32 -33 86 -131 86 -155 0 -7 4 -13 9 -13 12 0 11 5 -23
73 -28 58 -81 127 -96 127 -4 0 7 -15 24 -32z"/>
<path d="M1109 1435 c21 -33 46 -80 55 -105 10 -27 14 -33 10 -15 -8 42 -42
109 -76 148 -21 24 -18 17 11 -28z"/>
<path d="M1531 1490 c0 -3 8 -32 19 -65 12 -33 18 -46 16 -29 -5 29 -33 106
-35 94z"/>
<path d="M1631 1485 c0 -5 6 -32 13 -60 8 -27 14 -41 14 -30 0 21 -25 107 -27
90z"/>
<path d="M829 1467 c14 -18 51 -42 51 -33 0 3 -15 15 -32 27 -24 17 -29 18
-19 6z"/>
<path d="M1157 1455 c28 -41 65 -115 57 -115 -4 0 -2 -6 4 -12 6 -7 11 -17 12
-23 3 -17 10 -19 10 -4 0 24 -65 153 -86 169 -16 13 -16 11 3 -15z"/>
<path d="M1827 1425 c3 -33 7 -62 9 -64 7 -8 2 63 -7 94 -5 20 -6 9 -2 -30z"/>
<path d="M747 1459 c7 -7 15 -10 18 -7 3 3 -2 9 -12 12 -14 6 -15 5 -6 -5z"/>
<path d="M959 1453 c6 -12 15 -23 20 -25 5 -1 26 -30 45 -62 39 -64 48 -69 17
-8 -21 40 -99 132 -82 95z"/>
<path d="M1414 1455 c5 -11 13 -36 18 -55 8 -30 28 -64 28 -49 0 10 -40 112
-46 118 -4 3 -4 -3 0 -14z"/>
<path d="M1667 1435 c6 -40 10 -52 17 -44 2 2 -3 22 -10 44 l-13 40 6 -40z"/>
<path d="M1732 1455 c0 -11 4 -31 8 -45 6 -20 8 -21 8 -5 0 11 -4 31 -8 45 -6
20 -8 21 -8 5z"/>
<path d="M956 1415 c22 -27 46 -62 54 -77 7 -16 15 -26 18 -23 8 8 -45 89 -79
120 -30 28 -29 26 7 -20z"/>
<path d="M1011 1435 c15 -17 34 -45 44 -63 9 -19 19 -32 21 -29 8 7 -40 79
-67 102 -21 17 -21 16 2 -10z"/>
<path d="M1712 1440 c0 -14 2 -19 5 -12 2 6 2 18 0 25 -3 6 -5 1 -5 -13z"/>
<path d="M1912 1430 c0 -19 2 -27 5 -17 2 9 2 25 0 35 -3 9 -5 1 -5 -18z"/>
<path d="M1055 1418 c23 -27 43 -62 50 -90 2 -5 3 -9 4 -10 2 -2 5 -14 7 -27
5 -26 11 -37 18 -30 16 15 -72 189 -95 189 -6 0 1 -14 16 -32z"/>
<path d="M1691 1434 c0 -11 3 -14 6 -6 3 7 2 16 -1 19 -3 4 -6 -2 -5 -13z"/>
<path d="M1871 1408 c-1 -33 1 -36 20 -33 30 6 37 15 11 15 -15 0 -22 8 -25
28 -3 22 -4 20 -6 -10z"/>
<path d="M715 1420 c3 -5 8 -10 11 -10 2 0 4 5 4 10 0 6 -5 10 -11 10 -5 0 -7
-4 -4 -10z"/>
<path d="M760 1418 c0 -10 6 -18 14 -18 13 0 44 -33 66 -70 5 -8 12 -11 16 -8
4 4 -16 31 -45 60 -35 37 -51 48 -51 36z"/>
<path d="M806 1416 c12 -8 38 -40 59 -70 21 -31 40 -54 43 -52 11 11 -92 136
-112 136 -6 0 -1 -7 10 -14z"/>
<path d="M875 1385 c52 -67 61 -76 39 -37 -10 18 -32 45 -49 60 -24 23 -23 19
10 -23z"/>
<path d="M1852 1400 c0 -19 2 -27 5 -17 2 9 2 25 0 35 -3 9 -5 1 -5 -18z"/>
<path d="M898 1404 c6 -11 19 -27 28 -35 16 -13 16 -12 6 7 -6 11 -19 27 -28
35 -16 13 -16 12 -6 -7z"/>
<path d="M1805 1410 c-3 -5 -1 -10 4 -10 6 0 11 5 11 10 0 6 -2 10 -4 10 -3 0
-8 -4 -11 -10z"/>
<path d="M677 1396 c-4 -10 -1 -19 8 -22 8 -4 15 -13 15 -22 0 -12 -6 -10 -26
9 -22 21 -24 21 -18 4 4 -11 12 -23 18 -28 7 -5 5 -11 -7 -18 -9 -6 -15 -14
-12 -20 4 -5 2 -9 -4 -9 -6 0 -15 9 -21 20 -10 18 -7 24 13 21 4 0 7 4 7 9 0
14 -17 12 -26 -2 -13 -21 -11 -48 3 -48 7 0 13 -5 13 -11 0 -6 -9 -9 -20 -6
-22 6 -26 -3 -9 -20 8 -8 8 -13 0 -18 -6 -3 -14 1 -17 9 -3 9 -11 16 -16 16
-6 0 -5 -6 2 -15 10 -12 10 -15 -3 -15 -9 0 -19 -5 -22 -10 -4 -7 2 -9 18 -5
19 5 26 2 29 -12 2 -10 -3 -24 -12 -31 -13 -12 -13 -13 2 -8 10 3 20 1 23 -4
4 -6 1 -10 -4 -10 -6 0 -11 -4 -11 -10 0 -5 7 -7 16 -3 11 4 23 -1 31 -13 15
-19 15 -19 9 1 -7 26 31 75 43 56 6 -9 11 -10 15 -2 4 6 2 11 -3 11 -21 0 -11
19 12 23 19 4 19 4 -5 6 -19 1 -34 -9 -56 -36 l-30 -38 -7 28 c-4 15 -5 37 -1
50 5 21 16 35 87 116 21 24 27 37 19 45 -7 7 -10 6 -10 -2 0 -20 -20 -13 -29
10 -7 18 -8 19 -14 4z"/>
<path d="M740 1396 c0 -9 5 -16 10 -16 6 0 10 4 10 9 0 6 -4 13 -10 16 -5 3
-10 -1 -10 -9z"/>
<path d="M1411 1400 c0 -8 4 -24 9 -35 5 -13 9 -14 9 -5 0 8 -4 24 -9 35 -5
13 -9 14 -9 5z"/>
<path d="M1702 1380 c0 -19 2 -27 5 -17 2 9 2 25 0 35 -3 9 -5 1 -5 -18z"/>
<path d="M1721 1394 c0 -11 3 -14 6 -6 3 7 2 16 -1 19 -3 4 -6 -2 -5 -13z"/>
<path d="M778 1373 c16 -30 15 -38 -3 -23 -10 9 -15 9 -15 1 0 -6 5 -11 11
-11 6 0 9 -6 6 -12 -2 -7 -10 -12 -16 -10 -7 1 -9 -2 -5 -9 4 -7 -1 -18 -11
-26 -11 -7 -15 -13 -9 -13 5 0 -2 -10 -16 -21 -18 -15 -20 -19 -7 -15 10 3 25
6 33 6 9 0 12 5 9 11 -4 6 1 17 11 24 11 8 15 15 10 15 -5 0 -1 9 9 20 10 11
22 17 26 14 5 -3 9 0 9 5 0 6 -4 11 -10 11 -5 0 -10 6 -10 14 0 7 -7 20 -17
27 -15 13 -15 12 -5 -8z"/>
<path d="M1491 1374 c0 -11 3 -14 6 -6 3 7 2 16 -1 19 -3 4 -6 -2 -5 -13z"/>
<path d="M1541 1374 c0 -11 3 -14 6 -6 3 7 2 16 -1 19 -3 4 -6 -2 -5 -13z"/>
<path d="M1792 1360 c0 -19 2 -27 5 -17 2 9 2 25 0 35 -3 9 -5 1 -5 -18z"/>
<path d="M1811 1374 c0 -11 3 -14 6 -6 3 7 2 16 -1 19 -3 4 -6 -2 -5 -13z"/>
<path d="M1471 1364 c0 -11 3 -14 6 -6 3 7 2 16 -1 19 -3 4 -6 -2 -5 -13z"/>
<path d="M1518 1355 c2 -14 8 -23 12 -20 10 6 1 45 -10 45 -4 0 -5 -11 -2 -25z"/>
<path d="M1682 1352 c1 -18 6 -32 10 -32 5 0 5 12 2 28 -10 39 -15 41 -12 4z"/>
<path d="M1401 1354 c0 -11 3 -14 6 -6 3 7 2 16 -1 19 -3 4 -6 -2 -5 -13z"/>
<path d="M1591 1354 c0 -11 3 -14 6 -6 3 7 2 16 -1 19 -3 4 -6 -2 -5 -13z"/>
<path d="M1661 1354 c0 -11 3 -14 6 -6 3 7 2 16 -1 19 -3 4 -6 -2 -5 -13z"/>
<path d="M1721 1363 c0 -5 4 -17 9 -28 8 -17 8 -16 7 8 -1 15 -5 27 -9 27 -4
0 -8 -3 -7 -7z"/>
<path d="M1991 1253 c-69 -100 -81 -123 -81 -158 0 -44 30 -88 53 -79 6 2 30
32 52 67 22 34 42 64 45 67 3 3 14 15 24 28 17 20 17 22 2 22 -9 0 -20 -8 -23
-17 -4 -10 -14 -23 -22 -30 -9 -6 -16 -15 -16 -20 0 -4 -13 -26 -30 -48 -16
-22 -31 -42 -32 -44 -2 -3 -11 2 -19 11 -18 18 -30 83 -14 73 5 -3 7 1 4 9 -6
14 138 216 154 216 33 0 42 -65 16 -106 -20 -30 -10 -46 11 -18 38 50 25 135
-22 142 -17 3 -37 -20 -102 -115z"/>
<path d="M1571 1344 c0 -11 3 -14 6 -6 3 7 2 16 -1 19 -3 4 -6 -2 -5 -13z"/>
<path d="M1638 1335 c2 -14 6 -25 8 -25 2 0 4 11 4 25 0 14 -4 25 -9 25 -4 0
-6 -11 -3 -25z"/>
<path d="M1835 1351 l-30 -7 31 -5 c18 -3 35 0 43 8 13 15 7 15 -44 4z"/>
<path d="M735 1340 c3 -5 8 -10 11 -10 2 0 4 5 4 10 0 6 -5 10 -11 10 -5 0 -7
-4 -4 -10z"/>
<path d="M940 1343 c1 -13 30 -48 30 -36 0 7 -5 15 -10 18 -6 4 -8 11 -5 16 4
5 1 9 -4 9 -6 0 -11 -3 -11 -7z"/>
<path d="M1503 1328 c1 -16 5 -28 9 -28 10 0 9 9 -2 35 -8 17 -8 16 -7 -7z"/>
<path d="M1552 1325 c0 -16 2 -22 5 -12 2 9 2 23 0 30 -3 6 -5 -1 -5 -18z"/>
<path d="M1751 1334 c0 -11 3 -14 6 -6 3 7 2 16 -1 19 -3 4 -6 -2 -5 -13z"/>
<path d="M1381 1324 c0 -11 3 -14 6 -6 3 7 2 16 -1 19 -3 4 -6 -2 -5 -13z"/>
<path d="M1430 1314 c0 -14 4 -23 9 -20 5 3 7 15 4 26 -7 28 -13 25 -13 -6z"/>
<path d="M1482 1307 c1 -20 6 -37 10 -37 4 0 5 15 1 33 -8 46 -14 48 -11 4z"/>
<path d="M1841 1314 c0 -11 3 -14 6 -6 3 7 2 16 -1 19 -3 4 -6 -2 -5 -13z"/>
<path d="M990 1309 c0 -5 5 -7 10 -4 6 3 10 8 10 11 0 2 -4 4 -10 4 -5 0 -10
-5 -10 -11z"/>
<path d="M1774 1308 c-3 -4 2 -8 10 -8 10 0 16 -13 19 -37 3 -36 4 -36 5 8 2
35 -2 46 -13 46 -9 0 -18 -4 -21 -9z"/>
<path d="M1822 1290 c0 -19 2 -27 5 -17 2 9 2 25 0 35 -3 9 -5 1 -5 -18z"/>
<path d="M701 1301 c-9 -6 -5 -8 13 -8 14 0 26 3 26 8 0 11 -21 11 -39 0z"/>
<path d="M865 1290 c9 -30 13 -35 21 -27 3 3 -2 16 -11 29 l-17 23 7 -25z"/>
<path d="M925 1300 c3 -5 8 -10 11 -10 2 0 4 5 4 10 0 6 -5 10 -11 10 -5 0 -7
-4 -4 -10z"/>
<path d="M1733 1293 c1 -23 37 -34 37 -12 0 5 -4 8 -9 4 -6 -3 -14 3 -20 12
-9 16 -10 15 -8 -4z"/>
<path d="M795 1290 c-3 -5 -1 -10 4 -10 6 0 11 5 11 10 0 6 -2 10 -4 10 -3 0
-8 -4 -11 -10z"/>
<path d="M832 1280 c7 -11 16 -20 20 -20 5 0 3 9 -4 20 -7 11 -16 20 -20 20
-5 0 -3 -9 4 -20z"/>
<path d="M1055 1290 c-3 -5 -1 -10 4 -10 6 0 11 5 11 10 0 6 -2 10 -4 10 -3 0
-8 -4 -11 -10z"/>
<path d="M1085 1290 c3 -5 8 -10 11 -10 2 0 4 5 4 10 0 6 -5 10 -11 10 -5 0
-7 -4 -4 -10z"/>
<path d="M1312 1276 c1 -14 5 -23 9 -20 7 4 0 44 -7 44 -2 0 -3 -11 -2 -24z"/>
<path d="M1000 1279 c0 -5 5 -7 10 -4 6 3 10 8 10 11 0 2 -4 4 -10 4 -5 0 -10
-5 -10 -11z"/>
<path d="M1280 1283 c0 -5 5 -15 10 -23 7 -12 9 -10 7 8 -1 19 -17 33 -17 15z"/>
<path d="M1783 1255 c0 -22 2 -30 4 -17 2 12 2 30 0 40 -3 9 -5 -1 -4 -23z"/>
<path d="M905 1270 c-3 -5 -1 -10 4 -10 6 0 11 5 11 10 0 6 -2 10 -4 10 -3 0
-8 -4 -11 -10z"/>
<path d="M935 1270 c3 -5 8 -10 11 -10 2 0 4 5 4 10 0 6 -5 10 -11 10 -5 0 -7
-4 -4 -10z"/>
<path d="M1150 1269 c0 -5 5 -7 10 -4 6 3 10 8 10 11 0 2 -4 4 -10 4 -5 0 -10
-5 -10 -11z"/>
<path d="M1410 1269 c0 -5 5 -7 10 -4 6 3 10 8 10 11 0 2 -4 4 -10 4 -5 0 -10
-5 -10 -11z"/>
<path d="M1463 1261 c0 -11 5 -18 9 -15 4 3 5 11 1 19 -7 21 -12 19 -10 -4z"/>
<path d="M1713 1263 c0 -12 4 -20 8 -17 4 2 12 -4 18 -13 9 -16 10 -16 8 4 0
12 -4 20 -8 17 -4 -2 -12 4 -18 13 -9 16 -10 16 -8 -4z"/>
<path d="M660 1258 c0 -10 18 -9 45 2 16 6 14 8 -12 7 -18 0 -33 -4 -33 -9z"/>
<path d="M805 1260 c-3 -5 -1 -10 4 -10 6 0 11 5 11 10 0 6 -2 10 -4 10 -3 0
-8 -4 -11 -10z"/>
<path d="M1035 1260 c-3 -5 -1 -10 4 -10 6 0 11 5 11 10 0 6 -2 10 -4 10 -3 0
-8 -4 -11 -10z"/>
<path d="M1065 1260 c-3 -5 -1 -10 4 -10 6 0 11 5 11 10 0 6 -2 10 -4 10 -3 0
-8 -4 -11 -10z"/>
<path d="M1097 1250 c3 -11 7 -20 9 -20 2 0 4 9 4 20 0 11 -4 20 -9 20 -5 0
-7 -9 -4 -20z"/>
<path d="M1600 1261 c0 -5 9 -7 20 -4 11 3 20 7 20 9 0 2 -9 4 -20 4 -11 0
-20 -4 -20 -9z"/>
<path d="M775 1250 c3 -5 8 -10 11 -10 2 0 4 5 4 10 0 6 -5 10 -11 10 -5 0 -7
-4 -4 -10z"/>
<path d="M1013 1242 c0 -12 5 -22 9 -22 11 0 10 12 -2 30 -7 12 -9 10 -7 -8z"/>
<path d="M1263 1240 c1 -11 5 -20 9 -20 3 0 6 9 5 20 -1 11 -5 20 -9 20 -3 0
-6 -9 -5 -20z"/>
<path d="M1513 1244 c1 -20 37 -33 37 -13 0 6 -4 8 -9 4 -6 -3 -14 3 -20 12
-9 16 -10 16 -8 -3z"/>
<path d="M885 1240 c-3 -5 -1 -10 4 -10 6 0 11 5 11 10 0 6 -2 10 -4 10 -3 0
-8 -4 -11 -10z"/>
<path d="M1390 1239 c0 -5 5 -7 10 -4 6 3 10 8 10 11 0 2 -4 4 -10 4 -5 0 -10
-5 -10 -11z"/>
<path d="M660 1230 c-23 -7 -23 -8 -3 -9 12 -1 25 4 28 9 3 6 5 10 3 9 -2 -1
-14 -5 -28 -9z"/>
<path d="M820 1229 c0 -5 5 -7 10 -4 6 3 10 8 10 11 0 2 -4 4 -10 4 -5 0 -10
-5 -10 -11z"/>
<path d="M855 1230 c3 -5 8 -10 11 -10 2 0 4 5 4 10 0 6 -5 10 -11 10 -5 0 -7
-4 -4 -10z"/>
<path d="M1045 1230 c-3 -5 -1 -10 4 -10 6 0 11 5 11 10 0 6 -2 10 -4 10 -3 0
-8 -4 -11 -10z"/>
<path d="M1070 1233 c0 -5 5 -15 10 -23 7 -12 9 -10 7 8 -1 19 -17 33 -17 15z"/>
<path d="M1290 1229 c0 -5 5 -7 10 -4 6 3 10 8 10 11 0 2 -4 4 -10 4 -5 0 -10
-5 -10 -11z"/>
<path d="M1562 1220 c0 -14 2 -19 5 -12 2 6 2 18 0 25 -3 6 -5 1 -5 -13z"/>
<path d="M1583 1223 c0 -12 4 -20 8 -17 4 2 10 0 14 -6 4 -6 -4 -10 -19 -10
-18 0 -24 -5 -23 -19 0 -11 4 -18 8 -15 4 2 10 0 14 -6 3 -5 -2 -10 -12 -11
-14 0 -15 -2 -3 -6 8 -3 18 -11 23 -17 4 -6 6 3 5 21 -1 17 -5 30 -9 27 -4 -2
-10 0 -14 6 -4 6 4 10 19 10 18 0 24 5 23 19 0 11 -4 18 -8 15 -4 -2 -12 4
-18 13 -9 16 -10 16 -8 -4z"/>
<path d="M755 1220 c-4 -7 3 -8 22 -4 38 9 42 14 10 14 -14 0 -29 -5 -32 -10z"/>
<path d="M955 1220 c-3 -5 -1 -10 4 -10 6 0 11 5 11 10 0 6 -2 10 -4 10 -3 0
-8 -4 -11 -10z"/>
<path d="M985 1220 c3 -5 8 -10 11 -10 2 0 4 5 4 10 0 6 -5 10 -11 10 -5 0 -7
-4 -4 -10z"/>
<path d="M1244 1206 c3 -16 8 -31 11 -35 3 -3 4 7 1 23 -3 16 -8 31 -11 35 -3
3 -4 -7 -1 -23z"/>
<path d="M1907 1223 c-4 -3 -7 -11 -7 -17 0 -6 5 -5 12 2 6 6 9 14 7 17 -3 3
-9 2 -12 -2z"/>
<path d="M929 1207 c6 -8 8 -17 4 -20 -3 -4 -1 -7 5 -7 14 0 14 2 6 24 -3 9
-11 16 -16 16 -7 0 -6 -5 1 -13z"/>
<path d="M1136 1212 c-2 -4 -1 -14 4 -22 7 -11 9 -9 7 8 -1 24 -3 26 -11 14z"/>
<path d="M1345 1210 c-3 -5 -1 -10 4 -10 6 0 11 5 11 10 0 6 -2 10 -4 10 -3 0
-8 -4 -11 -10z"/>
<path d="M1824 1198 l-19 -23 23 19 c21 18 27 26 19 26 -2 0 -12 -10 -23 -22z"/>
<path d="M795 1200 c-3 -5 -1 -10 4 -10 6 0 11 5 11 10 0 6 -2 10 -4 10 -3 0
-8 -4 -11 -10z"/>
<path d="M834 1194 c3 -9 6 -18 6 -20 0 -2 5 -4 11 -4 8 0 9 4 0 13 -6 8 -8
17 -4 20 3 4 1 7 -6 7 -8 0 -11 -6 -7 -16z"/>
<path d="M1020 1199 c0 -5 5 -7 10 -4 6 3 10 8 10 11 0 2 -4 4 -10 4 -5 0 -10
-5 -10 -11z"/>
<path d="M1053 1190 c1 -11 5 -20 9 -20 3 0 6 9 5 20 -1 11 -5 20 -9 20 -3 0
-6 -9 -5 -20z"/>
<path d="M1490 1199 c0 -5 5 -7 10 -4 6 3 10 8 10 11 0 2 -4 4 -10 4 -5 0 -10
-5 -10 -11z"/>
<path d="M1716 1202 c-2 -4 -1 -14 5 -22 7 -12 9 -10 9 8 0 23 -5 28 -14 14z"/>
<path d="M769 1187 c6 -8 8 -17 4 -20 -3 -4 -1 -7 5 -7 14 0 14 2 6 24 -3 9
-11 16 -16 16 -7 0 -6 -5 1 -13z"/>
<path d="M960 1193 c0 -5 5 -15 10 -23 7 -12 9 -10 7 8 -1 19 -17 33 -17 15z"/>
<path d="M1165 1190 c-3 -5 -1 -10 4 -10 6 0 11 5 11 10 0 6 -2 10 -4 10 -3 0
-8 -4 -11 -10z"/>
<path d="M1194 1174 c7 -39 17 -43 14 -6 -1 18 -6 32 -10 32 -5 0 -6 -12 -4
-26z"/>
<path d="M1396 1192 c-2 -4 -1 -14 5 -22 7 -12 9 -10 9 8 0 23 -5 28 -14 14z"/>
<path d="M1423 1181 c0 -11 4 -18 8 -15 4 2 12 -4 18 -13 9 -16 10 -16 8 4 0
12 -4 20 -8 17 -4 -2 -10 0 -13 5 -4 5 2 12 11 14 14 4 13 5 -4 6 -16 1 -21
-4 -20 -18z"/>
<path d="M870 1180 c0 -5 5 -10 10 -10 6 0 10 5 10 10 0 6 -4 10 -10 10 -5 0
-10 -4 -10 -10z"/>
<path d="M1113 1170 c1 -11 5 -20 9 -20 3 0 6 9 5 20 -1 11 -5 20 -9 20 -3 0
-6 -9 -5 -20z"/>
<path d="M1329 1188 c-6 -20 -5 -38 2 -49 6 -10 8 -4 7 19 -2 27 -6 40 -9 30z"/>
<path d="M1505 1180 c-19 -8 -19 -9 3 -9 12 -1 22 4 22 9 0 6 -1 10 -2 9 -2 0
-12 -4 -23 -9z"/>
<path d="M1741 1174 c0 -11 3 -14 6 -6 3 7 2 16 -1 19 -3 4 -6 -2 -5 -13z"/>
<path d="M1872 1165 c-12 -15 -24 -35 -27 -46 -4 -11 -23 -47 -44 -82 -42 -69
-91 -170 -91 -186 0 -6 -5 -11 -11 -11 -5 0 -8 -4 -5 -8 3 -5 -6 -27 -19 -50
-13 -23 -19 -44 -14 -47 12 -8 31 4 24 14 -11 18 87 225 101 213 4 -4 4 -2 1
5 -7 10 52 124 95 186 26 36 17 46 -10 12z"/>
<path d="M810 1169 c0 -5 5 -7 10 -4 6 3 10 8 10 11 0 2 -4 4 -10 4 -5 0 -10
-5 -10 -11z"/>
<path d="M1220 1175 c0 -5 5 -17 10 -25 5 -8 10 -10 10 -5 0 6 -5 17 -10 25
-5 8 -10 11 -10 5z"/>
<path d="M1472 1160 c0 -14 2 -19 5 -12 2 6 2 18 0 25 -3 6 -5 1 -5 -13z"/>
<path d="M1679 1176 c-6 -7 -5 -35 1 -31 5 3 11 1 15 -5 3 -6 -4 -10 -18 -10
-21 0 -24 -5 -23 -29 0 -16 4 -27 8 -25 3 2 9 0 13 -6 3 -5 -2 -10 -12 -11
-11 0 -13 -3 -5 -6 19 -8 44 17 32 32 -5 6 -6 16 -2 20 4 5 2 5 -5 1 -6 -3
-14 -2 -18 4 -3 5 3 10 13 10 11 0 22 -7 26 -15 3 -8 13 -15 23 -15 17 1 17 1
0 11 -15 9 -16 13 -6 25 10 12 10 15 -2 12 -9 -2 -14 5 -13 18 1 11 -5 21 -12
21 -8 0 -14 -1 -15 -1z m2 -93 c13 -16 12 -17 -3 -4 -17 13 -22 21 -14 21 2 0
10 -8 17 -17z"/>
<path d="M545 1160 c-3 -5 -2 -10 4 -10 5 0 13 5 16 10 3 6 2 10 -4 10 -5 0
-13 -4 -16 -10z"/>
<path d="M740 1159 c0 -5 5 -7 10 -4 6 3 10 8 10 11 0 2 -4 4 -10 4 -5 0 -10
-5 -10 -11z"/>
<path d="M910 1159 c0 -5 5 -7 10 -4 6 3 10 8 10 11 0 2 -4 4 -10 4 -5 0 -10
-5 -10 -11z"/>
<path d="M943 1150 c1 -11 5 -20 9 -20 3 0 6 9 5 20 -1 11 -5 20 -9 20 -3 0
-6 -9 -5 -20z"/>
<path d="M1140 1163 c0 -5 5 -15 10 -23 7 -12 9 -10 7 8 -1 19 -17 33 -17 15z"/>
<path d="M1353 1151 c0 -11 5 -18 9 -15 4 3 5 11 1 19 -7 21 -12 19 -10 -4z"/>
<path d="M2488 1160 c-15 -4 -29 -6 -32 -3 -3 3 -8 -2 -12 -11 -4 -10 -1 -23
5 -29 9 -9 11 -8 5 7 -5 13 -4 17 4 12 7 -4 12 -3 12 2 0 12 59 24 74 15 6 -4
19 -6 29 -5 12 2 17 -4 17 -22 0 -42 17 -38 18 4 l2 40 -48 -1 c-26 0 -59 -4
-74 -9z"/>
<path d="M850 1149 c0 -5 5 -7 10 -4 6 3 10 8 10 11 0 2 -4 4 -10 4 -5 0 -10
-5 -10 -11z"/>
<path d="M1035 1150 c-3 -5 -1 -10 4 -10 6 0 11 5 11 10 0 6 -2 10 -4 10 -3 0
-8 -4 -11 -10z"/>
<path d="M1063 1140 c1 -11 5 -20 9 -20 3 0 6 9 5 20 -1 11 -5 20 -9 20 -3 0
-6 -9 -5 -20z"/>
<path d="M1282 1140 c0 -14 2 -19 5 -12 2 6 2 18 0 25 -3 6 -5 1 -5 -13z"/>
<path d="M976 1142 c-2 -4 -1 -14 5 -22 7 -12 9 -10 9 8 0 23 -5 28 -14 14z"/>
<path d="M1179 1148 c-6 -21 -5 -38 1 -38 5 0 8 9 7 20 -1 17 -5 26 -8 18z"/>
<path d="M1404 1121 c0 -17 4 -31 9 -31 4 0 5 12 3 26 -7 38 -14 40 -12 5z"/>
<path d="M1612 1130 c0 -14 2 -19 5 -12 2 6 2 18 0 25 -3 6 -5 1 -5 -13z"/>
<path d="M2393 1143 c9 -2 23 -2 30 0 6 3 -1 5 -18 5 -16 0 -22 -2 -12 -5z"/>
<path d="M525 1130 c-3 -5 -1 -10 4 -10 6 0 11 5 11 10 0 6 -2 10 -4 10 -3 0
-8 -4 -11 -10z"/>
<path d="M720 1129 c0 -5 5 -7 10 -4 6 3 10 8 10 11 0 2 -4 4 -10 4 -5 0 -10
-5 -10 -11z"/>
<path d="M885 1130 c-3 -5 -1 -10 4 -10 6 0 11 5 11 10 0 6 -2 10 -4 10 -3 0
-8 -4 -11 -10z"/>
<path d="M1099 1138 c-6 -21 -5 -38 1 -38 5 0 8 9 7 20 -1 17 -5 26 -8 18z"/>
<path d="M1309 1138 c-6 -20 -5 -38 2 -49 6 -10 8 -4 7 19 -2 27 -6 40 -9 30z"/>
<path d="M1502 1120 c0 -14 2 -19 5 -12 2 6 2 18 0 25 -3 6 -5 1 -5 -13z"/>
<path d="M1522 1120 c0 -14 2 -19 5 -12 2 6 2 18 0 25 -3 6 -5 1 -5 -13z"/>
<path d="M1542 1113 c1 -18 5 -30 9 -27 4 2 6 14 4 26 -7 34 -16 35 -13 1z"/>
<path d="M485 1120 c-3 -5 -1 -10 4 -10 6 0 11 5 11 10 0 6 -2 10 -4 10 -3 0
-8 -4 -11 -10z"/>
<path d="M820 1119 c0 -5 5 -7 10 -4 6 3 10 8 10 11 0 2 -4 4 -10 4 -5 0 -10
-5 -10 -11z"/>
<path d="M1209 1128 c-6 -21 -5 -38 1 -38 5 0 8 9 7 20 -1 17 -5 26 -8 18z"/>
<path d="M1230 1109 c0 -11 4 -18 10 -14 5 3 7 12 3 20 -7 21 -13 19 -13 -6z"/>
<path d="M1432 1110 c0 -14 2 -19 5 -12 2 6 2 18 0 25 -3 6 -5 1 -5 -13z"/>
<path d="M575 1110 c-3 -5 -1 -10 4 -10 6 0 11 5 11 10 0 6 -2 10 -4 10 -3 0
-8 -4 -11 -10z"/>
<path d="M763 1100 c1 -11 5 -20 9 -20 3 0 6 9 5 20 -1 11 -5 20 -9 20 -3 0
-6 -9 -5 -20z"/>
<path d="M923 1100 c1 -11 5 -20 9 -20 3 0 6 9 5 20 -1 11 -5 20 -9 20 -3 0
-6 -9 -5 -20z"/>
<path d="M953 1100 c1 -11 5 -20 9 -20 3 0 6 9 5 20 -1 11 -5 20 -9 20 -3 0
-6 -9 -5 -20z"/>
<path d="M1129 1118 c-6 -21 -5 -38 1 -38 5 0 8 9 7 20 -1 17 -5 26 -8 18z"/>
<path d="M1333 1101 c0 -11 5 -18 9 -15 4 3 5 11 1 19 -7 21 -12 19 -10 -4z"/>
<path d="M538 1103 c7 -3 16 -2 19 1 4 3 -2 6 -13 5 -11 0 -14 -3 -6 -6z"/>
<path d="M690 1099 c0 -5 5 -7 10 -4 6 3 10 8 10 11 0 2 -4 4 -10 4 -5 0 -10
-5 -10 -11z"/>
<path d="M863 1090 c1 -11 5 -20 9 -20 3 0 6 9 5 20 -1 11 -5 20 -9 20 -3 0
-6 -9 -5 -20z"/>
<path d="M1043 1090 c1 -11 5 -20 9 -20 3 0 6 9 5 20 -1 11 -5 20 -9 20 -3 0
-6 -9 -5 -20z"/>
<path d="M1454 1081 c0 -16 4 -27 8 -25 3 2 9 0 12 -5 4 -5 -2 -12 -11 -14
-14 -4 -12 -5 5 -6 19 -1 22 4 20 28 -1 16 -5 28 -9 25 -4 -2 -10 0 -13 5 -4
5 2 12 11 14 14 4 14 5 -3 6 -18 1 -21 -4 -20 -28z"/>
<path d="M2527 1104 c-1 -1 -31 -5 -67 -8 -108 -9 -110 -10 -110 -70 0 -55 13
-78 38 -68 12 4 14 1 7 -14 -4 -10 -9 -38 -10 -61 -2 -22 -6 -46 -9 -52 -9
-14 -4 -14 70 0 100 17 94 11 94 93 l0 73 -82 -14 c-46 -7 -87 -11 -93 -9 -5
3 -1 5 10 6 20 1 20 1 0 10 -13 6 -2 8 35 5 42 -4 50 -3 35 5 -17 9 -16 9 9 5
40 -8 86 4 86 21 0 10 -7 14 -17 11 -10 -3 -40 -8 -68 -12 -27 -3 -58 -8 -67
-11 -14 -4 -18 1 -18 25 0 29 3 31 38 32 57 2 85 5 114 13 27 8 27 8 30 -50 2
-31 8 -59 13 -61 10 -3 10 66 0 113 -4 17 -27 28 -38 18z m-3 -156 c-3 -5 -10
-6 -15 -2 -12 7 -49 -24 -49 -41 0 -7 11 -15 25 -17 14 -3 25 -1 25 3 0 5 5 9
10 9 13 0 13 -27 -1 -35 -17 -11 -89 -15 -89 -6 0 5 5 11 12 13 18 6 0 28 -23
28 -17 0 -18 -3 -8 -21 12 -22 -3 -51 -18 -34 -5 4 -2 10 4 12 10 3 10 10 2
24 -5 11 -7 29 -4 40 7 21 71 53 92 45 7 -3 15 0 19 6 4 7 9 6 15 -3 4 -7 5
-17 3 -21z m-10 -27 c3 -5 -4 -11 -16 -14 -25 -7 -33 -3 -23 12 8 13 32 14 39
2z"/>
<path d="M2410 924 c-10 -12 -8 -14 14 -14 28 0 35 14 12 23 -8 3 -20 -1 -26
-9z"/>
<path d="M488 1093 c7 -3 16 -2 19 1 4 3 -2 6 -13 5 -11 0 -14 -3 -6 -6z"/>
<path d="M623 1080 c1 -11 5 -20 9 -20 3 0 6 9 5 20 -1 11 -5 20 -9 20 -3 0
-6 -9 -5 -20z"/>
<path d="M803 1082 c0 -12 5 -22 9 -22 11 0 10 12 -2 30 -7 12 -9 10 -7 -8z"/>
<path d="M1159 1098 c-6 -21 -5 -38 1 -38 5 0 8 9 7 20 -1 17 -5 26 -8 18z"/>
<path d="M545 1080 c-3 -5 -1 -10 4 -10 6 0 11 5 11 10 0 6 -2 10 -4 10 -3 0
-8 -4 -11 -10z"/>
<path d="M733 1070 c1 -11 5 -20 9 -20 3 0 6 9 5 20 -1 11 -5 20 -9 20 -3 0
-6 -9 -5 -20z"/>
<path d="M900 1069 c0 -11 4 -18 10 -14 5 3 7 12 3 20 -7 21 -13 19 -13 -6z"/>
<path d="M1073 1070 c1 -11 5 -20 9 -20 3 0 6 9 5 20 -1 11 -5 20 -9 20 -3 0
-6 -9 -5 -20z"/>
<path d="M1262 1070 c0 -14 2 -19 5 -12 2 6 2 18 0 25 -3 6 -5 1 -5 -13z"/>
<path d="M1284 1058 c2 -23 -2 -35 -13 -40 -12 -5 -11 -7 6 -7 20 -1 22 3 20
39 -1 22 -5 40 -9 40 -3 0 -5 -15 -4 -32z"/>
<path d="M505 1070 c-3 -5 -2 -10 4 -10 5 0 13 5 16 10 3 6 2 10 -4 10 -5 0
-13 -4 -16 -10z"/>
<path d="M660 1069 c0 -5 5 -7 10 -4 6 3 10 8 10 11 0 2 -4 4 -10 4 -5 0 -10
-5 -10 -11z"/>
<path d="M1183 1060 c1 -21 10 -18 13 5 1 8 -2 15 -6 15 -5 0 -8 -9 -7 -20z"/>
<path d="M1384 1051 c0 -16 5 -29 10 -28 5 1 13 -9 17 -23 7 -23 7 -23 8 8 1
21 -3 31 -11 30 -8 -2 -13 6 -12 20 1 12 -2 22 -6 22 -4 0 -7 -13 -6 -29z"/>
<path d="M1555 1071 c-20 -8 -20 -8 0 -13 15 -5 14 -6 -8 -7 -24 -1 -27 -5
-25 -30 1 -16 5 -29 8 -28 3 1 5 -2 5 -8 0 -5 -3 -9 -6 -8 -3 1 -6 -4 -6 -12
0 -8 5 -13 11 -12 6 1 10 -8 10 -20 -1 -12 3 -21 9 -20 7 1 10 -13 8 -37 -2
-33 -1 -37 12 -25 11 10 12 16 3 21 -6 4 5 8 24 9 l35 2 -35 7 c-31 7 -32 7
-7 9 19 1 27 6 26 19 0 10 -3 12 -6 5 -2 -7 -14 -13 -24 -13 -11 0 -17 5 -14
10 4 6 1 9 -7 8 -9 -2 -13 10 -12 39 0 23 -3 40 -7 37 -4 -2 -10 0 -14 6 -3 5
2 10 12 11 16 0 16 1 -2 9 -18 8 -17 9 8 9 20 1 27 6 27 21 0 11 -1 20 -2 19
-2 0 -12 -4 -23 -8z"/>
<path d="M1593 1040 c0 -25 2 -35 4 -22 2 12 2 32 0 45 -2 12 -4 2 -4 -23z"/>
<path d="M1613 1040 c0 -25 2 -35 4 -22 2 12 2 32 0 45 -2 12 -4 2 -4 -23z"/>
<path d="M2591 1008 c-1 -40 1 -69 5 -66 9 10 13 127 4 133 -4 2 -8 -28 -9
-67z"/>
<path d="M469 1057 c6 -8 8 -17 4 -20 -3 -4 -1 -7 5 -7 14 0 14 2 6 24 -3 9
-11 16 -16 16 -7 0 -6 -5 1 -13z"/>
<path d="M590 1059 c0 -5 5 -7 10 -4 6 3 10 8 10 11 0 2 -4 4 -10 4 -5 0 -10
-5 -10 -11z"/>
<path d="M773 1050 c1 -11 5 -20 9 -20 3 0 6 9 5 20 -1 11 -5 20 -9 20 -3 0
-6 -9 -5 -20z"/>
<path d="M933 1051 c0 -11 5 -18 9 -15 4 3 5 11 1 19 -7 21 -12 19 -10 -4z"/>
<path d="M1104 1040 c0 -16 4 -30 7 -30 4 0 6 14 5 30 0 17 -4 30 -7 30 -4 0
-6 -13 -5 -30z"/>
<path d="M1502 1040 c0 -19 2 -27 5 -17 2 9 2 25 0 35 -3 9 -5 1 -5 -18z"/>
<path d="M520 1050 c-9 -6 -10 -10 -3 -10 6 0 15 5 18 10 8 12 4 12 -15 0z"/>
<path d="M655 1050 l-30 -8 27 -1 c15 0 30 4 33 9 3 6 5 9 3 9 -2 -1 -16 -5
-33 -9z"/>
<path d="M840 1049 c0 -5 5 -7 10 -4 6 3 10 8 10 11 0 2 -4 4 -10 4 -5 0 -10
-5 -10 -11z"/>
<path d="M1212 1040 c0 -14 2 -19 5 -12 2 6 2 18 0 25 -3 6 -5 1 -5 -13z"/>
<path d="M964 1020 c0 -16 4 -30 7 -30 4 0 6 14 5 30 0 17 -4 30 -7 30 -4 0
-6 -13 -5 -30z"/>
<path d="M1134 1021 c0 -16 3 -27 6 -25 7 8 7 54 0 54 -4 0 -7 -13 -6 -29z"/>
<path d="M1312 1030 c0 -14 2 -19 5 -12 2 6 2 18 0 25 -3 6 -5 1 -5 -13z"/>
<path d="M435 1030 c-3 -6 1 -7 9 -4 18 7 21 14 7 14 -6 0 -13 -4 -16 -10z"/>
<path d="M560 1029 c0 -5 5 -7 10 -4 6 3 10 8 10 11 0 2 -4 4 -10 4 -5 0 -10
-5 -10 -11z"/>
<path d="M598 1033 c7 -3 16 -2 19 1 4 3 -2 6 -13 5 -11 0 -14 -3 -6 -6z"/>
<path d="M713 1020 c1 -11 5 -20 9 -20 3 0 6 9 5 20 -1 11 -5 20 -9 20 -3 0
-6 -9 -5 -20z"/>
<path d="M1054 1011 c0 -16 4 -27 8 -25 4 2 5 14 3 26 -7 32 -13 32 -11 -1z"/>
<path d="M1432 1010 c0 -19 2 -27 5 -17 2 9 2 25 0 35 -3 9 -5 1 -5 -18z"/>
<path d="M1631 988 c1 -30 4 -41 6 -25 2 15 8 25 13 22 4 -3 14 3 21 12 8 9
10 14 4 11 -5 -3 -16 0 -22 7 -10 11 -7 15 20 18 31 4 31 4 -5 5 l-38 2 1 -52z"/>
<path d="M1725 1029 c-4 -6 -5 -12 -2 -15 2 -3 7 2 10 11 7 17 1 20 -8 4z"/>
<path d="M813 1010 c1 -11 5 -20 9 -20 3 0 6 9 5 20 -1 11 -5 20 -9 20 -3 0
-6 -9 -5 -20z"/>
<path d="M1339 1028 c-6 -14 -3 -78 3 -78 4 0 7 18 5 40 -2 35 -4 46 -8 38z"/>
<path d="M440 1010 c-9 -6 -10 -10 -3 -10 6 0 15 5 18 10 8 12 4 12 -15 0z"/>
<path d="M906 1012 c-2 -4 -1 -14 4 -22 7 -11 9 -9 7 8 -1 24 -3 26 -11 14z"/>
<path d="M1239 1018 c-6 -21 -5 -38 1 -38 5 0 8 9 7 20 -1 17 -5 26 -8 18z"/>
<path d="M1458 1013 c6 -2 18 -2 25 0 6 3 1 5 -13 5 -14 0 -19 -2 -12 -5z"/>
<path d="M406 1001 c-4 -6 -2 -11 4 -11 6 0 9 -4 6 -8 -3 -5 9 -6 27 -3 29 5
30 6 7 9 -14 2 -28 9 -31 14 -4 7 -9 6 -13 -1z"/>
<path d="M525 1000 c-3 -5 -2 -10 4 -10 5 0 13 5 16 10 3 6 2 10 -4 10 -5 0
-13 -4 -16 -10z"/>
<path d="M683 990 c1 -11 5 -20 9 -20 3 0 6 9 5 20 -1 11 -5 20 -9 20 -3 0 -6
-9 -5 -20z"/>
<path d="M999 1008 c-6 -21 -5 -38 1 -38 5 0 8 9 7 20 -1 17 -5 26 -8 18z"/>
<path d="M1162 990 c0 -14 2 -19 5 -12 2 6 2 18 0 25 -3 6 -5 1 -5 -13z"/>
<path d="M2204 994 c-18 -15 -18 -15 3 -5 75 37 136 -30 136 -149 0 -63 -22
-158 -30 -132 -5 13 -23 7 -23 -9 0 -6 5 -7 10 -4 19 12 10 -9 -17 -38 -26
-28 -26 -29 -5 -17 29 14 73 107 80 166 15 133 -79 248 -154 188z"/>
<path d="M613 980 c1 -11 5 -20 9 -20 3 0 6 9 5 20 -1 11 -5 20 -9 20 -3 0 -6
-9 -5 -20z"/>
<path d="M753 980 c1 -11 5 -20 9 -20 3 0 6 9 5 20 -1 11 -5 20 -9 20 -3 0 -6
-9 -5 -20z"/>
<path d="M1084 971 c0 -16 3 -27 6 -25 7 8 7 54 0 54 -4 0 -7 -13 -6 -29z"/>
<path d="M1264 961 c0 -22 3 -37 6 -35 7 8 7 74 0 74 -4 0 -7 -18 -6 -39z"/>
<path d="M1459 998 c-1 -2 -2 -24 -3 -50 -2 -34 1 -45 9 -38 7 6 14 8 17 5 2
-3 5 2 5 9 0 8 -5 14 -11 13 -6 -1 -11 12 -10 31 0 27 -3 40 -7 30z"/>
<path d="M853 970 c1 -21 10 -18 13 5 1 8 -2 15 -6 15 -5 0 -8 -9 -7 -20z"/>
<path d="M1185 981 c-3 -5 -2 -12 3 -15 5 -3 9 1 9 9 0 17 -3 19 -12 6z"/>
<path d="M1363 950 c0 -25 2 -35 4 -22 2 12 2 32 0 45 -2 12 -4 2 -4 -23z"/>
<path d="M1703 971 c0 -11 5 -18 9 -15 4 3 5 11 1 19 -7 21 -12 19 -10 -4z"/>
<path d="M503 960 c1 -11 5 -20 9 -20 3 0 6 9 5 20 -1 11 -5 20 -9 20 -3 0 -6
-9 -5 -20z"/>
<path d="M787 974 c-3 -4 -2 -14 3 -24 5 -10 7 -20 5 -24 -3 -3 -2 -4 2 -1 11
9 12 35 2 35 -6 0 -7 5 -4 10 7 11 2 13 -8 4z"/>
<path d="M944 951 c0 -16 3 -27 6 -25 7 8 7 54 0 54 -4 0 -7 -13 -6 -29z"/>
<path d="M1029 968 c-6 -20 -5 -38 2 -49 6 -10 8 -4 7 19 -2 27 -6 40 -9 30z"/>
<path d="M659 958 c-10 -33 1 -52 16 -28 3 6 1 10 -5 10 -6 0 -8 5 -5 10 3 6
4 10 1 10 -3 0 -6 -1 -7 -2z"/>
<path d="M978 953 c6 -2 18 -2 25 0 6 3 1 5 -13 5 -14 0 -19 -2 -12 -5z"/>
<path d="M1112 930 c0 -19 2 -27 5 -17 2 9 2 25 0 35 -3 9 -5 1 -5 -18z"/>
<path d="M2563 953 c-16 -6 -19 -273 -4 -273 6 0 11 61 13 140 2 77 3 140 3
139 0 0 -6 -3 -12 -6z"/>
<path d="M889 948 c-6 -15 -4 -58 3 -58 4 0 7 14 6 30 -2 26 -5 36 -9 28z"/>
<path d="M1192 920 c0 -19 2 -27 5 -17 2 9 2 25 0 35 -3 9 -5 1 -5 -18z"/>
<path d="M2173 943 c4 -3 3 -11 -3 -17 -6 -8 -3 -12 10 -12 15 0 16 4 9 18 -5
10 -13 18 -16 18 -3 0 -3 -3 0 -7z"/>
<path d="M548 933 c7 -3 16 -2 19 1 4 3 -2 6 -13 5 -11 0 -14 -3 -6 -6z"/>
<path d="M974 890 c1 -27 4 -50 8 -50 4 0 6 22 5 50 -3 65 -14 65 -13 0z"/>
<path d="M470 920 c-9 -6 -10 -10 -3 -10 6 0 15 5 18 10 8 12 4 12 -15 0z"/>
<path d="M730 920 c-9 -6 -10 -10 -3 -10 6 0 15 5 18 10 8 12 4 12 -15 0z"/>
<path d="M1213 858 c0 -40 -2 -94 -5 -121 -3 -26 -3 -49 1 -51 7 -5 8 7 14
152 2 50 0 92 -3 92 -4 0 -7 -33 -7 -72z"/>
<path d="M1387 923 c-4 -3 -6 -34 -6 -67 1 -34 4 -51 6 -38 2 12 12 22 21 23
15 0 15 1 -1 8 -10 4 -18 11 -18 16 0 5 8 12 18 16 16 7 16 8 1 8 -11 1 -16 8
-13 21 4 21 2 24 -8 13z"/>
<path d="M425 910 c-3 -6 1 -7 9 -4 18 7 21 14 7 14 -6 0 -13 -4 -16 -10z"/>
<path d="M550 910 c-11 -7 -11 -10 -2 -10 7 0 10 -4 7 -10 -3 -5 -2 -10 4 -10
5 0 9 9 8 20 -1 11 -1 20 -2 20 0 0 -7 -5 -15 -10z"/>
<path d="M699 918 c-7 -18 -3 -58 5 -58 6 0 4 -5 -4 -11 -12 -8 -12 -10 -1 -7
17 5 24 38 8 38 -7 0 -5 5 3 10 11 7 11 10 2 10 -7 0 -10 5 -7 10 3 6 4 10 1
10 -3 0 -6 -1 -7 -2z"/>
<path d="M829 918 c-6 -21 -5 -38 1 -38 5 0 8 9 7 20 -1 17 -5 26 -8 18z"/>
<path d="M1289 888 c0 -18 -2 -66 -4 -106 -2 -41 -1 -71 2 -69 7 7 15 207 9
207 -3 0 -6 -15 -7 -32z"/>
<path d="M1318 913 c6 -2 18 -2 25 0 6 3 1 5 -13 5 -14 0 -19 -2 -12 -5z"/>
<path d="M626 902 c-2 -4 -1 -14 3 -21 6 -9 11 -10 15 -2 4 6 2 11 -4 11 -6 0
-8 5 -5 10 3 6 4 10 1 10 -3 0 -7 -4 -10 -8z"/>
<path d="M764 880 c0 -16 4 -30 7 -30 4 0 6 14 5 30 0 17 -4 30 -7 30 -4 0 -6
-13 -5 -30z"/>
<path d="M1650 873 c-6 -21 -14 -45 -17 -53 -4 -8 -7 -18 -8 -22 -2 -5 -4 -11
-5 -15 -1 -5 -2 -12 -1 -17 1 -4 -6 -15 -16 -23 -16 -13 -16 -13 5 -3 12 6 23
15 23 20 2 13 6 29 8 33 2 1 4 12 7 25 2 13 11 36 19 52 8 16 11 31 6 35 -5 3
-15 -12 -21 -32z"/>
<path d="M430 890 c-9 -6 -10 -10 -3 -10 6 0 15 5 18 10 8 12 4 12 -15 0z"/>
<path d="M1318 893 c6 -2 18 -2 25 0 6 3 1 5 -13 5 -14 0 -19 -2 -12 -5z"/>
<path d="M1359 853 c0 -27 -2 -73 -4 -103 -2 -30 -1 -49 2 -42 2 6 13 12 23
12 15 0 17 -7 14 -36 -2 -20 -1 -34 2 -31 4 3 8 22 10 41 3 32 0 36 -20 36
-22 0 -23 2 -19 85 3 47 2 85 -1 85 -3 0 -6 -21 -7 -47z"/>
<path d="M1479 898 c0 -2 -3 -18 -5 -35 -5 -29 -2 -33 18 -32 17 0 19 2 7 7
-9 4 -15 18 -14 35 2 22 -2 36 -6 25z"/>
<path d="M1543 860 c0 -25 2 -35 4 -22 2 12 2 32 0 45 -2 12 -4 2 -4 -23z"/>
<path d="M2210 885 c-33 -40 -29 -136 7 -149 37 -15 80 67 63 120 -15 43 -47
57 -70 29z m56 -42 c9 -34 -15 -78 -41 -78 -15 0 -21 8 -23 32 -6 65 50 105
64 46z"/>
<path d="M375 880 c-19 -8 -19 -9 3 -9 16 -1 21 -5 16 -13 -4 -7 -3 -9 1 -5
11 9 16 37 7 36 -4 0 -16 -4 -27 -9z"/>
<path d="M519 888 c-7 -23 -5 -38 4 -38 7 0 6 -5 -3 -11 -12 -8 -12 -10 -1 -7
17 5 24 38 8 38 -7 0 -5 5 3 10 10 6 11 10 3 10 -7 0 -13 -1 -14 -2z"/>
<path d="M1059 888 c-6 -15 -4 -58 3 -58 4 0 8 14 8 30 0 24 -6 40 -11 28z"/>
<path d="M1139 878 c-4 -10 -5 -208 -1 -204 5 6 11 206 6 206 -2 0 -4 -1 -5
-2z"/>
<path d="M1318 873 c6 -2 18 -2 25 0 6 3 1 5 -13 5 -14 0 -19 -2 -12 -5z"/>
<path d="M1519 853 c0 -16 -2 -48 -4 -73 -1 -25 0 -39 2 -32 3 6 19 13 36 13
24 1 26 3 9 6 -12 2 -20 9 -16 14 3 5 0 8 -8 7 -10 -2 -12 9 -10 45 2 26 1 47
-2 47 -3 0 -6 -12 -7 -27z"/>
<path d="M919 868 c-6 -15 -4 -58 3 -58 4 0 8 14 8 30 0 24 -6 40 -11 28z"/>
<path d="M355 850 c-3 -6 1 -7 9 -4 18 7 21 14 7 14 -6 0 -13 -4 -16 -10z"/>
<path d="M599 858 c-7 -23 -5 -38 4 -38 7 0 6 -5 -3 -11 -12 -8 -12 -10 -1 -7
16 5 24 38 10 38 -6 0 -7 5 -4 10 3 6 4 10 1 10 -3 0 -6 -1 -7 -2z"/>
<path d="M858 831 c-3 -18 0 -30 5 -28 13 4 17 31 7 47 -5 7 -9 0 -12 -19z"/>
<path d="M1005 798 c1 -87 -8 -134 -26 -130 -8 2 -12 1 -9 -1 3 -3 7 -5 10 -5
3 -1 17 -5 33 -11 17 -7 27 -7 27 -1 0 6 -6 10 -14 10 -12 0 -14 19 -12 100 2
55 0 100 -4 100 -4 0 -6 -28 -5 -62z"/>
<path d="M669 848 c-7 -18 -3 -58 5 -58 6 0 4 -5 -4 -10 -11 -7 -11 -10 -2
-10 8 0 10 -5 6 -12 -4 -7 -3 -9 2 -5 12 12 13 57 0 57 -6 0 -4 5 4 10 11 7
11 10 2 10 -7 0 -10 5 -7 10 3 6 4 10 1 10 -3 0 -6 -1 -7 -2z"/>
<path d="M1452 820 c0 -19 2 -27 5 -17 2 9 2 25 0 35 -3 9 -5 1 -5 -18z"/>
<path d="M388 833 c7 -3 16 -2 19 1 4 3 -2 6 -13 5 -11 0 -14 -3 -6 -6z"/>
<path d="M475 830 c-3 -5 -1 -10 5 -10 6 0 8 -6 4 -12 -4 -7 -3 -9 1 -5 12 10
15 37 5 37 -5 0 -12 -4 -15 -10z"/>
<path d="M739 838 c-6 -14 -3 -78 3 -78 4 0 7 18 5 40 -2 35 -4 46 -8 38z"/>
<path d="M2482 825 c-30 -5 -51 -13 -48 -16 3 -3 -7 -4 -23 -1 -16 2 -31 -1
-35 -6 -4 -6 2 -8 14 -5 18 5 18 3 7 -28 -7 -19 -16 -37 -22 -41 -6 -5 -5 -8
3 -8 7 0 10 -5 7 -10 -4 -6 -1 -17 5 -25 6 -8 9 -19 5 -25 -12 -20 -25 -10
-25 21 0 16 -4 28 -9 24 -5 -3 -7 -18 -4 -33 3 -15 6 -32 6 -39 0 -6 6 -9 14
-6 7 3 13 -2 13 -12 0 -10 -5 -14 -12 -9 -7 4 -10 4 -6 -1 4 -4 3 -14 -3 -22
-14 -16 -1 -17 50 -3 20 5 54 14 76 20 34 8 40 13 41 37 1 15 -1 22 -3 16 -6
-15 -63 -17 -63 -3 0 6 14 13 30 17 17 3 30 11 30 19 0 11 -6 11 -32 -1 -35
-14 -46 -38 -29 -59 9 -10 8 -15 -5 -20 -24 -9 -26 -8 -22 16 2 11 -3 23 -9
25 -8 3 -13 -4 -13 -16 0 -11 -4 -23 -10 -26 -5 -3 -10 3 -10 15 0 25 25 54
39 45 6 -3 9 3 8 14 -1 15 -4 17 -19 8 -29 -19 -33 1 -5 27 32 29 33 39 10 62
-17 17 -17 18 0 11 11 -4 17 -2 17 7 0 8 14 15 35 18 19 2 35 0 35 -4 0 -4 -6
-8 -13 -8 -21 0 -50 -37 -44 -55 7 -18 77 -21 77 -4 0 8 -12 10 -35 6 -40 -7
-51 16 -12 27 33 9 44 7 27 -4 -10 -7 -11 -10 -2 -10 16 0 24 21 20 52 -3 23
-4 23 -56 13z m-55 -71 c2 -5 -3 -19 -12 -29 -14 -19 -14 -18 -15 13 0 31 18
42 27 16z"/>
<path d="M799 828 c-7 -17 -4 -58 4 -55 15 5 18 37 4 37 -7 0 -5 5 3 10 10 6
11 10 3 10 -7 0 -13 -1 -14 -2z"/>
<path d="M1411 823 c13 -3 16 -15 14 -61 -2 -37 0 -48 4 -32 4 14 12 24 18 23
5 -1 10 4 10 12 0 8 -5 13 -11 12 -6 -1 -9 10 -8 26 3 23 0 27 -20 26 -14 -1
-17 -3 -7 -6z"/>
<path d="M1059 813 c-1 -5 -2 -45 -3 -90 -2 -78 -1 -83 18 -82 15 1 16 3 5 6
-13 3 -15 17 -12 88 3 47 2 85 -1 85 -3 0 -6 -3 -7 -7z"/>
<path d="M1168 813 c6 -2 18 -2 25 0 6 3 1 5 -13 5 -14 0 -19 -2 -12 -5z"/>
<path d="M315 800 c-3 -5 -1 -10 4 -10 6 0 11 5 11 10 0 6 -2 10 -4 10 -3 0
-8 -4 -11 -10z"/>
<path d="M555 800 c-3 -5 -2 -10 2 -10 5 0 9 -11 9 -25 0 -19 -5 -25 -20 -25
-17 0 -18 2 -6 10 9 6 10 10 3 10 -15 0 -26 -17 -15 -24 5 -3 29 -8 53 -10 24
-3 35 -3 24 0 -26 8 -33 20 -30 55 3 29 -8 39 -20 19z"/>
<path d="M408 793 c7 -3 16 -2 19 1 4 3 -2 6 -13 5 -11 0 -14 -3 -6 -6z"/>
<path d="M913 785 c0 -8 4 -15 9 -15 4 0 8 7 8 15 0 8 -4 15 -8 15 -5 0 -9 -7
-9 -15z"/>
<path d="M2590 790 c0 -5 5 -10 11 -10 5 0 7 5 4 10 -3 6 -8 10 -11 10 -2 0
-4 -4 -4 -10z"/>
<path d="M449 783 c-1 -5 -1 -11 0 -15 0 -5 -8 -8 -20 -8 -11 0 -18 4 -15 8 2
4 -12 6 -32 3 -34 -4 -31 -5 33 -17 38 -8 75 -16 82 -18 7 -3 13 -1 13 4 0 6
-12 10 -26 10 -14 0 -23 4 -19 10 3 6 0 10 -7 10 -9 0 -9 3 2 10 10 6 11 10 3
10 -7 0 -14 -3 -14 -7z"/>
<path d="M945 781 c-3 -5 -2 -12 3 -15 5 -3 9 1 9 9 0 17 -3 19 -12 6z"/>
<path d="M310 776 c0 -2 7 -7 16 -10 8 -3 12 -2 9 4 -6 10 -25 14 -25 6z"/>
<path d="M1183 765 c0 -8 4 -15 9 -15 4 0 8 7 8 15 0 8 -4 15 -8 15 -5 0 -9
-7 -9 -15z"/>
<path d="M838 763 c6 -2 18 -2 25 0 6 3 1 5 -13 5 -14 0 -19 -2 -12 -5z"/>
<path d="M637 753 c-9 -20 1 -37 26 -44 15 -4 27 -3 27 2 0 5 -9 9 -21 9 -11
0 -17 5 -14 10 3 6 0 10 -7 10 -9 0 -9 3 2 10 9 6 10 10 3 10 -6 0 -14 -3 -16
-7z"/>
<path d="M1490 751 c0 -5 -12 -12 -27 -14 l-28 -4 27 -2 c23 -1 26 -5 22 -26
-4 -21 -1 -25 21 -25 18 0 24 -4 19 -12 -5 -8 0 -7 11 2 17 14 17 15 -12 18
-29 3 -30 5 -26 38 3 18 2 34 -1 34 -3 0 -6 -4 -6 -9z"/>
<path d="M838 743 c6 -2 18 -2 25 0 6 3 1 5 -13 5 -14 0 -19 -2 -12 -5z"/>
<path d="M949 748 c-5 -14 -5 -88 0 -88 4 0 7 20 7 45 0 38 -3 53 -7 43z"/>
<path d="M1259 743 c-6 -55 -7 -116 -1 -107 4 6 14 14 22 17 13 4 12 6 -1 6
-14 1 -16 10 -13 46 3 25 2 45 -1 45 -3 0 -5 -3 -6 -7z"/>
<path d="M1538 743 c7 -3 16 -2 19 1 4 3 -2 6 -13 5 -11 0 -14 -3 -6 -6z"/>
<path d="M2355 740 c-3 -6 1 -7 9 -4 18 7 21 14 7 14 -6 0 -13 -4 -16 -10z"/>
<path d="M2592 725 c0 -16 2 -22 5 -12 2 9 2 23 0 30 -3 6 -5 -1 -5 -18z"/>
<path d="M1330 730 c0 -5 -8 -10 -17 -11 -16 0 -16 -1 -2 -7 11 -5 15 -18 13
-40 -1 -19 0 -31 3 -29 7 8 15 97 8 97 -3 0 -5 -4 -5 -10z"/>
<path d="M705 719 c-10 -15 -4 -18 50 -24 27 -4 53 -9 58 -12 6 -3 7 -1 3 5
-4 7 -16 12 -27 12 -13 0 -18 4 -13 13 5 9 4 9 -5 1 -14 -13 -64 -6 -55 7 3 5
3 9 0 9 -3 0 -8 -5 -11 -11z"/>
<path d="M1088 723 c6 -2 18 -2 25 0 6 3 1 5 -13 5 -14 0 -19 -2 -12 -5z"/>
<path d="M2155 699 c-4 -11 -4 -23 -1 -26 3 -4 6 1 6 11 0 9 4 14 10 11 6 -3
7 1 4 9 -8 21 -11 20 -19 -5z"/>
<path d="M281 691 c3 -7 9 -13 14 -13 6 -1 26 -5 45 -9 53 -12 146 -22 139
-15 -7 7 -25 11 -118 27 -36 5 -69 13 -74 16 -5 3 -8 0 -6 -6z"/>
<path d="M845 680 c28 -12 37 -12 30 0 -3 6 -16 10 -28 9 -21 0 -21 -1 -2 -9z"/>
<path d="M1104 665 c2 -35 11 -39 12 -4 1 16 -2 29 -6 29 -4 0 -6 -11 -6 -25z"/>
<path d="M2576 678 c-17 -9 -17 -12 -4 -22 8 -6 17 -18 20 -26 4 -8 6 2 5 23
0 20 -1 37 -1 37 -1 0 -10 -6 -20 -12z"/>
<path d="M890 676 c0 -2 9 -6 20 -9 11 -3 20 -1 20 4 0 5 -9 9 -20 9 -11 0
-20 -2 -20 -4z"/>
<path d="M1180 671 c0 -5 -8 -12 -17 -14 -17 -4 -17 -5 0 -6 10 0 15 -6 12
-11 -4 -6 -12 -7 -18 -4 -7 4 -8 3 -4 -1 17 -19 33 -12 35 16 1 16 0 29 -3 29
-3 0 -5 -4 -5 -9z"/>
<path d="M1633 665 c0 -8 4 -12 9 -9 5 3 6 10 3 15 -9 13 -12 11 -12 -6z"/>
<path d="M1370 661 c0 -5 -8 -12 -17 -14 -16 -4 -16 -5 -1 -6 12 -1 15 -8 12
-26 -3 -16 0 -25 8 -26 7 0 21 -2 31 -4 12 -2 17 3 16 18 0 12 -3 16 -6 10 -2
-7 -13 -13 -23 -13 -15 0 -17 6 -13 35 3 19 2 35 -1 35 -3 0 -6 -4 -6 -9z"/>
<path d="M1300 651 c0 -5 -8 -12 -17 -14 -17 -4 -17 -5 0 -6 10 0 15 -6 12
-11 -4 -6 -12 -7 -18 -4 -7 4 -8 3 -4 -1 4 -5 20 -10 35 -11 15 -1 19 0 10 2
-11 4 -15 13 -12 30 2 13 2 24 -1 24 -3 0 -5 -4 -5 -9z"/>
<path d="M1422 653 c12 -3 15 -12 12 -31 -3 -15 -2 -24 1 -21 3 4 8 18 11 33
4 22 1 26 -18 25 -16 -1 -18 -3 -6 -6z"/>
<path d="M1571 644 c0 -11 3 -14 6 -6 3 7 2 16 -1 19 -3 4 -6 -2 -5 -13z"/>
<path d="M2169 641 c13 -12 28 -21 34 -21 12 0 11 0 -28 24 l-30 17 24 -20z"/>
<path d="M1213 643 c9 -2 15 -8 12 -13 -3 -5 -2 -11 3 -14 4 -2 9 4 9 15 1 14
-4 19 -20 18 -17 -1 -18 -2 -4 -6z"/>
<path d="M1502 630 c0 -14 2 -19 5 -12 2 6 2 18 0 25 -3 6 -5 1 -5 -13z"/>
<path d="M2550 570 l0 -79 -37 -10 c-21 -6 -44 -11 -51 -11 -7 0 -11 -4 -8 -9
4 -5 26 -3 53 5 42 13 46 13 33 0 -21 -20 -90 -32 -90 -16 0 9 -9 10 -32 5
-46 -10 -118 -13 -118 -5 0 4 15 11 33 14 29 6 30 8 15 20 -19 14 -24 46 -8
46 6 0 10 6 10 14 0 9 -7 12 -20 9 -15 -4 -20 -14 -20 -38 0 -18 6 -36 13 -39
6 -3 -2 -3 -19 0 -22 3 -37 -1 -55 -16 l-24 -20 29 6 c19 5 27 3 23 -3 -9 -14
-47 -24 -47 -12 0 5 -8 9 -17 9 -15 0 -15 1 2 14 12 8 16 20 12 35 -3 12 -1
19 5 15 13 -9 60 5 53 16 -3 5 -1 11 5 15 5 3 10 11 10 16 0 6 -7 3 -16 -5 -8
-9 -20 -16 -25 -16 -6 0 -8 -4 -5 -8 3 -5 -8 -9 -24 -9 -36 0 -38 9 -7 30 17
11 19 18 10 27 -8 9 -16 9 -30 1 -16 -11 -16 -11 5 -6 12 4 22 2 22 -2 0 -5
-26 -15 -57 -23 -37 -10 -58 -20 -59 -30 -3 -52 -3 -52 -31 -47 -15 3 -36 1
-45 -4 -14 -8 -18 -6 -18 8 0 14 -2 15 -12 4 -11 -10 -10 -15 3 -24 9 -7 19
-21 22 -32 4 -16 5 -15 6 5 1 20 7 26 26 28 14 1 25 -2 25 -7 0 -5 2 -16 5
-23 4 -10 -6 -18 -33 -26 -55 -17 -60 -15 -55 12 3 16 -2 33 -16 48 -15 16
-20 30 -16 48 5 23 4 23 -8 8 -17 -21 -58 -28 -64 -10 -3 6 1 12 9 12 7 1 31
10 53 21 l40 20 -35 -6 c-57 -10 -68 -15 -74 -32 -4 -8 -1 -22 5 -29 8 -10 8
-14 0 -14 -6 0 -11 -9 -11 -19 0 -11 -4 -22 -9 -26 -9 -5 -4 -34 14 -77 9 -24
50 -23 74 1 11 11 21 18 23 15 5 -4 88 17 123 31 19 8 19 8 3 -12 -10 -11 -18
-27 -18 -35 0 -12 -28 -24 -105 -45 -62 -16 -105 -33 -105 -40 0 -17 6 -16 70
7 30 11 71 23 90 26 19 3 44 11 55 17 11 6 31 12 44 13 12 2 61 15 107 29 46
14 92 28 102 30 10 2 36 11 58 20 35 15 75 25 112 27 6 1 12 5 12 10 0 5 9 7
19 3 23 -7 34 19 34 75 -1 62 -6 66 -13 10 -6 -51 -7 -49 -8 33 -2 111 -22
118 -22 7z m-359 -74 c15 -31 -8 -81 -36 -81 -30 0 -43 47 -21 79 21 32 43 33
57 2z m-226 -46 c34 -38 -11 -122 -49 -91 -20 17 -20 60 0 89 19 27 26 27 49
2z m335 14 c0 -8 -19 -13 -24 -6 -3 5 1 9 9 9 8 0 15 -2 15 -3z m280 2 c0 -3
-4 -8 -10 -11 -5 -3 -10 -1 -10 4 0 6 5 11 10 11 6 0 10 -2 10 -4z m-191 -48
c-94 -32 -270 -77 -264 -67 4 5 0 9 -7 9 -19 0 23 26 54 33 14 4 33 10 42 13
9 3 16 2 16 -4 0 -5 -21 -15 -46 -21 -26 -7 -44 -14 -41 -17 11 -11 82 19 109
47 25 24 34 27 77 23 27 -2 59 0 72 5 13 5 28 6 33 3 6 -3 -15 -14 -45 -24z
m-169 8 c0 -3 -4 -8 -10 -11 -5 -3 -10 -1 -10 4 0 6 5 11 10 11 6 0 10 -2 10
-4z"/>
<path d="M2149 498 c-1 -7 -1 -22 0 -33 2 -17 0 -17 -8 -5 -12 17 -14 10 -5
-14 3 -9 14 -16 23 -15 9 0 11 3 5 5 -6 3 -9 16 -6 29 2 14 9 22 14 18 6 -3 9
0 6 7 -6 19 -28 25 -29 8z"/>
<path d="M1930 442 c0 -4 9 -13 21 -20 19 -12 19 -11 9 8 -10 19 -30 28 -30
12z"/>
<path d="M1930 404 c0 -8 5 -12 10 -9 6 4 8 11 5 16 -9 14 -15 11 -15 -7z"/>
<path d="M553 633 c9 -2 25 -2 35 0 9 3 1 5 -18 5 -19 0 -27 -2 -17 -5z"/>
<path d="M1625 629 c-4 -6 -5 -12 -2 -15 2 -3 7 2 10 11 7 17 1 20 -8 4z"/>
<path d="M2340 630 c0 -5 -7 -7 -15 -4 -10 4 -15 0 -15 -15 0 -12 5 -21 11
-21 5 0 7 6 3 13 -6 9 -4 9 6 0 12 -11 11 -15 -6 -27 -18 -15 -18 -15 3 -10
16 5 21 13 21 40 0 19 -2 34 -4 34 -2 0 -4 -4 -4 -10z"/>
<path d="M623 623 c9 -2 23 -2 30 0 6 3 -1 5 -18 5 -16 0 -22 -2 -12 -5z"/>
<path d="M759 597 c5 -5 19 -7 32 -5 20 3 19 5 -9 9 -20 3 -29 2 -23 -4z"/>
<path d="M1473 590 c-2 -24 13 -26 35 -3 15 15 15 16 1 11 -9 -4 -21 -2 -26 3
-5 5 -9 1 -10 -11z"/>
<path d="M1550 597 c0 -9 4 -18 9 -21 5 -4 8 1 7 9 -3 21 -16 31 -16 12z"/>
<path d="M2163 593 c-7 -2 -13 -9 -13 -15 0 -12 50 -2 65 13 10 10 -30 12 -52
2z"/>
<path d="M2520 590 c0 -5 -6 -7 -12 -5 -7 3 -35 -2 -63 -9 -27 -8 -43 -15 -35
-15 8 -1 32 4 54 10 27 8 41 8 49 0 6 -6 7 -11 2 -12 -6 0 -19 -3 -30 -6 -11
-2 -32 -5 -47 -6 -14 -1 -24 -5 -22 -9 2 -3 0 -8 -6 -10 -5 -1 11 -3 38 -4 35
-1 42 1 27 8 -14 6 -10 7 15 3 23 -3 30 -2 21 4 -11 7 -10 10 4 12 18 4 30 49
13 49 -4 0 -8 -4 -8 -10z"/>
<path d="M2103 565 c-8 -22 -3 -24 42 -15 31 6 24 16 -7 11 -5 0 -8 4 -8 9 0
16 -20 12 -27 -5z"/>
<path d="M1595 560 c-3 -5 -1 -10 4 -10 6 0 11 5 11 10 0 6 -2 10 -4 10 -3 0
-8 -4 -11 -10z"/>
<path d="M2030 560 c-20 -6 -21 -8 -5 -8 11 0 29 3 40 8 25 11 -1 11 -35 0z"/>
<path d="M2265 560 c-3 -5 -1 -10 4 -10 6 0 11 5 11 10 0 6 -2 10 -4 10 -3 0
-8 -4 -11 -10z"/>
<path d="M2356 535 c-20 -30 -11 -49 20 -43 17 3 18 7 8 36 l-11 34 -17 -27z
m19 -33 c-3 -3 -11 0 -18 7 -9 10 -8 11 6 5 10 -3 15 -9 12 -12z"/>
<path d="M1250 516 c0 -2 8 -10 18 -17 15 -13 16 -12 3 4 -13 16 -21 21 -21
13z"/>
<path d="M1517 500 c-3 -11 -3 -20 -1 -20 2 0 8 9 14 20 6 11 7 20 2 20 -6 0
-12 -9 -15 -20z"/>
<path d="M2420 510 c-12 -8 -9 -9 12 -8 15 1 24 6 22 10 -7 10 -16 10 -34 -2z"/>
<path d="M1300 500 c0 -6 7 -10 15 -10 8 0 15 2 15 4 0 2 -7 6 -15 10 -8 3
-15 1 -15 -4z"/>
<path d="M2494 500 c-6 -6 -25 -12 -42 -13 -17 -1 -28 -5 -23 -10 7 -7 111 19
111 28 0 9 -36 5 -46 -5z"/>
<path d="M1581 484 c0 -11 3 -14 6 -6 3 7 2 16 -1 19 -3 4 -6 -2 -5 -13z"/>
<path d="M2070 486 c0 -9 5 -16 10 -16 6 0 10 4 10 9 0 6 -4 13 -10 16 -5 3
-10 -1 -10 -9z"/>
<path d="M1405 480 c7 -11 45 -20 45 -10 0 4 -11 10 -25 12 -13 3 -22 2 -20
-2z"/>
<path d="M1475 470 c-3 -5 1 -10 10 -10 9 0 13 5 10 10 -3 6 -8 10 -10 10 -2
0 -7 -4 -10 -10z"/>
<path d="M2378 473 c6 -2 18 -2 25 0 6 3 1 5 -13 5 -14 0 -19 -2 -12 -5z"/>
<path d="M1540 421 c0 -5 9 -11 21 -14 16 -4 18 -3 8 9 -13 16 -29 19 -29 5z"/>
<path d="M2060 410 c-8 -5 -10 -10 -5 -10 6 0 17 5 25 10 8 5 11 10 5 10 -5 0
-17 -5 -25 -10z"/>
<path d="M1615 1700 c10 -11 20 -18 23 -15 7 6 -18 35 -31 35 -5 0 -2 -9 8
-20z"/>
<path d="M1570 1666 c0 -2 8 -10 18 -17 15 -13 16 -12 3 4 -13 16 -21 21 -21
13z"/>
<path d="M1680 1695 c13 -14 25 -25 27 -25 2 0 -4 11 -13 25 -9 14 -21 25 -27
25 -6 0 0 -11 13 -25z"/>
<path d="M484 389 c-3 -6 0 -15 7 -20 20 -12 31 -11 23 2 -3 6 0 15 7 20 11 6
8 9 -8 9 -12 0 -25 -5 -29 -11z"/>
</g>
</svg>
